M48
INCH,TZ
T1C0.020
T2C0.024
T3C0.031
T4C0.032
T5C0.032
T6C0.039
T7C0.039
T8C0.039
T9C0.040
T10C0.053
T11C0.060
T12C0.126
%
G90
G05
T1
X54800Y-31347
X54800Y-33547
X54800Y-35747
X54800Y-37947
X55800Y-31347
X55800Y-33547
X55800Y-35747
X55800Y-37947
X56800Y-31347
X56800Y-33547
X56800Y-35747
X56800Y-37947
T2
X48890Y-35400
X49390Y-35400
X49890Y-35400
X60700Y-41550
X61200Y-41550
X61700Y-41550
T3
X38981Y-47050
X39900Y-25950
X40900Y-31250
X40900Y-33219
X40900Y-37681
X40900Y-39650
X40950Y-47050
X41278Y-25950
X43100Y-30650
X43100Y-33650
X43100Y-37150
X43100Y-40150
X43100Y-43250
X43100Y-46250
X44100Y-30650
X44100Y-33650
X44100Y-37150
X44100Y-40150
X44100Y-43250
X44100Y-46250
X45100Y-30650
X45100Y-33650
X45100Y-37150
X45100Y-40150
X45100Y-43250
X45100Y-46250
X46100Y-30650
X46100Y-33650
X46100Y-37150
X46100Y-40150
X46100Y-43250
X46100Y-46250
X47100Y-30650
X47100Y-33650
X47100Y-37150
X47100Y-40150
X47100Y-43250
X47100Y-46250
X48100Y-30650
X48100Y-33650
X48100Y-37150
X48100Y-40150
X48100Y-43250
X48100Y-46250
X48131Y-41550
X48200Y-25950
X49100Y-30650
X49100Y-33650
X49100Y-37150
X49100Y-40150
X49100Y-43250
X49100Y-46250
X49578Y-25950
X50100Y-41550
X50100Y-43250
X50100Y-46250
X51100Y-43250
X51100Y-46250
X51131Y-30050
X52100Y-43250
X52100Y-46250
X52816Y-40200
X53100Y-30050
X53100Y-43250
X53100Y-46250
X53800Y-40200
X54100Y-43250
X54100Y-46250
X54550Y-41550
X55100Y-43250
X55100Y-46250
X56000Y-25950
X56100Y-43250
X56100Y-46250
X56519Y-41550
X57378Y-25950
X58350Y-45266
X58350Y-46250
X59800Y-31050
X59800Y-32050
X59800Y-33050
X59800Y-34050
X59800Y-35050
X59800Y-36050
X59800Y-37050
X60200Y-39950
X60200Y-43000
X60231Y-28750
X62169Y-39950
X62169Y-43000
X62200Y-28750
X62800Y-31050
X62800Y-32050
X62800Y-33050
X62800Y-34050
X62800Y-35050
X62800Y-36050
X62800Y-37050
X63800Y-25950
X65178Y-25950
T4
X43100Y-28750
X43100Y-35550
X44100Y-28750
X44100Y-35550
X45100Y-28750
X45100Y-35550
X45700Y-18766
X45700Y-20734
X46100Y-28750
X46100Y-35550
X47100Y-28750
X47100Y-35550
X48100Y-28750
X49100Y-28750
X50100Y-28750
X51600Y-28750
X51600Y-31350
X51600Y-32350
X51600Y-33350
X51600Y-34350
X51600Y-35350
X51600Y-37550
X51600Y-38550
X51600Y-39550
X51600Y-40550
X51600Y-41550
X52600Y-28750
X52900Y-18766
X52900Y-20734
X53000Y-31350
X53000Y-32350
X53000Y-33350
X53000Y-34350
X53000Y-35350
X53000Y-36350
X53000Y-37350
X53000Y-38350
X53600Y-28750
X54600Y-28750
X55600Y-28750
X60100Y-18766
X60100Y-20734
X67300Y-18866
X67300Y-20834
T5
X47550Y-47900
X47550Y-48900
X49550Y-47900
X49550Y-48900
X51500Y-47900
X51500Y-48900
T6
X43150Y-48300
X44150Y-48300
X45150Y-48300
X60200Y-45250
X60200Y-48300
X61200Y-45250
X61200Y-48300
X62200Y-45250
X62200Y-48300
T7
X41700Y-23449
X45700Y-23449
X48900Y-23449
X52900Y-23449
X56100Y-23449
X60100Y-23449
X63300Y-23449
X67300Y-23449
T8
X41700Y-17950
X41700Y-21950
X43100Y-17950
X43100Y-21950
X43500Y-25950
X44500Y-25950
X45500Y-25950
X48900Y-17950
X48900Y-21950
X50300Y-17950
X50300Y-21950
X51800Y-25950
X52800Y-25950
X53800Y-25950
X56100Y-17950
X56100Y-21950
X57500Y-17950
X57500Y-21950
X59600Y-25950
X60600Y-25950
X61600Y-25950
X63300Y-17850
X63300Y-21850
X64600Y-17850
X64600Y-21850
X67400Y-25950
X68400Y-25950
X69400Y-25950
T9
X42100Y-41550
X43100Y-41550
X44100Y-41550
X45100Y-41550
X53100Y-47850
X53100Y-48850
X54100Y-47850
X54100Y-48850
X55100Y-47850
X55100Y-48850
T10
X65300Y-30034
X65300Y-36066
X67300Y-30034
X67300Y-36066
T11
X41700Y-13950
X43700Y-13950
X48900Y-13950
X50900Y-13950
X56100Y-13950
X58100Y-13950
X63300Y-13950
X65300Y-13950
T12
X39173Y-16479
X39173Y-44629
X67323Y-16479
X67323Y-44629
T8
X65459Y-41194G85X65459Y-40407
G05
X67034Y-38950G85X66247Y-38950
G05
X67821Y-41194G85X67821Y-40407
G05
T0
M30
