G04 #@! TF.FileFunction,Legend,Top*
%FSLAX46Y46*%
G04 Gerber Fmt 4.6, Leading zero omitted, Abs format (unit mm)*
G04 Created by KiCad (PCBNEW 4.0.4-1.fc24-product) date Sun Dec 11 17:37:08 2016*
%MOMM*%
%LPD*%
G01*
G04 APERTURE LIST*
%ADD10C,0.100000*%
%ADD11C,0.300000*%
%ADD12C,0.200000*%
%ADD13C,0.150000*%
%ADD14C,0.317500*%
%ADD15C,0.304800*%
%ADD16C,0.010000*%
%ADD17C,0.203200*%
G04 APERTURE END LIST*
D10*
D11*
X142426715Y-123233571D02*
X142426715Y-121733571D01*
X143069572Y-123162143D02*
X143283858Y-123233571D01*
X143641001Y-123233571D01*
X143783858Y-123162143D01*
X143855287Y-123090714D01*
X143926715Y-122947857D01*
X143926715Y-122805000D01*
X143855287Y-122662143D01*
X143783858Y-122590714D01*
X143641001Y-122519286D01*
X143355287Y-122447857D01*
X143212429Y-122376429D01*
X143141001Y-122305000D01*
X143069572Y-122162143D01*
X143069572Y-122019286D01*
X143141001Y-121876429D01*
X143212429Y-121805000D01*
X143355287Y-121733571D01*
X143712429Y-121733571D01*
X143926715Y-121805000D01*
X144569572Y-123233571D02*
X144569572Y-121733571D01*
X145141000Y-121733571D01*
X145283858Y-121805000D01*
X145355286Y-121876429D01*
X145426715Y-122019286D01*
X145426715Y-122233571D01*
X145355286Y-122376429D01*
X145283858Y-122447857D01*
X145141000Y-122519286D01*
X144569572Y-122519286D01*
D12*
X160782000Y-42291000D02*
X160782000Y-39497000D01*
X165608000Y-42291000D02*
X165608000Y-39497000D01*
X162306000Y-43815000D02*
X163830000Y-42291000D01*
X162306000Y-40767000D02*
X162306000Y-43815000D01*
X163830000Y-42291000D02*
X162306000Y-40767000D01*
X163830000Y-40513000D02*
X163830000Y-44069000D01*
X160782000Y-42291000D02*
X165608000Y-42291000D01*
X160782000Y-42291000D02*
X165608000Y-42291000D01*
X163830000Y-40513000D02*
X163830000Y-44069000D01*
X163830000Y-42291000D02*
X162306000Y-40767000D01*
X162306000Y-40767000D02*
X162306000Y-43815000D01*
X162306000Y-43815000D02*
X163830000Y-42291000D01*
X165608000Y-42291000D02*
X165608000Y-39497000D01*
X160782000Y-42291000D02*
X160782000Y-39497000D01*
X124206000Y-42291000D02*
X124206000Y-39497000D01*
X129032000Y-42291000D02*
X129032000Y-39497000D01*
X125730000Y-43815000D02*
X127254000Y-42291000D01*
X125730000Y-40767000D02*
X125730000Y-43815000D01*
X127254000Y-42291000D02*
X125730000Y-40767000D01*
X127254000Y-40513000D02*
X127254000Y-44069000D01*
X124206000Y-42291000D02*
X129032000Y-42291000D01*
X124206000Y-42291000D02*
X129032000Y-42291000D01*
X127254000Y-40513000D02*
X127254000Y-44069000D01*
X127254000Y-42291000D02*
X125730000Y-40767000D01*
X125730000Y-40767000D02*
X125730000Y-43815000D01*
X125730000Y-43815000D02*
X127254000Y-42291000D01*
X129032000Y-42291000D02*
X129032000Y-39497000D01*
X124206000Y-42291000D02*
X124206000Y-39497000D01*
X142748000Y-42291000D02*
X142748000Y-39497000D01*
X147574000Y-42291000D02*
X147574000Y-39497000D01*
X144272000Y-43815000D02*
X145796000Y-42291000D01*
X144272000Y-40767000D02*
X144272000Y-43815000D01*
X145796000Y-42291000D02*
X144272000Y-40767000D01*
X145796000Y-40513000D02*
X145796000Y-44069000D01*
X142748000Y-42291000D02*
X147574000Y-42291000D01*
X142748000Y-42291000D02*
X147574000Y-42291000D01*
X145796000Y-40513000D02*
X145796000Y-44069000D01*
X145796000Y-42291000D02*
X144272000Y-40767000D01*
X144272000Y-40767000D02*
X144272000Y-43815000D01*
X144272000Y-43815000D02*
X145796000Y-42291000D01*
X147574000Y-42291000D02*
X147574000Y-39497000D01*
X142748000Y-42291000D02*
X142748000Y-39497000D01*
X106172000Y-42291000D02*
X106172000Y-39497000D01*
X110998000Y-42291000D02*
X110998000Y-39497000D01*
X107696000Y-43815000D02*
X109220000Y-42291000D01*
X107696000Y-40767000D02*
X107696000Y-43815000D01*
X109220000Y-42291000D02*
X107696000Y-40767000D01*
X109220000Y-40513000D02*
X109220000Y-44069000D01*
X106172000Y-42291000D02*
X110998000Y-42291000D01*
D11*
X174917571Y-98575857D02*
X173417571Y-98575857D01*
X173417571Y-98218714D01*
X173489000Y-98004429D01*
X173631857Y-97861571D01*
X173774714Y-97790143D01*
X174060429Y-97718714D01*
X174274714Y-97718714D01*
X174560429Y-97790143D01*
X174703286Y-97861571D01*
X174846143Y-98004429D01*
X174917571Y-98218714D01*
X174917571Y-98575857D01*
X174774714Y-96218714D02*
X174846143Y-96290143D01*
X174917571Y-96504429D01*
X174917571Y-96647286D01*
X174846143Y-96861571D01*
X174703286Y-97004429D01*
X174560429Y-97075857D01*
X174274714Y-97147286D01*
X174060429Y-97147286D01*
X173774714Y-97075857D01*
X173631857Y-97004429D01*
X173489000Y-96861571D01*
X173417571Y-96647286D01*
X173417571Y-96504429D01*
X173489000Y-96290143D01*
X173560429Y-96218714D01*
X174917571Y-94433000D02*
X173417571Y-94433000D01*
X174917571Y-93718714D02*
X173417571Y-93718714D01*
X174917571Y-92861571D01*
X173417571Y-92861571D01*
X175967571Y-98718714D02*
X175967571Y-97718714D01*
X177467571Y-98361571D01*
X176896143Y-97147286D02*
X176896143Y-96004429D01*
X176110429Y-95361572D02*
X176039000Y-95290143D01*
X175967571Y-95147286D01*
X175967571Y-94790143D01*
X176039000Y-94647286D01*
X176110429Y-94575857D01*
X176253286Y-94504429D01*
X176396143Y-94504429D01*
X176610429Y-94575857D01*
X177467571Y-95433000D01*
X177467571Y-94504429D01*
X175967571Y-93147286D02*
X175967571Y-93861572D01*
X176681857Y-93933001D01*
X176610429Y-93861572D01*
X176539000Y-93718715D01*
X176539000Y-93361572D01*
X176610429Y-93218715D01*
X176681857Y-93147286D01*
X176824714Y-93075858D01*
X177181857Y-93075858D01*
X177324714Y-93147286D01*
X177396143Y-93218715D01*
X177467571Y-93361572D01*
X177467571Y-93718715D01*
X177396143Y-93861572D01*
X177324714Y-93933001D01*
X175967571Y-92647287D02*
X177467571Y-92147287D01*
X175967571Y-91647287D01*
X102509143Y-121860571D02*
X102509143Y-123074857D01*
X102580571Y-123217714D01*
X102652000Y-123289143D01*
X102794857Y-123360571D01*
X103080571Y-123360571D01*
X103223429Y-123289143D01*
X103294857Y-123217714D01*
X103366286Y-123074857D01*
X103366286Y-121860571D01*
X104009143Y-122932000D02*
X104723429Y-122932000D01*
X103866286Y-123360571D02*
X104366286Y-121860571D01*
X104866286Y-123360571D01*
X106223429Y-123360571D02*
X105723429Y-122646286D01*
X105366286Y-123360571D02*
X105366286Y-121860571D01*
X105937714Y-121860571D01*
X106080572Y-121932000D01*
X106152000Y-122003429D01*
X106223429Y-122146286D01*
X106223429Y-122360571D01*
X106152000Y-122503429D01*
X106080572Y-122574857D01*
X105937714Y-122646286D01*
X105366286Y-122646286D01*
X106652000Y-121860571D02*
X107509143Y-121860571D01*
X107080572Y-123360571D02*
X107080572Y-121860571D01*
D12*
X105918095Y-124674381D02*
X106489524Y-124674381D01*
X106203809Y-125674381D02*
X106203809Y-124674381D01*
X106727619Y-124674381D02*
X107394286Y-125674381D01*
X107394286Y-124674381D02*
X106727619Y-125674381D01*
X104100334Y-125674381D02*
X103767000Y-125198190D01*
X103528905Y-125674381D02*
X103528905Y-124674381D01*
X103909858Y-124674381D01*
X104005096Y-124722000D01*
X104052715Y-124769619D01*
X104100334Y-124864857D01*
X104100334Y-125007714D01*
X104052715Y-125102952D01*
X104005096Y-125150571D01*
X103909858Y-125198190D01*
X103528905Y-125198190D01*
X104433667Y-124674381D02*
X105100334Y-125674381D01*
X105100334Y-124674381D02*
X104433667Y-125674381D01*
D11*
X95903571Y-107857000D02*
X96903571Y-107857000D01*
X95332143Y-108214143D02*
X96403571Y-108571286D01*
X96403571Y-107642714D01*
X96760714Y-105071286D02*
X96832143Y-105142715D01*
X96903571Y-105357001D01*
X96903571Y-105499858D01*
X96832143Y-105714143D01*
X96689286Y-105857001D01*
X96546429Y-105928429D01*
X96260714Y-105999858D01*
X96046429Y-105999858D01*
X95760714Y-105928429D01*
X95617857Y-105857001D01*
X95475000Y-105714143D01*
X95403571Y-105499858D01*
X95403571Y-105357001D01*
X95475000Y-105142715D01*
X95546429Y-105071286D01*
X96903571Y-104428429D02*
X95403571Y-104428429D01*
X96903571Y-103785572D02*
X96117857Y-103785572D01*
X95975000Y-103857001D01*
X95903571Y-103999858D01*
X95903571Y-104214143D01*
X95975000Y-104357001D01*
X96046429Y-104428429D01*
X96903571Y-102428429D02*
X96117857Y-102428429D01*
X95975000Y-102499858D01*
X95903571Y-102642715D01*
X95903571Y-102928429D01*
X95975000Y-103071286D01*
X96832143Y-102428429D02*
X96903571Y-102571286D01*
X96903571Y-102928429D01*
X96832143Y-103071286D01*
X96689286Y-103142715D01*
X96546429Y-103142715D01*
X96403571Y-103071286D01*
X96332143Y-102928429D01*
X96332143Y-102571286D01*
X96260714Y-102428429D01*
X95903571Y-101714143D02*
X96903571Y-101714143D01*
X96046429Y-101714143D02*
X95975000Y-101642715D01*
X95903571Y-101499857D01*
X95903571Y-101285572D01*
X95975000Y-101142715D01*
X96117857Y-101071286D01*
X96903571Y-101071286D01*
X95903571Y-100357000D02*
X96903571Y-100357000D01*
X96046429Y-100357000D02*
X95975000Y-100285572D01*
X95903571Y-100142714D01*
X95903571Y-99928429D01*
X95975000Y-99785572D01*
X96117857Y-99714143D01*
X96903571Y-99714143D01*
X96832143Y-98428429D02*
X96903571Y-98571286D01*
X96903571Y-98857000D01*
X96832143Y-98999857D01*
X96689286Y-99071286D01*
X96117857Y-99071286D01*
X95975000Y-98999857D01*
X95903571Y-98857000D01*
X95903571Y-98571286D01*
X95975000Y-98428429D01*
X96117857Y-98357000D01*
X96260714Y-98357000D01*
X96403571Y-99071286D01*
X96903571Y-97499857D02*
X96832143Y-97642715D01*
X96689286Y-97714143D01*
X95403571Y-97714143D01*
X96903571Y-95071286D02*
X96903571Y-95785572D01*
X95403571Y-95785572D01*
X96117857Y-94571286D02*
X96117857Y-94071286D01*
X96903571Y-93857000D02*
X96903571Y-94571286D01*
X95403571Y-94571286D01*
X95403571Y-93857000D01*
X96903571Y-93214143D02*
X95403571Y-93214143D01*
X95403571Y-92857000D01*
X95475000Y-92642715D01*
X95617857Y-92499857D01*
X95760714Y-92428429D01*
X96046429Y-92357000D01*
X96260714Y-92357000D01*
X96546429Y-92428429D01*
X96689286Y-92499857D01*
X96832143Y-92642715D01*
X96903571Y-92857000D01*
X96903571Y-93214143D01*
X96903571Y-90571286D02*
X95403571Y-90571286D01*
X95403571Y-90214143D01*
X95475000Y-89999858D01*
X95617857Y-89857000D01*
X95760714Y-89785572D01*
X96046429Y-89714143D01*
X96260714Y-89714143D01*
X96546429Y-89785572D01*
X96689286Y-89857000D01*
X96832143Y-89999858D01*
X96903571Y-90214143D01*
X96903571Y-90571286D01*
X96903571Y-89071286D02*
X95903571Y-89071286D01*
X96189286Y-89071286D02*
X96046429Y-88999858D01*
X95975000Y-88928429D01*
X95903571Y-88785572D01*
X95903571Y-88642715D01*
X96903571Y-88142715D02*
X95903571Y-88142715D01*
X95403571Y-88142715D02*
X95475000Y-88214144D01*
X95546429Y-88142715D01*
X95475000Y-88071287D01*
X95403571Y-88142715D01*
X95546429Y-88142715D01*
X95903571Y-87571286D02*
X96903571Y-87214143D01*
X95903571Y-86857001D01*
X96832143Y-85714144D02*
X96903571Y-85857001D01*
X96903571Y-86142715D01*
X96832143Y-86285572D01*
X96689286Y-86357001D01*
X96117857Y-86357001D01*
X95975000Y-86285572D01*
X95903571Y-86142715D01*
X95903571Y-85857001D01*
X95975000Y-85714144D01*
X96117857Y-85642715D01*
X96260714Y-85642715D01*
X96403571Y-86357001D01*
X96903571Y-84999858D02*
X95903571Y-84999858D01*
X96189286Y-84999858D02*
X96046429Y-84928430D01*
X95975000Y-84857001D01*
X95903571Y-84714144D01*
X95903571Y-84571287D01*
X96832143Y-83999859D02*
X96903571Y-83999859D01*
X97046429Y-84071287D01*
X97117857Y-84142716D01*
X97475000Y-81785573D02*
X97403571Y-81857001D01*
X97189286Y-81999858D01*
X97046429Y-82071287D01*
X96832143Y-82142716D01*
X96475000Y-82214144D01*
X96189286Y-82214144D01*
X95832143Y-82142716D01*
X95617857Y-82071287D01*
X95475000Y-81999858D01*
X95260714Y-81857001D01*
X95189286Y-81785573D01*
X96832143Y-80571287D02*
X96903571Y-80714144D01*
X96903571Y-80999858D01*
X96832143Y-81142716D01*
X96760714Y-81214144D01*
X96617857Y-81285573D01*
X96189286Y-81285573D01*
X96046429Y-81214144D01*
X95975000Y-81142716D01*
X95903571Y-80999858D01*
X95903571Y-80714144D01*
X95975000Y-80571287D01*
X97475000Y-80071287D02*
X97403571Y-79999859D01*
X97189286Y-79857002D01*
X97046429Y-79785573D01*
X96832143Y-79714144D01*
X96475000Y-79642716D01*
X96189286Y-79642716D01*
X95832143Y-79714144D01*
X95617857Y-79785573D01*
X95475000Y-79857002D01*
X95260714Y-79999859D01*
X95189286Y-80071287D01*
X96475000Y-77857002D02*
X96475000Y-77142716D01*
X96903571Y-77999859D02*
X95403571Y-77499859D01*
X96903571Y-76999859D01*
X95903571Y-76499859D02*
X96903571Y-76499859D01*
X96046429Y-76499859D02*
X95975000Y-76428431D01*
X95903571Y-76285573D01*
X95903571Y-76071288D01*
X95975000Y-75928431D01*
X96117857Y-75857002D01*
X96903571Y-75857002D01*
X96903571Y-74499859D02*
X95403571Y-74499859D01*
X96832143Y-74499859D02*
X96903571Y-74642716D01*
X96903571Y-74928430D01*
X96832143Y-75071288D01*
X96760714Y-75142716D01*
X96617857Y-75214145D01*
X96189286Y-75214145D01*
X96046429Y-75142716D01*
X95975000Y-75071288D01*
X95903571Y-74928430D01*
X95903571Y-74642716D01*
X95975000Y-74499859D01*
X96903571Y-73785573D02*
X95903571Y-73785573D01*
X96189286Y-73785573D02*
X96046429Y-73714145D01*
X95975000Y-73642716D01*
X95903571Y-73499859D01*
X95903571Y-73357002D01*
X96832143Y-72285574D02*
X96903571Y-72428431D01*
X96903571Y-72714145D01*
X96832143Y-72857002D01*
X96689286Y-72928431D01*
X96117857Y-72928431D01*
X95975000Y-72857002D01*
X95903571Y-72714145D01*
X95903571Y-72428431D01*
X95975000Y-72285574D01*
X96117857Y-72214145D01*
X96260714Y-72214145D01*
X96403571Y-72928431D01*
X96903571Y-70928431D02*
X96117857Y-70928431D01*
X95975000Y-70999860D01*
X95903571Y-71142717D01*
X95903571Y-71428431D01*
X95975000Y-71571288D01*
X96832143Y-70928431D02*
X96903571Y-71071288D01*
X96903571Y-71428431D01*
X96832143Y-71571288D01*
X96689286Y-71642717D01*
X96546429Y-71642717D01*
X96403571Y-71571288D01*
X96332143Y-71428431D01*
X96332143Y-71071288D01*
X96260714Y-70928431D01*
X96832143Y-70285574D02*
X96903571Y-70142717D01*
X96903571Y-69857002D01*
X96832143Y-69714145D01*
X96689286Y-69642717D01*
X96617857Y-69642717D01*
X96475000Y-69714145D01*
X96403571Y-69857002D01*
X96403571Y-70071288D01*
X96332143Y-70214145D01*
X96189286Y-70285574D01*
X96117857Y-70285574D01*
X95975000Y-70214145D01*
X95903571Y-70071288D01*
X95903571Y-69857002D01*
X95975000Y-69714145D01*
X96832143Y-67928431D02*
X96903571Y-67714145D01*
X96903571Y-67357002D01*
X96832143Y-67214145D01*
X96760714Y-67142716D01*
X96617857Y-67071288D01*
X96475000Y-67071288D01*
X96332143Y-67142716D01*
X96260714Y-67214145D01*
X96189286Y-67357002D01*
X96117857Y-67642716D01*
X96046429Y-67785574D01*
X95975000Y-67857002D01*
X95832143Y-67928431D01*
X95689286Y-67928431D01*
X95546429Y-67857002D01*
X95475000Y-67785574D01*
X95403571Y-67642716D01*
X95403571Y-67285574D01*
X95475000Y-67071288D01*
X95903571Y-66642717D02*
X95903571Y-66071288D01*
X95403571Y-66428431D02*
X96689286Y-66428431D01*
X96832143Y-66357003D01*
X96903571Y-66214145D01*
X96903571Y-66071288D01*
X96903571Y-65357002D02*
X96832143Y-65499860D01*
X96760714Y-65571288D01*
X96617857Y-65642717D01*
X96189286Y-65642717D01*
X96046429Y-65571288D01*
X95975000Y-65499860D01*
X95903571Y-65357002D01*
X95903571Y-65142717D01*
X95975000Y-64999860D01*
X96046429Y-64928431D01*
X96189286Y-64857002D01*
X96617857Y-64857002D01*
X96760714Y-64928431D01*
X96832143Y-64999860D01*
X96903571Y-65142717D01*
X96903571Y-65357002D01*
X95403571Y-65499860D02*
X95475000Y-65428431D01*
X95546429Y-65499860D01*
X95475000Y-65571288D01*
X95403571Y-65499860D01*
X95546429Y-65499860D01*
X95403571Y-64928431D02*
X95475000Y-64857002D01*
X95546429Y-64928431D01*
X95475000Y-64999860D01*
X95403571Y-64928431D01*
X95546429Y-64928431D01*
X96832143Y-63571288D02*
X96903571Y-63714145D01*
X96903571Y-63999859D01*
X96832143Y-64142717D01*
X96760714Y-64214145D01*
X96617857Y-64285574D01*
X96189286Y-64285574D01*
X96046429Y-64214145D01*
X95975000Y-64142717D01*
X95903571Y-63999859D01*
X95903571Y-63714145D01*
X95975000Y-63571288D01*
X96903571Y-62928431D02*
X95403571Y-62928431D01*
X96332143Y-62785574D02*
X96903571Y-62357003D01*
X95903571Y-62357003D02*
X96475000Y-62928431D01*
X96832143Y-61142717D02*
X96903571Y-61285574D01*
X96903571Y-61571288D01*
X96832143Y-61714145D01*
X96689286Y-61785574D01*
X96117857Y-61785574D01*
X95975000Y-61714145D01*
X95903571Y-61571288D01*
X95903571Y-61285574D01*
X95975000Y-61142717D01*
X96117857Y-61071288D01*
X96260714Y-61071288D01*
X96403571Y-61785574D01*
X96903571Y-60214145D02*
X96832143Y-60357003D01*
X96689286Y-60428431D01*
X95403571Y-60428431D01*
X96832143Y-59571289D02*
X96903571Y-59571289D01*
X97046429Y-59642717D01*
X97117857Y-59714146D01*
X95546429Y-57857003D02*
X95475000Y-57785574D01*
X95403571Y-57642717D01*
X95403571Y-57285574D01*
X95475000Y-57142717D01*
X95546429Y-57071288D01*
X95689286Y-56999860D01*
X95832143Y-56999860D01*
X96046429Y-57071288D01*
X96903571Y-57928431D01*
X96903571Y-56999860D01*
X95403571Y-56071289D02*
X95403571Y-55928432D01*
X95475000Y-55785575D01*
X95546429Y-55714146D01*
X95689286Y-55642717D01*
X95975000Y-55571289D01*
X96332143Y-55571289D01*
X96617857Y-55642717D01*
X96760714Y-55714146D01*
X96832143Y-55785575D01*
X96903571Y-55928432D01*
X96903571Y-56071289D01*
X96832143Y-56214146D01*
X96760714Y-56285575D01*
X96617857Y-56357003D01*
X96332143Y-56428432D01*
X95975000Y-56428432D01*
X95689286Y-56357003D01*
X95546429Y-56285575D01*
X95475000Y-56214146D01*
X95403571Y-56071289D01*
X96903571Y-54142718D02*
X96903571Y-54999861D01*
X96903571Y-54571289D02*
X95403571Y-54571289D01*
X95617857Y-54714146D01*
X95760714Y-54857004D01*
X95832143Y-54999861D01*
X95403571Y-52857004D02*
X95403571Y-53142718D01*
X95475000Y-53285575D01*
X95546429Y-53357004D01*
X95760714Y-53499861D01*
X96046429Y-53571290D01*
X96617857Y-53571290D01*
X96760714Y-53499861D01*
X96832143Y-53428433D01*
X96903571Y-53285575D01*
X96903571Y-52999861D01*
X96832143Y-52857004D01*
X96760714Y-52785575D01*
X96617857Y-52714147D01*
X96260714Y-52714147D01*
X96117857Y-52785575D01*
X96046429Y-52857004D01*
X95975000Y-52999861D01*
X95975000Y-53285575D01*
X96046429Y-53428433D01*
X96117857Y-53499861D01*
X96260714Y-53571290D01*
X99453571Y-108499857D02*
X98453571Y-108499857D01*
X98596429Y-108499857D02*
X98525000Y-108428429D01*
X98453571Y-108285571D01*
X98453571Y-108071286D01*
X98525000Y-107928429D01*
X98667857Y-107857000D01*
X99453571Y-107857000D01*
X98667857Y-107857000D02*
X98525000Y-107785571D01*
X98453571Y-107642714D01*
X98453571Y-107428429D01*
X98525000Y-107285571D01*
X98667857Y-107214143D01*
X99453571Y-107214143D01*
X99453571Y-105857000D02*
X98667857Y-105857000D01*
X98525000Y-105928429D01*
X98453571Y-106071286D01*
X98453571Y-106357000D01*
X98525000Y-106499857D01*
X99382143Y-105857000D02*
X99453571Y-105999857D01*
X99453571Y-106357000D01*
X99382143Y-106499857D01*
X99239286Y-106571286D01*
X99096429Y-106571286D01*
X98953571Y-106499857D01*
X98882143Y-106357000D01*
X98882143Y-105999857D01*
X98810714Y-105857000D01*
X99453571Y-105285571D02*
X98453571Y-104499857D01*
X98453571Y-105285571D02*
X99453571Y-104499857D01*
X99310714Y-103928428D02*
X99382143Y-103857000D01*
X99453571Y-103928428D01*
X99382143Y-103999857D01*
X99310714Y-103928428D01*
X99453571Y-103928428D01*
X97953571Y-101785571D02*
X97953571Y-101642714D01*
X98025000Y-101499857D01*
X98096429Y-101428428D01*
X98239286Y-101356999D01*
X98525000Y-101285571D01*
X98882143Y-101285571D01*
X99167857Y-101356999D01*
X99310714Y-101428428D01*
X99382143Y-101499857D01*
X99453571Y-101642714D01*
X99453571Y-101785571D01*
X99382143Y-101928428D01*
X99310714Y-101999857D01*
X99167857Y-102071285D01*
X98882143Y-102142714D01*
X98525000Y-102142714D01*
X98239286Y-102071285D01*
X98096429Y-101999857D01*
X98025000Y-101928428D01*
X97953571Y-101785571D01*
X99310714Y-100642714D02*
X99382143Y-100571286D01*
X99453571Y-100642714D01*
X99382143Y-100714143D01*
X99310714Y-100642714D01*
X99453571Y-100642714D01*
X99453571Y-99857000D02*
X99453571Y-99571285D01*
X99382143Y-99428428D01*
X99310714Y-99357000D01*
X99096429Y-99214142D01*
X98810714Y-99142714D01*
X98239286Y-99142714D01*
X98096429Y-99214142D01*
X98025000Y-99285571D01*
X97953571Y-99428428D01*
X97953571Y-99714142D01*
X98025000Y-99857000D01*
X98096429Y-99928428D01*
X98239286Y-99999857D01*
X98596429Y-99999857D01*
X98739286Y-99928428D01*
X98810714Y-99857000D01*
X98882143Y-99714142D01*
X98882143Y-99428428D01*
X98810714Y-99285571D01*
X98739286Y-99214142D01*
X98596429Y-99142714D01*
X99025000Y-98571286D02*
X99025000Y-97857000D01*
X99453571Y-98714143D02*
X97953571Y-98214143D01*
X99453571Y-97714143D01*
X98453571Y-96071286D02*
X99953571Y-96071286D01*
X98525000Y-96071286D02*
X98453571Y-95928429D01*
X98453571Y-95642715D01*
X98525000Y-95499858D01*
X98596429Y-95428429D01*
X98739286Y-95357000D01*
X99167857Y-95357000D01*
X99310714Y-95428429D01*
X99382143Y-95499858D01*
X99453571Y-95642715D01*
X99453571Y-95928429D01*
X99382143Y-96071286D01*
X99382143Y-94142715D02*
X99453571Y-94285572D01*
X99453571Y-94571286D01*
X99382143Y-94714143D01*
X99239286Y-94785572D01*
X98667857Y-94785572D01*
X98525000Y-94714143D01*
X98453571Y-94571286D01*
X98453571Y-94285572D01*
X98525000Y-94142715D01*
X98667857Y-94071286D01*
X98810714Y-94071286D01*
X98953571Y-94785572D01*
X99453571Y-93428429D02*
X98453571Y-93428429D01*
X98739286Y-93428429D02*
X98596429Y-93357001D01*
X98525000Y-93285572D01*
X98453571Y-93142715D01*
X98453571Y-92999858D01*
X99382143Y-90714144D02*
X99453571Y-90857001D01*
X99453571Y-91142715D01*
X99382143Y-91285573D01*
X99310714Y-91357001D01*
X99167857Y-91428430D01*
X98739286Y-91428430D01*
X98596429Y-91357001D01*
X98525000Y-91285573D01*
X98453571Y-91142715D01*
X98453571Y-90857001D01*
X98525000Y-90714144D01*
X99453571Y-90071287D02*
X97953571Y-90071287D01*
X99453571Y-89428430D02*
X98667857Y-89428430D01*
X98525000Y-89499859D01*
X98453571Y-89642716D01*
X98453571Y-89857001D01*
X98525000Y-89999859D01*
X98596429Y-90071287D01*
X99453571Y-88071287D02*
X98667857Y-88071287D01*
X98525000Y-88142716D01*
X98453571Y-88285573D01*
X98453571Y-88571287D01*
X98525000Y-88714144D01*
X99382143Y-88071287D02*
X99453571Y-88214144D01*
X99453571Y-88571287D01*
X99382143Y-88714144D01*
X99239286Y-88785573D01*
X99096429Y-88785573D01*
X98953571Y-88714144D01*
X98882143Y-88571287D01*
X98882143Y-88214144D01*
X98810714Y-88071287D01*
X98453571Y-87357001D02*
X99453571Y-87357001D01*
X98596429Y-87357001D02*
X98525000Y-87285573D01*
X98453571Y-87142715D01*
X98453571Y-86928430D01*
X98525000Y-86785573D01*
X98667857Y-86714144D01*
X99453571Y-86714144D01*
X98453571Y-85999858D02*
X99453571Y-85999858D01*
X98596429Y-85999858D02*
X98525000Y-85928430D01*
X98453571Y-85785572D01*
X98453571Y-85571287D01*
X98525000Y-85428430D01*
X98667857Y-85357001D01*
X99453571Y-85357001D01*
X99382143Y-84071287D02*
X99453571Y-84214144D01*
X99453571Y-84499858D01*
X99382143Y-84642715D01*
X99239286Y-84714144D01*
X98667857Y-84714144D01*
X98525000Y-84642715D01*
X98453571Y-84499858D01*
X98453571Y-84214144D01*
X98525000Y-84071287D01*
X98667857Y-83999858D01*
X98810714Y-83999858D01*
X98953571Y-84714144D01*
X99453571Y-83142715D02*
X99382143Y-83285573D01*
X99239286Y-83357001D01*
X97953571Y-83357001D01*
X99382143Y-82499859D02*
X99453571Y-82499859D01*
X99596429Y-82571287D01*
X99667857Y-82642716D01*
X97953571Y-80857001D02*
X97953571Y-79928430D01*
X98525000Y-80428430D01*
X98525000Y-80214144D01*
X98596429Y-80071287D01*
X98667857Y-79999858D01*
X98810714Y-79928430D01*
X99167857Y-79928430D01*
X99310714Y-79999858D01*
X99382143Y-80071287D01*
X99453571Y-80214144D01*
X99453571Y-80642716D01*
X99382143Y-80785573D01*
X99310714Y-80857001D01*
X99025000Y-79357002D02*
X99025000Y-78642716D01*
X99453571Y-79499859D02*
X97953571Y-78999859D01*
X99453571Y-78499859D01*
X98453571Y-77071288D02*
X98453571Y-76499859D01*
X97953571Y-76857002D02*
X99239286Y-76857002D01*
X99382143Y-76785574D01*
X99453571Y-76642716D01*
X99453571Y-76499859D01*
X99453571Y-75785573D02*
X99382143Y-75928431D01*
X99310714Y-75999859D01*
X99167857Y-76071288D01*
X98739286Y-76071288D01*
X98596429Y-75999859D01*
X98525000Y-75928431D01*
X98453571Y-75785573D01*
X98453571Y-75571288D01*
X98525000Y-75428431D01*
X98596429Y-75357002D01*
X98739286Y-75285573D01*
X99167857Y-75285573D01*
X99310714Y-75357002D01*
X99382143Y-75428431D01*
X99453571Y-75571288D01*
X99453571Y-75785573D01*
X98453571Y-74857002D02*
X98453571Y-74285573D01*
X97953571Y-74642716D02*
X99239286Y-74642716D01*
X99382143Y-74571288D01*
X99453571Y-74428430D01*
X99453571Y-74285573D01*
X99453571Y-73142716D02*
X98667857Y-73142716D01*
X98525000Y-73214145D01*
X98453571Y-73357002D01*
X98453571Y-73642716D01*
X98525000Y-73785573D01*
X99382143Y-73142716D02*
X99453571Y-73285573D01*
X99453571Y-73642716D01*
X99382143Y-73785573D01*
X99239286Y-73857002D01*
X99096429Y-73857002D01*
X98953571Y-73785573D01*
X98882143Y-73642716D01*
X98882143Y-73285573D01*
X98810714Y-73142716D01*
X99453571Y-72214144D02*
X99382143Y-72357002D01*
X99239286Y-72428430D01*
X97953571Y-72428430D01*
D13*
X128254000Y-106787000D02*
X121254000Y-106787000D01*
X121254000Y-106787000D02*
X121254000Y-104287000D01*
X121254000Y-104287000D02*
X128254000Y-104287000D01*
X128254000Y-104287000D02*
X128254000Y-106787000D01*
X120777000Y-124206000D02*
X120777000Y-121666000D01*
X122196903Y-124206000D02*
G75*
G03X122196903Y-124206000I-1419903J0D01*
G01*
X108331000Y-119507000D02*
X108331000Y-125857000D01*
X115951000Y-119507000D02*
X115951000Y-125857000D01*
X115951000Y-121412000D02*
X108331000Y-121412000D01*
X108331000Y-119507000D02*
X115951000Y-119507000D01*
X115951000Y-125857000D02*
X108331000Y-125857000D01*
X107179000Y-101846000D02*
X108449000Y-101846000D01*
X107179000Y-94496000D02*
X108449000Y-94496000D01*
X127009000Y-94496000D02*
X125739000Y-94496000D01*
X127009000Y-101846000D02*
X125739000Y-101846000D01*
X107179000Y-101846000D02*
X107179000Y-94496000D01*
X127009000Y-101846000D02*
X127009000Y-94496000D01*
X108449000Y-101846000D02*
X108449000Y-102781000D01*
X107179000Y-117340000D02*
X108449000Y-117340000D01*
X107179000Y-109990000D02*
X108449000Y-109990000D01*
X144789000Y-109990000D02*
X143519000Y-109990000D01*
X144789000Y-117340000D02*
X143519000Y-117340000D01*
X107179000Y-117340000D02*
X107179000Y-109990000D01*
X144789000Y-117340000D02*
X144789000Y-109990000D01*
X108449000Y-117340000D02*
X108449000Y-118275000D01*
X136967000Y-82923000D02*
X146497000Y-82923000D01*
X146497000Y-82923000D02*
X146497000Y-87753000D01*
X146497000Y-87373000D02*
X136967000Y-87373000D01*
X136967000Y-82923000D02*
X136967000Y-87753000D01*
X135874000Y-77577000D02*
X128874000Y-77577000D01*
X128874000Y-77577000D02*
X128874000Y-75077000D01*
X128874000Y-75077000D02*
X135874000Y-75077000D01*
X135874000Y-75077000D02*
X135874000Y-77577000D01*
X107179000Y-85336000D02*
X108449000Y-85336000D01*
X107179000Y-77986000D02*
X108449000Y-77986000D01*
X127009000Y-77986000D02*
X125739000Y-77986000D01*
X127009000Y-85336000D02*
X125739000Y-85336000D01*
X107179000Y-85336000D02*
X107179000Y-77986000D01*
X127009000Y-85336000D02*
X127009000Y-77986000D01*
X108449000Y-85336000D02*
X108449000Y-86271000D01*
X114554000Y-68961000D02*
X114554000Y-67818000D01*
X111506000Y-68961000D02*
X111506000Y-67818000D01*
X107696000Y-67818000D02*
X107696000Y-64135000D01*
X107696000Y-64135000D02*
X118364000Y-64135000D01*
X118364000Y-64135000D02*
X118364000Y-67818000D01*
X107696000Y-68961000D02*
X107696000Y-67818000D01*
X107696000Y-67818000D02*
X118364000Y-67818000D01*
X118364000Y-67818000D02*
X118364000Y-68961000D01*
X113030000Y-68961000D02*
X118364000Y-68961000D01*
X113030000Y-68961000D02*
X107696000Y-68961000D01*
X113284520Y-59560460D02*
X114681520Y-59560460D01*
X108839520Y-59560460D02*
X107315520Y-59560460D01*
X109220520Y-58798460D02*
X109220520Y-60322460D01*
X108966520Y-58798460D02*
X108966520Y-60322460D01*
X108712520Y-59560460D02*
X108712520Y-60322460D01*
X108712520Y-60322460D02*
X113284520Y-60322460D01*
X113284520Y-60322460D02*
X113284520Y-58798460D01*
X113284520Y-58798460D02*
X108712520Y-58798460D01*
X108712520Y-58798460D02*
X108712520Y-59560460D01*
X131572520Y-59560460D02*
X132969520Y-59560460D01*
X127127520Y-59560460D02*
X125603520Y-59560460D01*
X127508520Y-58798460D02*
X127508520Y-60322460D01*
X127254520Y-58798460D02*
X127254520Y-60322460D01*
X127000520Y-59560460D02*
X127000520Y-60322460D01*
X127000520Y-60322460D02*
X131572520Y-60322460D01*
X131572520Y-60322460D02*
X131572520Y-58798460D01*
X131572520Y-58798460D02*
X127000520Y-58798460D01*
X127000520Y-58798460D02*
X127000520Y-59560460D01*
X149860520Y-59560460D02*
X151257520Y-59560460D01*
X145415520Y-59560460D02*
X143891520Y-59560460D01*
X145796520Y-58798460D02*
X145796520Y-60322460D01*
X145542520Y-58798460D02*
X145542520Y-60322460D01*
X145288520Y-59560460D02*
X145288520Y-60322460D01*
X145288520Y-60322460D02*
X149860520Y-60322460D01*
X149860520Y-60322460D02*
X149860520Y-58798460D01*
X149860520Y-58798460D02*
X145288520Y-58798460D01*
X145288520Y-58798460D02*
X145288520Y-59560460D01*
X168148520Y-59560460D02*
X169545520Y-59560460D01*
X163703520Y-59560460D02*
X162179520Y-59560460D01*
X164084520Y-58798460D02*
X164084520Y-60322460D01*
X163830520Y-58798460D02*
X163830520Y-60322460D01*
X163576520Y-59560460D02*
X163576520Y-60322460D01*
X163576520Y-60322460D02*
X168148520Y-60322460D01*
X168148520Y-60322460D02*
X168148520Y-58798460D01*
X168148520Y-58798460D02*
X163576520Y-58798460D01*
X163576520Y-58798460D02*
X163576520Y-59560460D01*
X120078500Y-50165000D02*
G75*
G03X120078500Y-50165000I-4000500J0D01*
G01*
X138366500Y-50165000D02*
G75*
G03X138366500Y-50165000I-4000500J0D01*
G01*
X156654500Y-50165000D02*
G75*
G03X156654500Y-50165000I-4000500J0D01*
G01*
X174942500Y-50419000D02*
G75*
G03X174942500Y-50419000I-4000500J0D01*
G01*
X135636000Y-68961000D02*
X135636000Y-67818000D01*
X132588000Y-68961000D02*
X132588000Y-67818000D01*
X128778000Y-67818000D02*
X128778000Y-64135000D01*
X128778000Y-64135000D02*
X139446000Y-64135000D01*
X139446000Y-64135000D02*
X139446000Y-67818000D01*
X128778000Y-68961000D02*
X128778000Y-67818000D01*
X128778000Y-67818000D02*
X139446000Y-67818000D01*
X139446000Y-67818000D02*
X139446000Y-68961000D01*
X134112000Y-68961000D02*
X139446000Y-68961000D01*
X134112000Y-68961000D02*
X128778000Y-68961000D01*
X155448000Y-68961000D02*
X155448000Y-67818000D01*
X152400000Y-68961000D02*
X152400000Y-67818000D01*
X148590000Y-67818000D02*
X148590000Y-64135000D01*
X148590000Y-64135000D02*
X159258000Y-64135000D01*
X159258000Y-64135000D02*
X159258000Y-67818000D01*
X148590000Y-68961000D02*
X148590000Y-67818000D01*
X148590000Y-67818000D02*
X159258000Y-67818000D01*
X159258000Y-67818000D02*
X159258000Y-68961000D01*
X153924000Y-68961000D02*
X159258000Y-68961000D01*
X153924000Y-68961000D02*
X148590000Y-68961000D01*
X175260000Y-68961000D02*
X175260000Y-67818000D01*
X172212000Y-68961000D02*
X172212000Y-67818000D01*
X168402000Y-67818000D02*
X168402000Y-64135000D01*
X168402000Y-64135000D02*
X179070000Y-64135000D01*
X179070000Y-64135000D02*
X179070000Y-67818000D01*
X168402000Y-68961000D02*
X168402000Y-67818000D01*
X168402000Y-67818000D02*
X179070000Y-67818000D01*
X179070000Y-67818000D02*
X179070000Y-68961000D01*
X173736000Y-68961000D02*
X179070000Y-68961000D01*
X173736000Y-68961000D02*
X168402000Y-68961000D01*
X141224000Y-53213000D02*
X141224000Y-48133000D01*
X141224000Y-48133000D02*
X143764000Y-48133000D01*
X143764000Y-48133000D02*
X143764000Y-53213000D01*
X143764000Y-53213000D02*
X141224000Y-53213000D01*
X142494000Y-53213000D02*
X142494000Y-54483000D01*
X142494000Y-48133000D02*
X142494000Y-46863000D01*
X152027000Y-76572000D02*
X152027000Y-77842000D01*
X159377000Y-76572000D02*
X159377000Y-77842000D01*
X159377000Y-96402000D02*
X159377000Y-95132000D01*
X152027000Y-96402000D02*
X152027000Y-95132000D01*
X152027000Y-76572000D02*
X159377000Y-76572000D01*
X152027000Y-96402000D02*
X159377000Y-96402000D01*
X152027000Y-77842000D02*
X151092000Y-77842000D01*
X144780000Y-53213000D02*
X144780000Y-48133000D01*
X144780000Y-48133000D02*
X147320000Y-48133000D01*
X147320000Y-48133000D02*
X147320000Y-53213000D01*
X147320000Y-53213000D02*
X144780000Y-53213000D01*
X146050000Y-53213000D02*
X146050000Y-54483000D01*
X146050000Y-48133000D02*
X146050000Y-46863000D01*
X159512000Y-52959000D02*
X159512000Y-47879000D01*
X159512000Y-47879000D02*
X162052000Y-47879000D01*
X162052000Y-47879000D02*
X162052000Y-52959000D01*
X162052000Y-52959000D02*
X159512000Y-52959000D01*
X160782000Y-52959000D02*
X160782000Y-54229000D01*
X160782000Y-47879000D02*
X160782000Y-46609000D01*
X162814000Y-52959000D02*
X162814000Y-47879000D01*
X162814000Y-47879000D02*
X165354000Y-47879000D01*
X165354000Y-47879000D02*
X165354000Y-52959000D01*
X165354000Y-52959000D02*
X162814000Y-52959000D01*
X164084000Y-52959000D02*
X164084000Y-54229000D01*
X164084000Y-47879000D02*
X164084000Y-46609000D01*
X104648000Y-53213000D02*
X104648000Y-48133000D01*
X104648000Y-48133000D02*
X107188000Y-48133000D01*
X107188000Y-48133000D02*
X107188000Y-53213000D01*
X107188000Y-53213000D02*
X104648000Y-53213000D01*
X105918000Y-53213000D02*
X105918000Y-54483000D01*
X105918000Y-48133000D02*
X105918000Y-46863000D01*
X108204000Y-53213000D02*
X108204000Y-48133000D01*
X108204000Y-48133000D02*
X110744000Y-48133000D01*
X110744000Y-48133000D02*
X110744000Y-53213000D01*
X110744000Y-53213000D02*
X108204000Y-53213000D01*
X109474000Y-53213000D02*
X109474000Y-54483000D01*
X109474000Y-48133000D02*
X109474000Y-46863000D01*
X122936000Y-53213000D02*
X122936000Y-48133000D01*
X122936000Y-48133000D02*
X125476000Y-48133000D01*
X125476000Y-48133000D02*
X125476000Y-53213000D01*
X125476000Y-53213000D02*
X122936000Y-53213000D01*
X124206000Y-53213000D02*
X124206000Y-54483000D01*
X124206000Y-48133000D02*
X124206000Y-46863000D01*
X126492000Y-53213000D02*
X126492000Y-48133000D01*
X126492000Y-48133000D02*
X129032000Y-48133000D01*
X129032000Y-48133000D02*
X129032000Y-53213000D01*
X129032000Y-53213000D02*
X126492000Y-53213000D01*
X127762000Y-53213000D02*
X127762000Y-54483000D01*
X127762000Y-48133000D02*
X127762000Y-46863000D01*
X176466500Y-108132880D02*
X176466500Y-99131120D01*
X179966620Y-108132880D02*
X179966620Y-99131120D01*
X179966620Y-99131120D02*
X165465760Y-99131120D01*
X165465760Y-99131120D02*
X165465760Y-108132880D01*
X165465760Y-108132880D02*
X179966620Y-108132880D01*
X138684000Y-120269000D02*
X133604000Y-120269000D01*
X141504000Y-119989000D02*
X141504000Y-121539000D01*
X141224000Y-122809000D02*
X138684000Y-122809000D01*
X138684000Y-122809000D02*
X138684000Y-120269000D01*
X133604000Y-120269000D02*
X133604000Y-125349000D01*
X133604000Y-125349000D02*
X138684000Y-125349000D01*
X141504000Y-119989000D02*
X139954000Y-119989000D01*
X141224000Y-125349000D02*
X141224000Y-122809000D01*
X138684000Y-125349000D02*
X141224000Y-125349000D01*
X168402000Y-80695800D02*
X168402000Y-87198200D01*
X171831000Y-71079360D02*
X171831000Y-74889360D01*
X171831000Y-80731360D02*
X171831000Y-77683360D01*
X170942000Y-78232000D02*
X170942000Y-75565000D01*
X170942000Y-71968360D02*
X170942000Y-74635360D01*
X165862000Y-80731360D02*
X165862000Y-77937360D01*
X165862000Y-71970900D02*
X165862000Y-74637900D01*
X164973000Y-71079360D02*
X164973000Y-74762360D01*
X164973000Y-80731360D02*
X164973000Y-77810360D01*
X171831000Y-96814640D02*
X171831000Y-93131640D01*
X171831000Y-87289640D02*
X171831000Y-90083640D01*
X170942000Y-89829640D02*
X170942000Y-89956640D01*
X170942000Y-89829640D02*
X170942000Y-87289640D01*
X170942000Y-96052640D02*
X170942000Y-93258640D01*
X164973000Y-96814640D02*
X164973000Y-93004640D01*
X164973000Y-87289640D02*
X164973000Y-90083640D01*
X165862000Y-87289640D02*
X165862000Y-89956640D01*
X165862000Y-96052640D02*
X165862000Y-93258640D01*
X164973000Y-71079360D02*
X171831000Y-71079360D01*
X171831000Y-80731360D02*
X170942000Y-80731360D01*
X164973000Y-80731360D02*
X165862000Y-80731360D01*
X164973000Y-96814640D02*
X171831000Y-96814640D01*
X171831000Y-87289640D02*
X170942000Y-87289640D01*
X164973000Y-87289640D02*
X165989000Y-87289640D01*
X170942000Y-78232000D02*
X170942000Y-89916000D01*
X165862000Y-89789000D02*
X165862000Y-78232000D01*
X168402000Y-87289640D02*
X165862000Y-87289640D01*
X165862000Y-96050100D02*
X170942000Y-96050100D01*
X170942000Y-87289640D02*
X168402000Y-87289640D01*
X168402000Y-80731360D02*
X165862000Y-80731360D01*
X165862000Y-71970900D02*
X170942000Y-71970900D01*
X170942000Y-80731360D02*
X168402000Y-80731360D01*
X157148000Y-103837000D02*
X153748000Y-103837000D01*
X157145056Y-103839944D02*
G75*
G02X155448000Y-107937000I-1697056J-1697056D01*
G01*
X153750944Y-103839944D02*
G75*
G03X155448000Y-107937000I1697056J-1697056D01*
G01*
X103378000Y-32893000D02*
X113538000Y-32893000D01*
X103378000Y-31623000D02*
X103378000Y-39243000D01*
X103378000Y-39243000D02*
X113538000Y-39243000D01*
X113538000Y-39243000D02*
X113538000Y-31623000D01*
X113538000Y-31623000D02*
X103378000Y-31623000D01*
X121666000Y-32893000D02*
X131826000Y-32893000D01*
X121666000Y-31623000D02*
X121666000Y-39243000D01*
X121666000Y-39243000D02*
X131826000Y-39243000D01*
X131826000Y-39243000D02*
X131826000Y-31623000D01*
X131826000Y-31623000D02*
X121666000Y-31623000D01*
X139954000Y-32893000D02*
X150114000Y-32893000D01*
X139954000Y-31623000D02*
X139954000Y-39243000D01*
X139954000Y-39243000D02*
X150114000Y-39243000D01*
X150114000Y-39243000D02*
X150114000Y-31623000D01*
X150114000Y-31623000D02*
X139954000Y-31623000D01*
X158242000Y-32893000D02*
X168402000Y-32893000D01*
X158242000Y-31623000D02*
X158242000Y-39243000D01*
X158242000Y-39243000D02*
X168402000Y-39243000D01*
X168402000Y-39243000D02*
X168402000Y-31623000D01*
X168402000Y-31623000D02*
X158242000Y-31623000D01*
X103171000Y-61914000D02*
X103171000Y-69912000D01*
X103311000Y-61919000D02*
X103311000Y-69907000D01*
X103451000Y-61929000D02*
X103451000Y-69897000D01*
X103591000Y-61944000D02*
X103591000Y-69882000D01*
X103731000Y-61964000D02*
X103731000Y-69862000D01*
X103871000Y-61989000D02*
X103871000Y-65691000D01*
X103871000Y-66135000D02*
X103871000Y-69837000D01*
X104011000Y-62019000D02*
X104011000Y-65363000D01*
X104011000Y-66463000D02*
X104011000Y-69807000D01*
X104151000Y-62055000D02*
X104151000Y-65194000D01*
X104151000Y-66632000D02*
X104151000Y-69771000D01*
X104291000Y-62096000D02*
X104291000Y-65081000D01*
X104291000Y-66745000D02*
X104291000Y-69730000D01*
X104431000Y-62142000D02*
X104431000Y-65003000D01*
X104431000Y-66823000D02*
X104431000Y-69684000D01*
X104571000Y-62195000D02*
X104571000Y-64952000D01*
X104571000Y-66874000D02*
X104571000Y-69631000D01*
X104711000Y-62254000D02*
X104711000Y-64922000D01*
X104711000Y-66904000D02*
X104711000Y-69572000D01*
X104851000Y-62319000D02*
X104851000Y-64913000D01*
X104851000Y-66913000D02*
X104851000Y-69507000D01*
X104991000Y-62390000D02*
X104991000Y-64924000D01*
X104991000Y-66902000D02*
X104991000Y-69436000D01*
X105131000Y-62469000D02*
X105131000Y-64954000D01*
X105131000Y-66872000D02*
X105131000Y-69357000D01*
X105271000Y-62556000D02*
X105271000Y-65008000D01*
X105271000Y-66818000D02*
X105271000Y-69270000D01*
X105411000Y-62651000D02*
X105411000Y-65088000D01*
X105411000Y-66738000D02*
X105411000Y-69175000D01*
X105551000Y-62755000D02*
X105551000Y-65204000D01*
X105551000Y-66622000D02*
X105551000Y-69071000D01*
X105691000Y-62869000D02*
X105691000Y-65378000D01*
X105691000Y-66448000D02*
X105691000Y-68957000D01*
X105831000Y-62994000D02*
X105831000Y-65740000D01*
X105831000Y-66086000D02*
X105831000Y-68832000D01*
X105971000Y-63132000D02*
X105971000Y-68694000D01*
X106111000Y-63284000D02*
X106111000Y-68542000D01*
X106251000Y-63454000D02*
X106251000Y-68372000D01*
X106391000Y-63645000D02*
X106391000Y-68181000D01*
X106531000Y-63863000D02*
X106531000Y-67963000D01*
X106671000Y-64119000D02*
X106671000Y-67707000D01*
X106811000Y-64430000D02*
X106811000Y-67396000D01*
X106951000Y-64846000D02*
X106951000Y-66980000D01*
X107091000Y-65713000D02*
X107091000Y-66113000D01*
X105846000Y-65913000D02*
G75*
G03X105846000Y-65913000I-1000000J0D01*
G01*
X107133500Y-65913000D02*
G75*
G03X107133500Y-65913000I-4037500J0D01*
G01*
X124253000Y-61914000D02*
X124253000Y-69912000D01*
X124393000Y-61919000D02*
X124393000Y-69907000D01*
X124533000Y-61929000D02*
X124533000Y-69897000D01*
X124673000Y-61944000D02*
X124673000Y-69882000D01*
X124813000Y-61964000D02*
X124813000Y-69862000D01*
X124953000Y-61989000D02*
X124953000Y-65691000D01*
X124953000Y-66135000D02*
X124953000Y-69837000D01*
X125093000Y-62019000D02*
X125093000Y-65363000D01*
X125093000Y-66463000D02*
X125093000Y-69807000D01*
X125233000Y-62055000D02*
X125233000Y-65194000D01*
X125233000Y-66632000D02*
X125233000Y-69771000D01*
X125373000Y-62096000D02*
X125373000Y-65081000D01*
X125373000Y-66745000D02*
X125373000Y-69730000D01*
X125513000Y-62142000D02*
X125513000Y-65003000D01*
X125513000Y-66823000D02*
X125513000Y-69684000D01*
X125653000Y-62195000D02*
X125653000Y-64952000D01*
X125653000Y-66874000D02*
X125653000Y-69631000D01*
X125793000Y-62254000D02*
X125793000Y-64922000D01*
X125793000Y-66904000D02*
X125793000Y-69572000D01*
X125933000Y-62319000D02*
X125933000Y-64913000D01*
X125933000Y-66913000D02*
X125933000Y-69507000D01*
X126073000Y-62390000D02*
X126073000Y-64924000D01*
X126073000Y-66902000D02*
X126073000Y-69436000D01*
X126213000Y-62469000D02*
X126213000Y-64954000D01*
X126213000Y-66872000D02*
X126213000Y-69357000D01*
X126353000Y-62556000D02*
X126353000Y-65008000D01*
X126353000Y-66818000D02*
X126353000Y-69270000D01*
X126493000Y-62651000D02*
X126493000Y-65088000D01*
X126493000Y-66738000D02*
X126493000Y-69175000D01*
X126633000Y-62755000D02*
X126633000Y-65204000D01*
X126633000Y-66622000D02*
X126633000Y-69071000D01*
X126773000Y-62869000D02*
X126773000Y-65378000D01*
X126773000Y-66448000D02*
X126773000Y-68957000D01*
X126913000Y-62994000D02*
X126913000Y-65740000D01*
X126913000Y-66086000D02*
X126913000Y-68832000D01*
X127053000Y-63132000D02*
X127053000Y-68694000D01*
X127193000Y-63284000D02*
X127193000Y-68542000D01*
X127333000Y-63454000D02*
X127333000Y-68372000D01*
X127473000Y-63645000D02*
X127473000Y-68181000D01*
X127613000Y-63863000D02*
X127613000Y-67963000D01*
X127753000Y-64119000D02*
X127753000Y-67707000D01*
X127893000Y-64430000D02*
X127893000Y-67396000D01*
X128033000Y-64846000D02*
X128033000Y-66980000D01*
X128173000Y-65713000D02*
X128173000Y-66113000D01*
X126928000Y-65913000D02*
G75*
G03X126928000Y-65913000I-1000000J0D01*
G01*
X128215500Y-65913000D02*
G75*
G03X128215500Y-65913000I-4037500J0D01*
G01*
X144065000Y-61914000D02*
X144065000Y-69912000D01*
X144205000Y-61919000D02*
X144205000Y-69907000D01*
X144345000Y-61929000D02*
X144345000Y-69897000D01*
X144485000Y-61944000D02*
X144485000Y-69882000D01*
X144625000Y-61964000D02*
X144625000Y-69862000D01*
X144765000Y-61989000D02*
X144765000Y-65691000D01*
X144765000Y-66135000D02*
X144765000Y-69837000D01*
X144905000Y-62019000D02*
X144905000Y-65363000D01*
X144905000Y-66463000D02*
X144905000Y-69807000D01*
X145045000Y-62055000D02*
X145045000Y-65194000D01*
X145045000Y-66632000D02*
X145045000Y-69771000D01*
X145185000Y-62096000D02*
X145185000Y-65081000D01*
X145185000Y-66745000D02*
X145185000Y-69730000D01*
X145325000Y-62142000D02*
X145325000Y-65003000D01*
X145325000Y-66823000D02*
X145325000Y-69684000D01*
X145465000Y-62195000D02*
X145465000Y-64952000D01*
X145465000Y-66874000D02*
X145465000Y-69631000D01*
X145605000Y-62254000D02*
X145605000Y-64922000D01*
X145605000Y-66904000D02*
X145605000Y-69572000D01*
X145745000Y-62319000D02*
X145745000Y-64913000D01*
X145745000Y-66913000D02*
X145745000Y-69507000D01*
X145885000Y-62390000D02*
X145885000Y-64924000D01*
X145885000Y-66902000D02*
X145885000Y-69436000D01*
X146025000Y-62469000D02*
X146025000Y-64954000D01*
X146025000Y-66872000D02*
X146025000Y-69357000D01*
X146165000Y-62556000D02*
X146165000Y-65008000D01*
X146165000Y-66818000D02*
X146165000Y-69270000D01*
X146305000Y-62651000D02*
X146305000Y-65088000D01*
X146305000Y-66738000D02*
X146305000Y-69175000D01*
X146445000Y-62755000D02*
X146445000Y-65204000D01*
X146445000Y-66622000D02*
X146445000Y-69071000D01*
X146585000Y-62869000D02*
X146585000Y-65378000D01*
X146585000Y-66448000D02*
X146585000Y-68957000D01*
X146725000Y-62994000D02*
X146725000Y-65740000D01*
X146725000Y-66086000D02*
X146725000Y-68832000D01*
X146865000Y-63132000D02*
X146865000Y-68694000D01*
X147005000Y-63284000D02*
X147005000Y-68542000D01*
X147145000Y-63454000D02*
X147145000Y-68372000D01*
X147285000Y-63645000D02*
X147285000Y-68181000D01*
X147425000Y-63863000D02*
X147425000Y-67963000D01*
X147565000Y-64119000D02*
X147565000Y-67707000D01*
X147705000Y-64430000D02*
X147705000Y-67396000D01*
X147845000Y-64846000D02*
X147845000Y-66980000D01*
X147985000Y-65713000D02*
X147985000Y-66113000D01*
X146740000Y-65913000D02*
G75*
G03X146740000Y-65913000I-1000000J0D01*
G01*
X148027500Y-65913000D02*
G75*
G03X148027500Y-65913000I-4037500J0D01*
G01*
X163877000Y-61914000D02*
X163877000Y-69912000D01*
X164017000Y-61919000D02*
X164017000Y-69907000D01*
X164157000Y-61929000D02*
X164157000Y-69897000D01*
X164297000Y-61944000D02*
X164297000Y-69882000D01*
X164437000Y-61964000D02*
X164437000Y-69862000D01*
X164577000Y-61989000D02*
X164577000Y-65691000D01*
X164577000Y-66135000D02*
X164577000Y-69837000D01*
X164717000Y-62019000D02*
X164717000Y-65363000D01*
X164717000Y-66463000D02*
X164717000Y-69807000D01*
X164857000Y-62055000D02*
X164857000Y-65194000D01*
X164857000Y-66632000D02*
X164857000Y-69771000D01*
X164997000Y-62096000D02*
X164997000Y-65081000D01*
X164997000Y-66745000D02*
X164997000Y-69730000D01*
X165137000Y-62142000D02*
X165137000Y-65003000D01*
X165137000Y-66823000D02*
X165137000Y-69684000D01*
X165277000Y-62195000D02*
X165277000Y-64952000D01*
X165277000Y-66874000D02*
X165277000Y-69631000D01*
X165417000Y-62254000D02*
X165417000Y-64922000D01*
X165417000Y-66904000D02*
X165417000Y-69572000D01*
X165557000Y-62319000D02*
X165557000Y-64913000D01*
X165557000Y-66913000D02*
X165557000Y-69507000D01*
X165697000Y-62390000D02*
X165697000Y-64924000D01*
X165697000Y-66902000D02*
X165697000Y-69436000D01*
X165837000Y-62469000D02*
X165837000Y-64954000D01*
X165837000Y-66872000D02*
X165837000Y-69357000D01*
X165977000Y-62556000D02*
X165977000Y-65008000D01*
X165977000Y-66818000D02*
X165977000Y-69270000D01*
X166117000Y-62651000D02*
X166117000Y-65088000D01*
X166117000Y-66738000D02*
X166117000Y-69175000D01*
X166257000Y-62755000D02*
X166257000Y-65204000D01*
X166257000Y-66622000D02*
X166257000Y-69071000D01*
X166397000Y-62869000D02*
X166397000Y-65378000D01*
X166397000Y-66448000D02*
X166397000Y-68957000D01*
X166537000Y-62994000D02*
X166537000Y-65740000D01*
X166537000Y-66086000D02*
X166537000Y-68832000D01*
X166677000Y-63132000D02*
X166677000Y-68694000D01*
X166817000Y-63284000D02*
X166817000Y-68542000D01*
X166957000Y-63454000D02*
X166957000Y-68372000D01*
X167097000Y-63645000D02*
X167097000Y-68181000D01*
X167237000Y-63863000D02*
X167237000Y-67963000D01*
X167377000Y-64119000D02*
X167377000Y-67707000D01*
X167517000Y-64430000D02*
X167517000Y-67396000D01*
X167657000Y-64846000D02*
X167657000Y-66980000D01*
X167797000Y-65713000D02*
X167797000Y-66113000D01*
X166552000Y-65913000D02*
G75*
G03X166552000Y-65913000I-1000000J0D01*
G01*
X167839500Y-65913000D02*
G75*
G03X167839500Y-65913000I-4037500J0D01*
G01*
X136967000Y-94099000D02*
X146497000Y-94099000D01*
X146497000Y-94099000D02*
X146497000Y-98929000D01*
X146497000Y-98549000D02*
X136967000Y-98549000D01*
X136967000Y-94099000D02*
X136967000Y-98929000D01*
X136967000Y-88511000D02*
X146497000Y-88511000D01*
X146497000Y-88511000D02*
X146497000Y-93341000D01*
X146497000Y-92961000D02*
X136967000Y-92961000D01*
X136967000Y-88511000D02*
X136967000Y-93341000D01*
X136967000Y-77335000D02*
X146497000Y-77335000D01*
X146497000Y-77335000D02*
X146497000Y-82165000D01*
X146497000Y-81785000D02*
X136967000Y-81785000D01*
X136967000Y-77335000D02*
X136967000Y-82165000D01*
X105136000Y-78375000D02*
X105136000Y-85375000D01*
X105136000Y-85375000D02*
X102636000Y-85375000D01*
X102636000Y-85375000D02*
X102636000Y-78375000D01*
X102636000Y-78375000D02*
X105136000Y-78375000D01*
X151908000Y-100223000D02*
X158908000Y-100223000D01*
X158908000Y-100223000D02*
X158908000Y-102723000D01*
X158908000Y-102723000D02*
X151908000Y-102723000D01*
X151908000Y-102723000D02*
X151908000Y-100223000D01*
X151908000Y-107970000D02*
X158908000Y-107970000D01*
X158908000Y-107970000D02*
X158908000Y-110470000D01*
X158908000Y-110470000D02*
X151908000Y-110470000D01*
X151908000Y-110470000D02*
X151908000Y-107970000D01*
X105013000Y-120757000D02*
X98013000Y-120757000D01*
X98013000Y-120757000D02*
X98013000Y-118257000D01*
X98013000Y-118257000D02*
X105013000Y-118257000D01*
X105013000Y-118257000D02*
X105013000Y-120757000D01*
X102636000Y-101711000D02*
X102636000Y-94711000D01*
X102636000Y-94711000D02*
X105136000Y-94711000D01*
X105136000Y-94711000D02*
X105136000Y-101711000D01*
X105136000Y-101711000D02*
X102636000Y-101711000D01*
X158988000Y-74275000D02*
X151988000Y-74275000D01*
X151988000Y-74275000D02*
X151988000Y-71775000D01*
X151988000Y-71775000D02*
X158988000Y-71775000D01*
X158988000Y-71775000D02*
X158988000Y-74275000D01*
X137557000Y-104287000D02*
X144557000Y-104287000D01*
X144557000Y-104287000D02*
X144557000Y-106787000D01*
X144557000Y-106787000D02*
X137557000Y-106787000D01*
X137557000Y-106787000D02*
X137557000Y-104287000D01*
X123750600Y-91616000D02*
X127150600Y-91616000D01*
X123753544Y-91613056D02*
G75*
G02X125450600Y-87516000I1697056J1697056D01*
G01*
X127147656Y-91613056D02*
G75*
G03X125450600Y-87516000I-1697056J1697056D01*
G01*
X151638000Y-111760000D02*
X151638000Y-118110000D01*
X159258000Y-111760000D02*
X159258000Y-118110000D01*
X159258000Y-113665000D02*
X151638000Y-113665000D01*
X151638000Y-111760000D02*
X159258000Y-111760000D01*
X159258000Y-118110000D02*
X151638000Y-118110000D01*
X151638000Y-119507000D02*
X151638000Y-125857000D01*
X159258000Y-119507000D02*
X159258000Y-125857000D01*
X159258000Y-121412000D02*
X151638000Y-121412000D01*
X151638000Y-119507000D02*
X159258000Y-119507000D01*
X159258000Y-125857000D02*
X151638000Y-125857000D01*
X130810000Y-124206000D02*
X130810000Y-121666000D01*
X132229903Y-124206000D02*
G75*
G03X132229903Y-124206000I-1419903J0D01*
G01*
X125857000Y-124206000D02*
X125857000Y-121666000D01*
X127276903Y-124206000D02*
G75*
G03X127276903Y-124206000I-1419903J0D01*
G01*
X108204000Y-106807000D02*
X115824000Y-106807000D01*
X108204000Y-104267000D02*
X115824000Y-104267000D01*
X105384000Y-103987000D02*
X106934000Y-103987000D01*
X115824000Y-106807000D02*
X115824000Y-104267000D01*
X108204000Y-104267000D02*
X108204000Y-106807000D01*
X106934000Y-107087000D02*
X105384000Y-107087000D01*
X105384000Y-107087000D02*
X105384000Y-103987000D01*
X145710000Y-116150000D02*
X150708000Y-116150000D01*
X145718000Y-116010000D02*
X150700000Y-116010000D01*
X145734000Y-115870000D02*
X148114000Y-115870000D01*
X148304000Y-115870000D02*
X150684000Y-115870000D01*
X145758000Y-115730000D02*
X147719000Y-115730000D01*
X148699000Y-115730000D02*
X150660000Y-115730000D01*
X145791000Y-115590000D02*
X147552000Y-115590000D01*
X148866000Y-115590000D02*
X150627000Y-115590000D01*
X145832000Y-115450000D02*
X147445000Y-115450000D01*
X148973000Y-115450000D02*
X150586000Y-115450000D01*
X145882000Y-115310000D02*
X147374000Y-115310000D01*
X149044000Y-115310000D02*
X150536000Y-115310000D01*
X145943000Y-115170000D02*
X147330000Y-115170000D01*
X149088000Y-115170000D02*
X150475000Y-115170000D01*
X146013000Y-115030000D02*
X147311000Y-115030000D01*
X149107000Y-115030000D02*
X150405000Y-115030000D01*
X146095000Y-114890000D02*
X147313000Y-114890000D01*
X149105000Y-114890000D02*
X150323000Y-114890000D01*
X146190000Y-114750000D02*
X147338000Y-114750000D01*
X149080000Y-114750000D02*
X150228000Y-114750000D01*
X146301000Y-114610000D02*
X147386000Y-114610000D01*
X149032000Y-114610000D02*
X150117000Y-114610000D01*
X146429000Y-114470000D02*
X147464000Y-114470000D01*
X148954000Y-114470000D02*
X149989000Y-114470000D01*
X146578000Y-114330000D02*
X147581000Y-114330000D01*
X148837000Y-114330000D02*
X149840000Y-114330000D01*
X146757000Y-114190000D02*
X147769000Y-114190000D01*
X148649000Y-114190000D02*
X149661000Y-114190000D01*
X146976000Y-114050000D02*
X149442000Y-114050000D01*
X147265000Y-113910000D02*
X149153000Y-113910000D01*
X147737000Y-113770000D02*
X148681000Y-113770000D01*
X149109000Y-114975000D02*
G75*
G03X149109000Y-114975000I-900000J0D01*
G01*
X150746500Y-116225000D02*
G75*
G03X150746500Y-116225000I-2537500J0D01*
G01*
X135327000Y-104607000D02*
X135327000Y-99609000D01*
X135187000Y-104599000D02*
X135187000Y-99617000D01*
X135047000Y-104583000D02*
X135047000Y-102203000D01*
X135047000Y-102013000D02*
X135047000Y-99633000D01*
X134907000Y-104559000D02*
X134907000Y-102598000D01*
X134907000Y-101618000D02*
X134907000Y-99657000D01*
X134767000Y-104526000D02*
X134767000Y-102765000D01*
X134767000Y-101451000D02*
X134767000Y-99690000D01*
X134627000Y-104485000D02*
X134627000Y-102872000D01*
X134627000Y-101344000D02*
X134627000Y-99731000D01*
X134487000Y-104435000D02*
X134487000Y-102943000D01*
X134487000Y-101273000D02*
X134487000Y-99781000D01*
X134347000Y-104374000D02*
X134347000Y-102987000D01*
X134347000Y-101229000D02*
X134347000Y-99842000D01*
X134207000Y-104304000D02*
X134207000Y-103006000D01*
X134207000Y-101210000D02*
X134207000Y-99912000D01*
X134067000Y-104222000D02*
X134067000Y-103004000D01*
X134067000Y-101212000D02*
X134067000Y-99994000D01*
X133927000Y-104127000D02*
X133927000Y-102979000D01*
X133927000Y-101237000D02*
X133927000Y-100089000D01*
X133787000Y-104016000D02*
X133787000Y-102931000D01*
X133787000Y-101285000D02*
X133787000Y-100200000D01*
X133647000Y-103888000D02*
X133647000Y-102853000D01*
X133647000Y-101363000D02*
X133647000Y-100328000D01*
X133507000Y-103739000D02*
X133507000Y-102736000D01*
X133507000Y-101480000D02*
X133507000Y-100477000D01*
X133367000Y-103560000D02*
X133367000Y-102548000D01*
X133367000Y-101668000D02*
X133367000Y-100656000D01*
X133227000Y-103341000D02*
X133227000Y-100875000D01*
X133087000Y-103052000D02*
X133087000Y-101164000D01*
X132947000Y-102580000D02*
X132947000Y-101636000D01*
X135052000Y-102108000D02*
G75*
G03X135052000Y-102108000I-900000J0D01*
G01*
X137939500Y-102108000D02*
G75*
G03X137939500Y-102108000I-2537500J0D01*
G01*
D14*
X133350000Y-98679000D02*
X133350000Y-78359000D01*
X135890000Y-78359000D02*
X135890000Y-98679000D01*
D15*
X133350000Y-96139000D02*
X135890000Y-96139000D01*
D14*
X133350000Y-78359000D02*
X135890000Y-78359000D01*
D15*
X135890000Y-98679000D02*
X133350000Y-98679000D01*
D14*
X108204000Y-71755000D02*
X128524000Y-71755000D01*
X128524000Y-74295000D02*
X108204000Y-74295000D01*
D15*
X110744000Y-71755000D02*
X110744000Y-74295000D01*
D14*
X128524000Y-71755000D02*
X128524000Y-74295000D01*
D15*
X108204000Y-74295000D02*
X108204000Y-71755000D01*
D14*
X129794000Y-91059000D02*
X129794000Y-78359000D01*
X132334000Y-78359000D02*
X132334000Y-91059000D01*
D15*
X129794000Y-88519000D02*
X132334000Y-88519000D01*
D14*
X129794000Y-78359000D02*
X132334000Y-78359000D01*
D15*
X132334000Y-91059000D02*
X129794000Y-91059000D01*
D14*
X142494000Y-74295000D02*
X129794000Y-74295000D01*
X129794000Y-71755000D02*
X142494000Y-71755000D01*
D15*
X139954000Y-74295000D02*
X139954000Y-71755000D01*
D14*
X129794000Y-74295000D02*
X129794000Y-71755000D01*
D15*
X142494000Y-71755000D02*
X142494000Y-74295000D01*
D14*
X108204000Y-89027000D02*
X120904000Y-89027000D01*
X120904000Y-91567000D02*
X108204000Y-91567000D01*
D15*
X110744000Y-89027000D02*
X110744000Y-91567000D01*
D14*
X120904000Y-89027000D02*
X120904000Y-91567000D01*
D15*
X108204000Y-91567000D02*
X108204000Y-89027000D01*
D14*
X129794000Y-106807000D02*
X129794000Y-94107000D01*
X132334000Y-94107000D02*
X132334000Y-106807000D01*
D15*
X129794000Y-104267000D02*
X132334000Y-104267000D01*
D14*
X129794000Y-94107000D02*
X132334000Y-94107000D01*
D15*
X132334000Y-106807000D02*
X129794000Y-106807000D01*
D16*
G36*
X163268900Y-124330903D02*
X163380450Y-124386522D01*
X163478908Y-124488931D01*
X163506023Y-124526864D01*
X163535562Y-124576500D01*
X163554728Y-124630412D01*
X163565693Y-124702364D01*
X163570629Y-124806122D01*
X163571713Y-124943101D01*
X163566818Y-125130815D01*
X163549804Y-125271758D01*
X163517177Y-125376908D01*
X163465442Y-125457243D01*
X163391104Y-125523741D01*
X163385642Y-125527678D01*
X163312380Y-125567953D01*
X163224160Y-125587880D01*
X163111962Y-125592793D01*
X162929567Y-125592793D01*
X162929491Y-125769857D01*
X162927793Y-125868470D01*
X162917450Y-125926314D01*
X162890422Y-125961006D01*
X162838668Y-125990164D01*
X162826239Y-125996121D01*
X162768077Y-126024039D01*
X162723044Y-126041672D01*
X162689559Y-126043194D01*
X162666038Y-126022781D01*
X162650900Y-125974607D01*
X162642563Y-125892846D01*
X162639444Y-125771672D01*
X162639960Y-125605260D01*
X162642529Y-125387785D01*
X162643332Y-125322736D01*
X162646222Y-125098502D01*
X162648812Y-124951821D01*
X162929414Y-124951821D01*
X162930991Y-125076326D01*
X162938000Y-125157787D01*
X162953858Y-125211515D01*
X162981981Y-125252823D01*
X163001075Y-125272971D01*
X163079135Y-125331921D01*
X163148247Y-125336720D01*
X163219560Y-125288038D01*
X163221368Y-125286241D01*
X163250383Y-125248618D01*
X163268033Y-125197484D01*
X163276936Y-125118738D01*
X163279709Y-124998276D01*
X163279759Y-124971588D01*
X163273058Y-124805583D01*
X163251248Y-124690505D01*
X163211765Y-124620254D01*
X163152044Y-124588729D01*
X163117528Y-124585552D01*
X163035611Y-124600460D01*
X162979421Y-124649548D01*
X162945598Y-124739362D01*
X162930780Y-124876445D01*
X162929414Y-124951821D01*
X162648812Y-124951821D01*
X162649287Y-124924952D01*
X162653247Y-124794382D01*
X162658826Y-124699087D01*
X162666746Y-124631364D01*
X162677731Y-124583507D01*
X162692501Y-124547813D01*
X162711782Y-124516578D01*
X162720049Y-124504824D01*
X162829712Y-124393797D01*
X162968365Y-124330847D01*
X163128754Y-124313297D01*
X163268900Y-124330903D01*
X163268900Y-124330903D01*
G37*
X163268900Y-124330903D02*
X163380450Y-124386522D01*
X163478908Y-124488931D01*
X163506023Y-124526864D01*
X163535562Y-124576500D01*
X163554728Y-124630412D01*
X163565693Y-124702364D01*
X163570629Y-124806122D01*
X163571713Y-124943101D01*
X163566818Y-125130815D01*
X163549804Y-125271758D01*
X163517177Y-125376908D01*
X163465442Y-125457243D01*
X163391104Y-125523741D01*
X163385642Y-125527678D01*
X163312380Y-125567953D01*
X163224160Y-125587880D01*
X163111962Y-125592793D01*
X162929567Y-125592793D01*
X162929491Y-125769857D01*
X162927793Y-125868470D01*
X162917450Y-125926314D01*
X162890422Y-125961006D01*
X162838668Y-125990164D01*
X162826239Y-125996121D01*
X162768077Y-126024039D01*
X162723044Y-126041672D01*
X162689559Y-126043194D01*
X162666038Y-126022781D01*
X162650900Y-125974607D01*
X162642563Y-125892846D01*
X162639444Y-125771672D01*
X162639960Y-125605260D01*
X162642529Y-125387785D01*
X162643332Y-125322736D01*
X162646222Y-125098502D01*
X162648812Y-124951821D01*
X162929414Y-124951821D01*
X162930991Y-125076326D01*
X162938000Y-125157787D01*
X162953858Y-125211515D01*
X162981981Y-125252823D01*
X163001075Y-125272971D01*
X163079135Y-125331921D01*
X163148247Y-125336720D01*
X163219560Y-125288038D01*
X163221368Y-125286241D01*
X163250383Y-125248618D01*
X163268033Y-125197484D01*
X163276936Y-125118738D01*
X163279709Y-124998276D01*
X163279759Y-124971588D01*
X163273058Y-124805583D01*
X163251248Y-124690505D01*
X163211765Y-124620254D01*
X163152044Y-124588729D01*
X163117528Y-124585552D01*
X163035611Y-124600460D01*
X162979421Y-124649548D01*
X162945598Y-124739362D01*
X162930780Y-124876445D01*
X162929414Y-124951821D01*
X162648812Y-124951821D01*
X162649287Y-124924952D01*
X162653247Y-124794382D01*
X162658826Y-124699087D01*
X162666746Y-124631364D01*
X162677731Y-124583507D01*
X162692501Y-124547813D01*
X162711782Y-124516578D01*
X162720049Y-124504824D01*
X162829712Y-124393797D01*
X162968365Y-124330847D01*
X163128754Y-124313297D01*
X163268900Y-124330903D01*
G36*
X165514429Y-124346719D02*
X165608123Y-124400914D01*
X165673264Y-124454707D01*
X165720907Y-124511066D01*
X165753728Y-124579987D01*
X165774406Y-124671468D01*
X165785620Y-124795506D01*
X165790049Y-124962098D01*
X165790563Y-125081851D01*
X165790563Y-125522659D01*
X165666483Y-125578283D01*
X165542402Y-125633907D01*
X165527805Y-125151095D01*
X165521773Y-124970779D01*
X165515445Y-124839901D01*
X165507606Y-124749511D01*
X165497037Y-124690664D01*
X165482523Y-124654413D01*
X165462848Y-124631810D01*
X165456535Y-124626917D01*
X165360888Y-124588706D01*
X165264207Y-124603827D01*
X165206655Y-124643943D01*
X165183245Y-124672370D01*
X165167039Y-124709672D01*
X165156741Y-124766223D01*
X165151049Y-124852394D01*
X165148664Y-124978558D01*
X165148264Y-125110042D01*
X165148186Y-125274999D01*
X165145361Y-125391761D01*
X165135907Y-125470510D01*
X165115940Y-125521431D01*
X165081576Y-125554706D01*
X165028932Y-125580520D01*
X164958617Y-125607344D01*
X164881820Y-125636542D01*
X164890962Y-125118346D01*
X164894643Y-124931539D01*
X164898950Y-124793490D01*
X164905123Y-124694568D01*
X164914402Y-124625145D01*
X164928027Y-124575590D01*
X164947239Y-124536273D01*
X164970402Y-124501584D01*
X165082152Y-124390770D01*
X165218513Y-124326689D01*
X165366825Y-124311339D01*
X165514429Y-124346719D01*
X165514429Y-124346719D01*
G37*
X165514429Y-124346719D02*
X165608123Y-124400914D01*
X165673264Y-124454707D01*
X165720907Y-124511066D01*
X165753728Y-124579987D01*
X165774406Y-124671468D01*
X165785620Y-124795506D01*
X165790049Y-124962098D01*
X165790563Y-125081851D01*
X165790563Y-125522659D01*
X165666483Y-125578283D01*
X165542402Y-125633907D01*
X165527805Y-125151095D01*
X165521773Y-124970779D01*
X165515445Y-124839901D01*
X165507606Y-124749511D01*
X165497037Y-124690664D01*
X165482523Y-124654413D01*
X165462848Y-124631810D01*
X165456535Y-124626917D01*
X165360888Y-124588706D01*
X165264207Y-124603827D01*
X165206655Y-124643943D01*
X165183245Y-124672370D01*
X165167039Y-124709672D01*
X165156741Y-124766223D01*
X165151049Y-124852394D01*
X165148664Y-124978558D01*
X165148264Y-125110042D01*
X165148186Y-125274999D01*
X165145361Y-125391761D01*
X165135907Y-125470510D01*
X165115940Y-125521431D01*
X165081576Y-125554706D01*
X165028932Y-125580520D01*
X164958617Y-125607344D01*
X164881820Y-125636542D01*
X164890962Y-125118346D01*
X164894643Y-124931539D01*
X164898950Y-124793490D01*
X164905123Y-124694568D01*
X164914402Y-124625145D01*
X164928027Y-124575590D01*
X164947239Y-124536273D01*
X164970402Y-124501584D01*
X165082152Y-124390770D01*
X165218513Y-124326689D01*
X165366825Y-124311339D01*
X165514429Y-124346719D01*
G36*
X162145221Y-124335015D02*
X162282061Y-124406968D01*
X162383051Y-124522766D01*
X162418925Y-124597213D01*
X162446839Y-124708992D01*
X162461129Y-124850227D01*
X162462484Y-125004371D01*
X162451595Y-125154879D01*
X162429153Y-125285205D01*
X162395850Y-125378803D01*
X162385615Y-125394922D01*
X162264382Y-125515249D01*
X162120387Y-125587317D01*
X161964139Y-125608408D01*
X161806148Y-125575802D01*
X161762180Y-125556253D01*
X161676556Y-125496012D01*
X161601408Y-125416135D01*
X161594306Y-125406004D01*
X161565439Y-125357181D01*
X161546357Y-125304990D01*
X161535084Y-125236285D01*
X161529645Y-125137918D01*
X161528062Y-124996744D01*
X161528035Y-124965092D01*
X161528107Y-124955019D01*
X161819989Y-124955019D01*
X161821687Y-125088256D01*
X161828372Y-125176674D01*
X161842425Y-125233785D01*
X161866229Y-125273102D01*
X161878379Y-125286241D01*
X161948236Y-125336172D01*
X162016059Y-125333895D01*
X162084635Y-125290584D01*
X162125535Y-125244346D01*
X162149758Y-125176857D01*
X162163361Y-125070433D01*
X162164294Y-125058020D01*
X162166616Y-124865147D01*
X162142350Y-124721900D01*
X162091824Y-124629160D01*
X162015368Y-124587807D01*
X161988076Y-124585552D01*
X161916411Y-124596893D01*
X161867390Y-124636184D01*
X161837418Y-124711326D01*
X161822899Y-124830222D01*
X161819989Y-124955019D01*
X161528107Y-124955019D01*
X161529122Y-124814659D01*
X161533688Y-124709549D01*
X161543688Y-124636714D01*
X161561079Y-124583108D01*
X161587816Y-124535681D01*
X161593724Y-124526864D01*
X161693032Y-124408007D01*
X161801242Y-124339008D01*
X161932981Y-124311619D01*
X161977717Y-124310281D01*
X162145221Y-124335015D01*
X162145221Y-124335015D01*
G37*
X162145221Y-124335015D02*
X162282061Y-124406968D01*
X162383051Y-124522766D01*
X162418925Y-124597213D01*
X162446839Y-124708992D01*
X162461129Y-124850227D01*
X162462484Y-125004371D01*
X162451595Y-125154879D01*
X162429153Y-125285205D01*
X162395850Y-125378803D01*
X162385615Y-125394922D01*
X162264382Y-125515249D01*
X162120387Y-125587317D01*
X161964139Y-125608408D01*
X161806148Y-125575802D01*
X161762180Y-125556253D01*
X161676556Y-125496012D01*
X161601408Y-125416135D01*
X161594306Y-125406004D01*
X161565439Y-125357181D01*
X161546357Y-125304990D01*
X161535084Y-125236285D01*
X161529645Y-125137918D01*
X161528062Y-124996744D01*
X161528035Y-124965092D01*
X161528107Y-124955019D01*
X161819989Y-124955019D01*
X161821687Y-125088256D01*
X161828372Y-125176674D01*
X161842425Y-125233785D01*
X161866229Y-125273102D01*
X161878379Y-125286241D01*
X161948236Y-125336172D01*
X162016059Y-125333895D01*
X162084635Y-125290584D01*
X162125535Y-125244346D01*
X162149758Y-125176857D01*
X162163361Y-125070433D01*
X162164294Y-125058020D01*
X162166616Y-124865147D01*
X162142350Y-124721900D01*
X162091824Y-124629160D01*
X162015368Y-124587807D01*
X161988076Y-124585552D01*
X161916411Y-124596893D01*
X161867390Y-124636184D01*
X161837418Y-124711326D01*
X161822899Y-124830222D01*
X161819989Y-124955019D01*
X161528107Y-124955019D01*
X161529122Y-124814659D01*
X161533688Y-124709549D01*
X161543688Y-124636714D01*
X161561079Y-124583108D01*
X161587816Y-124535681D01*
X161593724Y-124526864D01*
X161693032Y-124408007D01*
X161801242Y-124339008D01*
X161932981Y-124311619D01*
X161977717Y-124310281D01*
X162145221Y-124335015D01*
G36*
X164412552Y-124353676D02*
X164527658Y-124431111D01*
X164616611Y-124542949D01*
X164669749Y-124685265D01*
X164680497Y-124790015D01*
X164679276Y-124833726D01*
X164669056Y-124867194D01*
X164640961Y-124897179D01*
X164586116Y-124930440D01*
X164495645Y-124973738D01*
X164360672Y-125033833D01*
X164359989Y-125034134D01*
X164235751Y-125091037D01*
X164133873Y-125141565D01*
X164064767Y-125180280D01*
X164038846Y-125201740D01*
X164038839Y-125201913D01*
X164061685Y-125248644D01*
X164115109Y-125300154D01*
X164176442Y-125337261D01*
X164207515Y-125344632D01*
X164292289Y-125319138D01*
X164365293Y-125255291D01*
X164400913Y-125185094D01*
X164435180Y-125133343D01*
X164502303Y-125074409D01*
X164581208Y-125023496D01*
X164650821Y-124995809D01*
X164665377Y-124994287D01*
X164681763Y-125019321D01*
X164682750Y-125083311D01*
X164670708Y-125169593D01*
X164648007Y-125261501D01*
X164617014Y-125342369D01*
X164615448Y-125345509D01*
X164522181Y-125475734D01*
X164401304Y-125564311D01*
X164264027Y-125607786D01*
X164121560Y-125602706D01*
X163985112Y-125545616D01*
X163979045Y-125541602D01*
X163871710Y-125444326D01*
X163801132Y-125317409D01*
X163762074Y-125150526D01*
X163756832Y-125103639D01*
X163747548Y-124882329D01*
X163758678Y-124779124D01*
X164038839Y-124779124D01*
X164042479Y-124843503D01*
X164062389Y-124862291D01*
X164112026Y-124848235D01*
X164190267Y-124815009D01*
X164277726Y-124773359D01*
X164279899Y-124772256D01*
X164354030Y-124733265D01*
X164383781Y-124707244D01*
X164376445Y-124679965D01*
X164345553Y-124644121D01*
X164266960Y-124592251D01*
X164182323Y-124588439D01*
X164106403Y-124626189D01*
X164053965Y-124699001D01*
X164038839Y-124779124D01*
X163758678Y-124779124D01*
X163766644Y-124705261D01*
X163815634Y-124564829D01*
X163883836Y-124466447D01*
X164006935Y-124367030D01*
X164142528Y-124317711D01*
X164280955Y-124314568D01*
X164412552Y-124353676D01*
X164412552Y-124353676D01*
G37*
X164412552Y-124353676D02*
X164527658Y-124431111D01*
X164616611Y-124542949D01*
X164669749Y-124685265D01*
X164680497Y-124790015D01*
X164679276Y-124833726D01*
X164669056Y-124867194D01*
X164640961Y-124897179D01*
X164586116Y-124930440D01*
X164495645Y-124973738D01*
X164360672Y-125033833D01*
X164359989Y-125034134D01*
X164235751Y-125091037D01*
X164133873Y-125141565D01*
X164064767Y-125180280D01*
X164038846Y-125201740D01*
X164038839Y-125201913D01*
X164061685Y-125248644D01*
X164115109Y-125300154D01*
X164176442Y-125337261D01*
X164207515Y-125344632D01*
X164292289Y-125319138D01*
X164365293Y-125255291D01*
X164400913Y-125185094D01*
X164435180Y-125133343D01*
X164502303Y-125074409D01*
X164581208Y-125023496D01*
X164650821Y-124995809D01*
X164665377Y-124994287D01*
X164681763Y-125019321D01*
X164682750Y-125083311D01*
X164670708Y-125169593D01*
X164648007Y-125261501D01*
X164617014Y-125342369D01*
X164615448Y-125345509D01*
X164522181Y-125475734D01*
X164401304Y-125564311D01*
X164264027Y-125607786D01*
X164121560Y-125602706D01*
X163985112Y-125545616D01*
X163979045Y-125541602D01*
X163871710Y-125444326D01*
X163801132Y-125317409D01*
X163762074Y-125150526D01*
X163756832Y-125103639D01*
X163747548Y-124882329D01*
X163758678Y-124779124D01*
X164038839Y-124779124D01*
X164042479Y-124843503D01*
X164062389Y-124862291D01*
X164112026Y-124848235D01*
X164190267Y-124815009D01*
X164277726Y-124773359D01*
X164279899Y-124772256D01*
X164354030Y-124733265D01*
X164383781Y-124707244D01*
X164376445Y-124679965D01*
X164345553Y-124644121D01*
X164266960Y-124592251D01*
X164182323Y-124588439D01*
X164106403Y-124626189D01*
X164053965Y-124699001D01*
X164038839Y-124779124D01*
X163758678Y-124779124D01*
X163766644Y-124705261D01*
X163815634Y-124564829D01*
X163883836Y-124466447D01*
X164006935Y-124367030D01*
X164142528Y-124317711D01*
X164280955Y-124314568D01*
X164412552Y-124353676D01*
G36*
X166841598Y-124192857D02*
X166850154Y-124312188D01*
X166859981Y-124382506D01*
X166873599Y-124413179D01*
X166893527Y-124413571D01*
X166899989Y-124409910D01*
X166985940Y-124383398D01*
X167097745Y-124384946D01*
X167211414Y-124412199D01*
X167282510Y-124447455D01*
X167355405Y-124503778D01*
X167408693Y-124567519D01*
X167445275Y-124648510D01*
X167468050Y-124756586D01*
X167479919Y-124901580D01*
X167483782Y-125093326D01*
X167483851Y-125130109D01*
X167483897Y-125543288D01*
X167391954Y-125575339D01*
X167326652Y-125597144D01*
X167290824Y-125607297D01*
X167289770Y-125607391D01*
X167286242Y-125579860D01*
X167283239Y-125503923D01*
X167280990Y-125389565D01*
X167279724Y-125246769D01*
X167279529Y-125159951D01*
X167279123Y-124988773D01*
X167277032Y-124866088D01*
X167271947Y-124782000D01*
X167262560Y-124726614D01*
X167247561Y-124690032D01*
X167225642Y-124662359D01*
X167211957Y-124649032D01*
X167117949Y-124595328D01*
X167015364Y-124591307D01*
X166922290Y-124636725D01*
X166905078Y-124653123D01*
X166879832Y-124683957D01*
X166862320Y-124720531D01*
X166851142Y-124773415D01*
X166844896Y-124853177D01*
X166842182Y-124970385D01*
X166841598Y-125131991D01*
X166841598Y-125543288D01*
X166749655Y-125575339D01*
X166684353Y-125597144D01*
X166648525Y-125607297D01*
X166647471Y-125607391D01*
X166644775Y-125579448D01*
X166642345Y-125500630D01*
X166640278Y-125378453D01*
X166638671Y-125220432D01*
X166637623Y-125034083D01*
X166637231Y-124826920D01*
X166637230Y-124817706D01*
X166637230Y-124028020D01*
X166732115Y-123987997D01*
X166827000Y-123947973D01*
X166841598Y-124192857D01*
X166841598Y-124192857D01*
G37*
X166841598Y-124192857D02*
X166850154Y-124312188D01*
X166859981Y-124382506D01*
X166873599Y-124413179D01*
X166893527Y-124413571D01*
X166899989Y-124409910D01*
X166985940Y-124383398D01*
X167097745Y-124384946D01*
X167211414Y-124412199D01*
X167282510Y-124447455D01*
X167355405Y-124503778D01*
X167408693Y-124567519D01*
X167445275Y-124648510D01*
X167468050Y-124756586D01*
X167479919Y-124901580D01*
X167483782Y-125093326D01*
X167483851Y-125130109D01*
X167483897Y-125543288D01*
X167391954Y-125575339D01*
X167326652Y-125597144D01*
X167290824Y-125607297D01*
X167289770Y-125607391D01*
X167286242Y-125579860D01*
X167283239Y-125503923D01*
X167280990Y-125389565D01*
X167279724Y-125246769D01*
X167279529Y-125159951D01*
X167279123Y-124988773D01*
X167277032Y-124866088D01*
X167271947Y-124782000D01*
X167262560Y-124726614D01*
X167247561Y-124690032D01*
X167225642Y-124662359D01*
X167211957Y-124649032D01*
X167117949Y-124595328D01*
X167015364Y-124591307D01*
X166922290Y-124636725D01*
X166905078Y-124653123D01*
X166879832Y-124683957D01*
X166862320Y-124720531D01*
X166851142Y-124773415D01*
X166844896Y-124853177D01*
X166842182Y-124970385D01*
X166841598Y-125131991D01*
X166841598Y-125543288D01*
X166749655Y-125575339D01*
X166684353Y-125597144D01*
X166648525Y-125607297D01*
X166647471Y-125607391D01*
X166644775Y-125579448D01*
X166642345Y-125500630D01*
X166640278Y-125378453D01*
X166638671Y-125220432D01*
X166637623Y-125034083D01*
X166637231Y-124826920D01*
X166637230Y-124817706D01*
X166637230Y-124028020D01*
X166732115Y-123987997D01*
X166827000Y-123947973D01*
X166841598Y-124192857D01*
G36*
X168176944Y-124393360D02*
X168291343Y-124435842D01*
X168292652Y-124436658D01*
X168363403Y-124488730D01*
X168415636Y-124549584D01*
X168452371Y-124628887D01*
X168476634Y-124736309D01*
X168491445Y-124881517D01*
X168499829Y-125074179D01*
X168500564Y-125101628D01*
X168511120Y-125515521D01*
X168422291Y-125561456D01*
X168358018Y-125592498D01*
X168319210Y-125607206D01*
X168317415Y-125607391D01*
X168310700Y-125580250D01*
X168305365Y-125507041D01*
X168302083Y-125400081D01*
X168301368Y-125313469D01*
X168301351Y-125173162D01*
X168294937Y-125085051D01*
X168272580Y-125043025D01*
X168224732Y-125040975D01*
X168141849Y-125072790D01*
X168016713Y-125131272D01*
X167924697Y-125179845D01*
X167877371Y-125221986D01*
X167863458Y-125267916D01*
X167863437Y-125270189D01*
X167886395Y-125349311D01*
X167954370Y-125392055D01*
X168058398Y-125398246D01*
X168133330Y-125397172D01*
X168172839Y-125418753D01*
X168197478Y-125470591D01*
X168211659Y-125536632D01*
X168191223Y-125574104D01*
X168183528Y-125579467D01*
X168111083Y-125601006D01*
X168009633Y-125604055D01*
X167905157Y-125589778D01*
X167831125Y-125563688D01*
X167728772Y-125476785D01*
X167670591Y-125355816D01*
X167659069Y-125261308D01*
X167667862Y-125176062D01*
X167699680Y-125106476D01*
X167762684Y-125044672D01*
X167865031Y-124982772D01*
X168014882Y-124912897D01*
X168024012Y-124908948D01*
X168158997Y-124846588D01*
X168242294Y-124795446D01*
X168277997Y-124749488D01*
X168270203Y-124702683D01*
X168223007Y-124648998D01*
X168208894Y-124636644D01*
X168114359Y-124588741D01*
X168016406Y-124590758D01*
X167931097Y-124637724D01*
X167874496Y-124724669D01*
X167869237Y-124741734D01*
X167818023Y-124824504D01*
X167753037Y-124864372D01*
X167659069Y-124903882D01*
X167659069Y-124801658D01*
X167687653Y-124653072D01*
X167772495Y-124516784D01*
X167816645Y-124471191D01*
X167917005Y-124412674D01*
X168044635Y-124386184D01*
X168176944Y-124393360D01*
X168176944Y-124393360D01*
G37*
X168176944Y-124393360D02*
X168291343Y-124435842D01*
X168292652Y-124436658D01*
X168363403Y-124488730D01*
X168415636Y-124549584D01*
X168452371Y-124628887D01*
X168476634Y-124736309D01*
X168491445Y-124881517D01*
X168499829Y-125074179D01*
X168500564Y-125101628D01*
X168511120Y-125515521D01*
X168422291Y-125561456D01*
X168358018Y-125592498D01*
X168319210Y-125607206D01*
X168317415Y-125607391D01*
X168310700Y-125580250D01*
X168305365Y-125507041D01*
X168302083Y-125400081D01*
X168301368Y-125313469D01*
X168301351Y-125173162D01*
X168294937Y-125085051D01*
X168272580Y-125043025D01*
X168224732Y-125040975D01*
X168141849Y-125072790D01*
X168016713Y-125131272D01*
X167924697Y-125179845D01*
X167877371Y-125221986D01*
X167863458Y-125267916D01*
X167863437Y-125270189D01*
X167886395Y-125349311D01*
X167954370Y-125392055D01*
X168058398Y-125398246D01*
X168133330Y-125397172D01*
X168172839Y-125418753D01*
X168197478Y-125470591D01*
X168211659Y-125536632D01*
X168191223Y-125574104D01*
X168183528Y-125579467D01*
X168111083Y-125601006D01*
X168009633Y-125604055D01*
X167905157Y-125589778D01*
X167831125Y-125563688D01*
X167728772Y-125476785D01*
X167670591Y-125355816D01*
X167659069Y-125261308D01*
X167667862Y-125176062D01*
X167699680Y-125106476D01*
X167762684Y-125044672D01*
X167865031Y-124982772D01*
X168014882Y-124912897D01*
X168024012Y-124908948D01*
X168158997Y-124846588D01*
X168242294Y-124795446D01*
X168277997Y-124749488D01*
X168270203Y-124702683D01*
X168223007Y-124648998D01*
X168208894Y-124636644D01*
X168114359Y-124588741D01*
X168016406Y-124590758D01*
X167931097Y-124637724D01*
X167874496Y-124724669D01*
X167869237Y-124741734D01*
X167818023Y-124824504D01*
X167753037Y-124864372D01*
X167659069Y-124903882D01*
X167659069Y-124801658D01*
X167687653Y-124653072D01*
X167772495Y-124516784D01*
X167816645Y-124471191D01*
X167917005Y-124412674D01*
X168044635Y-124386184D01*
X168176944Y-124393360D01*
G36*
X169162943Y-124390920D02*
X169295565Y-124439859D01*
X169403010Y-124526419D01*
X169445032Y-124587352D01*
X169490843Y-124699161D01*
X169489891Y-124780006D01*
X169441808Y-124834378D01*
X169424017Y-124843624D01*
X169347204Y-124872450D01*
X169307976Y-124865065D01*
X169294689Y-124816658D01*
X169294012Y-124789920D01*
X169269686Y-124691548D01*
X169206281Y-124622734D01*
X169118154Y-124589498D01*
X169019663Y-124597861D01*
X168939602Y-124641296D01*
X168912561Y-124666072D01*
X168893394Y-124696129D01*
X168880446Y-124741565D01*
X168872064Y-124812476D01*
X168866593Y-124918960D01*
X168862378Y-125071112D01*
X168861287Y-125119287D01*
X168857307Y-125284095D01*
X168852781Y-125400088D01*
X168845995Y-125476833D01*
X168835231Y-125523893D01*
X168818773Y-125550835D01*
X168794906Y-125567223D01*
X168779626Y-125574463D01*
X168714733Y-125599220D01*
X168676534Y-125607391D01*
X168663912Y-125580103D01*
X168656208Y-125497603D01*
X168653380Y-125358941D01*
X168655386Y-125163162D01*
X168656011Y-125132965D01*
X168660421Y-124954349D01*
X168665635Y-124823923D01*
X168673055Y-124731492D01*
X168684082Y-124666858D01*
X168700117Y-124619825D01*
X168722561Y-124580196D01*
X168734302Y-124563215D01*
X168801619Y-124488080D01*
X168876910Y-124429638D01*
X168886128Y-124424536D01*
X169021133Y-124384260D01*
X169162943Y-124390920D01*
X169162943Y-124390920D01*
G37*
X169162943Y-124390920D02*
X169295565Y-124439859D01*
X169403010Y-124526419D01*
X169445032Y-124587352D01*
X169490843Y-124699161D01*
X169489891Y-124780006D01*
X169441808Y-124834378D01*
X169424017Y-124843624D01*
X169347204Y-124872450D01*
X169307976Y-124865065D01*
X169294689Y-124816658D01*
X169294012Y-124789920D01*
X169269686Y-124691548D01*
X169206281Y-124622734D01*
X169118154Y-124589498D01*
X169019663Y-124597861D01*
X168939602Y-124641296D01*
X168912561Y-124666072D01*
X168893394Y-124696129D01*
X168880446Y-124741565D01*
X168872064Y-124812476D01*
X168866593Y-124918960D01*
X168862378Y-125071112D01*
X168861287Y-125119287D01*
X168857307Y-125284095D01*
X168852781Y-125400088D01*
X168845995Y-125476833D01*
X168835231Y-125523893D01*
X168818773Y-125550835D01*
X168794906Y-125567223D01*
X168779626Y-125574463D01*
X168714733Y-125599220D01*
X168676534Y-125607391D01*
X168663912Y-125580103D01*
X168656208Y-125497603D01*
X168653380Y-125358941D01*
X168655386Y-125163162D01*
X168656011Y-125132965D01*
X168660421Y-124954349D01*
X168665635Y-124823923D01*
X168673055Y-124731492D01*
X168684082Y-124666858D01*
X168700117Y-124619825D01*
X168722561Y-124580196D01*
X168734302Y-124563215D01*
X168801619Y-124488080D01*
X168876910Y-124429638D01*
X168886128Y-124424536D01*
X169021133Y-124384260D01*
X169162943Y-124390920D01*
G36*
X170490914Y-124623455D02*
X170490543Y-124841661D01*
X170489108Y-125009519D01*
X170486002Y-125135070D01*
X170480622Y-125226355D01*
X170472362Y-125291415D01*
X170460616Y-125338291D01*
X170444781Y-125375024D01*
X170432790Y-125395991D01*
X170333490Y-125509694D01*
X170207588Y-125580965D01*
X170068291Y-125606538D01*
X169928805Y-125583150D01*
X169845743Y-125541119D01*
X169758545Y-125468411D01*
X169699117Y-125379612D01*
X169663261Y-125263320D01*
X169646781Y-125108135D01*
X169644447Y-124994287D01*
X169644761Y-124986106D01*
X169848724Y-124986106D01*
X169849970Y-125116657D01*
X169855678Y-125203080D01*
X169868804Y-125259618D01*
X169892306Y-125300514D01*
X169920386Y-125331362D01*
X170014688Y-125390905D01*
X170115940Y-125395992D01*
X170211636Y-125346279D01*
X170219084Y-125339543D01*
X170250874Y-125304502D01*
X170270808Y-125262811D01*
X170281600Y-125200762D01*
X170285965Y-125104644D01*
X170286655Y-124998379D01*
X170285159Y-124864880D01*
X170278964Y-124775822D01*
X170265514Y-124717293D01*
X170242251Y-124675382D01*
X170223175Y-124653123D01*
X170134563Y-124596985D01*
X170032508Y-124590235D01*
X169935095Y-124633114D01*
X169916296Y-124649032D01*
X169884293Y-124684382D01*
X169864318Y-124726502D01*
X169853593Y-124789251D01*
X169849339Y-124886487D01*
X169848724Y-124986106D01*
X169644761Y-124986106D01*
X169651504Y-124810947D01*
X169675472Y-124673195D01*
X169720548Y-124569632D01*
X169790928Y-124488856D01*
X169845743Y-124447455D01*
X169945376Y-124402728D01*
X170060855Y-124381967D01*
X170168199Y-124387525D01*
X170228264Y-124409943D01*
X170251835Y-124416323D01*
X170267477Y-124392535D01*
X170278395Y-124328788D01*
X170286655Y-124231687D01*
X170295699Y-124123541D01*
X170308261Y-124058475D01*
X170331119Y-124021268D01*
X170371051Y-123996699D01*
X170396138Y-123985819D01*
X170491023Y-123946072D01*
X170490914Y-124623455D01*
X170490914Y-124623455D01*
G37*
X170490914Y-124623455D02*
X170490543Y-124841661D01*
X170489108Y-125009519D01*
X170486002Y-125135070D01*
X170480622Y-125226355D01*
X170472362Y-125291415D01*
X170460616Y-125338291D01*
X170444781Y-125375024D01*
X170432790Y-125395991D01*
X170333490Y-125509694D01*
X170207588Y-125580965D01*
X170068291Y-125606538D01*
X169928805Y-125583150D01*
X169845743Y-125541119D01*
X169758545Y-125468411D01*
X169699117Y-125379612D01*
X169663261Y-125263320D01*
X169646781Y-125108135D01*
X169644447Y-124994287D01*
X169644761Y-124986106D01*
X169848724Y-124986106D01*
X169849970Y-125116657D01*
X169855678Y-125203080D01*
X169868804Y-125259618D01*
X169892306Y-125300514D01*
X169920386Y-125331362D01*
X170014688Y-125390905D01*
X170115940Y-125395992D01*
X170211636Y-125346279D01*
X170219084Y-125339543D01*
X170250874Y-125304502D01*
X170270808Y-125262811D01*
X170281600Y-125200762D01*
X170285965Y-125104644D01*
X170286655Y-124998379D01*
X170285159Y-124864880D01*
X170278964Y-124775822D01*
X170265514Y-124717293D01*
X170242251Y-124675382D01*
X170223175Y-124653123D01*
X170134563Y-124596985D01*
X170032508Y-124590235D01*
X169935095Y-124633114D01*
X169916296Y-124649032D01*
X169884293Y-124684382D01*
X169864318Y-124726502D01*
X169853593Y-124789251D01*
X169849339Y-124886487D01*
X169848724Y-124986106D01*
X169644761Y-124986106D01*
X169651504Y-124810947D01*
X169675472Y-124673195D01*
X169720548Y-124569632D01*
X169790928Y-124488856D01*
X169845743Y-124447455D01*
X169945376Y-124402728D01*
X170060855Y-124381967D01*
X170168199Y-124387525D01*
X170228264Y-124409943D01*
X170251835Y-124416323D01*
X170267477Y-124392535D01*
X170278395Y-124328788D01*
X170286655Y-124231687D01*
X170295699Y-124123541D01*
X170308261Y-124058475D01*
X170331119Y-124021268D01*
X170371051Y-123996699D01*
X170396138Y-123985819D01*
X170491023Y-123946072D01*
X170490914Y-124623455D01*
G36*
X171677124Y-124408840D02*
X171681579Y-124485653D01*
X171685071Y-124602391D01*
X171687315Y-124749821D01*
X171688035Y-124904455D01*
X171688035Y-125427727D01*
X171595645Y-125520117D01*
X171531978Y-125577047D01*
X171476089Y-125600107D01*
X171399702Y-125598647D01*
X171369380Y-125594934D01*
X171274610Y-125584126D01*
X171196222Y-125577933D01*
X171177115Y-125577361D01*
X171112699Y-125581102D01*
X171020571Y-125590494D01*
X170984850Y-125594934D01*
X170897114Y-125601801D01*
X170838153Y-125586885D01*
X170779690Y-125540835D01*
X170758585Y-125520117D01*
X170666195Y-125427727D01*
X170666195Y-124448947D01*
X170740558Y-124415066D01*
X170804590Y-124389970D01*
X170842052Y-124381184D01*
X170851657Y-124408950D01*
X170860635Y-124486530D01*
X170868386Y-124605348D01*
X170874314Y-124756828D01*
X170877173Y-124884805D01*
X170885161Y-125388425D01*
X170954848Y-125398278D01*
X171018229Y-125391389D01*
X171049286Y-125369083D01*
X171057967Y-125327379D01*
X171065378Y-125238544D01*
X171070931Y-125113834D01*
X171074036Y-124964507D01*
X171074484Y-124887661D01*
X171074931Y-124445287D01*
X171166874Y-124413235D01*
X171231949Y-124391443D01*
X171267347Y-124381281D01*
X171268368Y-124381184D01*
X171271920Y-124408809D01*
X171275823Y-124485411D01*
X171279751Y-124601579D01*
X171283376Y-124747904D01*
X171285908Y-124884805D01*
X171293897Y-125388425D01*
X171469069Y-125388425D01*
X171477107Y-124928965D01*
X171485146Y-124469505D01*
X171570543Y-124425344D01*
X171633593Y-124395019D01*
X171670910Y-124381258D01*
X171671987Y-124381184D01*
X171677124Y-124408840D01*
X171677124Y-124408840D01*
G37*
X171677124Y-124408840D02*
X171681579Y-124485653D01*
X171685071Y-124602391D01*
X171687315Y-124749821D01*
X171688035Y-124904455D01*
X171688035Y-125427727D01*
X171595645Y-125520117D01*
X171531978Y-125577047D01*
X171476089Y-125600107D01*
X171399702Y-125598647D01*
X171369380Y-125594934D01*
X171274610Y-125584126D01*
X171196222Y-125577933D01*
X171177115Y-125577361D01*
X171112699Y-125581102D01*
X171020571Y-125590494D01*
X170984850Y-125594934D01*
X170897114Y-125601801D01*
X170838153Y-125586885D01*
X170779690Y-125540835D01*
X170758585Y-125520117D01*
X170666195Y-125427727D01*
X170666195Y-124448947D01*
X170740558Y-124415066D01*
X170804590Y-124389970D01*
X170842052Y-124381184D01*
X170851657Y-124408950D01*
X170860635Y-124486530D01*
X170868386Y-124605348D01*
X170874314Y-124756828D01*
X170877173Y-124884805D01*
X170885161Y-125388425D01*
X170954848Y-125398278D01*
X171018229Y-125391389D01*
X171049286Y-125369083D01*
X171057967Y-125327379D01*
X171065378Y-125238544D01*
X171070931Y-125113834D01*
X171074036Y-124964507D01*
X171074484Y-124887661D01*
X171074931Y-124445287D01*
X171166874Y-124413235D01*
X171231949Y-124391443D01*
X171267347Y-124381281D01*
X171268368Y-124381184D01*
X171271920Y-124408809D01*
X171275823Y-124485411D01*
X171279751Y-124601579D01*
X171283376Y-124747904D01*
X171285908Y-124884805D01*
X171293897Y-125388425D01*
X171469069Y-125388425D01*
X171477107Y-124928965D01*
X171485146Y-124469505D01*
X171570543Y-124425344D01*
X171633593Y-124395019D01*
X171670910Y-124381258D01*
X171671987Y-124381184D01*
X171677124Y-124408840D01*
G36*
X172411406Y-124404156D02*
X172495469Y-124442393D01*
X172561450Y-124488726D01*
X172609794Y-124540532D01*
X172643172Y-124607363D01*
X172664253Y-124698769D01*
X172675707Y-124824301D01*
X172680203Y-124993508D01*
X172680678Y-125104933D01*
X172680678Y-125539627D01*
X172606316Y-125573509D01*
X172547746Y-125598272D01*
X172518730Y-125607391D01*
X172513179Y-125580257D01*
X172508775Y-125507094D01*
X172506078Y-125400263D01*
X172505506Y-125315437D01*
X172503046Y-125192887D01*
X172496412Y-125095668D01*
X172486726Y-125036134D01*
X172479032Y-125023483D01*
X172427311Y-125036402D01*
X172346117Y-125069539D01*
X172252102Y-125114461D01*
X172161917Y-125162735D01*
X172092215Y-125205928D01*
X172059648Y-125235608D01*
X172059519Y-125235929D01*
X172062320Y-125290857D01*
X172087439Y-125343292D01*
X172131541Y-125385881D01*
X172195909Y-125400126D01*
X172250921Y-125398466D01*
X172328835Y-125397245D01*
X172369732Y-125415498D01*
X172394295Y-125463726D01*
X172397392Y-125472820D01*
X172408040Y-125541598D01*
X172379565Y-125583360D01*
X172305344Y-125603263D01*
X172225168Y-125606944D01*
X172080890Y-125579658D01*
X172006203Y-125540690D01*
X171913963Y-125449148D01*
X171865043Y-125336782D01*
X171860654Y-125218051D01*
X171902001Y-125107411D01*
X171964197Y-125038080D01*
X172026294Y-124999265D01*
X172123895Y-124950125D01*
X172237632Y-124900292D01*
X172256590Y-124892677D01*
X172381521Y-124837545D01*
X172453539Y-124788954D01*
X172476700Y-124740647D01*
X172455064Y-124686370D01*
X172417920Y-124643943D01*
X172330127Y-124591702D01*
X172233530Y-124587784D01*
X172144944Y-124628041D01*
X172081186Y-124708326D01*
X172072817Y-124729040D01*
X172024096Y-124805225D01*
X171952965Y-124861785D01*
X171863207Y-124908201D01*
X171863207Y-124776584D01*
X171868490Y-124696168D01*
X171891142Y-124632786D01*
X171941367Y-124565163D01*
X171989582Y-124513076D01*
X172064554Y-124439322D01*
X172122806Y-124399702D01*
X172185372Y-124383810D01*
X172256193Y-124381184D01*
X172411406Y-124404156D01*
X172411406Y-124404156D01*
G37*
X172411406Y-124404156D02*
X172495469Y-124442393D01*
X172561450Y-124488726D01*
X172609794Y-124540532D01*
X172643172Y-124607363D01*
X172664253Y-124698769D01*
X172675707Y-124824301D01*
X172680203Y-124993508D01*
X172680678Y-125104933D01*
X172680678Y-125539627D01*
X172606316Y-125573509D01*
X172547746Y-125598272D01*
X172518730Y-125607391D01*
X172513179Y-125580257D01*
X172508775Y-125507094D01*
X172506078Y-125400263D01*
X172505506Y-125315437D01*
X172503046Y-125192887D01*
X172496412Y-125095668D01*
X172486726Y-125036134D01*
X172479032Y-125023483D01*
X172427311Y-125036402D01*
X172346117Y-125069539D01*
X172252102Y-125114461D01*
X172161917Y-125162735D01*
X172092215Y-125205928D01*
X172059648Y-125235608D01*
X172059519Y-125235929D01*
X172062320Y-125290857D01*
X172087439Y-125343292D01*
X172131541Y-125385881D01*
X172195909Y-125400126D01*
X172250921Y-125398466D01*
X172328835Y-125397245D01*
X172369732Y-125415498D01*
X172394295Y-125463726D01*
X172397392Y-125472820D01*
X172408040Y-125541598D01*
X172379565Y-125583360D01*
X172305344Y-125603263D01*
X172225168Y-125606944D01*
X172080890Y-125579658D01*
X172006203Y-125540690D01*
X171913963Y-125449148D01*
X171865043Y-125336782D01*
X171860654Y-125218051D01*
X171902001Y-125107411D01*
X171964197Y-125038080D01*
X172026294Y-124999265D01*
X172123895Y-124950125D01*
X172237632Y-124900292D01*
X172256590Y-124892677D01*
X172381521Y-124837545D01*
X172453539Y-124788954D01*
X172476700Y-124740647D01*
X172455064Y-124686370D01*
X172417920Y-124643943D01*
X172330127Y-124591702D01*
X172233530Y-124587784D01*
X172144944Y-124628041D01*
X172081186Y-124708326D01*
X172072817Y-124729040D01*
X172024096Y-124805225D01*
X171952965Y-124861785D01*
X171863207Y-124908201D01*
X171863207Y-124776584D01*
X171868490Y-124696168D01*
X171891142Y-124632786D01*
X171941367Y-124565163D01*
X171989582Y-124513076D01*
X172064554Y-124439322D01*
X172122806Y-124399702D01*
X172185372Y-124383810D01*
X172256193Y-124381184D01*
X172411406Y-124404156D01*
G36*
X173432690Y-124409018D02*
X173467585Y-124424269D01*
X173550877Y-124490235D01*
X173622103Y-124585618D01*
X173666153Y-124687406D01*
X173673322Y-124737587D01*
X173649285Y-124807647D01*
X173596561Y-124844717D01*
X173540031Y-124867164D01*
X173514146Y-124871300D01*
X173501542Y-124841283D01*
X173476654Y-124775961D01*
X173465735Y-124746445D01*
X173404508Y-124644348D01*
X173315861Y-124593423D01*
X173202193Y-124594989D01*
X173193774Y-124596994D01*
X173133088Y-124625767D01*
X173088474Y-124681859D01*
X173058002Y-124772163D01*
X173039744Y-124903571D01*
X173031771Y-125082974D01*
X173031023Y-125178433D01*
X173030652Y-125328913D01*
X173028223Y-125431495D01*
X173021760Y-125496672D01*
X173009288Y-125534938D01*
X172988833Y-125556785D01*
X172958419Y-125572707D01*
X172956661Y-125573509D01*
X172898091Y-125598272D01*
X172869075Y-125607391D01*
X172864616Y-125579822D01*
X172860799Y-125503620D01*
X172857899Y-125388541D01*
X172856191Y-125244341D01*
X172855851Y-125138814D01*
X172857588Y-124934613D01*
X172864382Y-124779697D01*
X172878607Y-124665024D01*
X172902638Y-124581551D01*
X172938848Y-124520236D01*
X172989612Y-124472034D01*
X173039739Y-124438393D01*
X173160275Y-124393619D01*
X173300557Y-124383521D01*
X173432690Y-124409018D01*
X173432690Y-124409018D01*
G37*
X173432690Y-124409018D02*
X173467585Y-124424269D01*
X173550877Y-124490235D01*
X173622103Y-124585618D01*
X173666153Y-124687406D01*
X173673322Y-124737587D01*
X173649285Y-124807647D01*
X173596561Y-124844717D01*
X173540031Y-124867164D01*
X173514146Y-124871300D01*
X173501542Y-124841283D01*
X173476654Y-124775961D01*
X173465735Y-124746445D01*
X173404508Y-124644348D01*
X173315861Y-124593423D01*
X173202193Y-124594989D01*
X173193774Y-124596994D01*
X173133088Y-124625767D01*
X173088474Y-124681859D01*
X173058002Y-124772163D01*
X173039744Y-124903571D01*
X173031771Y-125082974D01*
X173031023Y-125178433D01*
X173030652Y-125328913D01*
X173028223Y-125431495D01*
X173021760Y-125496672D01*
X173009288Y-125534938D01*
X172988833Y-125556785D01*
X172958419Y-125572707D01*
X172956661Y-125573509D01*
X172898091Y-125598272D01*
X172869075Y-125607391D01*
X172864616Y-125579822D01*
X172860799Y-125503620D01*
X172857899Y-125388541D01*
X172856191Y-125244341D01*
X172855851Y-125138814D01*
X172857588Y-124934613D01*
X172864382Y-124779697D01*
X172878607Y-124665024D01*
X172902638Y-124581551D01*
X172938848Y-124520236D01*
X172989612Y-124472034D01*
X173039739Y-124438393D01*
X173160275Y-124393619D01*
X173300557Y-124383521D01*
X173432690Y-124409018D01*
G36*
X174440439Y-124425540D02*
X174555950Y-124501034D01*
X174611664Y-124568617D01*
X174655804Y-124691255D01*
X174659309Y-124788298D01*
X174651368Y-124918056D01*
X174352115Y-125049039D01*
X174206611Y-125115958D01*
X174111537Y-125169790D01*
X174062101Y-125216416D01*
X174053511Y-125261720D01*
X174080972Y-125311582D01*
X174111253Y-125344632D01*
X174199363Y-125397633D01*
X174295196Y-125401347D01*
X174383212Y-125360041D01*
X174447869Y-125277983D01*
X174459433Y-125249008D01*
X174514825Y-125158509D01*
X174578553Y-125119940D01*
X174665966Y-125086946D01*
X174665966Y-125212034D01*
X174658238Y-125297156D01*
X174627966Y-125368938D01*
X174564518Y-125451356D01*
X174555088Y-125462066D01*
X174484513Y-125535391D01*
X174423847Y-125574742D01*
X174347950Y-125592845D01*
X174285030Y-125598774D01*
X174172487Y-125600251D01*
X174092370Y-125581535D01*
X174042390Y-125553747D01*
X173963838Y-125492641D01*
X173909463Y-125426554D01*
X173875052Y-125343441D01*
X173856388Y-125231254D01*
X173849256Y-125077946D01*
X173848687Y-125000136D01*
X173850622Y-124906853D01*
X174026899Y-124906853D01*
X174028944Y-124956896D01*
X174034039Y-124965092D01*
X174067666Y-124953958D01*
X174140030Y-124924493D01*
X174236747Y-124882601D01*
X174256973Y-124873597D01*
X174379203Y-124811442D01*
X174446547Y-124756815D01*
X174461348Y-124705649D01*
X174425947Y-124653876D01*
X174396711Y-124631000D01*
X174291216Y-124585250D01*
X174192476Y-124592808D01*
X174109812Y-124648651D01*
X174052548Y-124747753D01*
X174034188Y-124826414D01*
X174026899Y-124906853D01*
X173850622Y-124906853D01*
X173852459Y-124818351D01*
X173866359Y-124683853D01*
X173893894Y-124585916D01*
X173938572Y-124513811D01*
X174003901Y-124456813D01*
X174032383Y-124438393D01*
X174161763Y-124390422D01*
X174303412Y-124387403D01*
X174440439Y-124425540D01*
X174440439Y-124425540D01*
G37*
X174440439Y-124425540D02*
X174555950Y-124501034D01*
X174611664Y-124568617D01*
X174655804Y-124691255D01*
X174659309Y-124788298D01*
X174651368Y-124918056D01*
X174352115Y-125049039D01*
X174206611Y-125115958D01*
X174111537Y-125169790D01*
X174062101Y-125216416D01*
X174053511Y-125261720D01*
X174080972Y-125311582D01*
X174111253Y-125344632D01*
X174199363Y-125397633D01*
X174295196Y-125401347D01*
X174383212Y-125360041D01*
X174447869Y-125277983D01*
X174459433Y-125249008D01*
X174514825Y-125158509D01*
X174578553Y-125119940D01*
X174665966Y-125086946D01*
X174665966Y-125212034D01*
X174658238Y-125297156D01*
X174627966Y-125368938D01*
X174564518Y-125451356D01*
X174555088Y-125462066D01*
X174484513Y-125535391D01*
X174423847Y-125574742D01*
X174347950Y-125592845D01*
X174285030Y-125598774D01*
X174172487Y-125600251D01*
X174092370Y-125581535D01*
X174042390Y-125553747D01*
X173963838Y-125492641D01*
X173909463Y-125426554D01*
X173875052Y-125343441D01*
X173856388Y-125231254D01*
X173849256Y-125077946D01*
X173848687Y-125000136D01*
X173850622Y-124906853D01*
X174026899Y-124906853D01*
X174028944Y-124956896D01*
X174034039Y-124965092D01*
X174067666Y-124953958D01*
X174140030Y-124924493D01*
X174236747Y-124882601D01*
X174256973Y-124873597D01*
X174379203Y-124811442D01*
X174446547Y-124756815D01*
X174461348Y-124705649D01*
X174425947Y-124653876D01*
X174396711Y-124631000D01*
X174291216Y-124585250D01*
X174192476Y-124592808D01*
X174109812Y-124648651D01*
X174052548Y-124747753D01*
X174034188Y-124826414D01*
X174026899Y-124906853D01*
X173850622Y-124906853D01*
X173852459Y-124818351D01*
X173866359Y-124683853D01*
X173893894Y-124585916D01*
X173938572Y-124513811D01*
X174003901Y-124456813D01*
X174032383Y-124438393D01*
X174161763Y-124390422D01*
X174303412Y-124387403D01*
X174440439Y-124425540D01*
G36*
X168306014Y-114921998D02*
X168464006Y-114922863D01*
X168578347Y-114925205D01*
X168656407Y-114929762D01*
X168705554Y-114937270D01*
X168733159Y-114948466D01*
X168746592Y-114964088D01*
X168753221Y-114984873D01*
X168753865Y-114987563D01*
X168763935Y-115036113D01*
X168782575Y-115131905D01*
X168807845Y-115264743D01*
X168837807Y-115424431D01*
X168870522Y-115600774D01*
X168871664Y-115606967D01*
X168904433Y-115779782D01*
X168935093Y-115932469D01*
X168961664Y-116055871D01*
X168982167Y-116140831D01*
X168994626Y-116178190D01*
X168995220Y-116178852D01*
X169031919Y-116197095D01*
X169107586Y-116227497D01*
X169205878Y-116263493D01*
X169206425Y-116263685D01*
X169330233Y-116310222D01*
X169476196Y-116369504D01*
X169613781Y-116429109D01*
X169620293Y-116432056D01*
X169844390Y-116533765D01*
X170340619Y-116194897D01*
X170492846Y-116091592D01*
X170630741Y-115999237D01*
X170746315Y-115923084D01*
X170831579Y-115868385D01*
X170878544Y-115840393D01*
X170883004Y-115838317D01*
X170917134Y-115847560D01*
X170980881Y-115892156D01*
X171076731Y-115974209D01*
X171207169Y-116095821D01*
X171340328Y-116225205D01*
X171468694Y-116352702D01*
X171583581Y-116469046D01*
X171678073Y-116567052D01*
X171745253Y-116639536D01*
X171778206Y-116679313D01*
X171779432Y-116681361D01*
X171783074Y-116708656D01*
X171769350Y-116753234D01*
X171734869Y-116821112D01*
X171676239Y-116918311D01*
X171590070Y-117050851D01*
X171475200Y-117221476D01*
X171373254Y-117371655D01*
X171282123Y-117506350D01*
X171207073Y-117617740D01*
X171153369Y-117698005D01*
X171126280Y-117739325D01*
X171124574Y-117742130D01*
X171127882Y-117781721D01*
X171152953Y-117858669D01*
X171194798Y-117958432D01*
X171209712Y-117990291D01*
X171274786Y-118132226D01*
X171344212Y-118293273D01*
X171400609Y-118432621D01*
X171441247Y-118536044D01*
X171473526Y-118614642D01*
X171492178Y-118655720D01*
X171494497Y-118658885D01*
X171528803Y-118664128D01*
X171609669Y-118678494D01*
X171726343Y-118699937D01*
X171868075Y-118726413D01*
X172024110Y-118755877D01*
X172183698Y-118786283D01*
X172336085Y-118815588D01*
X172470521Y-118841745D01*
X172576252Y-118862710D01*
X172642526Y-118876439D01*
X172658782Y-118880320D01*
X172675573Y-118889900D01*
X172688249Y-118911536D01*
X172697378Y-118952531D01*
X172703531Y-119020189D01*
X172707280Y-119121812D01*
X172709192Y-119264703D01*
X172709840Y-119456165D01*
X172709874Y-119534645D01*
X172709874Y-120172906D01*
X172556598Y-120203160D01*
X172471322Y-120219564D01*
X172344070Y-120243509D01*
X172190315Y-120272107D01*
X172025534Y-120302467D01*
X171979989Y-120310806D01*
X171827932Y-120340370D01*
X171695468Y-120369442D01*
X171593714Y-120395329D01*
X171533788Y-120415337D01*
X171523805Y-120421301D01*
X171499293Y-120463534D01*
X171464148Y-120545370D01*
X171425173Y-120650683D01*
X171417442Y-120673368D01*
X171366360Y-120814018D01*
X171302954Y-120972714D01*
X171240904Y-121115225D01*
X171240598Y-121115886D01*
X171137267Y-121339440D01*
X171816961Y-122339232D01*
X171380621Y-122776300D01*
X171248649Y-122906381D01*
X171128279Y-123021048D01*
X171026273Y-123114181D01*
X170949391Y-123179658D01*
X170904393Y-123211357D01*
X170897938Y-123213368D01*
X170860040Y-123197529D01*
X170782708Y-123153496D01*
X170674389Y-123086490D01*
X170543532Y-123001734D01*
X170402052Y-122906816D01*
X170258461Y-122809998D01*
X170130435Y-122725751D01*
X170026105Y-122659258D01*
X169953600Y-122615702D01*
X169921158Y-122600264D01*
X169881576Y-122613328D01*
X169806519Y-122647750D01*
X169711468Y-122696380D01*
X169701392Y-122701785D01*
X169573391Y-122765980D01*
X169485618Y-122797463D01*
X169431028Y-122797798D01*
X169402575Y-122768548D01*
X169402410Y-122768138D01*
X169388188Y-122733498D01*
X169354269Y-122651269D01*
X169303284Y-122527814D01*
X169237862Y-122369498D01*
X169160634Y-122182686D01*
X169074229Y-121973742D01*
X168990551Y-121771446D01*
X168898588Y-121548200D01*
X168814150Y-121341392D01*
X168739769Y-121157362D01*
X168677974Y-121002451D01*
X168631297Y-120882996D01*
X168602268Y-120805339D01*
X168593322Y-120776356D01*
X168615756Y-120743110D01*
X168674439Y-120690123D01*
X168752689Y-120631704D01*
X168975534Y-120446952D01*
X169149718Y-120235182D01*
X169273154Y-120000856D01*
X169343754Y-119748434D01*
X169359431Y-119482377D01*
X169348036Y-119359575D01*
X169285950Y-119104793D01*
X169179023Y-118879801D01*
X169033889Y-118686817D01*
X168857178Y-118528061D01*
X168655522Y-118405750D01*
X168435554Y-118322105D01*
X168203906Y-118279344D01*
X167967209Y-118279687D01*
X167732095Y-118325352D01*
X167505196Y-118418559D01*
X167293144Y-118561527D01*
X167204636Y-118642383D01*
X167034889Y-118850007D01*
X166916699Y-119076895D01*
X166849278Y-119316433D01*
X166831840Y-119562007D01*
X166863598Y-119807003D01*
X166943765Y-120044808D01*
X167071555Y-120268807D01*
X167246180Y-120472387D01*
X167441312Y-120631704D01*
X167522591Y-120692602D01*
X167580009Y-120745015D01*
X167600678Y-120776406D01*
X167589856Y-120810639D01*
X167559077Y-120892419D01*
X167510874Y-121015407D01*
X167447778Y-121173263D01*
X167372322Y-121359649D01*
X167287038Y-121568226D01*
X167203219Y-121771496D01*
X167110745Y-121994933D01*
X167025089Y-122201984D01*
X166948882Y-122386286D01*
X166884753Y-122541475D01*
X166835332Y-122661188D01*
X166803248Y-122739061D01*
X166791359Y-122768138D01*
X166763274Y-122797677D01*
X166708949Y-122797591D01*
X166621395Y-122766326D01*
X166493619Y-122702329D01*
X166492608Y-122701785D01*
X166396402Y-122652121D01*
X166318631Y-122615945D01*
X166274777Y-122600408D01*
X166272842Y-122600264D01*
X166239829Y-122616024D01*
X166166946Y-122659850D01*
X166062322Y-122726557D01*
X165934090Y-122810964D01*
X165791948Y-122906816D01*
X165647233Y-123003867D01*
X165516804Y-123088270D01*
X165409110Y-123154801D01*
X165332598Y-123198238D01*
X165296062Y-123213368D01*
X165262418Y-123193482D01*
X165194776Y-123137903D01*
X165099893Y-123052754D01*
X164984530Y-122944153D01*
X164855445Y-122818221D01*
X164813229Y-122776149D01*
X164376739Y-122338931D01*
X164708977Y-121851340D01*
X164809946Y-121701605D01*
X164898562Y-121567220D01*
X164969854Y-121455969D01*
X165018850Y-121375639D01*
X165040578Y-121334014D01*
X165041215Y-121331053D01*
X165029760Y-121291818D01*
X164998949Y-121212895D01*
X164954116Y-121107509D01*
X164922647Y-121036954D01*
X164863808Y-120901876D01*
X164808396Y-120765409D01*
X164765436Y-120650103D01*
X164753766Y-120614977D01*
X164720611Y-120521174D01*
X164688201Y-120448694D01*
X164670399Y-120421301D01*
X164631114Y-120404536D01*
X164545374Y-120380770D01*
X164424303Y-120352697D01*
X164279027Y-120323009D01*
X164214012Y-120310806D01*
X164048913Y-120280468D01*
X163890552Y-120251093D01*
X163754404Y-120225569D01*
X163655943Y-120206785D01*
X163637402Y-120203160D01*
X163484127Y-120172906D01*
X163484127Y-119534645D01*
X163484471Y-119324770D01*
X163485884Y-119165980D01*
X163488936Y-119050973D01*
X163494197Y-118972446D01*
X163502237Y-118923096D01*
X163513627Y-118895619D01*
X163528937Y-118882713D01*
X163535218Y-118880320D01*
X163573104Y-118871833D01*
X163656805Y-118854900D01*
X163775567Y-118831566D01*
X163918639Y-118803875D01*
X164075268Y-118773873D01*
X164234703Y-118743604D01*
X164386191Y-118715115D01*
X164518981Y-118690449D01*
X164622319Y-118671651D01*
X164685455Y-118660767D01*
X164699503Y-118658885D01*
X164712230Y-118633704D01*
X164740400Y-118566622D01*
X164778748Y-118470333D01*
X164793391Y-118432621D01*
X164852452Y-118286921D01*
X164922000Y-118125951D01*
X164984288Y-117990291D01*
X165030121Y-117886561D01*
X165060613Y-117801326D01*
X165070792Y-117749126D01*
X165069169Y-117742130D01*
X165047657Y-117709102D01*
X164998535Y-117635643D01*
X164927077Y-117529577D01*
X164838555Y-117398726D01*
X164738241Y-117250912D01*
X164718406Y-117221734D01*
X164602012Y-117048863D01*
X164516452Y-116917226D01*
X164458316Y-116820761D01*
X164424192Y-116753408D01*
X164410669Y-116709106D01*
X164414336Y-116681794D01*
X164414430Y-116681620D01*
X164443293Y-116645746D01*
X164507133Y-116576391D01*
X164599031Y-116480745D01*
X164712067Y-116365999D01*
X164839321Y-116239341D01*
X164853672Y-116225205D01*
X165014043Y-116069903D01*
X165137805Y-115955870D01*
X165227445Y-115881002D01*
X165285448Y-115843196D01*
X165310996Y-115838317D01*
X165348282Y-115859603D01*
X165425657Y-115908773D01*
X165535133Y-115980575D01*
X165668720Y-116069755D01*
X165818430Y-116171063D01*
X165853382Y-116194897D01*
X166349610Y-116533765D01*
X166573707Y-116432056D01*
X166709989Y-116372783D01*
X166856276Y-116313170D01*
X166982035Y-116265640D01*
X166987575Y-116263685D01*
X167085943Y-116227677D01*
X167161771Y-116197229D01*
X167198718Y-116178905D01*
X167198780Y-116178852D01*
X167210504Y-116145729D01*
X167230432Y-116064267D01*
X167256587Y-115943625D01*
X167286990Y-115792959D01*
X167319663Y-115621428D01*
X167322336Y-115606967D01*
X167355110Y-115430235D01*
X167385198Y-115269810D01*
X167410661Y-115135888D01*
X167429559Y-115038663D01*
X167439953Y-114988332D01*
X167440135Y-114987563D01*
X167446461Y-114966153D01*
X167458761Y-114949988D01*
X167484406Y-114938331D01*
X167530765Y-114930445D01*
X167605208Y-114925593D01*
X167715105Y-114923039D01*
X167867825Y-114922045D01*
X168070738Y-114921874D01*
X168097000Y-114921874D01*
X168306014Y-114921998D01*
X168306014Y-114921998D01*
G37*
X168306014Y-114921998D02*
X168464006Y-114922863D01*
X168578347Y-114925205D01*
X168656407Y-114929762D01*
X168705554Y-114937270D01*
X168733159Y-114948466D01*
X168746592Y-114964088D01*
X168753221Y-114984873D01*
X168753865Y-114987563D01*
X168763935Y-115036113D01*
X168782575Y-115131905D01*
X168807845Y-115264743D01*
X168837807Y-115424431D01*
X168870522Y-115600774D01*
X168871664Y-115606967D01*
X168904433Y-115779782D01*
X168935093Y-115932469D01*
X168961664Y-116055871D01*
X168982167Y-116140831D01*
X168994626Y-116178190D01*
X168995220Y-116178852D01*
X169031919Y-116197095D01*
X169107586Y-116227497D01*
X169205878Y-116263493D01*
X169206425Y-116263685D01*
X169330233Y-116310222D01*
X169476196Y-116369504D01*
X169613781Y-116429109D01*
X169620293Y-116432056D01*
X169844390Y-116533765D01*
X170340619Y-116194897D01*
X170492846Y-116091592D01*
X170630741Y-115999237D01*
X170746315Y-115923084D01*
X170831579Y-115868385D01*
X170878544Y-115840393D01*
X170883004Y-115838317D01*
X170917134Y-115847560D01*
X170980881Y-115892156D01*
X171076731Y-115974209D01*
X171207169Y-116095821D01*
X171340328Y-116225205D01*
X171468694Y-116352702D01*
X171583581Y-116469046D01*
X171678073Y-116567052D01*
X171745253Y-116639536D01*
X171778206Y-116679313D01*
X171779432Y-116681361D01*
X171783074Y-116708656D01*
X171769350Y-116753234D01*
X171734869Y-116821112D01*
X171676239Y-116918311D01*
X171590070Y-117050851D01*
X171475200Y-117221476D01*
X171373254Y-117371655D01*
X171282123Y-117506350D01*
X171207073Y-117617740D01*
X171153369Y-117698005D01*
X171126280Y-117739325D01*
X171124574Y-117742130D01*
X171127882Y-117781721D01*
X171152953Y-117858669D01*
X171194798Y-117958432D01*
X171209712Y-117990291D01*
X171274786Y-118132226D01*
X171344212Y-118293273D01*
X171400609Y-118432621D01*
X171441247Y-118536044D01*
X171473526Y-118614642D01*
X171492178Y-118655720D01*
X171494497Y-118658885D01*
X171528803Y-118664128D01*
X171609669Y-118678494D01*
X171726343Y-118699937D01*
X171868075Y-118726413D01*
X172024110Y-118755877D01*
X172183698Y-118786283D01*
X172336085Y-118815588D01*
X172470521Y-118841745D01*
X172576252Y-118862710D01*
X172642526Y-118876439D01*
X172658782Y-118880320D01*
X172675573Y-118889900D01*
X172688249Y-118911536D01*
X172697378Y-118952531D01*
X172703531Y-119020189D01*
X172707280Y-119121812D01*
X172709192Y-119264703D01*
X172709840Y-119456165D01*
X172709874Y-119534645D01*
X172709874Y-120172906D01*
X172556598Y-120203160D01*
X172471322Y-120219564D01*
X172344070Y-120243509D01*
X172190315Y-120272107D01*
X172025534Y-120302467D01*
X171979989Y-120310806D01*
X171827932Y-120340370D01*
X171695468Y-120369442D01*
X171593714Y-120395329D01*
X171533788Y-120415337D01*
X171523805Y-120421301D01*
X171499293Y-120463534D01*
X171464148Y-120545370D01*
X171425173Y-120650683D01*
X171417442Y-120673368D01*
X171366360Y-120814018D01*
X171302954Y-120972714D01*
X171240904Y-121115225D01*
X171240598Y-121115886D01*
X171137267Y-121339440D01*
X171816961Y-122339232D01*
X171380621Y-122776300D01*
X171248649Y-122906381D01*
X171128279Y-123021048D01*
X171026273Y-123114181D01*
X170949391Y-123179658D01*
X170904393Y-123211357D01*
X170897938Y-123213368D01*
X170860040Y-123197529D01*
X170782708Y-123153496D01*
X170674389Y-123086490D01*
X170543532Y-123001734D01*
X170402052Y-122906816D01*
X170258461Y-122809998D01*
X170130435Y-122725751D01*
X170026105Y-122659258D01*
X169953600Y-122615702D01*
X169921158Y-122600264D01*
X169881576Y-122613328D01*
X169806519Y-122647750D01*
X169711468Y-122696380D01*
X169701392Y-122701785D01*
X169573391Y-122765980D01*
X169485618Y-122797463D01*
X169431028Y-122797798D01*
X169402575Y-122768548D01*
X169402410Y-122768138D01*
X169388188Y-122733498D01*
X169354269Y-122651269D01*
X169303284Y-122527814D01*
X169237862Y-122369498D01*
X169160634Y-122182686D01*
X169074229Y-121973742D01*
X168990551Y-121771446D01*
X168898588Y-121548200D01*
X168814150Y-121341392D01*
X168739769Y-121157362D01*
X168677974Y-121002451D01*
X168631297Y-120882996D01*
X168602268Y-120805339D01*
X168593322Y-120776356D01*
X168615756Y-120743110D01*
X168674439Y-120690123D01*
X168752689Y-120631704D01*
X168975534Y-120446952D01*
X169149718Y-120235182D01*
X169273154Y-120000856D01*
X169343754Y-119748434D01*
X169359431Y-119482377D01*
X169348036Y-119359575D01*
X169285950Y-119104793D01*
X169179023Y-118879801D01*
X169033889Y-118686817D01*
X168857178Y-118528061D01*
X168655522Y-118405750D01*
X168435554Y-118322105D01*
X168203906Y-118279344D01*
X167967209Y-118279687D01*
X167732095Y-118325352D01*
X167505196Y-118418559D01*
X167293144Y-118561527D01*
X167204636Y-118642383D01*
X167034889Y-118850007D01*
X166916699Y-119076895D01*
X166849278Y-119316433D01*
X166831840Y-119562007D01*
X166863598Y-119807003D01*
X166943765Y-120044808D01*
X167071555Y-120268807D01*
X167246180Y-120472387D01*
X167441312Y-120631704D01*
X167522591Y-120692602D01*
X167580009Y-120745015D01*
X167600678Y-120776406D01*
X167589856Y-120810639D01*
X167559077Y-120892419D01*
X167510874Y-121015407D01*
X167447778Y-121173263D01*
X167372322Y-121359649D01*
X167287038Y-121568226D01*
X167203219Y-121771496D01*
X167110745Y-121994933D01*
X167025089Y-122201984D01*
X166948882Y-122386286D01*
X166884753Y-122541475D01*
X166835332Y-122661188D01*
X166803248Y-122739061D01*
X166791359Y-122768138D01*
X166763274Y-122797677D01*
X166708949Y-122797591D01*
X166621395Y-122766326D01*
X166493619Y-122702329D01*
X166492608Y-122701785D01*
X166396402Y-122652121D01*
X166318631Y-122615945D01*
X166274777Y-122600408D01*
X166272842Y-122600264D01*
X166239829Y-122616024D01*
X166166946Y-122659850D01*
X166062322Y-122726557D01*
X165934090Y-122810964D01*
X165791948Y-122906816D01*
X165647233Y-123003867D01*
X165516804Y-123088270D01*
X165409110Y-123154801D01*
X165332598Y-123198238D01*
X165296062Y-123213368D01*
X165262418Y-123193482D01*
X165194776Y-123137903D01*
X165099893Y-123052754D01*
X164984530Y-122944153D01*
X164855445Y-122818221D01*
X164813229Y-122776149D01*
X164376739Y-122338931D01*
X164708977Y-121851340D01*
X164809946Y-121701605D01*
X164898562Y-121567220D01*
X164969854Y-121455969D01*
X165018850Y-121375639D01*
X165040578Y-121334014D01*
X165041215Y-121331053D01*
X165029760Y-121291818D01*
X164998949Y-121212895D01*
X164954116Y-121107509D01*
X164922647Y-121036954D01*
X164863808Y-120901876D01*
X164808396Y-120765409D01*
X164765436Y-120650103D01*
X164753766Y-120614977D01*
X164720611Y-120521174D01*
X164688201Y-120448694D01*
X164670399Y-120421301D01*
X164631114Y-120404536D01*
X164545374Y-120380770D01*
X164424303Y-120352697D01*
X164279027Y-120323009D01*
X164214012Y-120310806D01*
X164048913Y-120280468D01*
X163890552Y-120251093D01*
X163754404Y-120225569D01*
X163655943Y-120206785D01*
X163637402Y-120203160D01*
X163484127Y-120172906D01*
X163484127Y-119534645D01*
X163484471Y-119324770D01*
X163485884Y-119165980D01*
X163488936Y-119050973D01*
X163494197Y-118972446D01*
X163502237Y-118923096D01*
X163513627Y-118895619D01*
X163528937Y-118882713D01*
X163535218Y-118880320D01*
X163573104Y-118871833D01*
X163656805Y-118854900D01*
X163775567Y-118831566D01*
X163918639Y-118803875D01*
X164075268Y-118773873D01*
X164234703Y-118743604D01*
X164386191Y-118715115D01*
X164518981Y-118690449D01*
X164622319Y-118671651D01*
X164685455Y-118660767D01*
X164699503Y-118658885D01*
X164712230Y-118633704D01*
X164740400Y-118566622D01*
X164778748Y-118470333D01*
X164793391Y-118432621D01*
X164852452Y-118286921D01*
X164922000Y-118125951D01*
X164984288Y-117990291D01*
X165030121Y-117886561D01*
X165060613Y-117801326D01*
X165070792Y-117749126D01*
X165069169Y-117742130D01*
X165047657Y-117709102D01*
X164998535Y-117635643D01*
X164927077Y-117529577D01*
X164838555Y-117398726D01*
X164738241Y-117250912D01*
X164718406Y-117221734D01*
X164602012Y-117048863D01*
X164516452Y-116917226D01*
X164458316Y-116820761D01*
X164424192Y-116753408D01*
X164410669Y-116709106D01*
X164414336Y-116681794D01*
X164414430Y-116681620D01*
X164443293Y-116645746D01*
X164507133Y-116576391D01*
X164599031Y-116480745D01*
X164712067Y-116365999D01*
X164839321Y-116239341D01*
X164853672Y-116225205D01*
X165014043Y-116069903D01*
X165137805Y-115955870D01*
X165227445Y-115881002D01*
X165285448Y-115843196D01*
X165310996Y-115838317D01*
X165348282Y-115859603D01*
X165425657Y-115908773D01*
X165535133Y-115980575D01*
X165668720Y-116069755D01*
X165818430Y-116171063D01*
X165853382Y-116194897D01*
X166349610Y-116533765D01*
X166573707Y-116432056D01*
X166709989Y-116372783D01*
X166856276Y-116313170D01*
X166982035Y-116265640D01*
X166987575Y-116263685D01*
X167085943Y-116227677D01*
X167161771Y-116197229D01*
X167198718Y-116178905D01*
X167198780Y-116178852D01*
X167210504Y-116145729D01*
X167230432Y-116064267D01*
X167256587Y-115943625D01*
X167286990Y-115792959D01*
X167319663Y-115621428D01*
X167322336Y-115606967D01*
X167355110Y-115430235D01*
X167385198Y-115269810D01*
X167410661Y-115135888D01*
X167429559Y-115038663D01*
X167439953Y-114988332D01*
X167440135Y-114987563D01*
X167446461Y-114966153D01*
X167458761Y-114949988D01*
X167484406Y-114938331D01*
X167530765Y-114930445D01*
X167605208Y-114925593D01*
X167715105Y-114923039D01*
X167867825Y-114922045D01*
X168070738Y-114921874D01*
X168097000Y-114921874D01*
X168306014Y-114921998D01*
D13*
X126357143Y-103608143D02*
X126309524Y-103655762D01*
X126166667Y-103703381D01*
X126071429Y-103703381D01*
X125928571Y-103655762D01*
X125833333Y-103560524D01*
X125785714Y-103465286D01*
X125738095Y-103274810D01*
X125738095Y-103131952D01*
X125785714Y-102941476D01*
X125833333Y-102846238D01*
X125928571Y-102751000D01*
X126071429Y-102703381D01*
X126166667Y-102703381D01*
X126309524Y-102751000D01*
X126357143Y-102798619D01*
X127309524Y-103703381D02*
X126738095Y-103703381D01*
X127023809Y-103703381D02*
X127023809Y-102703381D01*
X126928571Y-102846238D01*
X126833333Y-102941476D01*
X126738095Y-102989095D01*
X127642857Y-102703381D02*
X128261905Y-102703381D01*
X127928571Y-103084333D01*
X128071429Y-103084333D01*
X128166667Y-103131952D01*
X128214286Y-103179571D01*
X128261905Y-103274810D01*
X128261905Y-103512905D01*
X128214286Y-103608143D01*
X128166667Y-103655762D01*
X128071429Y-103703381D01*
X127785714Y-103703381D01*
X127690476Y-103655762D01*
X127642857Y-103608143D01*
X120134143Y-120594381D02*
X119800809Y-120118190D01*
X119562714Y-120594381D02*
X119562714Y-119594381D01*
X119943667Y-119594381D01*
X120038905Y-119642000D01*
X120086524Y-119689619D01*
X120134143Y-119784857D01*
X120134143Y-119927714D01*
X120086524Y-120022952D01*
X120038905Y-120070571D01*
X119943667Y-120118190D01*
X119562714Y-120118190D01*
X121086524Y-120594381D02*
X120515095Y-120594381D01*
X120800809Y-120594381D02*
X120800809Y-119594381D01*
X120705571Y-119737238D01*
X120610333Y-119832476D01*
X120515095Y-119880095D01*
X121991286Y-119594381D02*
X121515095Y-119594381D01*
X121467476Y-120070571D01*
X121515095Y-120022952D01*
X121610333Y-119975333D01*
X121848429Y-119975333D01*
X121943667Y-120022952D01*
X121991286Y-120070571D01*
X122038905Y-120165810D01*
X122038905Y-120403905D01*
X121991286Y-120499143D01*
X121943667Y-120546762D01*
X121848429Y-120594381D01*
X121610333Y-120594381D01*
X121515095Y-120546762D01*
X121467476Y-120499143D01*
X105814905Y-120721381D02*
X105814905Y-119721381D01*
X106195858Y-119721381D01*
X106291096Y-119769000D01*
X106338715Y-119816619D01*
X106386334Y-119911857D01*
X106386334Y-120054714D01*
X106338715Y-120149952D01*
X106291096Y-120197571D01*
X106195858Y-120245190D01*
X105814905Y-120245190D01*
X106957762Y-120149952D02*
X106862524Y-120102333D01*
X106814905Y-120054714D01*
X106767286Y-119959476D01*
X106767286Y-119911857D01*
X106814905Y-119816619D01*
X106862524Y-119769000D01*
X106957762Y-119721381D01*
X107148239Y-119721381D01*
X107243477Y-119769000D01*
X107291096Y-119816619D01*
X107338715Y-119911857D01*
X107338715Y-119959476D01*
X107291096Y-120054714D01*
X107243477Y-120102333D01*
X107148239Y-120149952D01*
X106957762Y-120149952D01*
X106862524Y-120197571D01*
X106814905Y-120245190D01*
X106767286Y-120340429D01*
X106767286Y-120530905D01*
X106814905Y-120626143D01*
X106862524Y-120673762D01*
X106957762Y-120721381D01*
X107148239Y-120721381D01*
X107243477Y-120673762D01*
X107291096Y-120626143D01*
X107338715Y-120530905D01*
X107338715Y-120340429D01*
X107291096Y-120245190D01*
X107243477Y-120197571D01*
X107148239Y-120149952D01*
X105878381Y-98678905D02*
X106687905Y-98678905D01*
X106783143Y-98631286D01*
X106830762Y-98583667D01*
X106878381Y-98488429D01*
X106878381Y-98297952D01*
X106830762Y-98202714D01*
X106783143Y-98155095D01*
X106687905Y-98107476D01*
X105878381Y-98107476D01*
X105973619Y-97678905D02*
X105926000Y-97631286D01*
X105878381Y-97536048D01*
X105878381Y-97297952D01*
X105926000Y-97202714D01*
X105973619Y-97155095D01*
X106068857Y-97107476D01*
X106164095Y-97107476D01*
X106306952Y-97155095D01*
X106878381Y-97726524D01*
X106878381Y-97107476D01*
X106624381Y-114895190D02*
X105624381Y-114895190D01*
X106529143Y-113847571D02*
X106576762Y-113895190D01*
X106624381Y-114038047D01*
X106624381Y-114133285D01*
X106576762Y-114276143D01*
X106481524Y-114371381D01*
X106386286Y-114419000D01*
X106195810Y-114466619D01*
X106052952Y-114466619D01*
X105862476Y-114419000D01*
X105767238Y-114371381D01*
X105672000Y-114276143D01*
X105624381Y-114133285D01*
X105624381Y-114038047D01*
X105672000Y-113895190D01*
X105719619Y-113847571D01*
X106624381Y-112895190D02*
X106624381Y-113466619D01*
X106624381Y-113180905D02*
X105624381Y-113180905D01*
X105767238Y-113276143D01*
X105862476Y-113371381D01*
X105910095Y-113466619D01*
X148144381Y-85812238D02*
X147668190Y-86145572D01*
X148144381Y-86383667D02*
X147144381Y-86383667D01*
X147144381Y-86002714D01*
X147192000Y-85907476D01*
X147239619Y-85859857D01*
X147334857Y-85812238D01*
X147477714Y-85812238D01*
X147572952Y-85859857D01*
X147620571Y-85907476D01*
X147668190Y-86002714D01*
X147668190Y-86383667D01*
X147144381Y-85526524D02*
X148144381Y-85193191D01*
X147144381Y-84859857D01*
X147144381Y-84621762D02*
X147144381Y-84002714D01*
X147525333Y-84336048D01*
X147525333Y-84193190D01*
X147572952Y-84097952D01*
X147620571Y-84050333D01*
X147715810Y-84002714D01*
X147953905Y-84002714D01*
X148049143Y-84050333D01*
X148096762Y-84097952D01*
X148144381Y-84193190D01*
X148144381Y-84478905D01*
X148096762Y-84574143D01*
X148049143Y-84621762D01*
X127341334Y-76684143D02*
X127293715Y-76731762D01*
X127150858Y-76779381D01*
X127055620Y-76779381D01*
X126912762Y-76731762D01*
X126817524Y-76636524D01*
X126769905Y-76541286D01*
X126722286Y-76350810D01*
X126722286Y-76207952D01*
X126769905Y-76017476D01*
X126817524Y-75922238D01*
X126912762Y-75827000D01*
X127055620Y-75779381D01*
X127150858Y-75779381D01*
X127293715Y-75827000D01*
X127341334Y-75874619D01*
X128198477Y-75779381D02*
X128008000Y-75779381D01*
X127912762Y-75827000D01*
X127865143Y-75874619D01*
X127769905Y-76017476D01*
X127722286Y-76207952D01*
X127722286Y-76588905D01*
X127769905Y-76684143D01*
X127817524Y-76731762D01*
X127912762Y-76779381D01*
X128103239Y-76779381D01*
X128198477Y-76731762D01*
X128246096Y-76684143D01*
X128293715Y-76588905D01*
X128293715Y-76350810D01*
X128246096Y-76255571D01*
X128198477Y-76207952D01*
X128103239Y-76160333D01*
X127912762Y-76160333D01*
X127817524Y-76207952D01*
X127769905Y-76255571D01*
X127722286Y-76350810D01*
X105878381Y-82676905D02*
X106687905Y-82676905D01*
X106783143Y-82629286D01*
X106830762Y-82581667D01*
X106878381Y-82486429D01*
X106878381Y-82295952D01*
X106830762Y-82200714D01*
X106783143Y-82153095D01*
X106687905Y-82105476D01*
X105878381Y-82105476D01*
X106878381Y-81105476D02*
X106878381Y-81676905D01*
X106878381Y-81391191D02*
X105878381Y-81391191D01*
X106021238Y-81486429D01*
X106116476Y-81581667D01*
X106164095Y-81676905D01*
X117506762Y-63666619D02*
X117411524Y-63619000D01*
X117316286Y-63523762D01*
X117173429Y-63380905D01*
X117078190Y-63333286D01*
X116982952Y-63333286D01*
X117030571Y-63571381D02*
X116935333Y-63523762D01*
X116840095Y-63428524D01*
X116792476Y-63238048D01*
X116792476Y-62904714D01*
X116840095Y-62714238D01*
X116935333Y-62619000D01*
X117030571Y-62571381D01*
X117221048Y-62571381D01*
X117316286Y-62619000D01*
X117411524Y-62714238D01*
X117459143Y-62904714D01*
X117459143Y-63238048D01*
X117411524Y-63428524D01*
X117316286Y-63523762D01*
X117221048Y-63571381D01*
X117030571Y-63571381D01*
X118411524Y-63571381D02*
X117840095Y-63571381D01*
X118125809Y-63571381D02*
X118125809Y-62571381D01*
X118030571Y-62714238D01*
X117935333Y-62809476D01*
X117840095Y-62857095D01*
X110513905Y-58237381D02*
X110513905Y-57237381D01*
X110752000Y-57237381D01*
X110894858Y-57285000D01*
X110990096Y-57380238D01*
X111037715Y-57475476D01*
X111085334Y-57665952D01*
X111085334Y-57808810D01*
X111037715Y-57999286D01*
X110990096Y-58094524D01*
X110894858Y-58189762D01*
X110752000Y-58237381D01*
X110513905Y-58237381D01*
X111466286Y-57332619D02*
X111513905Y-57285000D01*
X111609143Y-57237381D01*
X111847239Y-57237381D01*
X111942477Y-57285000D01*
X111990096Y-57332619D01*
X112037715Y-57427857D01*
X112037715Y-57523095D01*
X111990096Y-57665952D01*
X111418667Y-58237381D01*
X112037715Y-58237381D01*
X128801905Y-58237381D02*
X128801905Y-57237381D01*
X129040000Y-57237381D01*
X129182858Y-57285000D01*
X129278096Y-57380238D01*
X129325715Y-57475476D01*
X129373334Y-57665952D01*
X129373334Y-57808810D01*
X129325715Y-57999286D01*
X129278096Y-58094524D01*
X129182858Y-58189762D01*
X129040000Y-58237381D01*
X128801905Y-58237381D01*
X129706667Y-57237381D02*
X130325715Y-57237381D01*
X129992381Y-57618333D01*
X130135239Y-57618333D01*
X130230477Y-57665952D01*
X130278096Y-57713571D01*
X130325715Y-57808810D01*
X130325715Y-58046905D01*
X130278096Y-58142143D01*
X130230477Y-58189762D01*
X130135239Y-58237381D01*
X129849524Y-58237381D01*
X129754286Y-58189762D01*
X129706667Y-58142143D01*
X146835905Y-58237381D02*
X146835905Y-57237381D01*
X147074000Y-57237381D01*
X147216858Y-57285000D01*
X147312096Y-57380238D01*
X147359715Y-57475476D01*
X147407334Y-57665952D01*
X147407334Y-57808810D01*
X147359715Y-57999286D01*
X147312096Y-58094524D01*
X147216858Y-58189762D01*
X147074000Y-58237381D01*
X146835905Y-58237381D01*
X148264477Y-57570714D02*
X148264477Y-58237381D01*
X148026381Y-57189762D02*
X147788286Y-57904048D01*
X148407334Y-57904048D01*
X165123905Y-58237381D02*
X165123905Y-57237381D01*
X165362000Y-57237381D01*
X165504858Y-57285000D01*
X165600096Y-57380238D01*
X165647715Y-57475476D01*
X165695334Y-57665952D01*
X165695334Y-57808810D01*
X165647715Y-57999286D01*
X165600096Y-58094524D01*
X165504858Y-58189762D01*
X165362000Y-58237381D01*
X165123905Y-58237381D01*
X166600096Y-57237381D02*
X166123905Y-57237381D01*
X166076286Y-57713571D01*
X166123905Y-57665952D01*
X166219143Y-57618333D01*
X166457239Y-57618333D01*
X166552477Y-57665952D01*
X166600096Y-57713571D01*
X166647715Y-57808810D01*
X166647715Y-58046905D01*
X166600096Y-58142143D01*
X166552477Y-58189762D01*
X166457239Y-58237381D01*
X166219143Y-58237381D01*
X166123905Y-58189762D01*
X166076286Y-58142143D01*
X118959334Y-55189381D02*
X118483143Y-55189381D01*
X118483143Y-54189381D01*
X119816477Y-55189381D02*
X119245048Y-55189381D01*
X119530762Y-55189381D02*
X119530762Y-54189381D01*
X119435524Y-54332238D01*
X119340286Y-54427476D01*
X119245048Y-54475095D01*
X137247334Y-55189381D02*
X136771143Y-55189381D01*
X136771143Y-54189381D01*
X137533048Y-54284619D02*
X137580667Y-54237000D01*
X137675905Y-54189381D01*
X137914001Y-54189381D01*
X138009239Y-54237000D01*
X138056858Y-54284619D01*
X138104477Y-54379857D01*
X138104477Y-54475095D01*
X138056858Y-54617952D01*
X137485429Y-55189381D01*
X138104477Y-55189381D01*
X156297334Y-55189381D02*
X155821143Y-55189381D01*
X155821143Y-54189381D01*
X156535429Y-54189381D02*
X157154477Y-54189381D01*
X156821143Y-54570333D01*
X156964001Y-54570333D01*
X157059239Y-54617952D01*
X157106858Y-54665571D01*
X157154477Y-54760810D01*
X157154477Y-54998905D01*
X157106858Y-55094143D01*
X157059239Y-55141762D01*
X156964001Y-55189381D01*
X156678286Y-55189381D01*
X156583048Y-55141762D01*
X156535429Y-55094143D01*
X174077334Y-55189381D02*
X173601143Y-55189381D01*
X173601143Y-54189381D01*
X174839239Y-54522714D02*
X174839239Y-55189381D01*
X174601143Y-54141762D02*
X174363048Y-54856048D01*
X174982096Y-54856048D01*
X138080762Y-63412619D02*
X137985524Y-63365000D01*
X137890286Y-63269762D01*
X137747429Y-63126905D01*
X137652190Y-63079286D01*
X137556952Y-63079286D01*
X137604571Y-63317381D02*
X137509333Y-63269762D01*
X137414095Y-63174524D01*
X137366476Y-62984048D01*
X137366476Y-62650714D01*
X137414095Y-62460238D01*
X137509333Y-62365000D01*
X137604571Y-62317381D01*
X137795048Y-62317381D01*
X137890286Y-62365000D01*
X137985524Y-62460238D01*
X138033143Y-62650714D01*
X138033143Y-62984048D01*
X137985524Y-63174524D01*
X137890286Y-63269762D01*
X137795048Y-63317381D01*
X137604571Y-63317381D01*
X138414095Y-62412619D02*
X138461714Y-62365000D01*
X138556952Y-62317381D01*
X138795048Y-62317381D01*
X138890286Y-62365000D01*
X138937905Y-62412619D01*
X138985524Y-62507857D01*
X138985524Y-62603095D01*
X138937905Y-62745952D01*
X138366476Y-63317381D01*
X138985524Y-63317381D01*
X158146762Y-63412619D02*
X158051524Y-63365000D01*
X157956286Y-63269762D01*
X157813429Y-63126905D01*
X157718190Y-63079286D01*
X157622952Y-63079286D01*
X157670571Y-63317381D02*
X157575333Y-63269762D01*
X157480095Y-63174524D01*
X157432476Y-62984048D01*
X157432476Y-62650714D01*
X157480095Y-62460238D01*
X157575333Y-62365000D01*
X157670571Y-62317381D01*
X157861048Y-62317381D01*
X157956286Y-62365000D01*
X158051524Y-62460238D01*
X158099143Y-62650714D01*
X158099143Y-62984048D01*
X158051524Y-63174524D01*
X157956286Y-63269762D01*
X157861048Y-63317381D01*
X157670571Y-63317381D01*
X158432476Y-62317381D02*
X159051524Y-62317381D01*
X158718190Y-62698333D01*
X158861048Y-62698333D01*
X158956286Y-62745952D01*
X159003905Y-62793571D01*
X159051524Y-62888810D01*
X159051524Y-63126905D01*
X159003905Y-63222143D01*
X158956286Y-63269762D01*
X158861048Y-63317381D01*
X158575333Y-63317381D01*
X158480095Y-63269762D01*
X158432476Y-63222143D01*
X177704762Y-63412619D02*
X177609524Y-63365000D01*
X177514286Y-63269762D01*
X177371429Y-63126905D01*
X177276190Y-63079286D01*
X177180952Y-63079286D01*
X177228571Y-63317381D02*
X177133333Y-63269762D01*
X177038095Y-63174524D01*
X176990476Y-62984048D01*
X176990476Y-62650714D01*
X177038095Y-62460238D01*
X177133333Y-62365000D01*
X177228571Y-62317381D01*
X177419048Y-62317381D01*
X177514286Y-62365000D01*
X177609524Y-62460238D01*
X177657143Y-62650714D01*
X177657143Y-62984048D01*
X177609524Y-63174524D01*
X177514286Y-63269762D01*
X177419048Y-63317381D01*
X177228571Y-63317381D01*
X178514286Y-62650714D02*
X178514286Y-63317381D01*
X178276190Y-62269762D02*
X178038095Y-62984048D01*
X178657143Y-62984048D01*
X142946381Y-51315857D02*
X142470190Y-51649191D01*
X142946381Y-51887286D02*
X141946381Y-51887286D01*
X141946381Y-51506333D01*
X141994000Y-51411095D01*
X142041619Y-51363476D01*
X142136857Y-51315857D01*
X142279714Y-51315857D01*
X142374952Y-51363476D01*
X142422571Y-51411095D01*
X142470190Y-51506333D01*
X142470190Y-51887286D01*
X142946381Y-50363476D02*
X142946381Y-50934905D01*
X142946381Y-50649191D02*
X141946381Y-50649191D01*
X142089238Y-50744429D01*
X142184476Y-50839667D01*
X142232095Y-50934905D01*
X141946381Y-49744429D02*
X141946381Y-49649190D01*
X141994000Y-49553952D01*
X142041619Y-49506333D01*
X142136857Y-49458714D01*
X142327333Y-49411095D01*
X142565429Y-49411095D01*
X142755905Y-49458714D01*
X142851143Y-49506333D01*
X142898762Y-49553952D01*
X142946381Y-49649190D01*
X142946381Y-49744429D01*
X142898762Y-49839667D01*
X142851143Y-49887286D01*
X142755905Y-49934905D01*
X142565429Y-49982524D01*
X142327333Y-49982524D01*
X142136857Y-49934905D01*
X142041619Y-49887286D01*
X141994000Y-49839667D01*
X141946381Y-49744429D01*
X149606095Y-76033381D02*
X149606095Y-76842905D01*
X149653714Y-76938143D01*
X149701333Y-76985762D01*
X149796571Y-77033381D01*
X149987048Y-77033381D01*
X150082286Y-76985762D01*
X150129905Y-76938143D01*
X150177524Y-76842905D01*
X150177524Y-76033381D01*
X151082286Y-76366714D02*
X151082286Y-77033381D01*
X150844190Y-75985762D02*
X150606095Y-76700048D01*
X151225143Y-76700048D01*
X146502381Y-51315857D02*
X146026190Y-51649191D01*
X146502381Y-51887286D02*
X145502381Y-51887286D01*
X145502381Y-51506333D01*
X145550000Y-51411095D01*
X145597619Y-51363476D01*
X145692857Y-51315857D01*
X145835714Y-51315857D01*
X145930952Y-51363476D01*
X145978571Y-51411095D01*
X146026190Y-51506333D01*
X146026190Y-51887286D01*
X146502381Y-50363476D02*
X146502381Y-50934905D01*
X146502381Y-50649191D02*
X145502381Y-50649191D01*
X145645238Y-50744429D01*
X145740476Y-50839667D01*
X145788095Y-50934905D01*
X146502381Y-49411095D02*
X146502381Y-49982524D01*
X146502381Y-49696810D02*
X145502381Y-49696810D01*
X145645238Y-49792048D01*
X145740476Y-49887286D01*
X145788095Y-49982524D01*
X161234381Y-51061857D02*
X160758190Y-51395191D01*
X161234381Y-51633286D02*
X160234381Y-51633286D01*
X160234381Y-51252333D01*
X160282000Y-51157095D01*
X160329619Y-51109476D01*
X160424857Y-51061857D01*
X160567714Y-51061857D01*
X160662952Y-51109476D01*
X160710571Y-51157095D01*
X160758190Y-51252333D01*
X160758190Y-51633286D01*
X161234381Y-50109476D02*
X161234381Y-50680905D01*
X161234381Y-50395191D02*
X160234381Y-50395191D01*
X160377238Y-50490429D01*
X160472476Y-50585667D01*
X160520095Y-50680905D01*
X160329619Y-49728524D02*
X160282000Y-49680905D01*
X160234381Y-49585667D01*
X160234381Y-49347571D01*
X160282000Y-49252333D01*
X160329619Y-49204714D01*
X160424857Y-49157095D01*
X160520095Y-49157095D01*
X160662952Y-49204714D01*
X161234381Y-49776143D01*
X161234381Y-49157095D01*
X164536381Y-51061857D02*
X164060190Y-51395191D01*
X164536381Y-51633286D02*
X163536381Y-51633286D01*
X163536381Y-51252333D01*
X163584000Y-51157095D01*
X163631619Y-51109476D01*
X163726857Y-51061857D01*
X163869714Y-51061857D01*
X163964952Y-51109476D01*
X164012571Y-51157095D01*
X164060190Y-51252333D01*
X164060190Y-51633286D01*
X164536381Y-50109476D02*
X164536381Y-50680905D01*
X164536381Y-50395191D02*
X163536381Y-50395191D01*
X163679238Y-50490429D01*
X163774476Y-50585667D01*
X163822095Y-50680905D01*
X163536381Y-49776143D02*
X163536381Y-49157095D01*
X163917333Y-49490429D01*
X163917333Y-49347571D01*
X163964952Y-49252333D01*
X164012571Y-49204714D01*
X164107810Y-49157095D01*
X164345905Y-49157095D01*
X164441143Y-49204714D01*
X164488762Y-49252333D01*
X164536381Y-49347571D01*
X164536381Y-49633286D01*
X164488762Y-49728524D01*
X164441143Y-49776143D01*
X106370381Y-51093666D02*
X105894190Y-51427000D01*
X106370381Y-51665095D02*
X105370381Y-51665095D01*
X105370381Y-51284142D01*
X105418000Y-51188904D01*
X105465619Y-51141285D01*
X105560857Y-51093666D01*
X105703714Y-51093666D01*
X105798952Y-51141285D01*
X105846571Y-51188904D01*
X105894190Y-51284142D01*
X105894190Y-51665095D01*
X105370381Y-50236523D02*
X105370381Y-50427000D01*
X105418000Y-50522238D01*
X105465619Y-50569857D01*
X105608476Y-50665095D01*
X105798952Y-50712714D01*
X106179905Y-50712714D01*
X106275143Y-50665095D01*
X106322762Y-50617476D01*
X106370381Y-50522238D01*
X106370381Y-50331761D01*
X106322762Y-50236523D01*
X106275143Y-50188904D01*
X106179905Y-50141285D01*
X105941810Y-50141285D01*
X105846571Y-50188904D01*
X105798952Y-50236523D01*
X105751333Y-50331761D01*
X105751333Y-50522238D01*
X105798952Y-50617476D01*
X105846571Y-50665095D01*
X105941810Y-50712714D01*
X109926381Y-51093666D02*
X109450190Y-51427000D01*
X109926381Y-51665095D02*
X108926381Y-51665095D01*
X108926381Y-51284142D01*
X108974000Y-51188904D01*
X109021619Y-51141285D01*
X109116857Y-51093666D01*
X109259714Y-51093666D01*
X109354952Y-51141285D01*
X109402571Y-51188904D01*
X109450190Y-51284142D01*
X109450190Y-51665095D01*
X108926381Y-50760333D02*
X108926381Y-50093666D01*
X109926381Y-50522238D01*
X124658381Y-50585666D02*
X124182190Y-50919000D01*
X124658381Y-51157095D02*
X123658381Y-51157095D01*
X123658381Y-50776142D01*
X123706000Y-50680904D01*
X123753619Y-50633285D01*
X123848857Y-50585666D01*
X123991714Y-50585666D01*
X124086952Y-50633285D01*
X124134571Y-50680904D01*
X124182190Y-50776142D01*
X124182190Y-51157095D01*
X124086952Y-50014238D02*
X124039333Y-50109476D01*
X123991714Y-50157095D01*
X123896476Y-50204714D01*
X123848857Y-50204714D01*
X123753619Y-50157095D01*
X123706000Y-50109476D01*
X123658381Y-50014238D01*
X123658381Y-49823761D01*
X123706000Y-49728523D01*
X123753619Y-49680904D01*
X123848857Y-49633285D01*
X123896476Y-49633285D01*
X123991714Y-49680904D01*
X124039333Y-49728523D01*
X124086952Y-49823761D01*
X124086952Y-50014238D01*
X124134571Y-50109476D01*
X124182190Y-50157095D01*
X124277429Y-50204714D01*
X124467905Y-50204714D01*
X124563143Y-50157095D01*
X124610762Y-50109476D01*
X124658381Y-50014238D01*
X124658381Y-49823761D01*
X124610762Y-49728523D01*
X124563143Y-49680904D01*
X124467905Y-49633285D01*
X124277429Y-49633285D01*
X124182190Y-49680904D01*
X124134571Y-49728523D01*
X124086952Y-49823761D01*
X128214381Y-50585666D02*
X127738190Y-50919000D01*
X128214381Y-51157095D02*
X127214381Y-51157095D01*
X127214381Y-50776142D01*
X127262000Y-50680904D01*
X127309619Y-50633285D01*
X127404857Y-50585666D01*
X127547714Y-50585666D01*
X127642952Y-50633285D01*
X127690571Y-50680904D01*
X127738190Y-50776142D01*
X127738190Y-51157095D01*
X128214381Y-50109476D02*
X128214381Y-49919000D01*
X128166762Y-49823761D01*
X128119143Y-49776142D01*
X127976286Y-49680904D01*
X127785810Y-49633285D01*
X127404857Y-49633285D01*
X127309619Y-49680904D01*
X127262000Y-49728523D01*
X127214381Y-49823761D01*
X127214381Y-50014238D01*
X127262000Y-50109476D01*
X127309619Y-50157095D01*
X127404857Y-50204714D01*
X127642952Y-50204714D01*
X127738190Y-50157095D01*
X127785810Y-50109476D01*
X127833429Y-50014238D01*
X127833429Y-49823761D01*
X127785810Y-49728523D01*
X127738190Y-49680904D01*
X127642952Y-49633285D01*
X162724103Y-104846285D02*
X162771722Y-104893904D01*
X162819341Y-105036761D01*
X162819341Y-105131999D01*
X162771722Y-105274857D01*
X162676484Y-105370095D01*
X162581246Y-105417714D01*
X162390770Y-105465333D01*
X162247912Y-105465333D01*
X162057436Y-105417714D01*
X161962198Y-105370095D01*
X161866960Y-105274857D01*
X161819341Y-105131999D01*
X161819341Y-105036761D01*
X161866960Y-104893904D01*
X161914579Y-104846285D01*
X161819341Y-104227238D02*
X161819341Y-104036761D01*
X161866960Y-103941523D01*
X161962198Y-103846285D01*
X162152674Y-103798666D01*
X162486008Y-103798666D01*
X162676484Y-103846285D01*
X162771722Y-103941523D01*
X162819341Y-104036761D01*
X162819341Y-104227238D01*
X162771722Y-104322476D01*
X162676484Y-104417714D01*
X162486008Y-104465333D01*
X162152674Y-104465333D01*
X161962198Y-104417714D01*
X161866960Y-104322476D01*
X161819341Y-104227238D01*
X162819341Y-103370095D02*
X161819341Y-103370095D01*
X162819341Y-102798666D01*
X161819341Y-102798666D01*
X162819341Y-101798666D02*
X162819341Y-102370095D01*
X162819341Y-102084381D02*
X161819341Y-102084381D01*
X161962198Y-102179619D01*
X162057436Y-102274857D01*
X162105055Y-102370095D01*
X142390905Y-120594381D02*
X142390905Y-119594381D01*
X142771858Y-119594381D01*
X142867096Y-119642000D01*
X142914715Y-119689619D01*
X142962334Y-119784857D01*
X142962334Y-119927714D01*
X142914715Y-120022952D01*
X142867096Y-120070571D01*
X142771858Y-120118190D01*
X142390905Y-120118190D01*
X143295667Y-119594381D02*
X143962334Y-119594381D01*
X143533762Y-120594381D01*
X163250571Y-84280333D02*
X163250571Y-84613667D01*
X163774381Y-84613667D02*
X162774381Y-84613667D01*
X162774381Y-84137476D01*
X163774381Y-83232714D02*
X163774381Y-83804143D01*
X163774381Y-83518429D02*
X162774381Y-83518429D01*
X162917238Y-83613667D01*
X163012476Y-83708905D01*
X163060095Y-83804143D01*
X149606095Y-104989381D02*
X149606095Y-105798905D01*
X149653714Y-105894143D01*
X149701333Y-105941762D01*
X149796571Y-105989381D01*
X149987048Y-105989381D01*
X150082286Y-105941762D01*
X150129905Y-105894143D01*
X150177524Y-105798905D01*
X150177524Y-104989381D01*
X150558476Y-104989381D02*
X151177524Y-104989381D01*
X150844190Y-105370333D01*
X150987048Y-105370333D01*
X151082286Y-105417952D01*
X151129905Y-105465571D01*
X151177524Y-105560810D01*
X151177524Y-105798905D01*
X151129905Y-105894143D01*
X151082286Y-105941762D01*
X150987048Y-105989381D01*
X150701333Y-105989381D01*
X150606095Y-105941762D01*
X150558476Y-105894143D01*
X114323905Y-38933381D02*
X114323905Y-37933381D01*
X114704858Y-37933381D01*
X114800096Y-37981000D01*
X114847715Y-38028619D01*
X114895334Y-38123857D01*
X114895334Y-38266714D01*
X114847715Y-38361952D01*
X114800096Y-38409571D01*
X114704858Y-38457190D01*
X114323905Y-38457190D01*
X115228667Y-37933381D02*
X115847715Y-37933381D01*
X115514381Y-38314333D01*
X115657239Y-38314333D01*
X115752477Y-38361952D01*
X115800096Y-38409571D01*
X115847715Y-38504810D01*
X115847715Y-38742905D01*
X115800096Y-38838143D01*
X115752477Y-38885762D01*
X115657239Y-38933381D01*
X115371524Y-38933381D01*
X115276286Y-38885762D01*
X115228667Y-38838143D01*
X132357905Y-38933381D02*
X132357905Y-37933381D01*
X132738858Y-37933381D01*
X132834096Y-37981000D01*
X132881715Y-38028619D01*
X132929334Y-38123857D01*
X132929334Y-38266714D01*
X132881715Y-38361952D01*
X132834096Y-38409571D01*
X132738858Y-38457190D01*
X132357905Y-38457190D01*
X133786477Y-38266714D02*
X133786477Y-38933381D01*
X133548381Y-37885762D02*
X133310286Y-38600048D01*
X133929334Y-38600048D01*
X150645905Y-38933381D02*
X150645905Y-37933381D01*
X151026858Y-37933381D01*
X151122096Y-37981000D01*
X151169715Y-38028619D01*
X151217334Y-38123857D01*
X151217334Y-38266714D01*
X151169715Y-38361952D01*
X151122096Y-38409571D01*
X151026858Y-38457190D01*
X150645905Y-38457190D01*
X152122096Y-37933381D02*
X151645905Y-37933381D01*
X151598286Y-38409571D01*
X151645905Y-38361952D01*
X151741143Y-38314333D01*
X151979239Y-38314333D01*
X152074477Y-38361952D01*
X152122096Y-38409571D01*
X152169715Y-38504810D01*
X152169715Y-38742905D01*
X152122096Y-38838143D01*
X152074477Y-38885762D01*
X151979239Y-38933381D01*
X151741143Y-38933381D01*
X151645905Y-38885762D01*
X151598286Y-38838143D01*
X168933905Y-38933381D02*
X168933905Y-37933381D01*
X169314858Y-37933381D01*
X169410096Y-37981000D01*
X169457715Y-38028619D01*
X169505334Y-38123857D01*
X169505334Y-38266714D01*
X169457715Y-38361952D01*
X169410096Y-38409571D01*
X169314858Y-38457190D01*
X168933905Y-38457190D01*
X170362477Y-37933381D02*
X170172000Y-37933381D01*
X170076762Y-37981000D01*
X170029143Y-38028619D01*
X169933905Y-38171476D01*
X169886286Y-38361952D01*
X169886286Y-38742905D01*
X169933905Y-38838143D01*
X169981524Y-38885762D01*
X170076762Y-38933381D01*
X170267239Y-38933381D01*
X170362477Y-38885762D01*
X170410096Y-38838143D01*
X170457715Y-38742905D01*
X170457715Y-38504810D01*
X170410096Y-38409571D01*
X170362477Y-38361952D01*
X170267239Y-38314333D01*
X170076762Y-38314333D01*
X169981524Y-38361952D01*
X169933905Y-38409571D01*
X169886286Y-38504810D01*
X107529334Y-63222143D02*
X107481715Y-63269762D01*
X107338858Y-63317381D01*
X107243620Y-63317381D01*
X107100762Y-63269762D01*
X107005524Y-63174524D01*
X106957905Y-63079286D01*
X106910286Y-62888810D01*
X106910286Y-62745952D01*
X106957905Y-62555476D01*
X107005524Y-62460238D01*
X107100762Y-62365000D01*
X107243620Y-62317381D01*
X107338858Y-62317381D01*
X107481715Y-62365000D01*
X107529334Y-62412619D01*
X108481715Y-63317381D02*
X107910286Y-63317381D01*
X108196000Y-63317381D02*
X108196000Y-62317381D01*
X108100762Y-62460238D01*
X108005524Y-62555476D01*
X107910286Y-62603095D01*
X128611334Y-63222143D02*
X128563715Y-63269762D01*
X128420858Y-63317381D01*
X128325620Y-63317381D01*
X128182762Y-63269762D01*
X128087524Y-63174524D01*
X128039905Y-63079286D01*
X127992286Y-62888810D01*
X127992286Y-62745952D01*
X128039905Y-62555476D01*
X128087524Y-62460238D01*
X128182762Y-62365000D01*
X128325620Y-62317381D01*
X128420858Y-62317381D01*
X128563715Y-62365000D01*
X128611334Y-62412619D01*
X128992286Y-62412619D02*
X129039905Y-62365000D01*
X129135143Y-62317381D01*
X129373239Y-62317381D01*
X129468477Y-62365000D01*
X129516096Y-62412619D01*
X129563715Y-62507857D01*
X129563715Y-62603095D01*
X129516096Y-62745952D01*
X128944667Y-63317381D01*
X129563715Y-63317381D01*
X148423334Y-63222143D02*
X148375715Y-63269762D01*
X148232858Y-63317381D01*
X148137620Y-63317381D01*
X147994762Y-63269762D01*
X147899524Y-63174524D01*
X147851905Y-63079286D01*
X147804286Y-62888810D01*
X147804286Y-62745952D01*
X147851905Y-62555476D01*
X147899524Y-62460238D01*
X147994762Y-62365000D01*
X148137620Y-62317381D01*
X148232858Y-62317381D01*
X148375715Y-62365000D01*
X148423334Y-62412619D01*
X148756667Y-62317381D02*
X149375715Y-62317381D01*
X149042381Y-62698333D01*
X149185239Y-62698333D01*
X149280477Y-62745952D01*
X149328096Y-62793571D01*
X149375715Y-62888810D01*
X149375715Y-63126905D01*
X149328096Y-63222143D01*
X149280477Y-63269762D01*
X149185239Y-63317381D01*
X148899524Y-63317381D01*
X148804286Y-63269762D01*
X148756667Y-63222143D01*
X168235334Y-63222143D02*
X168187715Y-63269762D01*
X168044858Y-63317381D01*
X167949620Y-63317381D01*
X167806762Y-63269762D01*
X167711524Y-63174524D01*
X167663905Y-63079286D01*
X167616286Y-62888810D01*
X167616286Y-62745952D01*
X167663905Y-62555476D01*
X167711524Y-62460238D01*
X167806762Y-62365000D01*
X167949620Y-62317381D01*
X168044858Y-62317381D01*
X168187715Y-62365000D01*
X168235334Y-62412619D01*
X169092477Y-62650714D02*
X169092477Y-63317381D01*
X168854381Y-62269762D02*
X168616286Y-62984048D01*
X169235334Y-62984048D01*
X148144381Y-96988238D02*
X147668190Y-97321572D01*
X148144381Y-97559667D02*
X147144381Y-97559667D01*
X147144381Y-97178714D01*
X147192000Y-97083476D01*
X147239619Y-97035857D01*
X147334857Y-96988238D01*
X147477714Y-96988238D01*
X147572952Y-97035857D01*
X147620571Y-97083476D01*
X147668190Y-97178714D01*
X147668190Y-97559667D01*
X147144381Y-96702524D02*
X148144381Y-96369191D01*
X147144381Y-96035857D01*
X148144381Y-95178714D02*
X148144381Y-95750143D01*
X148144381Y-95464429D02*
X147144381Y-95464429D01*
X147287238Y-95559667D01*
X147382476Y-95654905D01*
X147430095Y-95750143D01*
X148144381Y-91400238D02*
X147668190Y-91733572D01*
X148144381Y-91971667D02*
X147144381Y-91971667D01*
X147144381Y-91590714D01*
X147192000Y-91495476D01*
X147239619Y-91447857D01*
X147334857Y-91400238D01*
X147477714Y-91400238D01*
X147572952Y-91447857D01*
X147620571Y-91495476D01*
X147668190Y-91590714D01*
X147668190Y-91971667D01*
X147144381Y-91114524D02*
X148144381Y-90781191D01*
X147144381Y-90447857D01*
X147239619Y-90162143D02*
X147192000Y-90114524D01*
X147144381Y-90019286D01*
X147144381Y-89781190D01*
X147192000Y-89685952D01*
X147239619Y-89638333D01*
X147334857Y-89590714D01*
X147430095Y-89590714D01*
X147572952Y-89638333D01*
X148144381Y-90209762D01*
X148144381Y-89590714D01*
X148144381Y-80224238D02*
X147668190Y-80557572D01*
X148144381Y-80795667D02*
X147144381Y-80795667D01*
X147144381Y-80414714D01*
X147192000Y-80319476D01*
X147239619Y-80271857D01*
X147334857Y-80224238D01*
X147477714Y-80224238D01*
X147572952Y-80271857D01*
X147620571Y-80319476D01*
X147668190Y-80414714D01*
X147668190Y-80795667D01*
X147144381Y-79938524D02*
X148144381Y-79605191D01*
X147144381Y-79271857D01*
X147477714Y-78509952D02*
X148144381Y-78509952D01*
X147096762Y-78748048D02*
X147811048Y-78986143D01*
X147811048Y-78367095D01*
X101957143Y-82081666D02*
X102004762Y-82129285D01*
X102052381Y-82272142D01*
X102052381Y-82367380D01*
X102004762Y-82510238D01*
X101909524Y-82605476D01*
X101814286Y-82653095D01*
X101623810Y-82700714D01*
X101480952Y-82700714D01*
X101290476Y-82653095D01*
X101195238Y-82605476D01*
X101100000Y-82510238D01*
X101052381Y-82367380D01*
X101052381Y-82272142D01*
X101100000Y-82129285D01*
X101147619Y-82081666D01*
X101052381Y-81176904D02*
X101052381Y-81653095D01*
X101528571Y-81700714D01*
X101480952Y-81653095D01*
X101433333Y-81557857D01*
X101433333Y-81319761D01*
X101480952Y-81224523D01*
X101528571Y-81176904D01*
X101623810Y-81129285D01*
X101861905Y-81129285D01*
X101957143Y-81176904D01*
X102004762Y-81224523D01*
X102052381Y-81319761D01*
X102052381Y-81557857D01*
X102004762Y-81653095D01*
X101957143Y-81700714D01*
X150328334Y-101830143D02*
X150280715Y-101877762D01*
X150137858Y-101925381D01*
X150042620Y-101925381D01*
X149899762Y-101877762D01*
X149804524Y-101782524D01*
X149756905Y-101687286D01*
X149709286Y-101496810D01*
X149709286Y-101353952D01*
X149756905Y-101163476D01*
X149804524Y-101068238D01*
X149899762Y-100973000D01*
X150042620Y-100925381D01*
X150137858Y-100925381D01*
X150280715Y-100973000D01*
X150328334Y-101020619D01*
X150661667Y-100925381D02*
X151328334Y-100925381D01*
X150899762Y-101925381D01*
X150201334Y-109577143D02*
X150153715Y-109624762D01*
X150010858Y-109672381D01*
X149915620Y-109672381D01*
X149772762Y-109624762D01*
X149677524Y-109529524D01*
X149629905Y-109434286D01*
X149582286Y-109243810D01*
X149582286Y-109100952D01*
X149629905Y-108910476D01*
X149677524Y-108815238D01*
X149772762Y-108720000D01*
X149915620Y-108672381D01*
X150010858Y-108672381D01*
X150153715Y-108720000D01*
X150201334Y-108767619D01*
X150772762Y-109100952D02*
X150677524Y-109053333D01*
X150629905Y-109005714D01*
X150582286Y-108910476D01*
X150582286Y-108862857D01*
X150629905Y-108767619D01*
X150677524Y-108720000D01*
X150772762Y-108672381D01*
X150963239Y-108672381D01*
X151058477Y-108720000D01*
X151106096Y-108767619D01*
X151153715Y-108862857D01*
X151153715Y-108910476D01*
X151106096Y-109005714D01*
X151058477Y-109053333D01*
X150963239Y-109100952D01*
X150772762Y-109100952D01*
X150677524Y-109148571D01*
X150629905Y-109196190D01*
X150582286Y-109291429D01*
X150582286Y-109481905D01*
X150629905Y-109577143D01*
X150677524Y-109624762D01*
X150772762Y-109672381D01*
X150963239Y-109672381D01*
X151058477Y-109624762D01*
X151106096Y-109577143D01*
X151153715Y-109481905D01*
X151153715Y-109291429D01*
X151106096Y-109196190D01*
X151058477Y-109148571D01*
X150963239Y-109100952D01*
X98614334Y-117478143D02*
X98566715Y-117525762D01*
X98423858Y-117573381D01*
X98328620Y-117573381D01*
X98185762Y-117525762D01*
X98090524Y-117430524D01*
X98042905Y-117335286D01*
X97995286Y-117144810D01*
X97995286Y-117001952D01*
X98042905Y-116811476D01*
X98090524Y-116716238D01*
X98185762Y-116621000D01*
X98328620Y-116573381D01*
X98423858Y-116573381D01*
X98566715Y-116621000D01*
X98614334Y-116668619D01*
X99090524Y-117573381D02*
X99281000Y-117573381D01*
X99376239Y-117525762D01*
X99423858Y-117478143D01*
X99519096Y-117335286D01*
X99566715Y-117144810D01*
X99566715Y-116763857D01*
X99519096Y-116668619D01*
X99471477Y-116621000D01*
X99376239Y-116573381D01*
X99185762Y-116573381D01*
X99090524Y-116621000D01*
X99042905Y-116668619D01*
X98995286Y-116763857D01*
X98995286Y-117001952D01*
X99042905Y-117097190D01*
X99090524Y-117144810D01*
X99185762Y-117192429D01*
X99376239Y-117192429D01*
X99471477Y-117144810D01*
X99519096Y-117097190D01*
X99566715Y-117001952D01*
X101743143Y-98853857D02*
X101790762Y-98901476D01*
X101838381Y-99044333D01*
X101838381Y-99139571D01*
X101790762Y-99282429D01*
X101695524Y-99377667D01*
X101600286Y-99425286D01*
X101409810Y-99472905D01*
X101266952Y-99472905D01*
X101076476Y-99425286D01*
X100981238Y-99377667D01*
X100886000Y-99282429D01*
X100838381Y-99139571D01*
X100838381Y-99044333D01*
X100886000Y-98901476D01*
X100933619Y-98853857D01*
X101838381Y-97901476D02*
X101838381Y-98472905D01*
X101838381Y-98187191D02*
X100838381Y-98187191D01*
X100981238Y-98282429D01*
X101076476Y-98377667D01*
X101124095Y-98472905D01*
X100838381Y-97282429D02*
X100838381Y-97187190D01*
X100886000Y-97091952D01*
X100933619Y-97044333D01*
X101028857Y-96996714D01*
X101219333Y-96949095D01*
X101457429Y-96949095D01*
X101647905Y-96996714D01*
X101743143Y-97044333D01*
X101790762Y-97091952D01*
X101838381Y-97187190D01*
X101838381Y-97282429D01*
X101790762Y-97377667D01*
X101743143Y-97425286D01*
X101647905Y-97472905D01*
X101457429Y-97520524D01*
X101219333Y-97520524D01*
X101028857Y-97472905D01*
X100933619Y-97425286D01*
X100886000Y-97377667D01*
X100838381Y-97282429D01*
X149344143Y-73382143D02*
X149296524Y-73429762D01*
X149153667Y-73477381D01*
X149058429Y-73477381D01*
X148915571Y-73429762D01*
X148820333Y-73334524D01*
X148772714Y-73239286D01*
X148725095Y-73048810D01*
X148725095Y-72905952D01*
X148772714Y-72715476D01*
X148820333Y-72620238D01*
X148915571Y-72525000D01*
X149058429Y-72477381D01*
X149153667Y-72477381D01*
X149296524Y-72525000D01*
X149344143Y-72572619D01*
X150296524Y-73477381D02*
X149725095Y-73477381D01*
X150010809Y-73477381D02*
X150010809Y-72477381D01*
X149915571Y-72620238D01*
X149820333Y-72715476D01*
X149725095Y-72763095D01*
X151248905Y-73477381D02*
X150677476Y-73477381D01*
X150963190Y-73477381D02*
X150963190Y-72477381D01*
X150867952Y-72620238D01*
X150772714Y-72715476D01*
X150677476Y-72763095D01*
X140414143Y-103394143D02*
X140366524Y-103441762D01*
X140223667Y-103489381D01*
X140128429Y-103489381D01*
X139985571Y-103441762D01*
X139890333Y-103346524D01*
X139842714Y-103251286D01*
X139795095Y-103060810D01*
X139795095Y-102917952D01*
X139842714Y-102727476D01*
X139890333Y-102632238D01*
X139985571Y-102537000D01*
X140128429Y-102489381D01*
X140223667Y-102489381D01*
X140366524Y-102537000D01*
X140414143Y-102584619D01*
X141366524Y-103489381D02*
X140795095Y-103489381D01*
X141080809Y-103489381D02*
X141080809Y-102489381D01*
X140985571Y-102632238D01*
X140890333Y-102727476D01*
X140795095Y-102775095D01*
X141747476Y-102584619D02*
X141795095Y-102537000D01*
X141890333Y-102489381D01*
X142128429Y-102489381D01*
X142223667Y-102537000D01*
X142271286Y-102584619D01*
X142318905Y-102679857D01*
X142318905Y-102775095D01*
X142271286Y-102917952D01*
X141699857Y-103489381D01*
X142318905Y-103489381D01*
X121285095Y-87463381D02*
X121285095Y-88272905D01*
X121332714Y-88368143D01*
X121380333Y-88415762D01*
X121475571Y-88463381D01*
X121666048Y-88463381D01*
X121761286Y-88415762D01*
X121808905Y-88368143D01*
X121856524Y-88272905D01*
X121856524Y-87463381D01*
X122808905Y-87463381D02*
X122332714Y-87463381D01*
X122285095Y-87939571D01*
X122332714Y-87891952D01*
X122427952Y-87844333D01*
X122666048Y-87844333D01*
X122761286Y-87891952D01*
X122808905Y-87939571D01*
X122856524Y-88034810D01*
X122856524Y-88272905D01*
X122808905Y-88368143D01*
X122761286Y-88415762D01*
X122666048Y-88463381D01*
X122427952Y-88463381D01*
X122332714Y-88415762D01*
X122285095Y-88368143D01*
X149502905Y-113228381D02*
X149502905Y-112228381D01*
X149883858Y-112228381D01*
X149979096Y-112276000D01*
X150026715Y-112323619D01*
X150074334Y-112418857D01*
X150074334Y-112561714D01*
X150026715Y-112656952D01*
X149979096Y-112704571D01*
X149883858Y-112752190D01*
X149502905Y-112752190D01*
X151026715Y-113228381D02*
X150455286Y-113228381D01*
X150741000Y-113228381D02*
X150741000Y-112228381D01*
X150645762Y-112371238D01*
X150550524Y-112466476D01*
X150455286Y-112514095D01*
X149502905Y-120594381D02*
X149502905Y-119594381D01*
X149883858Y-119594381D01*
X149979096Y-119642000D01*
X150026715Y-119689619D01*
X150074334Y-119784857D01*
X150074334Y-119927714D01*
X150026715Y-120022952D01*
X149979096Y-120070571D01*
X149883858Y-120118190D01*
X149502905Y-120118190D01*
X150455286Y-119689619D02*
X150502905Y-119642000D01*
X150598143Y-119594381D01*
X150836239Y-119594381D01*
X150931477Y-119642000D01*
X150979096Y-119689619D01*
X151026715Y-119784857D01*
X151026715Y-119880095D01*
X150979096Y-120022952D01*
X150407667Y-120594381D01*
X151026715Y-120594381D01*
X130167143Y-120657881D02*
X129833809Y-120181690D01*
X129595714Y-120657881D02*
X129595714Y-119657881D01*
X129976667Y-119657881D01*
X130071905Y-119705500D01*
X130119524Y-119753119D01*
X130167143Y-119848357D01*
X130167143Y-119991214D01*
X130119524Y-120086452D01*
X130071905Y-120134071D01*
X129976667Y-120181690D01*
X129595714Y-120181690D01*
X131119524Y-120657881D02*
X130548095Y-120657881D01*
X130833809Y-120657881D02*
X130833809Y-119657881D01*
X130738571Y-119800738D01*
X130643333Y-119895976D01*
X130548095Y-119943595D01*
X131976667Y-119991214D02*
X131976667Y-120657881D01*
X131738571Y-119610262D02*
X131500476Y-120324548D01*
X132119524Y-120324548D01*
X125214143Y-120594381D02*
X124880809Y-120118190D01*
X124642714Y-120594381D02*
X124642714Y-119594381D01*
X125023667Y-119594381D01*
X125118905Y-119642000D01*
X125166524Y-119689619D01*
X125214143Y-119784857D01*
X125214143Y-119927714D01*
X125166524Y-120022952D01*
X125118905Y-120070571D01*
X125023667Y-120118190D01*
X124642714Y-120118190D01*
X126166524Y-120594381D02*
X125595095Y-120594381D01*
X125880809Y-120594381D02*
X125880809Y-119594381D01*
X125785571Y-119737238D01*
X125690333Y-119832476D01*
X125595095Y-119880095D01*
X127023667Y-119594381D02*
X126833190Y-119594381D01*
X126737952Y-119642000D01*
X126690333Y-119689619D01*
X126595095Y-119832476D01*
X126547476Y-120022952D01*
X126547476Y-120403905D01*
X126595095Y-120499143D01*
X126642714Y-120546762D01*
X126737952Y-120594381D01*
X126928429Y-120594381D01*
X127023667Y-120546762D01*
X127071286Y-120499143D01*
X127118905Y-120403905D01*
X127118905Y-120165810D01*
X127071286Y-120070571D01*
X127023667Y-120022952D01*
X126928429Y-119975333D01*
X126737952Y-119975333D01*
X126642714Y-120022952D01*
X126595095Y-120070571D01*
X126547476Y-120165810D01*
X105052905Y-103576381D02*
X105052905Y-102576381D01*
X105433858Y-102576381D01*
X105529096Y-102624000D01*
X105576715Y-102671619D01*
X105624334Y-102766857D01*
X105624334Y-102909714D01*
X105576715Y-103004952D01*
X105529096Y-103052571D01*
X105433858Y-103100190D01*
X105052905Y-103100190D01*
X106100524Y-103576381D02*
X106291000Y-103576381D01*
X106386239Y-103528762D01*
X106433858Y-103481143D01*
X106529096Y-103338286D01*
X106576715Y-103147810D01*
X106576715Y-102766857D01*
X106529096Y-102671619D01*
X106481477Y-102624000D01*
X106386239Y-102576381D01*
X106195762Y-102576381D01*
X106100524Y-102624000D01*
X106052905Y-102671619D01*
X106005286Y-102766857D01*
X106005286Y-103004952D01*
X106052905Y-103100190D01*
X106100524Y-103147810D01*
X106195762Y-103195429D01*
X106386239Y-103195429D01*
X106481477Y-103147810D01*
X106529096Y-103100190D01*
X106576715Y-103004952D01*
X146296143Y-120499143D02*
X146248524Y-120546762D01*
X146105667Y-120594381D01*
X146010429Y-120594381D01*
X145867571Y-120546762D01*
X145772333Y-120451524D01*
X145724714Y-120356286D01*
X145677095Y-120165810D01*
X145677095Y-120022952D01*
X145724714Y-119832476D01*
X145772333Y-119737238D01*
X145867571Y-119642000D01*
X146010429Y-119594381D01*
X146105667Y-119594381D01*
X146248524Y-119642000D01*
X146296143Y-119689619D01*
X147248524Y-120594381D02*
X146677095Y-120594381D01*
X146962809Y-120594381D02*
X146962809Y-119594381D01*
X146867571Y-119737238D01*
X146772333Y-119832476D01*
X146677095Y-119880095D01*
X148105667Y-119927714D02*
X148105667Y-120594381D01*
X147867571Y-119546762D02*
X147629476Y-120261048D01*
X148248524Y-120261048D01*
X134759143Y-106265143D02*
X134711524Y-106312762D01*
X134568667Y-106360381D01*
X134473429Y-106360381D01*
X134330571Y-106312762D01*
X134235333Y-106217524D01*
X134187714Y-106122286D01*
X134140095Y-105931810D01*
X134140095Y-105788952D01*
X134187714Y-105598476D01*
X134235333Y-105503238D01*
X134330571Y-105408000D01*
X134473429Y-105360381D01*
X134568667Y-105360381D01*
X134711524Y-105408000D01*
X134759143Y-105455619D01*
X135711524Y-106360381D02*
X135140095Y-106360381D01*
X135425809Y-106360381D02*
X135425809Y-105360381D01*
X135330571Y-105503238D01*
X135235333Y-105598476D01*
X135140095Y-105646095D01*
X136616286Y-105360381D02*
X136140095Y-105360381D01*
X136092476Y-105836571D01*
X136140095Y-105788952D01*
X136235333Y-105741333D01*
X136473429Y-105741333D01*
X136568667Y-105788952D01*
X136616286Y-105836571D01*
X136663905Y-105931810D01*
X136663905Y-106169905D01*
X136616286Y-106265143D01*
X136568667Y-106312762D01*
X136473429Y-106360381D01*
X136235333Y-106360381D01*
X136140095Y-106312762D01*
X136092476Y-106265143D01*
D17*
X130640667Y-92788619D02*
X130302001Y-92304810D01*
X130060096Y-92788619D02*
X130060096Y-91772619D01*
X130447143Y-91772619D01*
X130543905Y-91821000D01*
X130592286Y-91869381D01*
X130640667Y-91966143D01*
X130640667Y-92111286D01*
X130592286Y-92208048D01*
X130543905Y-92256429D01*
X130447143Y-92304810D01*
X130060096Y-92304810D01*
X131076096Y-92788619D02*
X131076096Y-91772619D01*
X131463143Y-91772619D01*
X131559905Y-91821000D01*
X131608286Y-91869381D01*
X131656667Y-91966143D01*
X131656667Y-92111286D01*
X131608286Y-92208048D01*
X131559905Y-92256429D01*
X131463143Y-92304810D01*
X131076096Y-92304810D01*
X132624286Y-92788619D02*
X132043715Y-92788619D01*
X132334001Y-92788619D02*
X132334001Y-91772619D01*
X132237239Y-91917762D01*
X132140477Y-92014524D01*
X132043715Y-92062905D01*
X117686667Y-71325619D02*
X117348001Y-70841810D01*
X117106096Y-71325619D02*
X117106096Y-70309619D01*
X117493143Y-70309619D01*
X117589905Y-70358000D01*
X117638286Y-70406381D01*
X117686667Y-70503143D01*
X117686667Y-70648286D01*
X117638286Y-70745048D01*
X117589905Y-70793429D01*
X117493143Y-70841810D01*
X117106096Y-70841810D01*
X118122096Y-71325619D02*
X118122096Y-70309619D01*
X118509143Y-70309619D01*
X118605905Y-70358000D01*
X118654286Y-70406381D01*
X118702667Y-70503143D01*
X118702667Y-70648286D01*
X118654286Y-70745048D01*
X118605905Y-70793429D01*
X118509143Y-70841810D01*
X118122096Y-70841810D01*
X119089715Y-70406381D02*
X119138096Y-70358000D01*
X119234858Y-70309619D01*
X119476762Y-70309619D01*
X119573524Y-70358000D01*
X119621905Y-70406381D01*
X119670286Y-70503143D01*
X119670286Y-70599905D01*
X119621905Y-70745048D01*
X119041334Y-71325619D01*
X119670286Y-71325619D01*
X129364619Y-85386333D02*
X128880810Y-85724999D01*
X129364619Y-85966904D02*
X128348619Y-85966904D01*
X128348619Y-85579857D01*
X128397000Y-85483095D01*
X128445381Y-85434714D01*
X128542143Y-85386333D01*
X128687286Y-85386333D01*
X128784048Y-85434714D01*
X128832429Y-85483095D01*
X128880810Y-85579857D01*
X128880810Y-85966904D01*
X129364619Y-84370333D02*
X128880810Y-84708999D01*
X129364619Y-84950904D02*
X128348619Y-84950904D01*
X128348619Y-84563857D01*
X128397000Y-84467095D01*
X128445381Y-84418714D01*
X128542143Y-84370333D01*
X128687286Y-84370333D01*
X128784048Y-84418714D01*
X128832429Y-84467095D01*
X128880810Y-84563857D01*
X128880810Y-84950904D01*
X129364619Y-83402714D02*
X129364619Y-83983285D01*
X129364619Y-83692999D02*
X128348619Y-83692999D01*
X128493762Y-83789761D01*
X128590524Y-83886523D01*
X128638905Y-83983285D01*
X135466667Y-71325619D02*
X135128001Y-70841810D01*
X134886096Y-71325619D02*
X134886096Y-70309619D01*
X135273143Y-70309619D01*
X135369905Y-70358000D01*
X135418286Y-70406381D01*
X135466667Y-70503143D01*
X135466667Y-70648286D01*
X135418286Y-70745048D01*
X135369905Y-70793429D01*
X135273143Y-70841810D01*
X134886096Y-70841810D01*
X136482667Y-71325619D02*
X136144001Y-70841810D01*
X135902096Y-71325619D02*
X135902096Y-70309619D01*
X136289143Y-70309619D01*
X136385905Y-70358000D01*
X136434286Y-70406381D01*
X136482667Y-70503143D01*
X136482667Y-70648286D01*
X136434286Y-70745048D01*
X136385905Y-70793429D01*
X136289143Y-70841810D01*
X135902096Y-70841810D01*
X136869715Y-70406381D02*
X136918096Y-70358000D01*
X137014858Y-70309619D01*
X137256762Y-70309619D01*
X137353524Y-70358000D01*
X137401905Y-70406381D01*
X137450286Y-70503143D01*
X137450286Y-70599905D01*
X137401905Y-70745048D01*
X136821334Y-71325619D01*
X137450286Y-71325619D01*
X113876667Y-88597619D02*
X113538001Y-88113810D01*
X113296096Y-88597619D02*
X113296096Y-87581619D01*
X113683143Y-87581619D01*
X113779905Y-87630000D01*
X113828286Y-87678381D01*
X113876667Y-87775143D01*
X113876667Y-87920286D01*
X113828286Y-88017048D01*
X113779905Y-88065429D01*
X113683143Y-88113810D01*
X113296096Y-88113810D01*
X114892667Y-88597619D02*
X114554001Y-88113810D01*
X114312096Y-88597619D02*
X114312096Y-87581619D01*
X114699143Y-87581619D01*
X114795905Y-87630000D01*
X114844286Y-87678381D01*
X114892667Y-87775143D01*
X114892667Y-87920286D01*
X114844286Y-88017048D01*
X114795905Y-88065429D01*
X114699143Y-88113810D01*
X114312096Y-88113810D01*
X115231334Y-87581619D02*
X115860286Y-87581619D01*
X115521620Y-87968667D01*
X115666762Y-87968667D01*
X115763524Y-88017048D01*
X115811905Y-88065429D01*
X115860286Y-88162190D01*
X115860286Y-88404095D01*
X115811905Y-88500857D01*
X115763524Y-88549238D01*
X115666762Y-88597619D01*
X115376477Y-88597619D01*
X115279715Y-88549238D01*
X115231334Y-88500857D01*
X129364619Y-101134333D02*
X128880810Y-101472999D01*
X129364619Y-101714904D02*
X128348619Y-101714904D01*
X128348619Y-101327857D01*
X128397000Y-101231095D01*
X128445381Y-101182714D01*
X128542143Y-101134333D01*
X128687286Y-101134333D01*
X128784048Y-101182714D01*
X128832429Y-101231095D01*
X128880810Y-101327857D01*
X128880810Y-101714904D01*
X129364619Y-100118333D02*
X128880810Y-100456999D01*
X129364619Y-100698904D02*
X128348619Y-100698904D01*
X128348619Y-100311857D01*
X128397000Y-100215095D01*
X128445381Y-100166714D01*
X128542143Y-100118333D01*
X128687286Y-100118333D01*
X128784048Y-100166714D01*
X128832429Y-100215095D01*
X128880810Y-100311857D01*
X128880810Y-100698904D01*
X128687286Y-99247476D02*
X129364619Y-99247476D01*
X128300238Y-99489380D02*
X129025952Y-99731285D01*
X129025952Y-99102333D01*
M02*
