G04 #@! TF.FileFunction,Copper,L2,Bot,Mixed*
%FSLAX46Y46*%
G04 Gerber Fmt 4.6, Leading zero omitted, Abs format (unit mm)*
G04 Created by KiCad (PCBNEW 4.0.4-1.fc24-product) date Sun Dec 11 17:37:08 2016*
%MOMM*%
%LPD*%
G01*
G04 APERTURE LIST*
%ADD10C,0.100000*%
%ADD11C,3.200000*%
%ADD12R,1.300000X1.300000*%
%ADD13C,1.300000*%
%ADD14C,1.397000*%
%ADD15O,1.506220X3.014980*%
%ADD16O,1.600000X1.600000*%
%ADD17C,1.510000*%
%ADD18R,1.510000X1.510000*%
%ADD19O,1.501140X2.499360*%
%ADD20C,2.000000*%
%ADD21R,2.000000X2.000000*%
%ADD22C,1.501140*%
%ADD23C,1.998980*%
%ADD24R,3.500120X3.500120*%
%ADD25R,1.727200X1.727200*%
%ADD26O,1.727200X1.727200*%
%ADD27C,2.349500*%
%ADD28O,0.899160X1.501140*%
%ADD29R,2.540000X2.540000*%
%ADD30C,2.540000*%
%ADD31R,1.727200X2.032000*%
%ADD32O,1.727200X2.032000*%
%ADD33R,2.197100X1.524000*%
%ADD34O,2.197100X1.524000*%
%ADD35R,1.524000X2.197100*%
%ADD36O,1.524000X2.197100*%
%ADD37R,2.199640X1.524000*%
%ADD38O,2.199640X1.524000*%
%ADD39R,1.524000X2.199640*%
%ADD40O,1.524000X2.199640*%
%ADD41C,3.000000*%
%ADD42C,1.000000*%
%ADD43C,0.500000*%
%ADD44C,0.350000*%
%ADD45C,2.000000*%
%ADD46C,0.254000*%
G04 APERTURE END LIST*
D10*
D11*
X171000000Y-41857000D03*
X99500000Y-41857000D03*
X171000000Y-113357000D03*
X99500000Y-113357000D03*
D12*
X127254000Y-105537000D03*
D13*
X122254000Y-105537000D03*
D14*
X120777000Y-124206000D03*
X120777000Y-121666000D03*
D15*
X109601000Y-122682000D03*
X112141000Y-122682000D03*
X114681000Y-122682000D03*
D16*
X109474000Y-101981000D03*
X112014000Y-101981000D03*
X114554000Y-101981000D03*
X117094000Y-101981000D03*
X119634000Y-101981000D03*
X122174000Y-101981000D03*
X124714000Y-101981000D03*
X124714000Y-94361000D03*
X122174000Y-94361000D03*
X119634000Y-94361000D03*
X117094000Y-94361000D03*
X114554000Y-94361000D03*
X112014000Y-94361000D03*
X109474000Y-94361000D03*
X109474000Y-117475000D03*
X112014000Y-117475000D03*
X114554000Y-117475000D03*
X117094000Y-117475000D03*
X119634000Y-117475000D03*
X122174000Y-117475000D03*
X124714000Y-117475000D03*
X127254000Y-117475000D03*
X129794000Y-117475000D03*
X132334000Y-117475000D03*
X134874000Y-117475000D03*
X137414000Y-117475000D03*
X139954000Y-117475000D03*
X142494000Y-117475000D03*
X142494000Y-109855000D03*
X139954000Y-109855000D03*
X137414000Y-109855000D03*
X134874000Y-109855000D03*
X132334000Y-109855000D03*
X129794000Y-109855000D03*
X127254000Y-109855000D03*
X124714000Y-109855000D03*
X122174000Y-109855000D03*
X119634000Y-109855000D03*
X117094000Y-109855000D03*
X114554000Y-109855000D03*
X112014000Y-109855000D03*
X109474000Y-109855000D03*
D17*
X144272000Y-85209000D03*
D18*
X139192000Y-85209000D03*
D17*
X141732000Y-85209000D03*
D12*
X134874000Y-76327000D03*
D13*
X129874000Y-76327000D03*
D16*
X109474000Y-85471000D03*
X112014000Y-85471000D03*
X114554000Y-85471000D03*
X117094000Y-85471000D03*
X119634000Y-85471000D03*
X122174000Y-85471000D03*
X124714000Y-85471000D03*
X124714000Y-77851000D03*
X122174000Y-77851000D03*
X119634000Y-77851000D03*
X117094000Y-77851000D03*
X114554000Y-77851000D03*
X112014000Y-77851000D03*
X109474000Y-77851000D03*
D19*
X113030000Y-65913000D03*
X115570000Y-65913000D03*
X110490000Y-65913000D03*
D20*
X116078520Y-59560460D03*
D21*
X105918520Y-59560460D03*
D20*
X134366520Y-59560460D03*
D21*
X124206520Y-59560460D03*
D20*
X152654520Y-59560460D03*
D21*
X142494520Y-59560460D03*
D20*
X170942520Y-59560460D03*
D21*
X160782520Y-59560460D03*
D22*
X116078000Y-52664360D03*
X116078000Y-47665640D03*
X134366000Y-52664360D03*
X134366000Y-47665640D03*
X152654000Y-52664360D03*
X152654000Y-47665640D03*
X170942000Y-52918360D03*
X170942000Y-47919640D03*
D19*
X134112000Y-65913000D03*
X136652000Y-65913000D03*
X131572000Y-65913000D03*
X153924000Y-65913000D03*
X156464000Y-65913000D03*
X151384000Y-65913000D03*
X173736000Y-65913000D03*
X176276000Y-65913000D03*
X171196000Y-65913000D03*
D23*
X142494000Y-55753000D03*
X142494000Y-45593000D03*
D16*
X151892000Y-78867000D03*
X151892000Y-81407000D03*
X151892000Y-83947000D03*
X151892000Y-86487000D03*
X151892000Y-89027000D03*
X151892000Y-91567000D03*
X151892000Y-94107000D03*
X159512000Y-94107000D03*
X159512000Y-91567000D03*
X159512000Y-89027000D03*
X159512000Y-86487000D03*
X159512000Y-83947000D03*
X159512000Y-81407000D03*
X159512000Y-78867000D03*
D23*
X146050000Y-55753000D03*
X146050000Y-45593000D03*
X160782000Y-55499000D03*
X160782000Y-45339000D03*
X164084000Y-55499000D03*
X164084000Y-45339000D03*
X105918000Y-55753000D03*
X105918000Y-45593000D03*
X109474000Y-55753000D03*
X109474000Y-45593000D03*
X124206000Y-55753000D03*
X124206000Y-45593000D03*
X127762000Y-55753000D03*
X127762000Y-45593000D03*
D24*
X166265860Y-103632000D03*
X172265340Y-103632000D03*
X169265600Y-98933000D03*
D25*
X139954000Y-121539000D03*
D26*
X139954000Y-124079000D03*
X137414000Y-121539000D03*
X137414000Y-124079000D03*
X134874000Y-121539000D03*
X134874000Y-124079000D03*
D27*
X165862000Y-76286360D03*
X170942000Y-76286360D03*
X165862000Y-91607640D03*
X170942000Y-91607640D03*
D28*
X155448000Y-105537000D03*
X154178000Y-105537000D03*
X156718000Y-105537000D03*
D29*
X110998000Y-35433000D03*
D30*
X105918000Y-35433000D03*
D29*
X129286000Y-35433000D03*
D30*
X124206000Y-35433000D03*
D29*
X147574000Y-35433000D03*
D30*
X142494000Y-35433000D03*
D29*
X165862000Y-35433000D03*
D30*
X160782000Y-35433000D03*
D13*
X104846000Y-65913000D03*
D12*
X101346000Y-65913000D03*
D13*
X125928000Y-65913000D03*
D12*
X122428000Y-65913000D03*
D13*
X145740000Y-65913000D03*
D12*
X142240000Y-65913000D03*
D13*
X165552000Y-65913000D03*
D12*
X162052000Y-65913000D03*
D17*
X144272000Y-96385000D03*
D18*
X139192000Y-96385000D03*
D17*
X141732000Y-96385000D03*
X144272000Y-90797000D03*
D18*
X139192000Y-90797000D03*
D17*
X141732000Y-90797000D03*
X144272000Y-79621000D03*
D18*
X139192000Y-79621000D03*
D17*
X141732000Y-79621000D03*
D12*
X103886000Y-79375000D03*
D13*
X103886000Y-84375000D03*
D12*
X152908000Y-101473000D03*
D13*
X157908000Y-101473000D03*
D12*
X152908000Y-109220000D03*
D13*
X157908000Y-109220000D03*
D12*
X104013000Y-119507000D03*
D13*
X99013000Y-119507000D03*
D12*
X103886000Y-100711000D03*
D13*
X103886000Y-95711000D03*
D12*
X157988000Y-73025000D03*
D13*
X152988000Y-73025000D03*
D12*
X138557000Y-105537000D03*
D13*
X143557000Y-105537000D03*
D28*
X125450600Y-89916000D03*
X126720600Y-89916000D03*
X124180600Y-89916000D03*
D15*
X152908000Y-114935000D03*
X155448000Y-114935000D03*
X157988000Y-114935000D03*
X152908000Y-122682000D03*
X155448000Y-122682000D03*
X157988000Y-122682000D03*
D14*
X130810000Y-124206000D03*
X130810000Y-121666000D03*
X125857000Y-124206000D03*
X125857000Y-121666000D03*
D31*
X106934000Y-105537000D03*
D32*
X109474000Y-105537000D03*
X112014000Y-105537000D03*
X114554000Y-105537000D03*
D12*
X148209000Y-117475000D03*
D13*
X148209000Y-114975000D03*
D12*
X136652000Y-102108000D03*
D13*
X134152000Y-102108000D03*
D33*
X134620000Y-97409000D03*
D34*
X134620000Y-94869000D03*
X134620000Y-92329000D03*
X134620000Y-89789000D03*
X134620000Y-87249000D03*
X134620000Y-84709000D03*
X134620000Y-82169000D03*
X134620000Y-79629000D03*
D35*
X109474000Y-73025000D03*
D36*
X112014000Y-73025000D03*
X114554000Y-73025000D03*
X117094000Y-73025000D03*
X119634000Y-73025000D03*
X122174000Y-73025000D03*
X124714000Y-73025000D03*
X127254000Y-73025000D03*
D37*
X131064000Y-89789000D03*
D38*
X131064000Y-87249000D03*
X131064000Y-84709000D03*
X131064000Y-82169000D03*
X131064000Y-79629000D03*
D39*
X141224000Y-73025000D03*
D40*
X138684000Y-73025000D03*
X136144000Y-73025000D03*
X133604000Y-73025000D03*
X131064000Y-73025000D03*
D39*
X109474000Y-90297000D03*
D40*
X112014000Y-90297000D03*
X114554000Y-90297000D03*
X117094000Y-90297000D03*
X119634000Y-90297000D03*
D37*
X131064000Y-105537000D03*
D38*
X131064000Y-102997000D03*
X131064000Y-100457000D03*
X131064000Y-97917000D03*
X131064000Y-95377000D03*
D41*
X165862000Y-76286360D02*
X170942000Y-76286360D01*
X162052000Y-65913000D02*
X162052000Y-60829940D01*
X162052000Y-60829940D02*
X160782520Y-59560460D01*
X162052000Y-65913000D02*
X162052000Y-66675000D01*
X165862000Y-70485000D02*
X165862000Y-76286360D01*
X162052000Y-66675000D02*
X165862000Y-70485000D01*
D42*
X157988000Y-111760000D02*
X157988000Y-114554000D01*
X144780000Y-101854000D02*
X152527000Y-101854000D01*
X152527000Y-101854000D02*
X152908000Y-101473000D01*
X114554000Y-85471000D02*
X114554000Y-85852000D01*
X114554000Y-85852000D02*
X116332000Y-87630000D01*
X121920000Y-87630000D02*
X124206000Y-89916000D01*
X116332000Y-87630000D02*
X121920000Y-87630000D01*
D43*
X114554000Y-85471000D02*
X114554000Y-85598000D01*
D42*
X114554000Y-85471000D02*
X114554000Y-85725000D01*
X144272000Y-79621000D02*
X144272000Y-85209000D01*
X144272000Y-85209000D02*
X144272000Y-91059000D01*
X142240000Y-65913000D02*
X142240000Y-69469000D01*
X144272000Y-71501000D02*
X144272000Y-79629000D01*
X142240000Y-69469000D02*
X144272000Y-71501000D01*
D41*
X142240000Y-65913000D02*
X142240000Y-59814980D01*
X142240000Y-59814980D02*
X142494520Y-59560460D01*
X101346000Y-65913000D02*
X101346000Y-64132980D01*
X101346000Y-64132980D02*
X105918520Y-59560460D01*
X122428000Y-65913000D02*
X122428000Y-61338980D01*
X122428000Y-61338980D02*
X124206520Y-59560460D01*
D42*
X103886000Y-79375000D02*
X105918000Y-81407000D01*
X143557000Y-105537000D02*
X143557000Y-103077000D01*
X143557000Y-103077000D02*
X144780000Y-101854000D01*
X110490000Y-81407000D02*
X114554000Y-85471000D01*
X105918000Y-81407000D02*
X110490000Y-81407000D01*
X154178000Y-105537000D02*
X154178000Y-107950000D01*
X154178000Y-107950000D02*
X157988000Y-111760000D01*
X155448000Y-105537000D02*
X155448000Y-106760000D01*
X155448000Y-106760000D02*
X157908000Y-109220000D01*
X125476000Y-89916000D02*
X125476000Y-91567000D01*
X125476000Y-91567000D02*
X127000000Y-93091000D01*
X127000000Y-99695000D02*
X124714000Y-101981000D01*
X127000000Y-93091000D02*
X127000000Y-99695000D01*
X156718000Y-105537000D02*
X158115000Y-105537000D01*
X158115000Y-105537000D02*
X161671000Y-101981000D01*
X103886000Y-100711000D02*
X103886000Y-119380000D01*
X103886000Y-119380000D02*
X104013000Y-119507000D01*
X104013000Y-119507000D02*
X104013000Y-116840000D01*
X104013000Y-116840000D02*
X106934000Y-113919000D01*
X161671000Y-81026000D02*
X159512000Y-78867000D01*
X161671000Y-101981000D02*
X161671000Y-81026000D01*
X129794000Y-109855000D02*
X129794000Y-111252000D01*
X150114000Y-112014000D02*
X152908000Y-109220000D01*
X130556000Y-112014000D02*
X150114000Y-112014000D01*
X129794000Y-111252000D02*
X130556000Y-112014000D01*
X122682000Y-113919000D02*
X124714000Y-115951000D01*
X124714000Y-115951000D02*
X124714000Y-117475000D01*
X106934000Y-113919000D02*
X122682000Y-113919000D01*
D44*
X154178000Y-81153000D02*
X151892000Y-78867000D01*
X154178000Y-94361000D02*
X154178000Y-81153000D01*
X151638000Y-96901000D02*
X154178000Y-94361000D01*
X149123400Y-96901000D02*
X151638000Y-96901000D01*
X146405600Y-99618800D02*
X149123400Y-96901000D01*
X143586200Y-99618800D02*
X146405600Y-99618800D01*
X141071600Y-102133400D02*
X143586200Y-99618800D01*
X141071600Y-105283000D02*
X141071600Y-102133400D01*
X138658600Y-107696000D02*
X141071600Y-105283000D01*
X117729000Y-107696000D02*
X138658600Y-107696000D01*
X117094000Y-108331000D02*
X117729000Y-107696000D01*
X117094000Y-109855000D02*
X117094000Y-108331000D01*
X134874000Y-106934000D02*
X140462000Y-101346000D01*
X114554000Y-109855000D02*
X114554000Y-107823000D01*
X150114000Y-88265000D02*
X151892000Y-86487000D01*
X150114000Y-94665800D02*
X150114000Y-88265000D01*
X146075400Y-98704400D02*
X150114000Y-94665800D01*
X143129000Y-98704400D02*
X146075400Y-98704400D01*
X140462000Y-101371400D02*
X143129000Y-98704400D01*
X140462000Y-101346000D02*
X140462000Y-101371400D01*
X115443000Y-106934000D02*
X134874000Y-106934000D01*
X114554000Y-107823000D02*
X115443000Y-106934000D01*
X159512000Y-91567000D02*
X159004000Y-91567000D01*
X159004000Y-91567000D02*
X152654000Y-97917000D01*
X119634000Y-108839000D02*
X119634000Y-109855000D01*
X120015000Y-108458000D02*
X119634000Y-108839000D01*
X139369800Y-108458000D02*
X120015000Y-108458000D01*
X141833600Y-105994200D02*
X139369800Y-108458000D01*
X141833600Y-102641400D02*
X141833600Y-105994200D01*
X144043400Y-100431600D02*
X141833600Y-102641400D01*
X146862800Y-100431600D02*
X144043400Y-100431600D01*
X149377400Y-97917000D02*
X146862800Y-100431600D01*
X152654000Y-97917000D02*
X149377400Y-97917000D01*
X151320500Y-77279500D02*
X150368000Y-78232000D01*
X150368000Y-86868000D02*
X150368000Y-78232000D01*
X159385000Y-83947000D02*
X152717500Y-77279500D01*
X151320500Y-77279500D02*
X152717500Y-77279500D01*
X124714000Y-98933000D02*
X123444000Y-100203000D01*
X123444000Y-100203000D02*
X123444000Y-103251000D01*
X123444000Y-103251000D02*
X124460000Y-104267000D01*
X124460000Y-104267000D02*
X136347200Y-104267000D01*
X124714000Y-94361000D02*
X124714000Y-98933000D01*
X159512000Y-83947000D02*
X159385000Y-83947000D01*
X149301200Y-87934800D02*
X150368000Y-86868000D01*
X136347200Y-104267000D02*
X139573000Y-101041200D01*
X139573000Y-101041200D02*
X139573000Y-101092000D01*
X139573000Y-101092000D02*
X142849600Y-97815400D01*
X149301200Y-94310200D02*
X149301200Y-87934800D01*
X142849600Y-97815400D02*
X145796000Y-97815400D01*
X145796000Y-97815400D02*
X149301200Y-94310200D01*
X109474000Y-85471000D02*
X109474000Y-86233000D01*
D45*
X116078520Y-59560460D02*
X116078520Y-59816480D01*
X116078520Y-59816480D02*
X113030000Y-62865000D01*
X113030000Y-62865000D02*
X113030000Y-65913000D01*
X116078000Y-52664360D02*
X116078000Y-59559940D01*
X134112000Y-65913000D02*
X134112000Y-59814980D01*
X134112000Y-59814980D02*
X134366000Y-59560980D01*
X134366000Y-59560980D02*
X134366000Y-52664360D01*
X153924000Y-65913000D02*
X153924000Y-60829940D01*
X153924000Y-60829940D02*
X152654520Y-59560460D01*
X152654000Y-52664360D02*
X152654000Y-59559940D01*
X173736000Y-65913000D02*
X173736000Y-62353940D01*
X173736000Y-62353940D02*
X170942520Y-59560460D01*
X170942000Y-52918360D02*
X170942000Y-59559940D01*
X170942000Y-59559940D02*
X170942520Y-59560460D01*
X110918000Y-42505640D02*
X116078000Y-47665640D01*
X110918000Y-35433000D02*
X110918000Y-42505640D01*
X129286000Y-35433000D02*
X129286000Y-42585640D01*
X129286000Y-42585640D02*
X134366000Y-47665640D01*
X147494000Y-42505640D02*
X152654000Y-47665640D01*
X147494000Y-35687000D02*
X147494000Y-42505640D01*
X165782000Y-42719000D02*
X170434000Y-47371000D01*
X170434000Y-47371000D02*
X170942000Y-47919640D01*
X165782000Y-35687000D02*
X165782000Y-42719000D01*
X105918000Y-35433000D02*
X105918000Y-45593000D01*
X105918000Y-45593000D02*
X109474000Y-45593000D01*
X124206000Y-35687000D02*
X124206000Y-45593000D01*
X124206000Y-45593000D02*
X127762000Y-45593000D01*
X142494000Y-35687000D02*
X142494000Y-45593000D01*
X142494000Y-45593000D02*
X146050000Y-45593000D01*
X160782000Y-35687000D02*
X160782000Y-45339000D01*
X160782000Y-45339000D02*
X164084000Y-45339000D01*
D44*
X138684000Y-73025000D02*
X136144000Y-70485000D01*
X136144000Y-70485000D02*
X114554000Y-70485000D01*
X114554000Y-70485000D02*
X112014000Y-73025000D01*
X136144000Y-73025000D02*
X134493000Y-71374000D01*
X118745000Y-71374000D02*
X117094000Y-73025000D01*
X134493000Y-71374000D02*
X118745000Y-71374000D01*
X122174000Y-73025000D02*
X122174000Y-73533000D01*
X122174000Y-73533000D02*
X123444000Y-74803000D01*
X131826000Y-74803000D02*
X133604000Y-73025000D01*
X123444000Y-74803000D02*
X131826000Y-74803000D01*
D43*
X127254000Y-73025000D02*
X131064000Y-73025000D01*
D44*
X135890000Y-83439000D02*
X139192000Y-80137000D01*
X133604000Y-83439000D02*
X135890000Y-83439000D01*
X132842000Y-84201000D02*
X133604000Y-83439000D01*
X132842000Y-92329000D02*
X132842000Y-84201000D01*
X131064000Y-94107000D02*
X132842000Y-92329000D01*
X131064000Y-95377000D02*
X131064000Y-94107000D01*
D46*
G36*
X179388000Y-127318000D02*
X92392000Y-127318000D01*
X92392000Y-122809000D01*
X108212890Y-122809000D01*
X108212890Y-123563380D01*
X108367154Y-124084919D01*
X108709260Y-124507724D01*
X109187125Y-124767427D01*
X109259326Y-124781783D01*
X109474000Y-124659162D01*
X109474000Y-122809000D01*
X108212890Y-122809000D01*
X92392000Y-122809000D01*
X92392000Y-121800620D01*
X108212890Y-121800620D01*
X108212890Y-122555000D01*
X109474000Y-122555000D01*
X109474000Y-120704838D01*
X109728000Y-120704838D01*
X109728000Y-122555000D01*
X109748000Y-122555000D01*
X109748000Y-122809000D01*
X109728000Y-122809000D01*
X109728000Y-124659162D01*
X109942674Y-124781783D01*
X110014875Y-124767427D01*
X110492740Y-124507724D01*
X110717327Y-124230160D01*
X110988338Y-124635757D01*
X111517184Y-124989120D01*
X112141000Y-125113205D01*
X112764816Y-124989120D01*
X113293662Y-124635757D01*
X113411000Y-124460148D01*
X113528338Y-124635757D01*
X114057184Y-124989120D01*
X114681000Y-125113205D01*
X115304816Y-124989120D01*
X115833662Y-124635757D01*
X116187025Y-124106911D01*
X116311110Y-123483095D01*
X116311110Y-121978011D01*
X119201227Y-121978011D01*
X119440577Y-122557283D01*
X119818906Y-122936272D01*
X119442135Y-123312386D01*
X119201774Y-123891239D01*
X119201227Y-124518011D01*
X119440577Y-125097283D01*
X119883386Y-125540865D01*
X120462239Y-125781226D01*
X121089011Y-125781773D01*
X121668283Y-125542423D01*
X122111865Y-125099614D01*
X122352226Y-124520761D01*
X122352773Y-123893989D01*
X122113423Y-123314717D01*
X121735094Y-122935728D01*
X122111865Y-122559614D01*
X122352226Y-121980761D01*
X122352228Y-121978011D01*
X124281227Y-121978011D01*
X124520577Y-122557283D01*
X124898906Y-122936272D01*
X124522135Y-123312386D01*
X124281774Y-123891239D01*
X124281227Y-124518011D01*
X124520577Y-125097283D01*
X124963386Y-125540865D01*
X125542239Y-125781226D01*
X126169011Y-125781773D01*
X126748283Y-125542423D01*
X127191865Y-125099614D01*
X127432226Y-124520761D01*
X127432773Y-123893989D01*
X127193423Y-123314717D01*
X126815094Y-122935728D01*
X127191865Y-122559614D01*
X127432226Y-121980761D01*
X127432228Y-121978011D01*
X129234227Y-121978011D01*
X129473577Y-122557283D01*
X129851906Y-122936272D01*
X129475135Y-123312386D01*
X129234774Y-123891239D01*
X129234227Y-124518011D01*
X129473577Y-125097283D01*
X129916386Y-125540865D01*
X130495239Y-125781226D01*
X131122011Y-125781773D01*
X131701283Y-125542423D01*
X132144865Y-125099614D01*
X132385226Y-124520761D01*
X132385298Y-124438027D01*
X133419032Y-124438027D01*
X133667179Y-124967490D01*
X134099053Y-125361688D01*
X134514974Y-125533958D01*
X134747000Y-125412817D01*
X134747000Y-124206000D01*
X133539531Y-124206000D01*
X133419032Y-124438027D01*
X132385298Y-124438027D01*
X132385773Y-123893989D01*
X132146423Y-123314717D01*
X131768094Y-122935728D01*
X132144865Y-122559614D01*
X132385226Y-121980761D01*
X132385641Y-121504900D01*
X133133400Y-121504900D01*
X133133400Y-121573100D01*
X133265895Y-122239199D01*
X133643210Y-122803890D01*
X133901599Y-122976540D01*
X133667179Y-123190510D01*
X133419032Y-123719973D01*
X133539531Y-123952000D01*
X134747000Y-123952000D01*
X134747000Y-123932000D01*
X135001000Y-123932000D01*
X135001000Y-123952000D01*
X135021000Y-123952000D01*
X135021000Y-124206000D01*
X135001000Y-124206000D01*
X135001000Y-125412817D01*
X135233026Y-125533958D01*
X135648947Y-125361688D01*
X135988197Y-125052033D01*
X136183210Y-125343890D01*
X136747901Y-125721205D01*
X137414000Y-125853700D01*
X138080099Y-125721205D01*
X138644790Y-125343890D01*
X138684000Y-125285208D01*
X138723210Y-125343890D01*
X139287901Y-125721205D01*
X139954000Y-125853700D01*
X140620099Y-125721205D01*
X141184790Y-125343890D01*
X141562105Y-124779199D01*
X141694600Y-124113100D01*
X141694600Y-124044900D01*
X141562105Y-123378801D01*
X141369067Y-123089899D01*
X141441086Y-123043556D01*
X141601351Y-122809000D01*
X151519890Y-122809000D01*
X151519890Y-123563380D01*
X151674154Y-124084919D01*
X152016260Y-124507724D01*
X152494125Y-124767427D01*
X152566326Y-124781783D01*
X152781000Y-124659162D01*
X152781000Y-122809000D01*
X151519890Y-122809000D01*
X141601351Y-122809000D01*
X141641332Y-122750486D01*
X141711781Y-122402600D01*
X141711781Y-121800620D01*
X151519890Y-121800620D01*
X151519890Y-122555000D01*
X152781000Y-122555000D01*
X152781000Y-120704838D01*
X153035000Y-120704838D01*
X153035000Y-122555000D01*
X153055000Y-122555000D01*
X153055000Y-122809000D01*
X153035000Y-122809000D01*
X153035000Y-124659162D01*
X153249674Y-124781783D01*
X153321875Y-124767427D01*
X153799740Y-124507724D01*
X154024327Y-124230160D01*
X154295338Y-124635757D01*
X154824184Y-124989120D01*
X155448000Y-125113205D01*
X156071816Y-124989120D01*
X156600662Y-124635757D01*
X156718000Y-124460148D01*
X156835338Y-124635757D01*
X157364184Y-124989120D01*
X157988000Y-125113205D01*
X158611816Y-124989120D01*
X159140662Y-124635757D01*
X159494025Y-124106911D01*
X159618110Y-123483095D01*
X159618110Y-121880905D01*
X159494025Y-121257089D01*
X159140662Y-120728243D01*
X158611816Y-120374880D01*
X157988000Y-120250795D01*
X157364184Y-120374880D01*
X156835338Y-120728243D01*
X156718000Y-120903852D01*
X156600662Y-120728243D01*
X156071816Y-120374880D01*
X155448000Y-120250795D01*
X154824184Y-120374880D01*
X154295338Y-120728243D01*
X154024327Y-121133840D01*
X153799740Y-120856276D01*
X153321875Y-120596573D01*
X153249674Y-120582217D01*
X153035000Y-120704838D01*
X152781000Y-120704838D01*
X152566326Y-120582217D01*
X152494125Y-120596573D01*
X152016260Y-120856276D01*
X151674154Y-121279081D01*
X151519890Y-121800620D01*
X141711781Y-121800620D01*
X141711781Y-120675400D01*
X141650629Y-120350403D01*
X141458556Y-120051914D01*
X141165486Y-119851668D01*
X140817600Y-119781219D01*
X139090400Y-119781219D01*
X138765403Y-119842371D01*
X138466914Y-120034444D01*
X138410240Y-120117389D01*
X138080099Y-119896795D01*
X137414000Y-119764300D01*
X136747901Y-119896795D01*
X136183210Y-120274110D01*
X136144000Y-120332792D01*
X136104790Y-120274110D01*
X135540099Y-119896795D01*
X134874000Y-119764300D01*
X134207901Y-119896795D01*
X133643210Y-120274110D01*
X133265895Y-120838801D01*
X133133400Y-121504900D01*
X132385641Y-121504900D01*
X132385773Y-121353989D01*
X132146423Y-120774717D01*
X131703614Y-120331135D01*
X131124761Y-120090774D01*
X130497989Y-120090227D01*
X129918717Y-120329577D01*
X129475135Y-120772386D01*
X129234774Y-121351239D01*
X129234227Y-121978011D01*
X127432228Y-121978011D01*
X127432773Y-121353989D01*
X127193423Y-120774717D01*
X126750614Y-120331135D01*
X126171761Y-120090774D01*
X125544989Y-120090227D01*
X124965717Y-120329577D01*
X124522135Y-120772386D01*
X124281774Y-121351239D01*
X124281227Y-121978011D01*
X122352228Y-121978011D01*
X122352773Y-121353989D01*
X122113423Y-120774717D01*
X121670614Y-120331135D01*
X121091761Y-120090774D01*
X120464989Y-120090227D01*
X119885717Y-120329577D01*
X119442135Y-120772386D01*
X119201774Y-121351239D01*
X119201227Y-121978011D01*
X116311110Y-121978011D01*
X116311110Y-121880905D01*
X116187025Y-121257089D01*
X115833662Y-120728243D01*
X115304816Y-120374880D01*
X114681000Y-120250795D01*
X114057184Y-120374880D01*
X113528338Y-120728243D01*
X113411000Y-120903852D01*
X113293662Y-120728243D01*
X112764816Y-120374880D01*
X112141000Y-120250795D01*
X111517184Y-120374880D01*
X110988338Y-120728243D01*
X110717327Y-121133840D01*
X110492740Y-120856276D01*
X110014875Y-120596573D01*
X109942674Y-120582217D01*
X109728000Y-120704838D01*
X109474000Y-120704838D01*
X109259326Y-120582217D01*
X109187125Y-120596573D01*
X108709260Y-120856276D01*
X108367154Y-121279081D01*
X108212890Y-121800620D01*
X92392000Y-121800620D01*
X92392000Y-120406016D01*
X98293590Y-120406016D01*
X98349271Y-120636611D01*
X98832078Y-120804622D01*
X99342428Y-120775083D01*
X99676729Y-120636611D01*
X99732410Y-120406016D01*
X99013000Y-119686605D01*
X98293590Y-120406016D01*
X92392000Y-120406016D01*
X92392000Y-119326078D01*
X97715378Y-119326078D01*
X97744917Y-119836428D01*
X97883389Y-120170729D01*
X98113984Y-120226410D01*
X98833395Y-119507000D01*
X99192605Y-119507000D01*
X99912016Y-120226410D01*
X100142611Y-120170729D01*
X100310622Y-119687922D01*
X100281083Y-119177572D01*
X100142611Y-118843271D01*
X99912016Y-118787590D01*
X99192605Y-119507000D01*
X98833395Y-119507000D01*
X98113984Y-118787590D01*
X97883389Y-118843271D01*
X97715378Y-119326078D01*
X92392000Y-119326078D01*
X92392000Y-118607984D01*
X98293590Y-118607984D01*
X99013000Y-119327395D01*
X99732410Y-118607984D01*
X99676729Y-118377389D01*
X99193922Y-118209378D01*
X98683572Y-118238917D01*
X98349271Y-118377389D01*
X98293590Y-118607984D01*
X92392000Y-118607984D01*
X92392000Y-113847544D01*
X97022571Y-113847544D01*
X97398877Y-114758275D01*
X98095060Y-115455674D01*
X99005133Y-115833569D01*
X99990544Y-115834429D01*
X100901275Y-115458123D01*
X101598674Y-114761940D01*
X101976569Y-113851867D01*
X101977429Y-112866456D01*
X101601123Y-111955725D01*
X100904940Y-111258326D01*
X99994867Y-110880431D01*
X99009456Y-110879571D01*
X98098725Y-111255877D01*
X97401326Y-111952060D01*
X97023431Y-112862133D01*
X97022571Y-113847544D01*
X92392000Y-113847544D01*
X92392000Y-96610016D01*
X103166590Y-96610016D01*
X103222271Y-96840611D01*
X103705078Y-97008622D01*
X104215428Y-96979083D01*
X104549729Y-96840611D01*
X104605410Y-96610016D01*
X103886000Y-95890605D01*
X103166590Y-96610016D01*
X92392000Y-96610016D01*
X92392000Y-95530078D01*
X102588378Y-95530078D01*
X102617917Y-96040428D01*
X102756389Y-96374729D01*
X102986984Y-96430410D01*
X103706395Y-95711000D01*
X104065605Y-95711000D01*
X104785016Y-96430410D01*
X105015611Y-96374729D01*
X105183622Y-95891922D01*
X105154083Y-95381572D01*
X105015611Y-95047271D01*
X104785016Y-94991590D01*
X104065605Y-95711000D01*
X103706395Y-95711000D01*
X102986984Y-94991590D01*
X102756389Y-95047271D01*
X102588378Y-95530078D01*
X92392000Y-95530078D01*
X92392000Y-94811984D01*
X103166590Y-94811984D01*
X103886000Y-95531395D01*
X104605410Y-94811984D01*
X104549729Y-94581389D01*
X104066922Y-94413378D01*
X103556572Y-94442917D01*
X103222271Y-94581389D01*
X103166590Y-94811984D01*
X92392000Y-94811984D01*
X92392000Y-85274016D01*
X103166590Y-85274016D01*
X103222271Y-85504611D01*
X103705078Y-85672622D01*
X104215428Y-85643083D01*
X104549729Y-85504611D01*
X104605410Y-85274016D01*
X103886000Y-84554605D01*
X103166590Y-85274016D01*
X92392000Y-85274016D01*
X92392000Y-84194078D01*
X102588378Y-84194078D01*
X102617917Y-84704428D01*
X102756389Y-85038729D01*
X102986984Y-85094410D01*
X103706395Y-84375000D01*
X104065605Y-84375000D01*
X104785016Y-85094410D01*
X105015611Y-85038729D01*
X105183622Y-84555922D01*
X105154083Y-84045572D01*
X105015611Y-83711271D01*
X104785016Y-83655590D01*
X104065605Y-84375000D01*
X103706395Y-84375000D01*
X102986984Y-83655590D01*
X102756389Y-83711271D01*
X102588378Y-84194078D01*
X92392000Y-84194078D01*
X92392000Y-83475984D01*
X103166590Y-83475984D01*
X103886000Y-84195395D01*
X104605410Y-83475984D01*
X104549729Y-83245389D01*
X104066922Y-83077378D01*
X103556572Y-83106917D01*
X103222271Y-83245389D01*
X103166590Y-83475984D01*
X92392000Y-83475984D01*
X92392000Y-78725000D01*
X102341819Y-78725000D01*
X102341819Y-80025000D01*
X102402971Y-80349997D01*
X102595044Y-80648486D01*
X102888114Y-80848732D01*
X103236000Y-80919181D01*
X103482809Y-80919181D01*
X104944314Y-82380686D01*
X105391045Y-82679182D01*
X105918000Y-82784000D01*
X109919628Y-82784000D01*
X111163742Y-84028114D01*
X110828182Y-84252328D01*
X110744000Y-84378315D01*
X110659818Y-84252328D01*
X110115760Y-83888800D01*
X109474000Y-83761146D01*
X108832240Y-83888800D01*
X108288182Y-84252328D01*
X107924654Y-84796386D01*
X107797000Y-85438146D01*
X107797000Y-85503854D01*
X107924654Y-86145614D01*
X108288182Y-86689672D01*
X108832240Y-87053200D01*
X108849484Y-87056630D01*
X109071417Y-87204921D01*
X109474000Y-87285000D01*
X109876583Y-87204921D01*
X110098516Y-87056630D01*
X110115760Y-87053200D01*
X110659818Y-86689672D01*
X110744000Y-86563685D01*
X110828182Y-86689672D01*
X111372240Y-87053200D01*
X112014000Y-87180854D01*
X112655760Y-87053200D01*
X113199818Y-86689672D01*
X113284000Y-86563685D01*
X113368182Y-86689672D01*
X113597577Y-86842949D01*
X115155781Y-88401153D01*
X114554000Y-88281452D01*
X113926782Y-88406213D01*
X113395052Y-88761504D01*
X113284000Y-88927705D01*
X113172948Y-88761504D01*
X112641218Y-88406213D01*
X112014000Y-88281452D01*
X111386782Y-88406213D01*
X110954885Y-88694798D01*
X110876956Y-88573694D01*
X110583886Y-88373448D01*
X110236000Y-88302999D01*
X108712000Y-88302999D01*
X108387003Y-88364151D01*
X108088514Y-88556224D01*
X107888268Y-88849294D01*
X107817819Y-89197180D01*
X107817819Y-91396820D01*
X107878971Y-91721817D01*
X108071044Y-92020306D01*
X108364114Y-92220552D01*
X108712000Y-92291001D01*
X110236000Y-92291001D01*
X110560997Y-92229849D01*
X110859486Y-92037776D01*
X110954394Y-91898874D01*
X111386782Y-92187787D01*
X112014000Y-92312548D01*
X112641218Y-92187787D01*
X113172948Y-91832496D01*
X113284000Y-91666295D01*
X113395052Y-91832496D01*
X113926782Y-92187787D01*
X114554000Y-92312548D01*
X115181218Y-92187787D01*
X115712948Y-91832496D01*
X115824000Y-91666295D01*
X115935052Y-91832496D01*
X116466782Y-92187787D01*
X117094000Y-92312548D01*
X117721218Y-92187787D01*
X118252948Y-91832496D01*
X118364000Y-91666295D01*
X118475052Y-91832496D01*
X119006782Y-92187787D01*
X119634000Y-92312548D01*
X120261218Y-92187787D01*
X120792948Y-91832496D01*
X121148239Y-91300766D01*
X121273000Y-90673548D01*
X121273000Y-89920452D01*
X121148239Y-89293234D01*
X120956983Y-89007000D01*
X121349628Y-89007000D01*
X122919204Y-90576576D01*
X122955000Y-90756536D01*
X123242566Y-91186910D01*
X123672940Y-91474476D01*
X124180600Y-91575456D01*
X124688260Y-91474476D01*
X125070676Y-91218954D01*
X125156665Y-91260981D01*
X125323600Y-91134068D01*
X125323600Y-90880156D01*
X125406200Y-90756536D01*
X125450600Y-90533322D01*
X125495000Y-90756536D01*
X125577600Y-90880156D01*
X125577600Y-91134068D01*
X125744535Y-91260981D01*
X125830524Y-91218954D01*
X126212940Y-91474476D01*
X126720600Y-91575456D01*
X127228260Y-91474476D01*
X127658634Y-91186910D01*
X127946200Y-90756536D01*
X128047180Y-90248876D01*
X128047180Y-90074750D01*
X129329180Y-90074750D01*
X129329180Y-90677309D01*
X129425853Y-90910698D01*
X129604481Y-91089327D01*
X129837870Y-91186000D01*
X130778250Y-91186000D01*
X130937000Y-91027250D01*
X130937000Y-89916000D01*
X129487930Y-89916000D01*
X129329180Y-90074750D01*
X128047180Y-90074750D01*
X128047180Y-89583124D01*
X127946200Y-89075464D01*
X127658634Y-88645090D01*
X127228260Y-88357524D01*
X126720600Y-88256544D01*
X126212940Y-88357524D01*
X125830524Y-88613046D01*
X125744535Y-88571019D01*
X125577600Y-88697932D01*
X125577600Y-88951844D01*
X125495000Y-89075464D01*
X125450600Y-89298678D01*
X125406200Y-89075464D01*
X125323600Y-88951844D01*
X125323600Y-88697932D01*
X125156665Y-88571019D01*
X125070676Y-88613046D01*
X124688260Y-88357524D01*
X124571713Y-88334341D01*
X123100389Y-86863017D01*
X123359818Y-86689672D01*
X123444000Y-86563685D01*
X123528182Y-86689672D01*
X124072240Y-87053200D01*
X124714000Y-87180854D01*
X125355760Y-87053200D01*
X125899818Y-86689672D01*
X126263346Y-86145614D01*
X126391000Y-85503854D01*
X126391000Y-85438146D01*
X126263346Y-84796386D01*
X125899818Y-84252328D01*
X125355760Y-83888800D01*
X124714000Y-83761146D01*
X124072240Y-83888800D01*
X123528182Y-84252328D01*
X123444000Y-84378315D01*
X123359818Y-84252328D01*
X122815760Y-83888800D01*
X122174000Y-83761146D01*
X121532240Y-83888800D01*
X120988182Y-84252328D01*
X120904000Y-84378315D01*
X120819818Y-84252328D01*
X120275760Y-83888800D01*
X119634000Y-83761146D01*
X118992240Y-83888800D01*
X118448182Y-84252328D01*
X118364000Y-84378315D01*
X118279818Y-84252328D01*
X117735760Y-83888800D01*
X117094000Y-83761146D01*
X116452240Y-83888800D01*
X115908182Y-84252328D01*
X115824000Y-84378315D01*
X115739818Y-84252328D01*
X115195760Y-83888800D01*
X114850494Y-83820122D01*
X111463686Y-80433314D01*
X111016955Y-80134818D01*
X110490000Y-80030000D01*
X106488372Y-80030000D01*
X105430181Y-78971809D01*
X105430181Y-78725000D01*
X105369029Y-78400003D01*
X105176956Y-78101514D01*
X104883886Y-77901268D01*
X104536000Y-77830819D01*
X103236000Y-77830819D01*
X102911003Y-77891971D01*
X102612514Y-78084044D01*
X102412268Y-78377114D01*
X102341819Y-78725000D01*
X92392000Y-78725000D01*
X92392000Y-77818146D01*
X107797000Y-77818146D01*
X107797000Y-77883854D01*
X107924654Y-78525614D01*
X108288182Y-79069672D01*
X108832240Y-79433200D01*
X109474000Y-79560854D01*
X110115760Y-79433200D01*
X110659818Y-79069672D01*
X110744000Y-78943685D01*
X110828182Y-79069672D01*
X111372240Y-79433200D01*
X112014000Y-79560854D01*
X112655760Y-79433200D01*
X113199818Y-79069672D01*
X113427223Y-78729336D01*
X113816577Y-79082041D01*
X114204961Y-79242904D01*
X114427000Y-79120915D01*
X114427000Y-77978000D01*
X114407000Y-77978000D01*
X114407000Y-77724000D01*
X114427000Y-77724000D01*
X114427000Y-76581085D01*
X114681000Y-76581085D01*
X114681000Y-77724000D01*
X114701000Y-77724000D01*
X114701000Y-77978000D01*
X114681000Y-77978000D01*
X114681000Y-79120915D01*
X114903039Y-79242904D01*
X115291423Y-79082041D01*
X115680777Y-78729336D01*
X115908182Y-79069672D01*
X116452240Y-79433200D01*
X117094000Y-79560854D01*
X117735760Y-79433200D01*
X118279818Y-79069672D01*
X118364000Y-78943685D01*
X118448182Y-79069672D01*
X118992240Y-79433200D01*
X119634000Y-79560854D01*
X120275760Y-79433200D01*
X120819818Y-79069672D01*
X120904000Y-78943685D01*
X120988182Y-79069672D01*
X121532240Y-79433200D01*
X122174000Y-79560854D01*
X122815760Y-79433200D01*
X123359818Y-79069672D01*
X123444000Y-78943685D01*
X123528182Y-79069672D01*
X124072240Y-79433200D01*
X124714000Y-79560854D01*
X125355760Y-79433200D01*
X125899818Y-79069672D01*
X126263346Y-78525614D01*
X126391000Y-77883854D01*
X126391000Y-77818146D01*
X126273219Y-77226016D01*
X129154590Y-77226016D01*
X129210271Y-77456611D01*
X129693078Y-77624622D01*
X130203428Y-77595083D01*
X130537729Y-77456611D01*
X130593410Y-77226016D01*
X129874000Y-76506605D01*
X129154590Y-77226016D01*
X126273219Y-77226016D01*
X126263346Y-77176386D01*
X125899818Y-76632328D01*
X125355760Y-76268800D01*
X124714000Y-76141146D01*
X124072240Y-76268800D01*
X123528182Y-76632328D01*
X123444000Y-76758315D01*
X123359818Y-76632328D01*
X122815760Y-76268800D01*
X122174000Y-76141146D01*
X121532240Y-76268800D01*
X120988182Y-76632328D01*
X120904000Y-76758315D01*
X120819818Y-76632328D01*
X120275760Y-76268800D01*
X119634000Y-76141146D01*
X118992240Y-76268800D01*
X118448182Y-76632328D01*
X118364000Y-76758315D01*
X118279818Y-76632328D01*
X117735760Y-76268800D01*
X117094000Y-76141146D01*
X116452240Y-76268800D01*
X115908182Y-76632328D01*
X115680777Y-76972664D01*
X115291423Y-76619959D01*
X114903039Y-76459096D01*
X114681000Y-76581085D01*
X114427000Y-76581085D01*
X114204961Y-76459096D01*
X113816577Y-76619959D01*
X113427223Y-76972664D01*
X113199818Y-76632328D01*
X112655760Y-76268800D01*
X112014000Y-76141146D01*
X111372240Y-76268800D01*
X110828182Y-76632328D01*
X110744000Y-76758315D01*
X110659818Y-76632328D01*
X110115760Y-76268800D01*
X109474000Y-76141146D01*
X108832240Y-76268800D01*
X108288182Y-76632328D01*
X107924654Y-77176386D01*
X107797000Y-77818146D01*
X92392000Y-77818146D01*
X92392000Y-71926450D01*
X107817819Y-71926450D01*
X107817819Y-74123550D01*
X107878971Y-74448547D01*
X108071044Y-74747036D01*
X108364114Y-74947282D01*
X108712000Y-75017731D01*
X110236000Y-75017731D01*
X110560997Y-74956579D01*
X110859486Y-74764506D01*
X110954405Y-74625587D01*
X111386782Y-74914492D01*
X112014000Y-75039253D01*
X112641218Y-74914492D01*
X113172948Y-74559201D01*
X113284000Y-74393000D01*
X113395052Y-74559201D01*
X113926782Y-74914492D01*
X114554000Y-75039253D01*
X115181218Y-74914492D01*
X115712948Y-74559201D01*
X115824000Y-74393000D01*
X115935052Y-74559201D01*
X116466782Y-74914492D01*
X117094000Y-75039253D01*
X117721218Y-74914492D01*
X118252948Y-74559201D01*
X118364000Y-74393000D01*
X118475052Y-74559201D01*
X119006782Y-74914492D01*
X119634000Y-75039253D01*
X120261218Y-74914492D01*
X120792948Y-74559201D01*
X120904000Y-74393000D01*
X121015052Y-74559201D01*
X121546782Y-74914492D01*
X122174000Y-75039253D01*
X122189431Y-75036183D01*
X122700124Y-75546876D01*
X123041417Y-75774921D01*
X123444000Y-75855000D01*
X128677670Y-75855000D01*
X128576378Y-76146078D01*
X128605917Y-76656428D01*
X128744389Y-76990729D01*
X128974984Y-77046410D01*
X129694395Y-76327000D01*
X129680252Y-76312858D01*
X129859858Y-76133253D01*
X129874000Y-76147395D01*
X129888143Y-76133253D01*
X130067748Y-76312858D01*
X130053605Y-76327000D01*
X130773016Y-77046410D01*
X131003611Y-76990729D01*
X131171622Y-76507922D01*
X131142083Y-75997572D01*
X131083028Y-75855000D01*
X131826000Y-75855000D01*
X132228583Y-75774921D01*
X132569876Y-75546876D01*
X133163771Y-74952981D01*
X133598222Y-75039399D01*
X133400268Y-75329114D01*
X133329819Y-75677000D01*
X133329819Y-76977000D01*
X133390971Y-77301997D01*
X133583044Y-77600486D01*
X133876114Y-77800732D01*
X134224000Y-77871181D01*
X135524000Y-77871181D01*
X135848997Y-77810029D01*
X136147486Y-77617956D01*
X136347732Y-77324886D01*
X136418181Y-76977000D01*
X136418181Y-75677000D01*
X136357029Y-75352003D01*
X136164956Y-75053514D01*
X136145533Y-75040243D01*
X136771218Y-74915787D01*
X137302948Y-74560496D01*
X137414000Y-74394295D01*
X137525052Y-74560496D01*
X138056782Y-74915787D01*
X138684000Y-75040548D01*
X139311218Y-74915787D01*
X139842948Y-74560496D01*
X139912208Y-74456841D01*
X139923673Y-74484519D01*
X140102302Y-74663147D01*
X140335691Y-74759820D01*
X140938250Y-74759820D01*
X141097000Y-74601070D01*
X141097000Y-73152000D01*
X141351000Y-73152000D01*
X141351000Y-74601070D01*
X141509750Y-74759820D01*
X142112309Y-74759820D01*
X142345698Y-74663147D01*
X142524327Y-74484519D01*
X142621000Y-74251130D01*
X142621000Y-73310750D01*
X142462250Y-73152000D01*
X141351000Y-73152000D01*
X141097000Y-73152000D01*
X141077000Y-73152000D01*
X141077000Y-72898000D01*
X141097000Y-72898000D01*
X141097000Y-71448930D01*
X140938250Y-71290180D01*
X140335691Y-71290180D01*
X140102302Y-71386853D01*
X139923673Y-71565481D01*
X139912208Y-71593159D01*
X139842948Y-71489504D01*
X139311218Y-71134213D01*
X138684000Y-71009452D01*
X138243771Y-71097019D01*
X136887876Y-69741124D01*
X136546583Y-69513079D01*
X136144000Y-69433000D01*
X114554000Y-69433000D01*
X114151417Y-69513079D01*
X113810123Y-69741124D01*
X112453149Y-71098099D01*
X112014000Y-71010747D01*
X111386782Y-71135508D01*
X110954896Y-71424085D01*
X110876956Y-71302964D01*
X110583886Y-71102718D01*
X110236000Y-71032269D01*
X108712000Y-71032269D01*
X108387003Y-71093421D01*
X108088514Y-71285494D01*
X107888268Y-71578564D01*
X107817819Y-71926450D01*
X92392000Y-71926450D01*
X92392000Y-46355969D01*
X98933004Y-46355969D01*
X99060004Y-62992969D01*
X99070386Y-63042302D01*
X99099144Y-63083708D01*
X99141745Y-63110663D01*
X99187000Y-63119000D01*
X99219656Y-63119000D01*
X99149938Y-63223341D01*
X98969000Y-64132980D01*
X98969000Y-65913000D01*
X99149938Y-66822639D01*
X99665207Y-67593793D01*
X100436361Y-68109062D01*
X101346000Y-68290000D01*
X102255639Y-68109062D01*
X103026793Y-67593793D01*
X103542062Y-66822639D01*
X103544175Y-66812016D01*
X104126590Y-66812016D01*
X104182271Y-67042611D01*
X104665078Y-67210622D01*
X105175428Y-67181083D01*
X105509729Y-67042611D01*
X105565410Y-66812016D01*
X104846000Y-66092605D01*
X104126590Y-66812016D01*
X103544175Y-66812016D01*
X103631663Y-66372183D01*
X103716389Y-66576729D01*
X103946984Y-66632410D01*
X104666395Y-65913000D01*
X105025605Y-65913000D01*
X105745016Y-66632410D01*
X105975611Y-66576729D01*
X106143622Y-66093922D01*
X106140502Y-66040000D01*
X109104430Y-66040000D01*
X109104430Y-66539110D01*
X109258501Y-67059677D01*
X109600056Y-67481658D01*
X110077097Y-67740810D01*
X110148725Y-67754993D01*
X110363000Y-67632339D01*
X110363000Y-66040000D01*
X109104430Y-66040000D01*
X106140502Y-66040000D01*
X106114083Y-65583572D01*
X105991194Y-65286890D01*
X109104430Y-65286890D01*
X109104430Y-65786000D01*
X110363000Y-65786000D01*
X110363000Y-64193661D01*
X110148725Y-64071007D01*
X110077097Y-64085190D01*
X109600056Y-64344342D01*
X109258501Y-64766323D01*
X109104430Y-65286890D01*
X105991194Y-65286890D01*
X105975611Y-65249271D01*
X105745016Y-65193590D01*
X105025605Y-65913000D01*
X104666395Y-65913000D01*
X103946984Y-65193590D01*
X103723000Y-65247675D01*
X103723000Y-65117566D01*
X103826582Y-65013984D01*
X104126590Y-65013984D01*
X104846000Y-65733395D01*
X105565410Y-65013984D01*
X105509729Y-64783389D01*
X105026922Y-64615378D01*
X104516572Y-64644917D01*
X104182271Y-64783389D01*
X104126590Y-65013984D01*
X103826582Y-65013984D01*
X105721566Y-63119000D01*
X111153000Y-63119000D01*
X111153000Y-64221055D01*
X110902903Y-64085190D01*
X110831275Y-64071007D01*
X110617000Y-64193661D01*
X110617000Y-65786000D01*
X110637000Y-65786000D01*
X110637000Y-66040000D01*
X110617000Y-66040000D01*
X110617000Y-67632339D01*
X110831275Y-67754993D01*
X110902903Y-67740810D01*
X111379944Y-67481658D01*
X111608382Y-67199430D01*
X111879134Y-67604640D01*
X112407156Y-67957453D01*
X113030000Y-68081344D01*
X113652844Y-67957453D01*
X114180866Y-67604640D01*
X114300000Y-67426343D01*
X114419134Y-67604640D01*
X114947156Y-67957453D01*
X115570000Y-68081344D01*
X116192844Y-67957453D01*
X116720866Y-67604640D01*
X117073679Y-67076618D01*
X117197570Y-66453774D01*
X117197570Y-65372226D01*
X117073679Y-64749382D01*
X116720866Y-64221360D01*
X116192844Y-63868547D01*
X115570000Y-63744656D01*
X114947156Y-63868547D01*
X114907000Y-63895378D01*
X114907000Y-63642478D01*
X115430478Y-63119000D01*
X120051000Y-63119000D01*
X120051000Y-65913000D01*
X120231938Y-66822639D01*
X120747207Y-67593793D01*
X121518361Y-68109062D01*
X122428000Y-68290000D01*
X123337639Y-68109062D01*
X124108793Y-67593793D01*
X124624062Y-66822639D01*
X124626175Y-66812016D01*
X125208590Y-66812016D01*
X125264271Y-67042611D01*
X125747078Y-67210622D01*
X126257428Y-67181083D01*
X126591729Y-67042611D01*
X126647410Y-66812016D01*
X125928000Y-66092605D01*
X125208590Y-66812016D01*
X124626175Y-66812016D01*
X124713663Y-66372183D01*
X124798389Y-66576729D01*
X125028984Y-66632410D01*
X125748395Y-65913000D01*
X126107605Y-65913000D01*
X126827016Y-66632410D01*
X127057611Y-66576729D01*
X127225622Y-66093922D01*
X127222502Y-66040000D01*
X130186430Y-66040000D01*
X130186430Y-66539110D01*
X130340501Y-67059677D01*
X130682056Y-67481658D01*
X131159097Y-67740810D01*
X131230725Y-67754993D01*
X131445000Y-67632339D01*
X131445000Y-66040000D01*
X130186430Y-66040000D01*
X127222502Y-66040000D01*
X127196083Y-65583572D01*
X127073194Y-65286890D01*
X130186430Y-65286890D01*
X130186430Y-65786000D01*
X131445000Y-65786000D01*
X131445000Y-64193661D01*
X131230725Y-64071007D01*
X131159097Y-64085190D01*
X130682056Y-64344342D01*
X130340501Y-64766323D01*
X130186430Y-65286890D01*
X127073194Y-65286890D01*
X127057611Y-65249271D01*
X126827016Y-65193590D01*
X126107605Y-65913000D01*
X125748395Y-65913000D01*
X125028984Y-65193590D01*
X124805000Y-65247675D01*
X124805000Y-65013984D01*
X125208590Y-65013984D01*
X125928000Y-65733395D01*
X126647410Y-65013984D01*
X126591729Y-64783389D01*
X126108922Y-64615378D01*
X125598572Y-64644917D01*
X125264271Y-64783389D01*
X125208590Y-65013984D01*
X124805000Y-65013984D01*
X124805000Y-63119000D01*
X132235000Y-63119000D01*
X132235000Y-64221055D01*
X131984903Y-64085190D01*
X131913275Y-64071007D01*
X131699000Y-64193661D01*
X131699000Y-65786000D01*
X131719000Y-65786000D01*
X131719000Y-66040000D01*
X131699000Y-66040000D01*
X131699000Y-67632339D01*
X131913275Y-67754993D01*
X131984903Y-67740810D01*
X132461944Y-67481658D01*
X132690382Y-67199430D01*
X132961134Y-67604640D01*
X133489156Y-67957453D01*
X134112000Y-68081344D01*
X134734844Y-67957453D01*
X135262866Y-67604640D01*
X135382000Y-67426343D01*
X135501134Y-67604640D01*
X136029156Y-67957453D01*
X136652000Y-68081344D01*
X137274844Y-67957453D01*
X137802866Y-67604640D01*
X138155679Y-67076618D01*
X138279570Y-66453774D01*
X138279570Y-65372226D01*
X138155679Y-64749382D01*
X137802866Y-64221360D01*
X137274844Y-63868547D01*
X136652000Y-63744656D01*
X136029156Y-63868547D01*
X135989000Y-63895378D01*
X135989000Y-63119000D01*
X139863000Y-63119000D01*
X139863000Y-65913000D01*
X140043938Y-66822639D01*
X140559207Y-67593793D01*
X140863000Y-67796781D01*
X140863000Y-69469000D01*
X140967818Y-69995955D01*
X141266314Y-70442686D01*
X142114868Y-71291240D01*
X142112309Y-71290180D01*
X141509750Y-71290180D01*
X141351000Y-71448930D01*
X141351000Y-72898000D01*
X142462250Y-72898000D01*
X142621000Y-72739250D01*
X142621000Y-71798870D01*
X142619941Y-71796313D01*
X142895000Y-72071372D01*
X142895000Y-78476018D01*
X142657661Y-78238264D01*
X142058049Y-77989284D01*
X141408799Y-77988717D01*
X140808754Y-78236651D01*
X140672017Y-78373149D01*
X140587956Y-78242514D01*
X140294886Y-78042268D01*
X139947000Y-77971819D01*
X138437000Y-77971819D01*
X138112003Y-78032971D01*
X137813514Y-78225044D01*
X137613268Y-78518114D01*
X137542819Y-78866000D01*
X137542819Y-80298429D01*
X136425367Y-81415881D01*
X136154201Y-81010052D01*
X135988000Y-80899000D01*
X136154201Y-80787948D01*
X136509492Y-80256218D01*
X136634253Y-79629000D01*
X136509492Y-79001782D01*
X136154201Y-78470052D01*
X135622471Y-78114761D01*
X134995253Y-77990000D01*
X134244747Y-77990000D01*
X133617529Y-78114761D01*
X133085799Y-78470052D01*
X132842648Y-78833954D01*
X132599496Y-78470052D01*
X132067766Y-78114761D01*
X131440548Y-77990000D01*
X130687452Y-77990000D01*
X130060234Y-78114761D01*
X129528504Y-78470052D01*
X129173213Y-79001782D01*
X129048452Y-79629000D01*
X129173213Y-80256218D01*
X129528504Y-80787948D01*
X129694705Y-80899000D01*
X129528504Y-81010052D01*
X129173213Y-81541782D01*
X129048452Y-82169000D01*
X129173213Y-82796218D01*
X129528504Y-83327948D01*
X129694705Y-83439000D01*
X129528504Y-83550052D01*
X129173213Y-84081782D01*
X129048452Y-84709000D01*
X129173213Y-85336218D01*
X129528504Y-85867948D01*
X129694705Y-85979000D01*
X129528504Y-86090052D01*
X129173213Y-86621782D01*
X129048452Y-87249000D01*
X129173213Y-87876218D01*
X129528504Y-88407948D01*
X129632159Y-88477208D01*
X129604481Y-88488673D01*
X129425853Y-88667302D01*
X129329180Y-88900691D01*
X129329180Y-89503250D01*
X129487930Y-89662000D01*
X130937000Y-89662000D01*
X130937000Y-89642000D01*
X131191000Y-89642000D01*
X131191000Y-89662000D01*
X131211000Y-89662000D01*
X131211000Y-89916000D01*
X131191000Y-89916000D01*
X131191000Y-91027250D01*
X131349750Y-91186000D01*
X131790000Y-91186000D01*
X131790000Y-91893247D01*
X130320124Y-93363124D01*
X130092079Y-93704417D01*
X130060597Y-93862689D01*
X130060234Y-93862761D01*
X129528504Y-94218052D01*
X129173213Y-94749782D01*
X129048452Y-95377000D01*
X129173213Y-96004218D01*
X129528504Y-96535948D01*
X129694705Y-96647000D01*
X129528504Y-96758052D01*
X129173213Y-97289782D01*
X129048452Y-97917000D01*
X129173213Y-98544218D01*
X129528504Y-99075948D01*
X129694705Y-99187000D01*
X129528504Y-99298052D01*
X129173213Y-99829782D01*
X129048452Y-100457000D01*
X129173213Y-101084218D01*
X129528504Y-101615948D01*
X129694705Y-101727000D01*
X129528504Y-101838052D01*
X129173213Y-102369782D01*
X129048452Y-102997000D01*
X129091815Y-103215000D01*
X125444279Y-103215000D01*
X125451423Y-103212041D01*
X125866389Y-102836134D01*
X126105914Y-102330041D01*
X125984629Y-102108000D01*
X124841000Y-102108000D01*
X124841000Y-102128000D01*
X124587000Y-102128000D01*
X124587000Y-102108000D01*
X124567000Y-102108000D01*
X124567000Y-101854000D01*
X124587000Y-101854000D01*
X124587000Y-100711085D01*
X124841000Y-100711085D01*
X124841000Y-101854000D01*
X125984629Y-101854000D01*
X126105914Y-101631959D01*
X125866389Y-101125866D01*
X125451423Y-100749959D01*
X125063039Y-100589096D01*
X124841000Y-100711085D01*
X124587000Y-100711085D01*
X124496000Y-100661089D01*
X124496000Y-100638752D01*
X125457876Y-99676876D01*
X125685921Y-99335583D01*
X125707326Y-99227971D01*
X125766000Y-98933000D01*
X125766000Y-95669086D01*
X125899818Y-95579672D01*
X126263346Y-95035614D01*
X126391000Y-94393854D01*
X126391000Y-94328146D01*
X126263346Y-93686386D01*
X125899818Y-93142328D01*
X125355760Y-92778800D01*
X124714000Y-92651146D01*
X124072240Y-92778800D01*
X123528182Y-93142328D01*
X123444000Y-93268315D01*
X123359818Y-93142328D01*
X122815760Y-92778800D01*
X122174000Y-92651146D01*
X121532240Y-92778800D01*
X120988182Y-93142328D01*
X120904000Y-93268315D01*
X120819818Y-93142328D01*
X120275760Y-92778800D01*
X119634000Y-92651146D01*
X118992240Y-92778800D01*
X118448182Y-93142328D01*
X118364000Y-93268315D01*
X118279818Y-93142328D01*
X117735760Y-92778800D01*
X117094000Y-92651146D01*
X116452240Y-92778800D01*
X115908182Y-93142328D01*
X115824000Y-93268315D01*
X115739818Y-93142328D01*
X115195760Y-92778800D01*
X114554000Y-92651146D01*
X113912240Y-92778800D01*
X113368182Y-93142328D01*
X113284000Y-93268315D01*
X113199818Y-93142328D01*
X112655760Y-92778800D01*
X112014000Y-92651146D01*
X111372240Y-92778800D01*
X110828182Y-93142328D01*
X110744000Y-93268315D01*
X110659818Y-93142328D01*
X110115760Y-92778800D01*
X109474000Y-92651146D01*
X108832240Y-92778800D01*
X108288182Y-93142328D01*
X107924654Y-93686386D01*
X107797000Y-94328146D01*
X107797000Y-94393854D01*
X107924654Y-95035614D01*
X108288182Y-95579672D01*
X108832240Y-95943200D01*
X109474000Y-96070854D01*
X110115760Y-95943200D01*
X110659818Y-95579672D01*
X110744000Y-95453685D01*
X110828182Y-95579672D01*
X111372240Y-95943200D01*
X112014000Y-96070854D01*
X112655760Y-95943200D01*
X113199818Y-95579672D01*
X113284000Y-95453685D01*
X113368182Y-95579672D01*
X113912240Y-95943200D01*
X114554000Y-96070854D01*
X115195760Y-95943200D01*
X115739818Y-95579672D01*
X115824000Y-95453685D01*
X115908182Y-95579672D01*
X116452240Y-95943200D01*
X117094000Y-96070854D01*
X117735760Y-95943200D01*
X118279818Y-95579672D01*
X118364000Y-95453685D01*
X118448182Y-95579672D01*
X118992240Y-95943200D01*
X119634000Y-96070854D01*
X120275760Y-95943200D01*
X120819818Y-95579672D01*
X120904000Y-95453685D01*
X120988182Y-95579672D01*
X121532240Y-95943200D01*
X122174000Y-96070854D01*
X122815760Y-95943200D01*
X123359818Y-95579672D01*
X123444000Y-95453685D01*
X123528182Y-95579672D01*
X123662000Y-95669086D01*
X123662000Y-98497248D01*
X122700124Y-99459124D01*
X122472079Y-99800417D01*
X122392000Y-100203000D01*
X122392000Y-100314509D01*
X122174000Y-100271146D01*
X121532240Y-100398800D01*
X120988182Y-100762328D01*
X120904000Y-100888315D01*
X120819818Y-100762328D01*
X120275760Y-100398800D01*
X119634000Y-100271146D01*
X118992240Y-100398800D01*
X118448182Y-100762328D01*
X118364000Y-100888315D01*
X118279818Y-100762328D01*
X117735760Y-100398800D01*
X117094000Y-100271146D01*
X116452240Y-100398800D01*
X115908182Y-100762328D01*
X115680777Y-101102664D01*
X115291423Y-100749959D01*
X114903039Y-100589096D01*
X114681000Y-100711085D01*
X114681000Y-101854000D01*
X114701000Y-101854000D01*
X114701000Y-102108000D01*
X114681000Y-102108000D01*
X114681000Y-103250915D01*
X114903039Y-103372904D01*
X115291423Y-103212041D01*
X115680777Y-102859336D01*
X115908182Y-103199672D01*
X116452240Y-103563200D01*
X117094000Y-103690854D01*
X117735760Y-103563200D01*
X118279818Y-103199672D01*
X118364000Y-103073685D01*
X118448182Y-103199672D01*
X118992240Y-103563200D01*
X119634000Y-103690854D01*
X120275760Y-103563200D01*
X120819818Y-103199672D01*
X120904000Y-103073685D01*
X120988182Y-103199672D01*
X121532240Y-103563200D01*
X122174000Y-103690854D01*
X122467866Y-103632401D01*
X122472079Y-103653583D01*
X122700124Y-103994876D01*
X123716124Y-105010876D01*
X124057417Y-105238921D01*
X124460000Y-105319000D01*
X125709819Y-105319000D01*
X125709819Y-105882000D01*
X123494525Y-105882000D01*
X123551622Y-105717922D01*
X123522083Y-105207572D01*
X123383611Y-104873271D01*
X123153016Y-104817590D01*
X122433605Y-105537000D01*
X122447748Y-105551143D01*
X122268143Y-105730748D01*
X122254000Y-105716605D01*
X122239858Y-105730748D01*
X122060253Y-105551143D01*
X122074395Y-105537000D01*
X121354984Y-104817590D01*
X121124389Y-104873271D01*
X120956378Y-105356078D01*
X120985917Y-105866428D01*
X120992367Y-105882000D01*
X116263666Y-105882000D01*
X116294600Y-105726486D01*
X116294600Y-105347514D01*
X116162105Y-104681415D01*
X116133086Y-104637984D01*
X121534590Y-104637984D01*
X122254000Y-105357395D01*
X122973410Y-104637984D01*
X122917729Y-104407389D01*
X122434922Y-104239378D01*
X121924572Y-104268917D01*
X121590271Y-104407389D01*
X121534590Y-104637984D01*
X116133086Y-104637984D01*
X115784790Y-104116724D01*
X115220099Y-103739409D01*
X114554000Y-103606914D01*
X113887901Y-103739409D01*
X113323210Y-104116724D01*
X113284000Y-104175406D01*
X113244790Y-104116724D01*
X112680099Y-103739409D01*
X112224998Y-103648884D01*
X112655760Y-103563200D01*
X113199818Y-103199672D01*
X113427223Y-102859336D01*
X113816577Y-103212041D01*
X114204961Y-103372904D01*
X114427000Y-103250915D01*
X114427000Y-102108000D01*
X114407000Y-102108000D01*
X114407000Y-101854000D01*
X114427000Y-101854000D01*
X114427000Y-100711085D01*
X114204961Y-100589096D01*
X113816577Y-100749959D01*
X113427223Y-101102664D01*
X113199818Y-100762328D01*
X112655760Y-100398800D01*
X112014000Y-100271146D01*
X111372240Y-100398800D01*
X110828182Y-100762328D01*
X110600777Y-101102664D01*
X110211423Y-100749959D01*
X109823039Y-100589096D01*
X109601000Y-100711085D01*
X109601000Y-101854000D01*
X109621000Y-101854000D01*
X109621000Y-102108000D01*
X109601000Y-102108000D01*
X109601000Y-103250915D01*
X109823039Y-103372904D01*
X110211423Y-103212041D01*
X110600777Y-102859336D01*
X110828182Y-103199672D01*
X111372240Y-103563200D01*
X111803002Y-103648884D01*
X111347901Y-103739409D01*
X110783210Y-104116724D01*
X110744000Y-104175406D01*
X110704790Y-104116724D01*
X110140099Y-103739409D01*
X109474000Y-103606914D01*
X108807901Y-103739409D01*
X108478464Y-103959532D01*
X108438556Y-103897514D01*
X108145486Y-103697268D01*
X107797600Y-103626819D01*
X106070400Y-103626819D01*
X105745403Y-103687971D01*
X105446914Y-103880044D01*
X105263000Y-104149211D01*
X105263000Y-102330041D01*
X108082086Y-102330041D01*
X108321611Y-102836134D01*
X108736577Y-103212041D01*
X109124961Y-103372904D01*
X109347000Y-103250915D01*
X109347000Y-102108000D01*
X108203371Y-102108000D01*
X108082086Y-102330041D01*
X105263000Y-102330041D01*
X105263000Y-101850458D01*
X105359732Y-101708886D01*
X105375310Y-101631959D01*
X108082086Y-101631959D01*
X108203371Y-101854000D01*
X109347000Y-101854000D01*
X109347000Y-100711085D01*
X109124961Y-100589096D01*
X108736577Y-100749959D01*
X108321611Y-101125866D01*
X108082086Y-101631959D01*
X105375310Y-101631959D01*
X105430181Y-101361000D01*
X105430181Y-100061000D01*
X105369029Y-99736003D01*
X105176956Y-99437514D01*
X104883886Y-99237268D01*
X104536000Y-99166819D01*
X103236000Y-99166819D01*
X102911003Y-99227971D01*
X102612514Y-99420044D01*
X102412268Y-99713114D01*
X102341819Y-100061000D01*
X102341819Y-101361000D01*
X102402971Y-101685997D01*
X102509000Y-101850770D01*
X102509000Y-118658581D01*
X102468819Y-118857000D01*
X102468819Y-120157000D01*
X102529971Y-120481997D01*
X102722044Y-120780486D01*
X103015114Y-120980732D01*
X103363000Y-121051181D01*
X104663000Y-121051181D01*
X104987997Y-120990029D01*
X105286486Y-120797956D01*
X105486732Y-120504886D01*
X105557181Y-120157000D01*
X105557181Y-118857000D01*
X105496029Y-118532003D01*
X105390000Y-118367230D01*
X105390000Y-117410372D01*
X107504372Y-115296000D01*
X122111628Y-115296000D01*
X122681777Y-115866149D01*
X122174000Y-115765146D01*
X121532240Y-115892800D01*
X120988182Y-116256328D01*
X120904000Y-116382315D01*
X120819818Y-116256328D01*
X120275760Y-115892800D01*
X119634000Y-115765146D01*
X118992240Y-115892800D01*
X118448182Y-116256328D01*
X118364000Y-116382315D01*
X118279818Y-116256328D01*
X117735760Y-115892800D01*
X117094000Y-115765146D01*
X116452240Y-115892800D01*
X115908182Y-116256328D01*
X115824000Y-116382315D01*
X115739818Y-116256328D01*
X115195760Y-115892800D01*
X114554000Y-115765146D01*
X113912240Y-115892800D01*
X113368182Y-116256328D01*
X113284000Y-116382315D01*
X113199818Y-116256328D01*
X112655760Y-115892800D01*
X112014000Y-115765146D01*
X111372240Y-115892800D01*
X110828182Y-116256328D01*
X110744000Y-116382315D01*
X110659818Y-116256328D01*
X110115760Y-115892800D01*
X109474000Y-115765146D01*
X108832240Y-115892800D01*
X108288182Y-116256328D01*
X107924654Y-116800386D01*
X107797000Y-117442146D01*
X107797000Y-117507854D01*
X107924654Y-118149614D01*
X108288182Y-118693672D01*
X108832240Y-119057200D01*
X109474000Y-119184854D01*
X110115760Y-119057200D01*
X110659818Y-118693672D01*
X110744000Y-118567685D01*
X110828182Y-118693672D01*
X111372240Y-119057200D01*
X112014000Y-119184854D01*
X112655760Y-119057200D01*
X113199818Y-118693672D01*
X113284000Y-118567685D01*
X113368182Y-118693672D01*
X113912240Y-119057200D01*
X114554000Y-119184854D01*
X115195760Y-119057200D01*
X115739818Y-118693672D01*
X115824000Y-118567685D01*
X115908182Y-118693672D01*
X116452240Y-119057200D01*
X117094000Y-119184854D01*
X117735760Y-119057200D01*
X118279818Y-118693672D01*
X118364000Y-118567685D01*
X118448182Y-118693672D01*
X118992240Y-119057200D01*
X119634000Y-119184854D01*
X120275760Y-119057200D01*
X120819818Y-118693672D01*
X120904000Y-118567685D01*
X120988182Y-118693672D01*
X121532240Y-119057200D01*
X122174000Y-119184854D01*
X122815760Y-119057200D01*
X123359818Y-118693672D01*
X123444000Y-118567685D01*
X123528182Y-118693672D01*
X124072240Y-119057200D01*
X124714000Y-119184854D01*
X125355760Y-119057200D01*
X125899818Y-118693672D01*
X126127223Y-118353336D01*
X126516577Y-118706041D01*
X126904961Y-118866904D01*
X127127000Y-118744915D01*
X127127000Y-117602000D01*
X127107000Y-117602000D01*
X127107000Y-117348000D01*
X127127000Y-117348000D01*
X127127000Y-116205085D01*
X127381000Y-116205085D01*
X127381000Y-117348000D01*
X127401000Y-117348000D01*
X127401000Y-117602000D01*
X127381000Y-117602000D01*
X127381000Y-118744915D01*
X127603039Y-118866904D01*
X127991423Y-118706041D01*
X128380777Y-118353336D01*
X128608182Y-118693672D01*
X129152240Y-119057200D01*
X129794000Y-119184854D01*
X130435760Y-119057200D01*
X130979818Y-118693672D01*
X131064000Y-118567685D01*
X131148182Y-118693672D01*
X131692240Y-119057200D01*
X132334000Y-119184854D01*
X132975760Y-119057200D01*
X133519818Y-118693672D01*
X133604000Y-118567685D01*
X133688182Y-118693672D01*
X134232240Y-119057200D01*
X134874000Y-119184854D01*
X135515760Y-119057200D01*
X136059818Y-118693672D01*
X136144000Y-118567685D01*
X136228182Y-118693672D01*
X136772240Y-119057200D01*
X137414000Y-119184854D01*
X138055760Y-119057200D01*
X138599818Y-118693672D01*
X138684000Y-118567685D01*
X138768182Y-118693672D01*
X139312240Y-119057200D01*
X139954000Y-119184854D01*
X140595760Y-119057200D01*
X141139818Y-118693672D01*
X141224000Y-118567685D01*
X141308182Y-118693672D01*
X141852240Y-119057200D01*
X142494000Y-119184854D01*
X143135760Y-119057200D01*
X143679818Y-118693672D01*
X144043346Y-118149614D01*
X144171000Y-117507854D01*
X144171000Y-117442146D01*
X144048243Y-116825000D01*
X146664819Y-116825000D01*
X146664819Y-118125000D01*
X146725971Y-118449997D01*
X146918044Y-118748486D01*
X147211114Y-118948732D01*
X147559000Y-119019181D01*
X148859000Y-119019181D01*
X149183997Y-118958029D01*
X149482486Y-118765956D01*
X149682732Y-118472886D01*
X149753181Y-118125000D01*
X149753181Y-116825000D01*
X149692029Y-116500003D01*
X149499956Y-116201514D01*
X149206886Y-116001268D01*
X148912098Y-115941572D01*
X148928410Y-115874016D01*
X148209000Y-115154605D01*
X147489590Y-115874016D01*
X147505726Y-115940843D01*
X147234003Y-115991971D01*
X146935514Y-116184044D01*
X146735268Y-116477114D01*
X146664819Y-116825000D01*
X144048243Y-116825000D01*
X144043346Y-116800386D01*
X143679818Y-116256328D01*
X143135760Y-115892800D01*
X142494000Y-115765146D01*
X141852240Y-115892800D01*
X141308182Y-116256328D01*
X141224000Y-116382315D01*
X141139818Y-116256328D01*
X140595760Y-115892800D01*
X139954000Y-115765146D01*
X139312240Y-115892800D01*
X138768182Y-116256328D01*
X138684000Y-116382315D01*
X138599818Y-116256328D01*
X138055760Y-115892800D01*
X137414000Y-115765146D01*
X136772240Y-115892800D01*
X136228182Y-116256328D01*
X136144000Y-116382315D01*
X136059818Y-116256328D01*
X135515760Y-115892800D01*
X134874000Y-115765146D01*
X134232240Y-115892800D01*
X133688182Y-116256328D01*
X133604000Y-116382315D01*
X133519818Y-116256328D01*
X132975760Y-115892800D01*
X132334000Y-115765146D01*
X131692240Y-115892800D01*
X131148182Y-116256328D01*
X131064000Y-116382315D01*
X130979818Y-116256328D01*
X130435760Y-115892800D01*
X129794000Y-115765146D01*
X129152240Y-115892800D01*
X128608182Y-116256328D01*
X128380777Y-116596664D01*
X127991423Y-116243959D01*
X127603039Y-116083096D01*
X127381000Y-116205085D01*
X127127000Y-116205085D01*
X126904961Y-116083096D01*
X126516577Y-116243959D01*
X126127223Y-116596664D01*
X126091000Y-116542452D01*
X126091000Y-115951000D01*
X125986182Y-115424045D01*
X125687686Y-114977314D01*
X125504450Y-114794078D01*
X146911378Y-114794078D01*
X146940917Y-115304428D01*
X147079389Y-115638729D01*
X147309984Y-115694410D01*
X148029395Y-114975000D01*
X148388605Y-114975000D01*
X149108016Y-115694410D01*
X149338611Y-115638729D01*
X149506622Y-115155922D01*
X149501186Y-115062000D01*
X151519890Y-115062000D01*
X151519890Y-115816380D01*
X151674154Y-116337919D01*
X152016260Y-116760724D01*
X152494125Y-117020427D01*
X152566326Y-117034783D01*
X152781000Y-116912162D01*
X152781000Y-115062000D01*
X151519890Y-115062000D01*
X149501186Y-115062000D01*
X149477083Y-114645572D01*
X149338611Y-114311271D01*
X149108016Y-114255590D01*
X148388605Y-114975000D01*
X148029395Y-114975000D01*
X147309984Y-114255590D01*
X147079389Y-114311271D01*
X146911378Y-114794078D01*
X125504450Y-114794078D01*
X124786356Y-114075984D01*
X147489590Y-114075984D01*
X148209000Y-114795395D01*
X148928410Y-114075984D01*
X148923010Y-114053620D01*
X151519890Y-114053620D01*
X151519890Y-114808000D01*
X152781000Y-114808000D01*
X152781000Y-112957838D01*
X152566326Y-112835217D01*
X152494125Y-112849573D01*
X152016260Y-113109276D01*
X151674154Y-113532081D01*
X151519890Y-114053620D01*
X148923010Y-114053620D01*
X148872729Y-113845389D01*
X148389922Y-113677378D01*
X147879572Y-113706917D01*
X147545271Y-113845389D01*
X147489590Y-114075984D01*
X124786356Y-114075984D01*
X123655686Y-112945314D01*
X123208955Y-112646818D01*
X122682000Y-112542000D01*
X106934000Y-112542000D01*
X106407045Y-112646818D01*
X105960314Y-112945314D01*
X105263000Y-113642628D01*
X105263000Y-106917825D01*
X105429444Y-107176486D01*
X105722514Y-107376732D01*
X106070400Y-107447181D01*
X107797600Y-107447181D01*
X108122597Y-107386029D01*
X108421086Y-107193956D01*
X108476359Y-107113061D01*
X108807901Y-107334591D01*
X109474000Y-107467086D01*
X110140099Y-107334591D01*
X110704790Y-106957276D01*
X110744000Y-106898594D01*
X110783210Y-106957276D01*
X111347901Y-107334591D01*
X112014000Y-107467086D01*
X112680099Y-107334591D01*
X113244790Y-106957276D01*
X113284000Y-106898594D01*
X113323210Y-106957276D01*
X113716120Y-107219811D01*
X113582079Y-107420417D01*
X113502000Y-107823000D01*
X113502000Y-108546914D01*
X113368182Y-108636328D01*
X113284000Y-108762315D01*
X113199818Y-108636328D01*
X112655760Y-108272800D01*
X112014000Y-108145146D01*
X111372240Y-108272800D01*
X110828182Y-108636328D01*
X110744000Y-108762315D01*
X110659818Y-108636328D01*
X110115760Y-108272800D01*
X109474000Y-108145146D01*
X108832240Y-108272800D01*
X108288182Y-108636328D01*
X107924654Y-109180386D01*
X107797000Y-109822146D01*
X107797000Y-109887854D01*
X107924654Y-110529614D01*
X108288182Y-111073672D01*
X108832240Y-111437200D01*
X109474000Y-111564854D01*
X110115760Y-111437200D01*
X110659818Y-111073672D01*
X110744000Y-110947685D01*
X110828182Y-111073672D01*
X111372240Y-111437200D01*
X112014000Y-111564854D01*
X112655760Y-111437200D01*
X113199818Y-111073672D01*
X113284000Y-110947685D01*
X113368182Y-111073672D01*
X113912240Y-111437200D01*
X114554000Y-111564854D01*
X115195760Y-111437200D01*
X115739818Y-111073672D01*
X115824000Y-110947685D01*
X115908182Y-111073672D01*
X116452240Y-111437200D01*
X117094000Y-111564854D01*
X117735760Y-111437200D01*
X118279818Y-111073672D01*
X118364000Y-110947685D01*
X118448182Y-111073672D01*
X118992240Y-111437200D01*
X119634000Y-111564854D01*
X120275760Y-111437200D01*
X120819818Y-111073672D01*
X120904000Y-110947685D01*
X120988182Y-111073672D01*
X121532240Y-111437200D01*
X122174000Y-111564854D01*
X122815760Y-111437200D01*
X123359818Y-111073672D01*
X123587223Y-110733336D01*
X123976577Y-111086041D01*
X124364961Y-111246904D01*
X124587000Y-111124915D01*
X124587000Y-109982000D01*
X124567000Y-109982000D01*
X124567000Y-109728000D01*
X124587000Y-109728000D01*
X124587000Y-109708000D01*
X124841000Y-109708000D01*
X124841000Y-109728000D01*
X124861000Y-109728000D01*
X124861000Y-109982000D01*
X124841000Y-109982000D01*
X124841000Y-111124915D01*
X125063039Y-111246904D01*
X125451423Y-111086041D01*
X125840777Y-110733336D01*
X126068182Y-111073672D01*
X126612240Y-111437200D01*
X127254000Y-111564854D01*
X127895760Y-111437200D01*
X128417000Y-111088919D01*
X128417000Y-111252000D01*
X128521818Y-111778955D01*
X128820314Y-112225686D01*
X129582314Y-112987686D01*
X130029045Y-113286182D01*
X130556000Y-113391000D01*
X150114000Y-113391000D01*
X150640955Y-113286182D01*
X151087686Y-112987686D01*
X153311191Y-110764181D01*
X153558000Y-110764181D01*
X153882997Y-110703029D01*
X154181486Y-110510956D01*
X154381732Y-110217886D01*
X154401398Y-110120770D01*
X156611000Y-112330372D01*
X156611000Y-112996715D01*
X156600662Y-112981243D01*
X156071816Y-112627880D01*
X155448000Y-112503795D01*
X154824184Y-112627880D01*
X154295338Y-112981243D01*
X154024327Y-113386840D01*
X153799740Y-113109276D01*
X153321875Y-112849573D01*
X153249674Y-112835217D01*
X153035000Y-112957838D01*
X153035000Y-114808000D01*
X153055000Y-114808000D01*
X153055000Y-115062000D01*
X153035000Y-115062000D01*
X153035000Y-116912162D01*
X153249674Y-117034783D01*
X153321875Y-117020427D01*
X153799740Y-116760724D01*
X154024327Y-116483160D01*
X154295338Y-116888757D01*
X154824184Y-117242120D01*
X155448000Y-117366205D01*
X156071816Y-117242120D01*
X156600662Y-116888757D01*
X156718000Y-116713148D01*
X156835338Y-116888757D01*
X157364184Y-117242120D01*
X157988000Y-117366205D01*
X158611816Y-117242120D01*
X159140662Y-116888757D01*
X159494025Y-116359911D01*
X159618110Y-115736095D01*
X159618110Y-114133905D01*
X159561150Y-113847544D01*
X168522571Y-113847544D01*
X168898877Y-114758275D01*
X169595060Y-115455674D01*
X170505133Y-115833569D01*
X171490544Y-115834429D01*
X172401275Y-115458123D01*
X173098674Y-114761940D01*
X173476569Y-113851867D01*
X173477429Y-112866456D01*
X173101123Y-111955725D01*
X172404940Y-111258326D01*
X171494867Y-110880431D01*
X170509456Y-110879571D01*
X169598725Y-111255877D01*
X168901326Y-111952060D01*
X168523431Y-112862133D01*
X168522571Y-113847544D01*
X159561150Y-113847544D01*
X159494025Y-113510089D01*
X159365000Y-113316989D01*
X159365000Y-111760000D01*
X159260182Y-111233045D01*
X158961686Y-110786314D01*
X158538675Y-110363303D01*
X158571729Y-110349611D01*
X158627410Y-110119016D01*
X157908000Y-109399605D01*
X157893858Y-109413748D01*
X157714252Y-109234142D01*
X157728395Y-109220000D01*
X158087605Y-109220000D01*
X158807016Y-109939410D01*
X159037611Y-109883729D01*
X159205622Y-109400922D01*
X159176083Y-108890572D01*
X159037611Y-108556271D01*
X158807016Y-108500590D01*
X158087605Y-109220000D01*
X157728395Y-109220000D01*
X157008984Y-108500590D01*
X156778389Y-108556271D01*
X156766321Y-108590949D01*
X156496356Y-108320984D01*
X157188590Y-108320984D01*
X157908000Y-109040395D01*
X158627410Y-108320984D01*
X158571729Y-108090389D01*
X158088922Y-107922378D01*
X157578572Y-107951917D01*
X157244271Y-108090389D01*
X157188590Y-108320984D01*
X156496356Y-108320984D01*
X155555000Y-107379628D01*
X155555000Y-106922570D01*
X155575002Y-106922570D01*
X155575002Y-106755070D01*
X155741935Y-106881981D01*
X155827924Y-106839954D01*
X156210340Y-107095476D01*
X156718000Y-107196456D01*
X157225660Y-107095476D01*
X157497259Y-106914000D01*
X158115000Y-106914000D01*
X158641955Y-106809182D01*
X159088686Y-106510686D01*
X162644686Y-102954686D01*
X162943182Y-102507955D01*
X163048000Y-101981000D01*
X163048000Y-101881940D01*
X163621619Y-101881940D01*
X163621619Y-105382060D01*
X163682771Y-105707057D01*
X163874844Y-106005546D01*
X164167914Y-106205792D01*
X164515800Y-106276241D01*
X168015920Y-106276241D01*
X168340917Y-106215089D01*
X168639406Y-106023016D01*
X168839652Y-105729946D01*
X168910101Y-105382060D01*
X168910101Y-103917750D01*
X169880280Y-103917750D01*
X169880280Y-105508370D01*
X169976953Y-105741759D01*
X170155582Y-105920387D01*
X170388971Y-106017060D01*
X171979590Y-106017060D01*
X172138340Y-105858310D01*
X172138340Y-103759000D01*
X172392340Y-103759000D01*
X172392340Y-105858310D01*
X172551090Y-106017060D01*
X174141709Y-106017060D01*
X174375098Y-105920387D01*
X174553727Y-105741759D01*
X174650400Y-105508370D01*
X174650400Y-103917750D01*
X174491650Y-103759000D01*
X172392340Y-103759000D01*
X172138340Y-103759000D01*
X170039030Y-103759000D01*
X169880280Y-103917750D01*
X168910101Y-103917750D01*
X168910101Y-101881940D01*
X168848949Y-101556943D01*
X168695232Y-101318060D01*
X168979850Y-101318060D01*
X169138600Y-101159310D01*
X169138600Y-99060000D01*
X169392600Y-99060000D01*
X169392600Y-101159310D01*
X169551350Y-101318060D01*
X170217272Y-101318060D01*
X170155582Y-101343613D01*
X169976953Y-101522241D01*
X169880280Y-101755630D01*
X169880280Y-103346250D01*
X170039030Y-103505000D01*
X172138340Y-103505000D01*
X172138340Y-101405690D01*
X172392340Y-101405690D01*
X172392340Y-103505000D01*
X174491650Y-103505000D01*
X174650400Y-103346250D01*
X174650400Y-101755630D01*
X174553727Y-101522241D01*
X174375098Y-101343613D01*
X174141709Y-101246940D01*
X172551090Y-101246940D01*
X172392340Y-101405690D01*
X172138340Y-101405690D01*
X171979590Y-101246940D01*
X171313668Y-101246940D01*
X171375358Y-101221387D01*
X171553987Y-101042759D01*
X171650660Y-100809370D01*
X171650660Y-99218750D01*
X171491910Y-99060000D01*
X169392600Y-99060000D01*
X169138600Y-99060000D01*
X167039290Y-99060000D01*
X166880540Y-99218750D01*
X166880540Y-100809370D01*
X166954431Y-100987759D01*
X164515800Y-100987759D01*
X164190803Y-101048911D01*
X163892314Y-101240984D01*
X163692068Y-101534054D01*
X163621619Y-101881940D01*
X163048000Y-101881940D01*
X163048000Y-97056630D01*
X166880540Y-97056630D01*
X166880540Y-98647250D01*
X167039290Y-98806000D01*
X169138600Y-98806000D01*
X169138600Y-96706690D01*
X169392600Y-96706690D01*
X169392600Y-98806000D01*
X171491910Y-98806000D01*
X171650660Y-98647250D01*
X171650660Y-97056630D01*
X171553987Y-96823241D01*
X171375358Y-96644613D01*
X171141969Y-96547940D01*
X169551350Y-96547940D01*
X169392600Y-96706690D01*
X169138600Y-96706690D01*
X168979850Y-96547940D01*
X167389231Y-96547940D01*
X167155842Y-96644613D01*
X166977213Y-96823241D01*
X166880540Y-97056630D01*
X163048000Y-97056630D01*
X163048000Y-92013968D01*
X163809895Y-92013968D01*
X164121597Y-92768345D01*
X164698260Y-93346015D01*
X165452091Y-93659033D01*
X166268328Y-93659745D01*
X167022705Y-93348043D01*
X167600375Y-92771380D01*
X167913393Y-92017549D01*
X167913396Y-92013968D01*
X168889895Y-92013968D01*
X169201597Y-92768345D01*
X169778260Y-93346015D01*
X170532091Y-93659033D01*
X171348328Y-93659745D01*
X172102705Y-93348043D01*
X172680375Y-92771380D01*
X172993393Y-92017549D01*
X172994105Y-91201312D01*
X172682403Y-90446935D01*
X172105740Y-89869265D01*
X171351909Y-89556247D01*
X170535672Y-89555535D01*
X169781295Y-89867237D01*
X169203625Y-90443900D01*
X168890607Y-91197731D01*
X168889895Y-92013968D01*
X167913396Y-92013968D01*
X167914105Y-91201312D01*
X167602403Y-90446935D01*
X167025740Y-89869265D01*
X166271909Y-89556247D01*
X165455672Y-89555535D01*
X164701295Y-89867237D01*
X164123625Y-90443900D01*
X163810607Y-91197731D01*
X163809895Y-92013968D01*
X163048000Y-92013968D01*
X163048000Y-81026000D01*
X162943182Y-80499045D01*
X162644686Y-80052314D01*
X161162878Y-78570506D01*
X161094200Y-78225240D01*
X160730672Y-77681182D01*
X160186614Y-77317654D01*
X159544854Y-77190000D01*
X159479146Y-77190000D01*
X158837386Y-77317654D01*
X158293328Y-77681182D01*
X157929800Y-78225240D01*
X157802146Y-78867000D01*
X157929800Y-79508760D01*
X158293328Y-80052818D01*
X158419315Y-80137000D01*
X158293328Y-80221182D01*
X157929800Y-80765240D01*
X157890179Y-80964427D01*
X153461376Y-76535624D01*
X153120083Y-76307579D01*
X152717500Y-76227500D01*
X151320500Y-76227500D01*
X150917917Y-76307579D01*
X150576623Y-76535624D01*
X149624124Y-77488124D01*
X149396079Y-77829417D01*
X149316000Y-78232000D01*
X149316000Y-86432248D01*
X148557324Y-87190924D01*
X148329279Y-87532217D01*
X148249200Y-87934800D01*
X148249200Y-93874447D01*
X145904145Y-96219502D01*
X145904283Y-96061799D01*
X145656349Y-95461754D01*
X145197661Y-95002264D01*
X144598049Y-94753284D01*
X143948799Y-94752717D01*
X143348754Y-95000651D01*
X143001797Y-95347002D01*
X142657661Y-95002264D01*
X142058049Y-94753284D01*
X141408799Y-94752717D01*
X140808754Y-95000651D01*
X140672017Y-95137149D01*
X140587956Y-95006514D01*
X140294886Y-94806268D01*
X139947000Y-94735819D01*
X138437000Y-94735819D01*
X138112003Y-94796971D01*
X137813514Y-94989044D01*
X137613268Y-95282114D01*
X137542819Y-95630000D01*
X137542819Y-97140000D01*
X137603971Y-97464997D01*
X137796044Y-97763486D01*
X138089114Y-97963732D01*
X138437000Y-98034181D01*
X139947000Y-98034181D01*
X140271997Y-97973029D01*
X140570486Y-97780956D01*
X140671685Y-97632846D01*
X140806339Y-97767736D01*
X141232539Y-97944709D01*
X138982219Y-100195029D01*
X138829124Y-100297324D01*
X138079594Y-101046854D01*
X137942956Y-100834514D01*
X137649886Y-100634268D01*
X137302000Y-100563819D01*
X136002000Y-100563819D01*
X135677003Y-100624971D01*
X135378514Y-100817044D01*
X135233209Y-101029706D01*
X135018106Y-100814227D01*
X134457072Y-100581265D01*
X133849593Y-100580735D01*
X133288154Y-100812717D01*
X132858227Y-101241894D01*
X132625265Y-101802928D01*
X132625201Y-101876522D01*
X132599496Y-101838052D01*
X132433295Y-101727000D01*
X132599496Y-101615948D01*
X132954787Y-101084218D01*
X133079548Y-100457000D01*
X132954787Y-99829782D01*
X132599496Y-99298052D01*
X132433295Y-99187000D01*
X132599496Y-99075948D01*
X132834903Y-98723636D01*
X132880494Y-98794486D01*
X133173564Y-98994732D01*
X133521450Y-99065181D01*
X135718550Y-99065181D01*
X136043547Y-99004029D01*
X136342036Y-98811956D01*
X136542282Y-98518886D01*
X136612731Y-98171000D01*
X136612731Y-96647000D01*
X136551579Y-96322003D01*
X136359506Y-96023514D01*
X136220587Y-95928595D01*
X136509492Y-95496218D01*
X136634253Y-94869000D01*
X136509492Y-94241782D01*
X136154201Y-93710052D01*
X135988000Y-93599000D01*
X136154201Y-93487948D01*
X136509492Y-92956218D01*
X136634253Y-92329000D01*
X136509492Y-91701782D01*
X136154201Y-91170052D01*
X135988000Y-91059000D01*
X136154201Y-90947948D01*
X136509492Y-90416218D01*
X136634253Y-89789000D01*
X136509492Y-89161782D01*
X136154201Y-88630052D01*
X135988000Y-88519000D01*
X136154201Y-88407948D01*
X136509492Y-87876218D01*
X136634253Y-87249000D01*
X136509492Y-86621782D01*
X136154201Y-86090052D01*
X135988000Y-85979000D01*
X136154201Y-85867948D01*
X136509492Y-85336218D01*
X136634253Y-84709000D01*
X136541834Y-84244377D01*
X136633876Y-84182876D01*
X139546571Y-81270181D01*
X139947000Y-81270181D01*
X140271997Y-81209029D01*
X140570486Y-81016956D01*
X140671685Y-80868846D01*
X140806339Y-81003736D01*
X141405951Y-81252716D01*
X142055201Y-81253283D01*
X142655246Y-81005349D01*
X142895000Y-80766013D01*
X142895000Y-84064018D01*
X142657661Y-83826264D01*
X142058049Y-83577284D01*
X141408799Y-83576717D01*
X140808754Y-83824651D01*
X140672017Y-83961149D01*
X140587956Y-83830514D01*
X140294886Y-83630268D01*
X139947000Y-83559819D01*
X138437000Y-83559819D01*
X138112003Y-83620971D01*
X137813514Y-83813044D01*
X137613268Y-84106114D01*
X137542819Y-84454000D01*
X137542819Y-85964000D01*
X137603971Y-86288997D01*
X137796044Y-86587486D01*
X138089114Y-86787732D01*
X138437000Y-86858181D01*
X139947000Y-86858181D01*
X140271997Y-86797029D01*
X140570486Y-86604956D01*
X140671685Y-86456846D01*
X140806339Y-86591736D01*
X141405951Y-86840716D01*
X142055201Y-86841283D01*
X142655246Y-86593349D01*
X142895000Y-86354013D01*
X142895000Y-89652018D01*
X142657661Y-89414264D01*
X142058049Y-89165284D01*
X141408799Y-89164717D01*
X140808754Y-89412651D01*
X140672017Y-89549149D01*
X140587956Y-89418514D01*
X140294886Y-89218268D01*
X139947000Y-89147819D01*
X138437000Y-89147819D01*
X138112003Y-89208971D01*
X137813514Y-89401044D01*
X137613268Y-89694114D01*
X137542819Y-90042000D01*
X137542819Y-91552000D01*
X137603971Y-91876997D01*
X137796044Y-92175486D01*
X138089114Y-92375732D01*
X138437000Y-92446181D01*
X139947000Y-92446181D01*
X140271997Y-92385029D01*
X140570486Y-92192956D01*
X140671685Y-92044846D01*
X140806339Y-92179736D01*
X141405951Y-92428716D01*
X142055201Y-92429283D01*
X142655246Y-92181349D01*
X143002203Y-91834998D01*
X143346339Y-92179736D01*
X143945951Y-92428716D01*
X144236657Y-92428970D01*
X144272000Y-92436000D01*
X144307034Y-92429031D01*
X144595201Y-92429283D01*
X145195246Y-92181349D01*
X145654736Y-91722661D01*
X145903716Y-91123049D01*
X145904283Y-90473799D01*
X145656349Y-89873754D01*
X145649000Y-89866392D01*
X145649000Y-86140387D01*
X145654736Y-86134661D01*
X145903716Y-85535049D01*
X145904283Y-84885799D01*
X145656349Y-84285754D01*
X145649000Y-84278392D01*
X145649000Y-80552387D01*
X145654736Y-80546661D01*
X145903716Y-79947049D01*
X145904283Y-79297799D01*
X145656349Y-78697754D01*
X145649000Y-78690392D01*
X145649000Y-73924016D01*
X152268590Y-73924016D01*
X152324271Y-74154611D01*
X152807078Y-74322622D01*
X153317428Y-74293083D01*
X153651729Y-74154611D01*
X153707410Y-73924016D01*
X152988000Y-73204605D01*
X152268590Y-73924016D01*
X145649000Y-73924016D01*
X145649000Y-72844078D01*
X151690378Y-72844078D01*
X151719917Y-73354428D01*
X151858389Y-73688729D01*
X152088984Y-73744410D01*
X152808395Y-73025000D01*
X153167605Y-73025000D01*
X153887016Y-73744410D01*
X154117611Y-73688729D01*
X154285622Y-73205922D01*
X154256083Y-72695572D01*
X154123298Y-72375000D01*
X156443819Y-72375000D01*
X156443819Y-73675000D01*
X156504971Y-73999997D01*
X156697044Y-74298486D01*
X156990114Y-74498732D01*
X157338000Y-74569181D01*
X158638000Y-74569181D01*
X158962997Y-74508029D01*
X159261486Y-74315956D01*
X159461732Y-74022886D01*
X159532181Y-73675000D01*
X159532181Y-72375000D01*
X159471029Y-72050003D01*
X159278956Y-71751514D01*
X158985886Y-71551268D01*
X158638000Y-71480819D01*
X157338000Y-71480819D01*
X157013003Y-71541971D01*
X156714514Y-71734044D01*
X156514268Y-72027114D01*
X156443819Y-72375000D01*
X154123298Y-72375000D01*
X154117611Y-72361271D01*
X153887016Y-72305590D01*
X153167605Y-73025000D01*
X152808395Y-73025000D01*
X152088984Y-72305590D01*
X151858389Y-72361271D01*
X151690378Y-72844078D01*
X145649000Y-72844078D01*
X145649000Y-72125984D01*
X152268590Y-72125984D01*
X152988000Y-72845395D01*
X153707410Y-72125984D01*
X153651729Y-71895389D01*
X153168922Y-71727378D01*
X152658572Y-71756917D01*
X152324271Y-71895389D01*
X152268590Y-72125984D01*
X145649000Y-72125984D01*
X145649000Y-71501000D01*
X145544182Y-70974045D01*
X145245686Y-70527314D01*
X143617000Y-68898628D01*
X143617000Y-67796781D01*
X143920793Y-67593793D01*
X144436062Y-66822639D01*
X144438175Y-66812016D01*
X145020590Y-66812016D01*
X145076271Y-67042611D01*
X145559078Y-67210622D01*
X146069428Y-67181083D01*
X146403729Y-67042611D01*
X146459410Y-66812016D01*
X145740000Y-66092605D01*
X145020590Y-66812016D01*
X144438175Y-66812016D01*
X144525663Y-66372183D01*
X144610389Y-66576729D01*
X144840984Y-66632410D01*
X145560395Y-65913000D01*
X145919605Y-65913000D01*
X146639016Y-66632410D01*
X146869611Y-66576729D01*
X147037622Y-66093922D01*
X147034502Y-66040000D01*
X149998430Y-66040000D01*
X149998430Y-66539110D01*
X150152501Y-67059677D01*
X150494056Y-67481658D01*
X150971097Y-67740810D01*
X151042725Y-67754993D01*
X151257000Y-67632339D01*
X151257000Y-66040000D01*
X149998430Y-66040000D01*
X147034502Y-66040000D01*
X147008083Y-65583572D01*
X146885194Y-65286890D01*
X149998430Y-65286890D01*
X149998430Y-65786000D01*
X151257000Y-65786000D01*
X151257000Y-64193661D01*
X151042725Y-64071007D01*
X150971097Y-64085190D01*
X150494056Y-64344342D01*
X150152501Y-64766323D01*
X149998430Y-65286890D01*
X146885194Y-65286890D01*
X146869611Y-65249271D01*
X146639016Y-65193590D01*
X145919605Y-65913000D01*
X145560395Y-65913000D01*
X144840984Y-65193590D01*
X144617000Y-65247675D01*
X144617000Y-65013984D01*
X145020590Y-65013984D01*
X145740000Y-65733395D01*
X146459410Y-65013984D01*
X146403729Y-64783389D01*
X145920922Y-64615378D01*
X145410572Y-64644917D01*
X145076271Y-64783389D01*
X145020590Y-65013984D01*
X144617000Y-65013984D01*
X144617000Y-63119000D01*
X152047000Y-63119000D01*
X152047000Y-64221055D01*
X151796903Y-64085190D01*
X151725275Y-64071007D01*
X151511000Y-64193661D01*
X151511000Y-65786000D01*
X151531000Y-65786000D01*
X151531000Y-66040000D01*
X151511000Y-66040000D01*
X151511000Y-67632339D01*
X151725275Y-67754993D01*
X151796903Y-67740810D01*
X152273944Y-67481658D01*
X152502382Y-67199430D01*
X152773134Y-67604640D01*
X153301156Y-67957453D01*
X153924000Y-68081344D01*
X154546844Y-67957453D01*
X155074866Y-67604640D01*
X155194000Y-67426343D01*
X155313134Y-67604640D01*
X155841156Y-67957453D01*
X156464000Y-68081344D01*
X157086844Y-67957453D01*
X157614866Y-67604640D01*
X157967679Y-67076618D01*
X158091570Y-66453774D01*
X158091570Y-65372226D01*
X157967679Y-64749382D01*
X157614866Y-64221360D01*
X157086844Y-63868547D01*
X156464000Y-63744656D01*
X155841156Y-63868547D01*
X155801000Y-63895378D01*
X155801000Y-63119000D01*
X159675000Y-63119000D01*
X159675000Y-66675000D01*
X159855938Y-67584639D01*
X160371207Y-68355793D01*
X163485000Y-71469586D01*
X163485000Y-76286360D01*
X163665938Y-77195999D01*
X164181207Y-77967153D01*
X164952361Y-78482422D01*
X165862000Y-78663360D01*
X170942000Y-78663360D01*
X171851639Y-78482422D01*
X172622793Y-77967153D01*
X173138062Y-77195999D01*
X173319000Y-76286360D01*
X173138062Y-75376721D01*
X172622793Y-74605567D01*
X171851639Y-74090298D01*
X170942000Y-73909360D01*
X168239000Y-73909360D01*
X168239000Y-70485000D01*
X168058062Y-69575361D01*
X167542793Y-68804207D01*
X165908468Y-67169882D01*
X166215729Y-67042611D01*
X166271410Y-66812016D01*
X165552000Y-66092605D01*
X165537858Y-66106748D01*
X165358252Y-65927142D01*
X165372395Y-65913000D01*
X165731605Y-65913000D01*
X166451016Y-66632410D01*
X166681611Y-66576729D01*
X166849622Y-66093922D01*
X166846502Y-66040000D01*
X169810430Y-66040000D01*
X169810430Y-66539110D01*
X169964501Y-67059677D01*
X170306056Y-67481658D01*
X170783097Y-67740810D01*
X170854725Y-67754993D01*
X171069000Y-67632339D01*
X171069000Y-66040000D01*
X169810430Y-66040000D01*
X166846502Y-66040000D01*
X166820083Y-65583572D01*
X166697194Y-65286890D01*
X169810430Y-65286890D01*
X169810430Y-65786000D01*
X171069000Y-65786000D01*
X171069000Y-64193661D01*
X170854725Y-64071007D01*
X170783097Y-64085190D01*
X170306056Y-64344342D01*
X169964501Y-64766323D01*
X169810430Y-65286890D01*
X166697194Y-65286890D01*
X166681611Y-65249271D01*
X166451016Y-65193590D01*
X165731605Y-65913000D01*
X165372395Y-65913000D01*
X164652984Y-65193590D01*
X164429000Y-65247675D01*
X164429000Y-65013984D01*
X164832590Y-65013984D01*
X165552000Y-65733395D01*
X166271410Y-65013984D01*
X166215729Y-64783389D01*
X165732922Y-64615378D01*
X165222572Y-64644917D01*
X164888271Y-64783389D01*
X164832590Y-65013984D01*
X164429000Y-65013984D01*
X164429000Y-63119000D01*
X171846581Y-63119000D01*
X171859000Y-63131419D01*
X171859000Y-64221055D01*
X171608903Y-64085190D01*
X171537275Y-64071007D01*
X171323000Y-64193661D01*
X171323000Y-65786000D01*
X171343000Y-65786000D01*
X171343000Y-66040000D01*
X171323000Y-66040000D01*
X171323000Y-67632339D01*
X171537275Y-67754993D01*
X171608903Y-67740810D01*
X172085944Y-67481658D01*
X172314382Y-67199430D01*
X172585134Y-67604640D01*
X173113156Y-67957453D01*
X173736000Y-68081344D01*
X174358844Y-67957453D01*
X174886866Y-67604640D01*
X175006000Y-67426343D01*
X175125134Y-67604640D01*
X175653156Y-67957453D01*
X176276000Y-68081344D01*
X176898844Y-67957453D01*
X177426866Y-67604640D01*
X177779679Y-67076618D01*
X177903570Y-66453774D01*
X177903570Y-65372226D01*
X177779679Y-64749382D01*
X177426866Y-64221360D01*
X176898844Y-63868547D01*
X176276000Y-63744656D01*
X175653156Y-63868547D01*
X175613000Y-63895378D01*
X175613000Y-62353940D01*
X175470122Y-61635643D01*
X175376664Y-61495773D01*
X175063239Y-61026700D01*
X172942815Y-58906277D01*
X172846996Y-46354031D01*
X172836614Y-46304698D01*
X172807856Y-46263292D01*
X172765255Y-46236337D01*
X172720000Y-46228000D01*
X171933722Y-46228000D01*
X171811269Y-46095751D01*
X171781600Y-46074233D01*
X171761239Y-46043760D01*
X169728605Y-44011127D01*
X170505133Y-44333569D01*
X171490544Y-44334429D01*
X172401275Y-43958123D01*
X173098674Y-43261940D01*
X173476569Y-42351867D01*
X173477429Y-41366456D01*
X173101123Y-40455725D01*
X172404940Y-39758326D01*
X171494867Y-39380431D01*
X170509456Y-39379571D01*
X169598725Y-39755877D01*
X168901326Y-40452060D01*
X168523431Y-41362133D01*
X168522571Y-42347544D01*
X168844746Y-43127267D01*
X167659000Y-41941522D01*
X167659000Y-37406043D01*
X167755486Y-37343956D01*
X167955732Y-37050886D01*
X168026181Y-36703000D01*
X168026181Y-34163000D01*
X167965029Y-33838003D01*
X167772956Y-33539514D01*
X167479886Y-33339268D01*
X167132000Y-33268819D01*
X164592000Y-33268819D01*
X164267003Y-33329971D01*
X163968514Y-33522044D01*
X163768268Y-33815114D01*
X163697819Y-34163000D01*
X163697819Y-36703000D01*
X163758971Y-37027997D01*
X163905000Y-37254932D01*
X163905000Y-42719000D01*
X164021351Y-43303937D01*
X164047878Y-43437297D01*
X164064384Y-43462000D01*
X162659000Y-43462000D01*
X162659000Y-36511271D01*
X162928626Y-35861938D01*
X162929372Y-35007809D01*
X162603199Y-34218411D01*
X161999766Y-33613923D01*
X161210938Y-33286374D01*
X160356809Y-33285628D01*
X159567411Y-33611801D01*
X158962923Y-34215234D01*
X158635374Y-35004062D01*
X158634628Y-35858191D01*
X158905000Y-36512540D01*
X158905000Y-45339000D01*
X158905507Y-45341548D01*
X158905185Y-45710619D01*
X159047367Y-46054726D01*
X159047878Y-46057297D01*
X159049322Y-46059458D01*
X159118962Y-46228000D01*
X153870838Y-46228000D01*
X149371000Y-41728162D01*
X149371000Y-37406043D01*
X149467486Y-37343956D01*
X149667732Y-37050886D01*
X149738181Y-36703000D01*
X149738181Y-34163000D01*
X149677029Y-33838003D01*
X149484956Y-33539514D01*
X149191886Y-33339268D01*
X148844000Y-33268819D01*
X146304000Y-33268819D01*
X145979003Y-33329971D01*
X145680514Y-33522044D01*
X145480268Y-33815114D01*
X145409819Y-34163000D01*
X145409819Y-36703000D01*
X145470971Y-37027997D01*
X145617000Y-37254932D01*
X145617000Y-42505640D01*
X145759878Y-43223937D01*
X146089028Y-43716543D01*
X146052571Y-43716511D01*
X146050000Y-43716000D01*
X144371000Y-43716000D01*
X144371000Y-36511271D01*
X144640626Y-35861938D01*
X144641372Y-35007809D01*
X144315199Y-34218411D01*
X143711766Y-33613923D01*
X142922938Y-33286374D01*
X142068809Y-33285628D01*
X141279411Y-33611801D01*
X140674923Y-34215234D01*
X140347374Y-35004062D01*
X140346628Y-35858191D01*
X140617000Y-36512540D01*
X140617000Y-45593000D01*
X140617507Y-45595548D01*
X140617185Y-45964619D01*
X140726012Y-46228000D01*
X135582839Y-46228000D01*
X131163000Y-41808162D01*
X131163000Y-37354564D01*
X131179486Y-37343956D01*
X131379732Y-37050886D01*
X131450181Y-36703000D01*
X131450181Y-34163000D01*
X131389029Y-33838003D01*
X131196956Y-33539514D01*
X130903886Y-33339268D01*
X130556000Y-33268819D01*
X128016000Y-33268819D01*
X127691003Y-33329971D01*
X127392514Y-33522044D01*
X127192268Y-33815114D01*
X127121819Y-34163000D01*
X127121819Y-36703000D01*
X127182971Y-37027997D01*
X127375044Y-37326486D01*
X127409000Y-37349687D01*
X127409000Y-42585640D01*
X127535965Y-43223937D01*
X127551878Y-43303937D01*
X127827589Y-43716566D01*
X127764571Y-43716511D01*
X127762000Y-43716000D01*
X126083000Y-43716000D01*
X126083000Y-36511271D01*
X126352626Y-35861938D01*
X126353372Y-35007809D01*
X126027199Y-34218411D01*
X125423766Y-33613923D01*
X124634938Y-33286374D01*
X123780809Y-33285628D01*
X122991411Y-33611801D01*
X122386923Y-34215234D01*
X122059374Y-35004062D01*
X122058628Y-35858191D01*
X122329000Y-36512540D01*
X122329000Y-45593000D01*
X122329507Y-45595548D01*
X122329185Y-45964619D01*
X122438012Y-46228000D01*
X117294838Y-46228000D01*
X112795000Y-41728162D01*
X112795000Y-37406043D01*
X112891486Y-37343956D01*
X113091732Y-37050886D01*
X113162181Y-36703000D01*
X113162181Y-34163000D01*
X113101029Y-33838003D01*
X112908956Y-33539514D01*
X112615886Y-33339268D01*
X112268000Y-33268819D01*
X109728000Y-33268819D01*
X109403003Y-33329971D01*
X109104514Y-33522044D01*
X108904268Y-33815114D01*
X108833819Y-34163000D01*
X108833819Y-36703000D01*
X108894971Y-37027997D01*
X109041000Y-37254932D01*
X109041000Y-42505640D01*
X109183878Y-43223937D01*
X109513028Y-43716543D01*
X109476571Y-43716511D01*
X109474000Y-43716000D01*
X107795000Y-43716000D01*
X107795000Y-36511271D01*
X108064626Y-35861938D01*
X108065372Y-35007809D01*
X107739199Y-34218411D01*
X107135766Y-33613923D01*
X106346938Y-33286374D01*
X105492809Y-33285628D01*
X104703411Y-33611801D01*
X104098923Y-34215234D01*
X103771374Y-35004062D01*
X103770628Y-35858191D01*
X104041000Y-36512540D01*
X104041000Y-45593000D01*
X104041507Y-45595548D01*
X104041185Y-45964619D01*
X104150012Y-46228000D01*
X99060000Y-46228000D01*
X99010590Y-46238006D01*
X98968965Y-46266447D01*
X98941685Y-46308841D01*
X98933004Y-46355969D01*
X92392000Y-46355969D01*
X92392000Y-42347544D01*
X97022571Y-42347544D01*
X97398877Y-43258275D01*
X98095060Y-43955674D01*
X99005133Y-44333569D01*
X99990544Y-44334429D01*
X100901275Y-43958123D01*
X101598674Y-43261940D01*
X101976569Y-42351867D01*
X101977429Y-41366456D01*
X101601123Y-40455725D01*
X100904940Y-39758326D01*
X99994867Y-39380431D01*
X99009456Y-39379571D01*
X98098725Y-39755877D01*
X97401326Y-40452060D01*
X97023431Y-41362133D01*
X97022571Y-42347544D01*
X92392000Y-42347544D01*
X92392000Y-31432000D01*
X179388000Y-31432000D01*
X179388000Y-127318000D01*
X179388000Y-127318000D01*
G37*
X179388000Y-127318000D02*
X92392000Y-127318000D01*
X92392000Y-122809000D01*
X108212890Y-122809000D01*
X108212890Y-123563380D01*
X108367154Y-124084919D01*
X108709260Y-124507724D01*
X109187125Y-124767427D01*
X109259326Y-124781783D01*
X109474000Y-124659162D01*
X109474000Y-122809000D01*
X108212890Y-122809000D01*
X92392000Y-122809000D01*
X92392000Y-121800620D01*
X108212890Y-121800620D01*
X108212890Y-122555000D01*
X109474000Y-122555000D01*
X109474000Y-120704838D01*
X109728000Y-120704838D01*
X109728000Y-122555000D01*
X109748000Y-122555000D01*
X109748000Y-122809000D01*
X109728000Y-122809000D01*
X109728000Y-124659162D01*
X109942674Y-124781783D01*
X110014875Y-124767427D01*
X110492740Y-124507724D01*
X110717327Y-124230160D01*
X110988338Y-124635757D01*
X111517184Y-124989120D01*
X112141000Y-125113205D01*
X112764816Y-124989120D01*
X113293662Y-124635757D01*
X113411000Y-124460148D01*
X113528338Y-124635757D01*
X114057184Y-124989120D01*
X114681000Y-125113205D01*
X115304816Y-124989120D01*
X115833662Y-124635757D01*
X116187025Y-124106911D01*
X116311110Y-123483095D01*
X116311110Y-121978011D01*
X119201227Y-121978011D01*
X119440577Y-122557283D01*
X119818906Y-122936272D01*
X119442135Y-123312386D01*
X119201774Y-123891239D01*
X119201227Y-124518011D01*
X119440577Y-125097283D01*
X119883386Y-125540865D01*
X120462239Y-125781226D01*
X121089011Y-125781773D01*
X121668283Y-125542423D01*
X122111865Y-125099614D01*
X122352226Y-124520761D01*
X122352773Y-123893989D01*
X122113423Y-123314717D01*
X121735094Y-122935728D01*
X122111865Y-122559614D01*
X122352226Y-121980761D01*
X122352228Y-121978011D01*
X124281227Y-121978011D01*
X124520577Y-122557283D01*
X124898906Y-122936272D01*
X124522135Y-123312386D01*
X124281774Y-123891239D01*
X124281227Y-124518011D01*
X124520577Y-125097283D01*
X124963386Y-125540865D01*
X125542239Y-125781226D01*
X126169011Y-125781773D01*
X126748283Y-125542423D01*
X127191865Y-125099614D01*
X127432226Y-124520761D01*
X127432773Y-123893989D01*
X127193423Y-123314717D01*
X126815094Y-122935728D01*
X127191865Y-122559614D01*
X127432226Y-121980761D01*
X127432228Y-121978011D01*
X129234227Y-121978011D01*
X129473577Y-122557283D01*
X129851906Y-122936272D01*
X129475135Y-123312386D01*
X129234774Y-123891239D01*
X129234227Y-124518011D01*
X129473577Y-125097283D01*
X129916386Y-125540865D01*
X130495239Y-125781226D01*
X131122011Y-125781773D01*
X131701283Y-125542423D01*
X132144865Y-125099614D01*
X132385226Y-124520761D01*
X132385298Y-124438027D01*
X133419032Y-124438027D01*
X133667179Y-124967490D01*
X134099053Y-125361688D01*
X134514974Y-125533958D01*
X134747000Y-125412817D01*
X134747000Y-124206000D01*
X133539531Y-124206000D01*
X133419032Y-124438027D01*
X132385298Y-124438027D01*
X132385773Y-123893989D01*
X132146423Y-123314717D01*
X131768094Y-122935728D01*
X132144865Y-122559614D01*
X132385226Y-121980761D01*
X132385641Y-121504900D01*
X133133400Y-121504900D01*
X133133400Y-121573100D01*
X133265895Y-122239199D01*
X133643210Y-122803890D01*
X133901599Y-122976540D01*
X133667179Y-123190510D01*
X133419032Y-123719973D01*
X133539531Y-123952000D01*
X134747000Y-123952000D01*
X134747000Y-123932000D01*
X135001000Y-123932000D01*
X135001000Y-123952000D01*
X135021000Y-123952000D01*
X135021000Y-124206000D01*
X135001000Y-124206000D01*
X135001000Y-125412817D01*
X135233026Y-125533958D01*
X135648947Y-125361688D01*
X135988197Y-125052033D01*
X136183210Y-125343890D01*
X136747901Y-125721205D01*
X137414000Y-125853700D01*
X138080099Y-125721205D01*
X138644790Y-125343890D01*
X138684000Y-125285208D01*
X138723210Y-125343890D01*
X139287901Y-125721205D01*
X139954000Y-125853700D01*
X140620099Y-125721205D01*
X141184790Y-125343890D01*
X141562105Y-124779199D01*
X141694600Y-124113100D01*
X141694600Y-124044900D01*
X141562105Y-123378801D01*
X141369067Y-123089899D01*
X141441086Y-123043556D01*
X141601351Y-122809000D01*
X151519890Y-122809000D01*
X151519890Y-123563380D01*
X151674154Y-124084919D01*
X152016260Y-124507724D01*
X152494125Y-124767427D01*
X152566326Y-124781783D01*
X152781000Y-124659162D01*
X152781000Y-122809000D01*
X151519890Y-122809000D01*
X141601351Y-122809000D01*
X141641332Y-122750486D01*
X141711781Y-122402600D01*
X141711781Y-121800620D01*
X151519890Y-121800620D01*
X151519890Y-122555000D01*
X152781000Y-122555000D01*
X152781000Y-120704838D01*
X153035000Y-120704838D01*
X153035000Y-122555000D01*
X153055000Y-122555000D01*
X153055000Y-122809000D01*
X153035000Y-122809000D01*
X153035000Y-124659162D01*
X153249674Y-124781783D01*
X153321875Y-124767427D01*
X153799740Y-124507724D01*
X154024327Y-124230160D01*
X154295338Y-124635757D01*
X154824184Y-124989120D01*
X155448000Y-125113205D01*
X156071816Y-124989120D01*
X156600662Y-124635757D01*
X156718000Y-124460148D01*
X156835338Y-124635757D01*
X157364184Y-124989120D01*
X157988000Y-125113205D01*
X158611816Y-124989120D01*
X159140662Y-124635757D01*
X159494025Y-124106911D01*
X159618110Y-123483095D01*
X159618110Y-121880905D01*
X159494025Y-121257089D01*
X159140662Y-120728243D01*
X158611816Y-120374880D01*
X157988000Y-120250795D01*
X157364184Y-120374880D01*
X156835338Y-120728243D01*
X156718000Y-120903852D01*
X156600662Y-120728243D01*
X156071816Y-120374880D01*
X155448000Y-120250795D01*
X154824184Y-120374880D01*
X154295338Y-120728243D01*
X154024327Y-121133840D01*
X153799740Y-120856276D01*
X153321875Y-120596573D01*
X153249674Y-120582217D01*
X153035000Y-120704838D01*
X152781000Y-120704838D01*
X152566326Y-120582217D01*
X152494125Y-120596573D01*
X152016260Y-120856276D01*
X151674154Y-121279081D01*
X151519890Y-121800620D01*
X141711781Y-121800620D01*
X141711781Y-120675400D01*
X141650629Y-120350403D01*
X141458556Y-120051914D01*
X141165486Y-119851668D01*
X140817600Y-119781219D01*
X139090400Y-119781219D01*
X138765403Y-119842371D01*
X138466914Y-120034444D01*
X138410240Y-120117389D01*
X138080099Y-119896795D01*
X137414000Y-119764300D01*
X136747901Y-119896795D01*
X136183210Y-120274110D01*
X136144000Y-120332792D01*
X136104790Y-120274110D01*
X135540099Y-119896795D01*
X134874000Y-119764300D01*
X134207901Y-119896795D01*
X133643210Y-120274110D01*
X133265895Y-120838801D01*
X133133400Y-121504900D01*
X132385641Y-121504900D01*
X132385773Y-121353989D01*
X132146423Y-120774717D01*
X131703614Y-120331135D01*
X131124761Y-120090774D01*
X130497989Y-120090227D01*
X129918717Y-120329577D01*
X129475135Y-120772386D01*
X129234774Y-121351239D01*
X129234227Y-121978011D01*
X127432228Y-121978011D01*
X127432773Y-121353989D01*
X127193423Y-120774717D01*
X126750614Y-120331135D01*
X126171761Y-120090774D01*
X125544989Y-120090227D01*
X124965717Y-120329577D01*
X124522135Y-120772386D01*
X124281774Y-121351239D01*
X124281227Y-121978011D01*
X122352228Y-121978011D01*
X122352773Y-121353989D01*
X122113423Y-120774717D01*
X121670614Y-120331135D01*
X121091761Y-120090774D01*
X120464989Y-120090227D01*
X119885717Y-120329577D01*
X119442135Y-120772386D01*
X119201774Y-121351239D01*
X119201227Y-121978011D01*
X116311110Y-121978011D01*
X116311110Y-121880905D01*
X116187025Y-121257089D01*
X115833662Y-120728243D01*
X115304816Y-120374880D01*
X114681000Y-120250795D01*
X114057184Y-120374880D01*
X113528338Y-120728243D01*
X113411000Y-120903852D01*
X113293662Y-120728243D01*
X112764816Y-120374880D01*
X112141000Y-120250795D01*
X111517184Y-120374880D01*
X110988338Y-120728243D01*
X110717327Y-121133840D01*
X110492740Y-120856276D01*
X110014875Y-120596573D01*
X109942674Y-120582217D01*
X109728000Y-120704838D01*
X109474000Y-120704838D01*
X109259326Y-120582217D01*
X109187125Y-120596573D01*
X108709260Y-120856276D01*
X108367154Y-121279081D01*
X108212890Y-121800620D01*
X92392000Y-121800620D01*
X92392000Y-120406016D01*
X98293590Y-120406016D01*
X98349271Y-120636611D01*
X98832078Y-120804622D01*
X99342428Y-120775083D01*
X99676729Y-120636611D01*
X99732410Y-120406016D01*
X99013000Y-119686605D01*
X98293590Y-120406016D01*
X92392000Y-120406016D01*
X92392000Y-119326078D01*
X97715378Y-119326078D01*
X97744917Y-119836428D01*
X97883389Y-120170729D01*
X98113984Y-120226410D01*
X98833395Y-119507000D01*
X99192605Y-119507000D01*
X99912016Y-120226410D01*
X100142611Y-120170729D01*
X100310622Y-119687922D01*
X100281083Y-119177572D01*
X100142611Y-118843271D01*
X99912016Y-118787590D01*
X99192605Y-119507000D01*
X98833395Y-119507000D01*
X98113984Y-118787590D01*
X97883389Y-118843271D01*
X97715378Y-119326078D01*
X92392000Y-119326078D01*
X92392000Y-118607984D01*
X98293590Y-118607984D01*
X99013000Y-119327395D01*
X99732410Y-118607984D01*
X99676729Y-118377389D01*
X99193922Y-118209378D01*
X98683572Y-118238917D01*
X98349271Y-118377389D01*
X98293590Y-118607984D01*
X92392000Y-118607984D01*
X92392000Y-113847544D01*
X97022571Y-113847544D01*
X97398877Y-114758275D01*
X98095060Y-115455674D01*
X99005133Y-115833569D01*
X99990544Y-115834429D01*
X100901275Y-115458123D01*
X101598674Y-114761940D01*
X101976569Y-113851867D01*
X101977429Y-112866456D01*
X101601123Y-111955725D01*
X100904940Y-111258326D01*
X99994867Y-110880431D01*
X99009456Y-110879571D01*
X98098725Y-111255877D01*
X97401326Y-111952060D01*
X97023431Y-112862133D01*
X97022571Y-113847544D01*
X92392000Y-113847544D01*
X92392000Y-96610016D01*
X103166590Y-96610016D01*
X103222271Y-96840611D01*
X103705078Y-97008622D01*
X104215428Y-96979083D01*
X104549729Y-96840611D01*
X104605410Y-96610016D01*
X103886000Y-95890605D01*
X103166590Y-96610016D01*
X92392000Y-96610016D01*
X92392000Y-95530078D01*
X102588378Y-95530078D01*
X102617917Y-96040428D01*
X102756389Y-96374729D01*
X102986984Y-96430410D01*
X103706395Y-95711000D01*
X104065605Y-95711000D01*
X104785016Y-96430410D01*
X105015611Y-96374729D01*
X105183622Y-95891922D01*
X105154083Y-95381572D01*
X105015611Y-95047271D01*
X104785016Y-94991590D01*
X104065605Y-95711000D01*
X103706395Y-95711000D01*
X102986984Y-94991590D01*
X102756389Y-95047271D01*
X102588378Y-95530078D01*
X92392000Y-95530078D01*
X92392000Y-94811984D01*
X103166590Y-94811984D01*
X103886000Y-95531395D01*
X104605410Y-94811984D01*
X104549729Y-94581389D01*
X104066922Y-94413378D01*
X103556572Y-94442917D01*
X103222271Y-94581389D01*
X103166590Y-94811984D01*
X92392000Y-94811984D01*
X92392000Y-85274016D01*
X103166590Y-85274016D01*
X103222271Y-85504611D01*
X103705078Y-85672622D01*
X104215428Y-85643083D01*
X104549729Y-85504611D01*
X104605410Y-85274016D01*
X103886000Y-84554605D01*
X103166590Y-85274016D01*
X92392000Y-85274016D01*
X92392000Y-84194078D01*
X102588378Y-84194078D01*
X102617917Y-84704428D01*
X102756389Y-85038729D01*
X102986984Y-85094410D01*
X103706395Y-84375000D01*
X104065605Y-84375000D01*
X104785016Y-85094410D01*
X105015611Y-85038729D01*
X105183622Y-84555922D01*
X105154083Y-84045572D01*
X105015611Y-83711271D01*
X104785016Y-83655590D01*
X104065605Y-84375000D01*
X103706395Y-84375000D01*
X102986984Y-83655590D01*
X102756389Y-83711271D01*
X102588378Y-84194078D01*
X92392000Y-84194078D01*
X92392000Y-83475984D01*
X103166590Y-83475984D01*
X103886000Y-84195395D01*
X104605410Y-83475984D01*
X104549729Y-83245389D01*
X104066922Y-83077378D01*
X103556572Y-83106917D01*
X103222271Y-83245389D01*
X103166590Y-83475984D01*
X92392000Y-83475984D01*
X92392000Y-78725000D01*
X102341819Y-78725000D01*
X102341819Y-80025000D01*
X102402971Y-80349997D01*
X102595044Y-80648486D01*
X102888114Y-80848732D01*
X103236000Y-80919181D01*
X103482809Y-80919181D01*
X104944314Y-82380686D01*
X105391045Y-82679182D01*
X105918000Y-82784000D01*
X109919628Y-82784000D01*
X111163742Y-84028114D01*
X110828182Y-84252328D01*
X110744000Y-84378315D01*
X110659818Y-84252328D01*
X110115760Y-83888800D01*
X109474000Y-83761146D01*
X108832240Y-83888800D01*
X108288182Y-84252328D01*
X107924654Y-84796386D01*
X107797000Y-85438146D01*
X107797000Y-85503854D01*
X107924654Y-86145614D01*
X108288182Y-86689672D01*
X108832240Y-87053200D01*
X108849484Y-87056630D01*
X109071417Y-87204921D01*
X109474000Y-87285000D01*
X109876583Y-87204921D01*
X110098516Y-87056630D01*
X110115760Y-87053200D01*
X110659818Y-86689672D01*
X110744000Y-86563685D01*
X110828182Y-86689672D01*
X111372240Y-87053200D01*
X112014000Y-87180854D01*
X112655760Y-87053200D01*
X113199818Y-86689672D01*
X113284000Y-86563685D01*
X113368182Y-86689672D01*
X113597577Y-86842949D01*
X115155781Y-88401153D01*
X114554000Y-88281452D01*
X113926782Y-88406213D01*
X113395052Y-88761504D01*
X113284000Y-88927705D01*
X113172948Y-88761504D01*
X112641218Y-88406213D01*
X112014000Y-88281452D01*
X111386782Y-88406213D01*
X110954885Y-88694798D01*
X110876956Y-88573694D01*
X110583886Y-88373448D01*
X110236000Y-88302999D01*
X108712000Y-88302999D01*
X108387003Y-88364151D01*
X108088514Y-88556224D01*
X107888268Y-88849294D01*
X107817819Y-89197180D01*
X107817819Y-91396820D01*
X107878971Y-91721817D01*
X108071044Y-92020306D01*
X108364114Y-92220552D01*
X108712000Y-92291001D01*
X110236000Y-92291001D01*
X110560997Y-92229849D01*
X110859486Y-92037776D01*
X110954394Y-91898874D01*
X111386782Y-92187787D01*
X112014000Y-92312548D01*
X112641218Y-92187787D01*
X113172948Y-91832496D01*
X113284000Y-91666295D01*
X113395052Y-91832496D01*
X113926782Y-92187787D01*
X114554000Y-92312548D01*
X115181218Y-92187787D01*
X115712948Y-91832496D01*
X115824000Y-91666295D01*
X115935052Y-91832496D01*
X116466782Y-92187787D01*
X117094000Y-92312548D01*
X117721218Y-92187787D01*
X118252948Y-91832496D01*
X118364000Y-91666295D01*
X118475052Y-91832496D01*
X119006782Y-92187787D01*
X119634000Y-92312548D01*
X120261218Y-92187787D01*
X120792948Y-91832496D01*
X121148239Y-91300766D01*
X121273000Y-90673548D01*
X121273000Y-89920452D01*
X121148239Y-89293234D01*
X120956983Y-89007000D01*
X121349628Y-89007000D01*
X122919204Y-90576576D01*
X122955000Y-90756536D01*
X123242566Y-91186910D01*
X123672940Y-91474476D01*
X124180600Y-91575456D01*
X124688260Y-91474476D01*
X125070676Y-91218954D01*
X125156665Y-91260981D01*
X125323600Y-91134068D01*
X125323600Y-90880156D01*
X125406200Y-90756536D01*
X125450600Y-90533322D01*
X125495000Y-90756536D01*
X125577600Y-90880156D01*
X125577600Y-91134068D01*
X125744535Y-91260981D01*
X125830524Y-91218954D01*
X126212940Y-91474476D01*
X126720600Y-91575456D01*
X127228260Y-91474476D01*
X127658634Y-91186910D01*
X127946200Y-90756536D01*
X128047180Y-90248876D01*
X128047180Y-90074750D01*
X129329180Y-90074750D01*
X129329180Y-90677309D01*
X129425853Y-90910698D01*
X129604481Y-91089327D01*
X129837870Y-91186000D01*
X130778250Y-91186000D01*
X130937000Y-91027250D01*
X130937000Y-89916000D01*
X129487930Y-89916000D01*
X129329180Y-90074750D01*
X128047180Y-90074750D01*
X128047180Y-89583124D01*
X127946200Y-89075464D01*
X127658634Y-88645090D01*
X127228260Y-88357524D01*
X126720600Y-88256544D01*
X126212940Y-88357524D01*
X125830524Y-88613046D01*
X125744535Y-88571019D01*
X125577600Y-88697932D01*
X125577600Y-88951844D01*
X125495000Y-89075464D01*
X125450600Y-89298678D01*
X125406200Y-89075464D01*
X125323600Y-88951844D01*
X125323600Y-88697932D01*
X125156665Y-88571019D01*
X125070676Y-88613046D01*
X124688260Y-88357524D01*
X124571713Y-88334341D01*
X123100389Y-86863017D01*
X123359818Y-86689672D01*
X123444000Y-86563685D01*
X123528182Y-86689672D01*
X124072240Y-87053200D01*
X124714000Y-87180854D01*
X125355760Y-87053200D01*
X125899818Y-86689672D01*
X126263346Y-86145614D01*
X126391000Y-85503854D01*
X126391000Y-85438146D01*
X126263346Y-84796386D01*
X125899818Y-84252328D01*
X125355760Y-83888800D01*
X124714000Y-83761146D01*
X124072240Y-83888800D01*
X123528182Y-84252328D01*
X123444000Y-84378315D01*
X123359818Y-84252328D01*
X122815760Y-83888800D01*
X122174000Y-83761146D01*
X121532240Y-83888800D01*
X120988182Y-84252328D01*
X120904000Y-84378315D01*
X120819818Y-84252328D01*
X120275760Y-83888800D01*
X119634000Y-83761146D01*
X118992240Y-83888800D01*
X118448182Y-84252328D01*
X118364000Y-84378315D01*
X118279818Y-84252328D01*
X117735760Y-83888800D01*
X117094000Y-83761146D01*
X116452240Y-83888800D01*
X115908182Y-84252328D01*
X115824000Y-84378315D01*
X115739818Y-84252328D01*
X115195760Y-83888800D01*
X114850494Y-83820122D01*
X111463686Y-80433314D01*
X111016955Y-80134818D01*
X110490000Y-80030000D01*
X106488372Y-80030000D01*
X105430181Y-78971809D01*
X105430181Y-78725000D01*
X105369029Y-78400003D01*
X105176956Y-78101514D01*
X104883886Y-77901268D01*
X104536000Y-77830819D01*
X103236000Y-77830819D01*
X102911003Y-77891971D01*
X102612514Y-78084044D01*
X102412268Y-78377114D01*
X102341819Y-78725000D01*
X92392000Y-78725000D01*
X92392000Y-77818146D01*
X107797000Y-77818146D01*
X107797000Y-77883854D01*
X107924654Y-78525614D01*
X108288182Y-79069672D01*
X108832240Y-79433200D01*
X109474000Y-79560854D01*
X110115760Y-79433200D01*
X110659818Y-79069672D01*
X110744000Y-78943685D01*
X110828182Y-79069672D01*
X111372240Y-79433200D01*
X112014000Y-79560854D01*
X112655760Y-79433200D01*
X113199818Y-79069672D01*
X113427223Y-78729336D01*
X113816577Y-79082041D01*
X114204961Y-79242904D01*
X114427000Y-79120915D01*
X114427000Y-77978000D01*
X114407000Y-77978000D01*
X114407000Y-77724000D01*
X114427000Y-77724000D01*
X114427000Y-76581085D01*
X114681000Y-76581085D01*
X114681000Y-77724000D01*
X114701000Y-77724000D01*
X114701000Y-77978000D01*
X114681000Y-77978000D01*
X114681000Y-79120915D01*
X114903039Y-79242904D01*
X115291423Y-79082041D01*
X115680777Y-78729336D01*
X115908182Y-79069672D01*
X116452240Y-79433200D01*
X117094000Y-79560854D01*
X117735760Y-79433200D01*
X118279818Y-79069672D01*
X118364000Y-78943685D01*
X118448182Y-79069672D01*
X118992240Y-79433200D01*
X119634000Y-79560854D01*
X120275760Y-79433200D01*
X120819818Y-79069672D01*
X120904000Y-78943685D01*
X120988182Y-79069672D01*
X121532240Y-79433200D01*
X122174000Y-79560854D01*
X122815760Y-79433200D01*
X123359818Y-79069672D01*
X123444000Y-78943685D01*
X123528182Y-79069672D01*
X124072240Y-79433200D01*
X124714000Y-79560854D01*
X125355760Y-79433200D01*
X125899818Y-79069672D01*
X126263346Y-78525614D01*
X126391000Y-77883854D01*
X126391000Y-77818146D01*
X126273219Y-77226016D01*
X129154590Y-77226016D01*
X129210271Y-77456611D01*
X129693078Y-77624622D01*
X130203428Y-77595083D01*
X130537729Y-77456611D01*
X130593410Y-77226016D01*
X129874000Y-76506605D01*
X129154590Y-77226016D01*
X126273219Y-77226016D01*
X126263346Y-77176386D01*
X125899818Y-76632328D01*
X125355760Y-76268800D01*
X124714000Y-76141146D01*
X124072240Y-76268800D01*
X123528182Y-76632328D01*
X123444000Y-76758315D01*
X123359818Y-76632328D01*
X122815760Y-76268800D01*
X122174000Y-76141146D01*
X121532240Y-76268800D01*
X120988182Y-76632328D01*
X120904000Y-76758315D01*
X120819818Y-76632328D01*
X120275760Y-76268800D01*
X119634000Y-76141146D01*
X118992240Y-76268800D01*
X118448182Y-76632328D01*
X118364000Y-76758315D01*
X118279818Y-76632328D01*
X117735760Y-76268800D01*
X117094000Y-76141146D01*
X116452240Y-76268800D01*
X115908182Y-76632328D01*
X115680777Y-76972664D01*
X115291423Y-76619959D01*
X114903039Y-76459096D01*
X114681000Y-76581085D01*
X114427000Y-76581085D01*
X114204961Y-76459096D01*
X113816577Y-76619959D01*
X113427223Y-76972664D01*
X113199818Y-76632328D01*
X112655760Y-76268800D01*
X112014000Y-76141146D01*
X111372240Y-76268800D01*
X110828182Y-76632328D01*
X110744000Y-76758315D01*
X110659818Y-76632328D01*
X110115760Y-76268800D01*
X109474000Y-76141146D01*
X108832240Y-76268800D01*
X108288182Y-76632328D01*
X107924654Y-77176386D01*
X107797000Y-77818146D01*
X92392000Y-77818146D01*
X92392000Y-71926450D01*
X107817819Y-71926450D01*
X107817819Y-74123550D01*
X107878971Y-74448547D01*
X108071044Y-74747036D01*
X108364114Y-74947282D01*
X108712000Y-75017731D01*
X110236000Y-75017731D01*
X110560997Y-74956579D01*
X110859486Y-74764506D01*
X110954405Y-74625587D01*
X111386782Y-74914492D01*
X112014000Y-75039253D01*
X112641218Y-74914492D01*
X113172948Y-74559201D01*
X113284000Y-74393000D01*
X113395052Y-74559201D01*
X113926782Y-74914492D01*
X114554000Y-75039253D01*
X115181218Y-74914492D01*
X115712948Y-74559201D01*
X115824000Y-74393000D01*
X115935052Y-74559201D01*
X116466782Y-74914492D01*
X117094000Y-75039253D01*
X117721218Y-74914492D01*
X118252948Y-74559201D01*
X118364000Y-74393000D01*
X118475052Y-74559201D01*
X119006782Y-74914492D01*
X119634000Y-75039253D01*
X120261218Y-74914492D01*
X120792948Y-74559201D01*
X120904000Y-74393000D01*
X121015052Y-74559201D01*
X121546782Y-74914492D01*
X122174000Y-75039253D01*
X122189431Y-75036183D01*
X122700124Y-75546876D01*
X123041417Y-75774921D01*
X123444000Y-75855000D01*
X128677670Y-75855000D01*
X128576378Y-76146078D01*
X128605917Y-76656428D01*
X128744389Y-76990729D01*
X128974984Y-77046410D01*
X129694395Y-76327000D01*
X129680252Y-76312858D01*
X129859858Y-76133253D01*
X129874000Y-76147395D01*
X129888143Y-76133253D01*
X130067748Y-76312858D01*
X130053605Y-76327000D01*
X130773016Y-77046410D01*
X131003611Y-76990729D01*
X131171622Y-76507922D01*
X131142083Y-75997572D01*
X131083028Y-75855000D01*
X131826000Y-75855000D01*
X132228583Y-75774921D01*
X132569876Y-75546876D01*
X133163771Y-74952981D01*
X133598222Y-75039399D01*
X133400268Y-75329114D01*
X133329819Y-75677000D01*
X133329819Y-76977000D01*
X133390971Y-77301997D01*
X133583044Y-77600486D01*
X133876114Y-77800732D01*
X134224000Y-77871181D01*
X135524000Y-77871181D01*
X135848997Y-77810029D01*
X136147486Y-77617956D01*
X136347732Y-77324886D01*
X136418181Y-76977000D01*
X136418181Y-75677000D01*
X136357029Y-75352003D01*
X136164956Y-75053514D01*
X136145533Y-75040243D01*
X136771218Y-74915787D01*
X137302948Y-74560496D01*
X137414000Y-74394295D01*
X137525052Y-74560496D01*
X138056782Y-74915787D01*
X138684000Y-75040548D01*
X139311218Y-74915787D01*
X139842948Y-74560496D01*
X139912208Y-74456841D01*
X139923673Y-74484519D01*
X140102302Y-74663147D01*
X140335691Y-74759820D01*
X140938250Y-74759820D01*
X141097000Y-74601070D01*
X141097000Y-73152000D01*
X141351000Y-73152000D01*
X141351000Y-74601070D01*
X141509750Y-74759820D01*
X142112309Y-74759820D01*
X142345698Y-74663147D01*
X142524327Y-74484519D01*
X142621000Y-74251130D01*
X142621000Y-73310750D01*
X142462250Y-73152000D01*
X141351000Y-73152000D01*
X141097000Y-73152000D01*
X141077000Y-73152000D01*
X141077000Y-72898000D01*
X141097000Y-72898000D01*
X141097000Y-71448930D01*
X140938250Y-71290180D01*
X140335691Y-71290180D01*
X140102302Y-71386853D01*
X139923673Y-71565481D01*
X139912208Y-71593159D01*
X139842948Y-71489504D01*
X139311218Y-71134213D01*
X138684000Y-71009452D01*
X138243771Y-71097019D01*
X136887876Y-69741124D01*
X136546583Y-69513079D01*
X136144000Y-69433000D01*
X114554000Y-69433000D01*
X114151417Y-69513079D01*
X113810123Y-69741124D01*
X112453149Y-71098099D01*
X112014000Y-71010747D01*
X111386782Y-71135508D01*
X110954896Y-71424085D01*
X110876956Y-71302964D01*
X110583886Y-71102718D01*
X110236000Y-71032269D01*
X108712000Y-71032269D01*
X108387003Y-71093421D01*
X108088514Y-71285494D01*
X107888268Y-71578564D01*
X107817819Y-71926450D01*
X92392000Y-71926450D01*
X92392000Y-46355969D01*
X98933004Y-46355969D01*
X99060004Y-62992969D01*
X99070386Y-63042302D01*
X99099144Y-63083708D01*
X99141745Y-63110663D01*
X99187000Y-63119000D01*
X99219656Y-63119000D01*
X99149938Y-63223341D01*
X98969000Y-64132980D01*
X98969000Y-65913000D01*
X99149938Y-66822639D01*
X99665207Y-67593793D01*
X100436361Y-68109062D01*
X101346000Y-68290000D01*
X102255639Y-68109062D01*
X103026793Y-67593793D01*
X103542062Y-66822639D01*
X103544175Y-66812016D01*
X104126590Y-66812016D01*
X104182271Y-67042611D01*
X104665078Y-67210622D01*
X105175428Y-67181083D01*
X105509729Y-67042611D01*
X105565410Y-66812016D01*
X104846000Y-66092605D01*
X104126590Y-66812016D01*
X103544175Y-66812016D01*
X103631663Y-66372183D01*
X103716389Y-66576729D01*
X103946984Y-66632410D01*
X104666395Y-65913000D01*
X105025605Y-65913000D01*
X105745016Y-66632410D01*
X105975611Y-66576729D01*
X106143622Y-66093922D01*
X106140502Y-66040000D01*
X109104430Y-66040000D01*
X109104430Y-66539110D01*
X109258501Y-67059677D01*
X109600056Y-67481658D01*
X110077097Y-67740810D01*
X110148725Y-67754993D01*
X110363000Y-67632339D01*
X110363000Y-66040000D01*
X109104430Y-66040000D01*
X106140502Y-66040000D01*
X106114083Y-65583572D01*
X105991194Y-65286890D01*
X109104430Y-65286890D01*
X109104430Y-65786000D01*
X110363000Y-65786000D01*
X110363000Y-64193661D01*
X110148725Y-64071007D01*
X110077097Y-64085190D01*
X109600056Y-64344342D01*
X109258501Y-64766323D01*
X109104430Y-65286890D01*
X105991194Y-65286890D01*
X105975611Y-65249271D01*
X105745016Y-65193590D01*
X105025605Y-65913000D01*
X104666395Y-65913000D01*
X103946984Y-65193590D01*
X103723000Y-65247675D01*
X103723000Y-65117566D01*
X103826582Y-65013984D01*
X104126590Y-65013984D01*
X104846000Y-65733395D01*
X105565410Y-65013984D01*
X105509729Y-64783389D01*
X105026922Y-64615378D01*
X104516572Y-64644917D01*
X104182271Y-64783389D01*
X104126590Y-65013984D01*
X103826582Y-65013984D01*
X105721566Y-63119000D01*
X111153000Y-63119000D01*
X111153000Y-64221055D01*
X110902903Y-64085190D01*
X110831275Y-64071007D01*
X110617000Y-64193661D01*
X110617000Y-65786000D01*
X110637000Y-65786000D01*
X110637000Y-66040000D01*
X110617000Y-66040000D01*
X110617000Y-67632339D01*
X110831275Y-67754993D01*
X110902903Y-67740810D01*
X111379944Y-67481658D01*
X111608382Y-67199430D01*
X111879134Y-67604640D01*
X112407156Y-67957453D01*
X113030000Y-68081344D01*
X113652844Y-67957453D01*
X114180866Y-67604640D01*
X114300000Y-67426343D01*
X114419134Y-67604640D01*
X114947156Y-67957453D01*
X115570000Y-68081344D01*
X116192844Y-67957453D01*
X116720866Y-67604640D01*
X117073679Y-67076618D01*
X117197570Y-66453774D01*
X117197570Y-65372226D01*
X117073679Y-64749382D01*
X116720866Y-64221360D01*
X116192844Y-63868547D01*
X115570000Y-63744656D01*
X114947156Y-63868547D01*
X114907000Y-63895378D01*
X114907000Y-63642478D01*
X115430478Y-63119000D01*
X120051000Y-63119000D01*
X120051000Y-65913000D01*
X120231938Y-66822639D01*
X120747207Y-67593793D01*
X121518361Y-68109062D01*
X122428000Y-68290000D01*
X123337639Y-68109062D01*
X124108793Y-67593793D01*
X124624062Y-66822639D01*
X124626175Y-66812016D01*
X125208590Y-66812016D01*
X125264271Y-67042611D01*
X125747078Y-67210622D01*
X126257428Y-67181083D01*
X126591729Y-67042611D01*
X126647410Y-66812016D01*
X125928000Y-66092605D01*
X125208590Y-66812016D01*
X124626175Y-66812016D01*
X124713663Y-66372183D01*
X124798389Y-66576729D01*
X125028984Y-66632410D01*
X125748395Y-65913000D01*
X126107605Y-65913000D01*
X126827016Y-66632410D01*
X127057611Y-66576729D01*
X127225622Y-66093922D01*
X127222502Y-66040000D01*
X130186430Y-66040000D01*
X130186430Y-66539110D01*
X130340501Y-67059677D01*
X130682056Y-67481658D01*
X131159097Y-67740810D01*
X131230725Y-67754993D01*
X131445000Y-67632339D01*
X131445000Y-66040000D01*
X130186430Y-66040000D01*
X127222502Y-66040000D01*
X127196083Y-65583572D01*
X127073194Y-65286890D01*
X130186430Y-65286890D01*
X130186430Y-65786000D01*
X131445000Y-65786000D01*
X131445000Y-64193661D01*
X131230725Y-64071007D01*
X131159097Y-64085190D01*
X130682056Y-64344342D01*
X130340501Y-64766323D01*
X130186430Y-65286890D01*
X127073194Y-65286890D01*
X127057611Y-65249271D01*
X126827016Y-65193590D01*
X126107605Y-65913000D01*
X125748395Y-65913000D01*
X125028984Y-65193590D01*
X124805000Y-65247675D01*
X124805000Y-65013984D01*
X125208590Y-65013984D01*
X125928000Y-65733395D01*
X126647410Y-65013984D01*
X126591729Y-64783389D01*
X126108922Y-64615378D01*
X125598572Y-64644917D01*
X125264271Y-64783389D01*
X125208590Y-65013984D01*
X124805000Y-65013984D01*
X124805000Y-63119000D01*
X132235000Y-63119000D01*
X132235000Y-64221055D01*
X131984903Y-64085190D01*
X131913275Y-64071007D01*
X131699000Y-64193661D01*
X131699000Y-65786000D01*
X131719000Y-65786000D01*
X131719000Y-66040000D01*
X131699000Y-66040000D01*
X131699000Y-67632339D01*
X131913275Y-67754993D01*
X131984903Y-67740810D01*
X132461944Y-67481658D01*
X132690382Y-67199430D01*
X132961134Y-67604640D01*
X133489156Y-67957453D01*
X134112000Y-68081344D01*
X134734844Y-67957453D01*
X135262866Y-67604640D01*
X135382000Y-67426343D01*
X135501134Y-67604640D01*
X136029156Y-67957453D01*
X136652000Y-68081344D01*
X137274844Y-67957453D01*
X137802866Y-67604640D01*
X138155679Y-67076618D01*
X138279570Y-66453774D01*
X138279570Y-65372226D01*
X138155679Y-64749382D01*
X137802866Y-64221360D01*
X137274844Y-63868547D01*
X136652000Y-63744656D01*
X136029156Y-63868547D01*
X135989000Y-63895378D01*
X135989000Y-63119000D01*
X139863000Y-63119000D01*
X139863000Y-65913000D01*
X140043938Y-66822639D01*
X140559207Y-67593793D01*
X140863000Y-67796781D01*
X140863000Y-69469000D01*
X140967818Y-69995955D01*
X141266314Y-70442686D01*
X142114868Y-71291240D01*
X142112309Y-71290180D01*
X141509750Y-71290180D01*
X141351000Y-71448930D01*
X141351000Y-72898000D01*
X142462250Y-72898000D01*
X142621000Y-72739250D01*
X142621000Y-71798870D01*
X142619941Y-71796313D01*
X142895000Y-72071372D01*
X142895000Y-78476018D01*
X142657661Y-78238264D01*
X142058049Y-77989284D01*
X141408799Y-77988717D01*
X140808754Y-78236651D01*
X140672017Y-78373149D01*
X140587956Y-78242514D01*
X140294886Y-78042268D01*
X139947000Y-77971819D01*
X138437000Y-77971819D01*
X138112003Y-78032971D01*
X137813514Y-78225044D01*
X137613268Y-78518114D01*
X137542819Y-78866000D01*
X137542819Y-80298429D01*
X136425367Y-81415881D01*
X136154201Y-81010052D01*
X135988000Y-80899000D01*
X136154201Y-80787948D01*
X136509492Y-80256218D01*
X136634253Y-79629000D01*
X136509492Y-79001782D01*
X136154201Y-78470052D01*
X135622471Y-78114761D01*
X134995253Y-77990000D01*
X134244747Y-77990000D01*
X133617529Y-78114761D01*
X133085799Y-78470052D01*
X132842648Y-78833954D01*
X132599496Y-78470052D01*
X132067766Y-78114761D01*
X131440548Y-77990000D01*
X130687452Y-77990000D01*
X130060234Y-78114761D01*
X129528504Y-78470052D01*
X129173213Y-79001782D01*
X129048452Y-79629000D01*
X129173213Y-80256218D01*
X129528504Y-80787948D01*
X129694705Y-80899000D01*
X129528504Y-81010052D01*
X129173213Y-81541782D01*
X129048452Y-82169000D01*
X129173213Y-82796218D01*
X129528504Y-83327948D01*
X129694705Y-83439000D01*
X129528504Y-83550052D01*
X129173213Y-84081782D01*
X129048452Y-84709000D01*
X129173213Y-85336218D01*
X129528504Y-85867948D01*
X129694705Y-85979000D01*
X129528504Y-86090052D01*
X129173213Y-86621782D01*
X129048452Y-87249000D01*
X129173213Y-87876218D01*
X129528504Y-88407948D01*
X129632159Y-88477208D01*
X129604481Y-88488673D01*
X129425853Y-88667302D01*
X129329180Y-88900691D01*
X129329180Y-89503250D01*
X129487930Y-89662000D01*
X130937000Y-89662000D01*
X130937000Y-89642000D01*
X131191000Y-89642000D01*
X131191000Y-89662000D01*
X131211000Y-89662000D01*
X131211000Y-89916000D01*
X131191000Y-89916000D01*
X131191000Y-91027250D01*
X131349750Y-91186000D01*
X131790000Y-91186000D01*
X131790000Y-91893247D01*
X130320124Y-93363124D01*
X130092079Y-93704417D01*
X130060597Y-93862689D01*
X130060234Y-93862761D01*
X129528504Y-94218052D01*
X129173213Y-94749782D01*
X129048452Y-95377000D01*
X129173213Y-96004218D01*
X129528504Y-96535948D01*
X129694705Y-96647000D01*
X129528504Y-96758052D01*
X129173213Y-97289782D01*
X129048452Y-97917000D01*
X129173213Y-98544218D01*
X129528504Y-99075948D01*
X129694705Y-99187000D01*
X129528504Y-99298052D01*
X129173213Y-99829782D01*
X129048452Y-100457000D01*
X129173213Y-101084218D01*
X129528504Y-101615948D01*
X129694705Y-101727000D01*
X129528504Y-101838052D01*
X129173213Y-102369782D01*
X129048452Y-102997000D01*
X129091815Y-103215000D01*
X125444279Y-103215000D01*
X125451423Y-103212041D01*
X125866389Y-102836134D01*
X126105914Y-102330041D01*
X125984629Y-102108000D01*
X124841000Y-102108000D01*
X124841000Y-102128000D01*
X124587000Y-102128000D01*
X124587000Y-102108000D01*
X124567000Y-102108000D01*
X124567000Y-101854000D01*
X124587000Y-101854000D01*
X124587000Y-100711085D01*
X124841000Y-100711085D01*
X124841000Y-101854000D01*
X125984629Y-101854000D01*
X126105914Y-101631959D01*
X125866389Y-101125866D01*
X125451423Y-100749959D01*
X125063039Y-100589096D01*
X124841000Y-100711085D01*
X124587000Y-100711085D01*
X124496000Y-100661089D01*
X124496000Y-100638752D01*
X125457876Y-99676876D01*
X125685921Y-99335583D01*
X125707326Y-99227971D01*
X125766000Y-98933000D01*
X125766000Y-95669086D01*
X125899818Y-95579672D01*
X126263346Y-95035614D01*
X126391000Y-94393854D01*
X126391000Y-94328146D01*
X126263346Y-93686386D01*
X125899818Y-93142328D01*
X125355760Y-92778800D01*
X124714000Y-92651146D01*
X124072240Y-92778800D01*
X123528182Y-93142328D01*
X123444000Y-93268315D01*
X123359818Y-93142328D01*
X122815760Y-92778800D01*
X122174000Y-92651146D01*
X121532240Y-92778800D01*
X120988182Y-93142328D01*
X120904000Y-93268315D01*
X120819818Y-93142328D01*
X120275760Y-92778800D01*
X119634000Y-92651146D01*
X118992240Y-92778800D01*
X118448182Y-93142328D01*
X118364000Y-93268315D01*
X118279818Y-93142328D01*
X117735760Y-92778800D01*
X117094000Y-92651146D01*
X116452240Y-92778800D01*
X115908182Y-93142328D01*
X115824000Y-93268315D01*
X115739818Y-93142328D01*
X115195760Y-92778800D01*
X114554000Y-92651146D01*
X113912240Y-92778800D01*
X113368182Y-93142328D01*
X113284000Y-93268315D01*
X113199818Y-93142328D01*
X112655760Y-92778800D01*
X112014000Y-92651146D01*
X111372240Y-92778800D01*
X110828182Y-93142328D01*
X110744000Y-93268315D01*
X110659818Y-93142328D01*
X110115760Y-92778800D01*
X109474000Y-92651146D01*
X108832240Y-92778800D01*
X108288182Y-93142328D01*
X107924654Y-93686386D01*
X107797000Y-94328146D01*
X107797000Y-94393854D01*
X107924654Y-95035614D01*
X108288182Y-95579672D01*
X108832240Y-95943200D01*
X109474000Y-96070854D01*
X110115760Y-95943200D01*
X110659818Y-95579672D01*
X110744000Y-95453685D01*
X110828182Y-95579672D01*
X111372240Y-95943200D01*
X112014000Y-96070854D01*
X112655760Y-95943200D01*
X113199818Y-95579672D01*
X113284000Y-95453685D01*
X113368182Y-95579672D01*
X113912240Y-95943200D01*
X114554000Y-96070854D01*
X115195760Y-95943200D01*
X115739818Y-95579672D01*
X115824000Y-95453685D01*
X115908182Y-95579672D01*
X116452240Y-95943200D01*
X117094000Y-96070854D01*
X117735760Y-95943200D01*
X118279818Y-95579672D01*
X118364000Y-95453685D01*
X118448182Y-95579672D01*
X118992240Y-95943200D01*
X119634000Y-96070854D01*
X120275760Y-95943200D01*
X120819818Y-95579672D01*
X120904000Y-95453685D01*
X120988182Y-95579672D01*
X121532240Y-95943200D01*
X122174000Y-96070854D01*
X122815760Y-95943200D01*
X123359818Y-95579672D01*
X123444000Y-95453685D01*
X123528182Y-95579672D01*
X123662000Y-95669086D01*
X123662000Y-98497248D01*
X122700124Y-99459124D01*
X122472079Y-99800417D01*
X122392000Y-100203000D01*
X122392000Y-100314509D01*
X122174000Y-100271146D01*
X121532240Y-100398800D01*
X120988182Y-100762328D01*
X120904000Y-100888315D01*
X120819818Y-100762328D01*
X120275760Y-100398800D01*
X119634000Y-100271146D01*
X118992240Y-100398800D01*
X118448182Y-100762328D01*
X118364000Y-100888315D01*
X118279818Y-100762328D01*
X117735760Y-100398800D01*
X117094000Y-100271146D01*
X116452240Y-100398800D01*
X115908182Y-100762328D01*
X115680777Y-101102664D01*
X115291423Y-100749959D01*
X114903039Y-100589096D01*
X114681000Y-100711085D01*
X114681000Y-101854000D01*
X114701000Y-101854000D01*
X114701000Y-102108000D01*
X114681000Y-102108000D01*
X114681000Y-103250915D01*
X114903039Y-103372904D01*
X115291423Y-103212041D01*
X115680777Y-102859336D01*
X115908182Y-103199672D01*
X116452240Y-103563200D01*
X117094000Y-103690854D01*
X117735760Y-103563200D01*
X118279818Y-103199672D01*
X118364000Y-103073685D01*
X118448182Y-103199672D01*
X118992240Y-103563200D01*
X119634000Y-103690854D01*
X120275760Y-103563200D01*
X120819818Y-103199672D01*
X120904000Y-103073685D01*
X120988182Y-103199672D01*
X121532240Y-103563200D01*
X122174000Y-103690854D01*
X122467866Y-103632401D01*
X122472079Y-103653583D01*
X122700124Y-103994876D01*
X123716124Y-105010876D01*
X124057417Y-105238921D01*
X124460000Y-105319000D01*
X125709819Y-105319000D01*
X125709819Y-105882000D01*
X123494525Y-105882000D01*
X123551622Y-105717922D01*
X123522083Y-105207572D01*
X123383611Y-104873271D01*
X123153016Y-104817590D01*
X122433605Y-105537000D01*
X122447748Y-105551143D01*
X122268143Y-105730748D01*
X122254000Y-105716605D01*
X122239858Y-105730748D01*
X122060253Y-105551143D01*
X122074395Y-105537000D01*
X121354984Y-104817590D01*
X121124389Y-104873271D01*
X120956378Y-105356078D01*
X120985917Y-105866428D01*
X120992367Y-105882000D01*
X116263666Y-105882000D01*
X116294600Y-105726486D01*
X116294600Y-105347514D01*
X116162105Y-104681415D01*
X116133086Y-104637984D01*
X121534590Y-104637984D01*
X122254000Y-105357395D01*
X122973410Y-104637984D01*
X122917729Y-104407389D01*
X122434922Y-104239378D01*
X121924572Y-104268917D01*
X121590271Y-104407389D01*
X121534590Y-104637984D01*
X116133086Y-104637984D01*
X115784790Y-104116724D01*
X115220099Y-103739409D01*
X114554000Y-103606914D01*
X113887901Y-103739409D01*
X113323210Y-104116724D01*
X113284000Y-104175406D01*
X113244790Y-104116724D01*
X112680099Y-103739409D01*
X112224998Y-103648884D01*
X112655760Y-103563200D01*
X113199818Y-103199672D01*
X113427223Y-102859336D01*
X113816577Y-103212041D01*
X114204961Y-103372904D01*
X114427000Y-103250915D01*
X114427000Y-102108000D01*
X114407000Y-102108000D01*
X114407000Y-101854000D01*
X114427000Y-101854000D01*
X114427000Y-100711085D01*
X114204961Y-100589096D01*
X113816577Y-100749959D01*
X113427223Y-101102664D01*
X113199818Y-100762328D01*
X112655760Y-100398800D01*
X112014000Y-100271146D01*
X111372240Y-100398800D01*
X110828182Y-100762328D01*
X110600777Y-101102664D01*
X110211423Y-100749959D01*
X109823039Y-100589096D01*
X109601000Y-100711085D01*
X109601000Y-101854000D01*
X109621000Y-101854000D01*
X109621000Y-102108000D01*
X109601000Y-102108000D01*
X109601000Y-103250915D01*
X109823039Y-103372904D01*
X110211423Y-103212041D01*
X110600777Y-102859336D01*
X110828182Y-103199672D01*
X111372240Y-103563200D01*
X111803002Y-103648884D01*
X111347901Y-103739409D01*
X110783210Y-104116724D01*
X110744000Y-104175406D01*
X110704790Y-104116724D01*
X110140099Y-103739409D01*
X109474000Y-103606914D01*
X108807901Y-103739409D01*
X108478464Y-103959532D01*
X108438556Y-103897514D01*
X108145486Y-103697268D01*
X107797600Y-103626819D01*
X106070400Y-103626819D01*
X105745403Y-103687971D01*
X105446914Y-103880044D01*
X105263000Y-104149211D01*
X105263000Y-102330041D01*
X108082086Y-102330041D01*
X108321611Y-102836134D01*
X108736577Y-103212041D01*
X109124961Y-103372904D01*
X109347000Y-103250915D01*
X109347000Y-102108000D01*
X108203371Y-102108000D01*
X108082086Y-102330041D01*
X105263000Y-102330041D01*
X105263000Y-101850458D01*
X105359732Y-101708886D01*
X105375310Y-101631959D01*
X108082086Y-101631959D01*
X108203371Y-101854000D01*
X109347000Y-101854000D01*
X109347000Y-100711085D01*
X109124961Y-100589096D01*
X108736577Y-100749959D01*
X108321611Y-101125866D01*
X108082086Y-101631959D01*
X105375310Y-101631959D01*
X105430181Y-101361000D01*
X105430181Y-100061000D01*
X105369029Y-99736003D01*
X105176956Y-99437514D01*
X104883886Y-99237268D01*
X104536000Y-99166819D01*
X103236000Y-99166819D01*
X102911003Y-99227971D01*
X102612514Y-99420044D01*
X102412268Y-99713114D01*
X102341819Y-100061000D01*
X102341819Y-101361000D01*
X102402971Y-101685997D01*
X102509000Y-101850770D01*
X102509000Y-118658581D01*
X102468819Y-118857000D01*
X102468819Y-120157000D01*
X102529971Y-120481997D01*
X102722044Y-120780486D01*
X103015114Y-120980732D01*
X103363000Y-121051181D01*
X104663000Y-121051181D01*
X104987997Y-120990029D01*
X105286486Y-120797956D01*
X105486732Y-120504886D01*
X105557181Y-120157000D01*
X105557181Y-118857000D01*
X105496029Y-118532003D01*
X105390000Y-118367230D01*
X105390000Y-117410372D01*
X107504372Y-115296000D01*
X122111628Y-115296000D01*
X122681777Y-115866149D01*
X122174000Y-115765146D01*
X121532240Y-115892800D01*
X120988182Y-116256328D01*
X120904000Y-116382315D01*
X120819818Y-116256328D01*
X120275760Y-115892800D01*
X119634000Y-115765146D01*
X118992240Y-115892800D01*
X118448182Y-116256328D01*
X118364000Y-116382315D01*
X118279818Y-116256328D01*
X117735760Y-115892800D01*
X117094000Y-115765146D01*
X116452240Y-115892800D01*
X115908182Y-116256328D01*
X115824000Y-116382315D01*
X115739818Y-116256328D01*
X115195760Y-115892800D01*
X114554000Y-115765146D01*
X113912240Y-115892800D01*
X113368182Y-116256328D01*
X113284000Y-116382315D01*
X113199818Y-116256328D01*
X112655760Y-115892800D01*
X112014000Y-115765146D01*
X111372240Y-115892800D01*
X110828182Y-116256328D01*
X110744000Y-116382315D01*
X110659818Y-116256328D01*
X110115760Y-115892800D01*
X109474000Y-115765146D01*
X108832240Y-115892800D01*
X108288182Y-116256328D01*
X107924654Y-116800386D01*
X107797000Y-117442146D01*
X107797000Y-117507854D01*
X107924654Y-118149614D01*
X108288182Y-118693672D01*
X108832240Y-119057200D01*
X109474000Y-119184854D01*
X110115760Y-119057200D01*
X110659818Y-118693672D01*
X110744000Y-118567685D01*
X110828182Y-118693672D01*
X111372240Y-119057200D01*
X112014000Y-119184854D01*
X112655760Y-119057200D01*
X113199818Y-118693672D01*
X113284000Y-118567685D01*
X113368182Y-118693672D01*
X113912240Y-119057200D01*
X114554000Y-119184854D01*
X115195760Y-119057200D01*
X115739818Y-118693672D01*
X115824000Y-118567685D01*
X115908182Y-118693672D01*
X116452240Y-119057200D01*
X117094000Y-119184854D01*
X117735760Y-119057200D01*
X118279818Y-118693672D01*
X118364000Y-118567685D01*
X118448182Y-118693672D01*
X118992240Y-119057200D01*
X119634000Y-119184854D01*
X120275760Y-119057200D01*
X120819818Y-118693672D01*
X120904000Y-118567685D01*
X120988182Y-118693672D01*
X121532240Y-119057200D01*
X122174000Y-119184854D01*
X122815760Y-119057200D01*
X123359818Y-118693672D01*
X123444000Y-118567685D01*
X123528182Y-118693672D01*
X124072240Y-119057200D01*
X124714000Y-119184854D01*
X125355760Y-119057200D01*
X125899818Y-118693672D01*
X126127223Y-118353336D01*
X126516577Y-118706041D01*
X126904961Y-118866904D01*
X127127000Y-118744915D01*
X127127000Y-117602000D01*
X127107000Y-117602000D01*
X127107000Y-117348000D01*
X127127000Y-117348000D01*
X127127000Y-116205085D01*
X127381000Y-116205085D01*
X127381000Y-117348000D01*
X127401000Y-117348000D01*
X127401000Y-117602000D01*
X127381000Y-117602000D01*
X127381000Y-118744915D01*
X127603039Y-118866904D01*
X127991423Y-118706041D01*
X128380777Y-118353336D01*
X128608182Y-118693672D01*
X129152240Y-119057200D01*
X129794000Y-119184854D01*
X130435760Y-119057200D01*
X130979818Y-118693672D01*
X131064000Y-118567685D01*
X131148182Y-118693672D01*
X131692240Y-119057200D01*
X132334000Y-119184854D01*
X132975760Y-119057200D01*
X133519818Y-118693672D01*
X133604000Y-118567685D01*
X133688182Y-118693672D01*
X134232240Y-119057200D01*
X134874000Y-119184854D01*
X135515760Y-119057200D01*
X136059818Y-118693672D01*
X136144000Y-118567685D01*
X136228182Y-118693672D01*
X136772240Y-119057200D01*
X137414000Y-119184854D01*
X138055760Y-119057200D01*
X138599818Y-118693672D01*
X138684000Y-118567685D01*
X138768182Y-118693672D01*
X139312240Y-119057200D01*
X139954000Y-119184854D01*
X140595760Y-119057200D01*
X141139818Y-118693672D01*
X141224000Y-118567685D01*
X141308182Y-118693672D01*
X141852240Y-119057200D01*
X142494000Y-119184854D01*
X143135760Y-119057200D01*
X143679818Y-118693672D01*
X144043346Y-118149614D01*
X144171000Y-117507854D01*
X144171000Y-117442146D01*
X144048243Y-116825000D01*
X146664819Y-116825000D01*
X146664819Y-118125000D01*
X146725971Y-118449997D01*
X146918044Y-118748486D01*
X147211114Y-118948732D01*
X147559000Y-119019181D01*
X148859000Y-119019181D01*
X149183997Y-118958029D01*
X149482486Y-118765956D01*
X149682732Y-118472886D01*
X149753181Y-118125000D01*
X149753181Y-116825000D01*
X149692029Y-116500003D01*
X149499956Y-116201514D01*
X149206886Y-116001268D01*
X148912098Y-115941572D01*
X148928410Y-115874016D01*
X148209000Y-115154605D01*
X147489590Y-115874016D01*
X147505726Y-115940843D01*
X147234003Y-115991971D01*
X146935514Y-116184044D01*
X146735268Y-116477114D01*
X146664819Y-116825000D01*
X144048243Y-116825000D01*
X144043346Y-116800386D01*
X143679818Y-116256328D01*
X143135760Y-115892800D01*
X142494000Y-115765146D01*
X141852240Y-115892800D01*
X141308182Y-116256328D01*
X141224000Y-116382315D01*
X141139818Y-116256328D01*
X140595760Y-115892800D01*
X139954000Y-115765146D01*
X139312240Y-115892800D01*
X138768182Y-116256328D01*
X138684000Y-116382315D01*
X138599818Y-116256328D01*
X138055760Y-115892800D01*
X137414000Y-115765146D01*
X136772240Y-115892800D01*
X136228182Y-116256328D01*
X136144000Y-116382315D01*
X136059818Y-116256328D01*
X135515760Y-115892800D01*
X134874000Y-115765146D01*
X134232240Y-115892800D01*
X133688182Y-116256328D01*
X133604000Y-116382315D01*
X133519818Y-116256328D01*
X132975760Y-115892800D01*
X132334000Y-115765146D01*
X131692240Y-115892800D01*
X131148182Y-116256328D01*
X131064000Y-116382315D01*
X130979818Y-116256328D01*
X130435760Y-115892800D01*
X129794000Y-115765146D01*
X129152240Y-115892800D01*
X128608182Y-116256328D01*
X128380777Y-116596664D01*
X127991423Y-116243959D01*
X127603039Y-116083096D01*
X127381000Y-116205085D01*
X127127000Y-116205085D01*
X126904961Y-116083096D01*
X126516577Y-116243959D01*
X126127223Y-116596664D01*
X126091000Y-116542452D01*
X126091000Y-115951000D01*
X125986182Y-115424045D01*
X125687686Y-114977314D01*
X125504450Y-114794078D01*
X146911378Y-114794078D01*
X146940917Y-115304428D01*
X147079389Y-115638729D01*
X147309984Y-115694410D01*
X148029395Y-114975000D01*
X148388605Y-114975000D01*
X149108016Y-115694410D01*
X149338611Y-115638729D01*
X149506622Y-115155922D01*
X149501186Y-115062000D01*
X151519890Y-115062000D01*
X151519890Y-115816380D01*
X151674154Y-116337919D01*
X152016260Y-116760724D01*
X152494125Y-117020427D01*
X152566326Y-117034783D01*
X152781000Y-116912162D01*
X152781000Y-115062000D01*
X151519890Y-115062000D01*
X149501186Y-115062000D01*
X149477083Y-114645572D01*
X149338611Y-114311271D01*
X149108016Y-114255590D01*
X148388605Y-114975000D01*
X148029395Y-114975000D01*
X147309984Y-114255590D01*
X147079389Y-114311271D01*
X146911378Y-114794078D01*
X125504450Y-114794078D01*
X124786356Y-114075984D01*
X147489590Y-114075984D01*
X148209000Y-114795395D01*
X148928410Y-114075984D01*
X148923010Y-114053620D01*
X151519890Y-114053620D01*
X151519890Y-114808000D01*
X152781000Y-114808000D01*
X152781000Y-112957838D01*
X152566326Y-112835217D01*
X152494125Y-112849573D01*
X152016260Y-113109276D01*
X151674154Y-113532081D01*
X151519890Y-114053620D01*
X148923010Y-114053620D01*
X148872729Y-113845389D01*
X148389922Y-113677378D01*
X147879572Y-113706917D01*
X147545271Y-113845389D01*
X147489590Y-114075984D01*
X124786356Y-114075984D01*
X123655686Y-112945314D01*
X123208955Y-112646818D01*
X122682000Y-112542000D01*
X106934000Y-112542000D01*
X106407045Y-112646818D01*
X105960314Y-112945314D01*
X105263000Y-113642628D01*
X105263000Y-106917825D01*
X105429444Y-107176486D01*
X105722514Y-107376732D01*
X106070400Y-107447181D01*
X107797600Y-107447181D01*
X108122597Y-107386029D01*
X108421086Y-107193956D01*
X108476359Y-107113061D01*
X108807901Y-107334591D01*
X109474000Y-107467086D01*
X110140099Y-107334591D01*
X110704790Y-106957276D01*
X110744000Y-106898594D01*
X110783210Y-106957276D01*
X111347901Y-107334591D01*
X112014000Y-107467086D01*
X112680099Y-107334591D01*
X113244790Y-106957276D01*
X113284000Y-106898594D01*
X113323210Y-106957276D01*
X113716120Y-107219811D01*
X113582079Y-107420417D01*
X113502000Y-107823000D01*
X113502000Y-108546914D01*
X113368182Y-108636328D01*
X113284000Y-108762315D01*
X113199818Y-108636328D01*
X112655760Y-108272800D01*
X112014000Y-108145146D01*
X111372240Y-108272800D01*
X110828182Y-108636328D01*
X110744000Y-108762315D01*
X110659818Y-108636328D01*
X110115760Y-108272800D01*
X109474000Y-108145146D01*
X108832240Y-108272800D01*
X108288182Y-108636328D01*
X107924654Y-109180386D01*
X107797000Y-109822146D01*
X107797000Y-109887854D01*
X107924654Y-110529614D01*
X108288182Y-111073672D01*
X108832240Y-111437200D01*
X109474000Y-111564854D01*
X110115760Y-111437200D01*
X110659818Y-111073672D01*
X110744000Y-110947685D01*
X110828182Y-111073672D01*
X111372240Y-111437200D01*
X112014000Y-111564854D01*
X112655760Y-111437200D01*
X113199818Y-111073672D01*
X113284000Y-110947685D01*
X113368182Y-111073672D01*
X113912240Y-111437200D01*
X114554000Y-111564854D01*
X115195760Y-111437200D01*
X115739818Y-111073672D01*
X115824000Y-110947685D01*
X115908182Y-111073672D01*
X116452240Y-111437200D01*
X117094000Y-111564854D01*
X117735760Y-111437200D01*
X118279818Y-111073672D01*
X118364000Y-110947685D01*
X118448182Y-111073672D01*
X118992240Y-111437200D01*
X119634000Y-111564854D01*
X120275760Y-111437200D01*
X120819818Y-111073672D01*
X120904000Y-110947685D01*
X120988182Y-111073672D01*
X121532240Y-111437200D01*
X122174000Y-111564854D01*
X122815760Y-111437200D01*
X123359818Y-111073672D01*
X123587223Y-110733336D01*
X123976577Y-111086041D01*
X124364961Y-111246904D01*
X124587000Y-111124915D01*
X124587000Y-109982000D01*
X124567000Y-109982000D01*
X124567000Y-109728000D01*
X124587000Y-109728000D01*
X124587000Y-109708000D01*
X124841000Y-109708000D01*
X124841000Y-109728000D01*
X124861000Y-109728000D01*
X124861000Y-109982000D01*
X124841000Y-109982000D01*
X124841000Y-111124915D01*
X125063039Y-111246904D01*
X125451423Y-111086041D01*
X125840777Y-110733336D01*
X126068182Y-111073672D01*
X126612240Y-111437200D01*
X127254000Y-111564854D01*
X127895760Y-111437200D01*
X128417000Y-111088919D01*
X128417000Y-111252000D01*
X128521818Y-111778955D01*
X128820314Y-112225686D01*
X129582314Y-112987686D01*
X130029045Y-113286182D01*
X130556000Y-113391000D01*
X150114000Y-113391000D01*
X150640955Y-113286182D01*
X151087686Y-112987686D01*
X153311191Y-110764181D01*
X153558000Y-110764181D01*
X153882997Y-110703029D01*
X154181486Y-110510956D01*
X154381732Y-110217886D01*
X154401398Y-110120770D01*
X156611000Y-112330372D01*
X156611000Y-112996715D01*
X156600662Y-112981243D01*
X156071816Y-112627880D01*
X155448000Y-112503795D01*
X154824184Y-112627880D01*
X154295338Y-112981243D01*
X154024327Y-113386840D01*
X153799740Y-113109276D01*
X153321875Y-112849573D01*
X153249674Y-112835217D01*
X153035000Y-112957838D01*
X153035000Y-114808000D01*
X153055000Y-114808000D01*
X153055000Y-115062000D01*
X153035000Y-115062000D01*
X153035000Y-116912162D01*
X153249674Y-117034783D01*
X153321875Y-117020427D01*
X153799740Y-116760724D01*
X154024327Y-116483160D01*
X154295338Y-116888757D01*
X154824184Y-117242120D01*
X155448000Y-117366205D01*
X156071816Y-117242120D01*
X156600662Y-116888757D01*
X156718000Y-116713148D01*
X156835338Y-116888757D01*
X157364184Y-117242120D01*
X157988000Y-117366205D01*
X158611816Y-117242120D01*
X159140662Y-116888757D01*
X159494025Y-116359911D01*
X159618110Y-115736095D01*
X159618110Y-114133905D01*
X159561150Y-113847544D01*
X168522571Y-113847544D01*
X168898877Y-114758275D01*
X169595060Y-115455674D01*
X170505133Y-115833569D01*
X171490544Y-115834429D01*
X172401275Y-115458123D01*
X173098674Y-114761940D01*
X173476569Y-113851867D01*
X173477429Y-112866456D01*
X173101123Y-111955725D01*
X172404940Y-111258326D01*
X171494867Y-110880431D01*
X170509456Y-110879571D01*
X169598725Y-111255877D01*
X168901326Y-111952060D01*
X168523431Y-112862133D01*
X168522571Y-113847544D01*
X159561150Y-113847544D01*
X159494025Y-113510089D01*
X159365000Y-113316989D01*
X159365000Y-111760000D01*
X159260182Y-111233045D01*
X158961686Y-110786314D01*
X158538675Y-110363303D01*
X158571729Y-110349611D01*
X158627410Y-110119016D01*
X157908000Y-109399605D01*
X157893858Y-109413748D01*
X157714252Y-109234142D01*
X157728395Y-109220000D01*
X158087605Y-109220000D01*
X158807016Y-109939410D01*
X159037611Y-109883729D01*
X159205622Y-109400922D01*
X159176083Y-108890572D01*
X159037611Y-108556271D01*
X158807016Y-108500590D01*
X158087605Y-109220000D01*
X157728395Y-109220000D01*
X157008984Y-108500590D01*
X156778389Y-108556271D01*
X156766321Y-108590949D01*
X156496356Y-108320984D01*
X157188590Y-108320984D01*
X157908000Y-109040395D01*
X158627410Y-108320984D01*
X158571729Y-108090389D01*
X158088922Y-107922378D01*
X157578572Y-107951917D01*
X157244271Y-108090389D01*
X157188590Y-108320984D01*
X156496356Y-108320984D01*
X155555000Y-107379628D01*
X155555000Y-106922570D01*
X155575002Y-106922570D01*
X155575002Y-106755070D01*
X155741935Y-106881981D01*
X155827924Y-106839954D01*
X156210340Y-107095476D01*
X156718000Y-107196456D01*
X157225660Y-107095476D01*
X157497259Y-106914000D01*
X158115000Y-106914000D01*
X158641955Y-106809182D01*
X159088686Y-106510686D01*
X162644686Y-102954686D01*
X162943182Y-102507955D01*
X163048000Y-101981000D01*
X163048000Y-101881940D01*
X163621619Y-101881940D01*
X163621619Y-105382060D01*
X163682771Y-105707057D01*
X163874844Y-106005546D01*
X164167914Y-106205792D01*
X164515800Y-106276241D01*
X168015920Y-106276241D01*
X168340917Y-106215089D01*
X168639406Y-106023016D01*
X168839652Y-105729946D01*
X168910101Y-105382060D01*
X168910101Y-103917750D01*
X169880280Y-103917750D01*
X169880280Y-105508370D01*
X169976953Y-105741759D01*
X170155582Y-105920387D01*
X170388971Y-106017060D01*
X171979590Y-106017060D01*
X172138340Y-105858310D01*
X172138340Y-103759000D01*
X172392340Y-103759000D01*
X172392340Y-105858310D01*
X172551090Y-106017060D01*
X174141709Y-106017060D01*
X174375098Y-105920387D01*
X174553727Y-105741759D01*
X174650400Y-105508370D01*
X174650400Y-103917750D01*
X174491650Y-103759000D01*
X172392340Y-103759000D01*
X172138340Y-103759000D01*
X170039030Y-103759000D01*
X169880280Y-103917750D01*
X168910101Y-103917750D01*
X168910101Y-101881940D01*
X168848949Y-101556943D01*
X168695232Y-101318060D01*
X168979850Y-101318060D01*
X169138600Y-101159310D01*
X169138600Y-99060000D01*
X169392600Y-99060000D01*
X169392600Y-101159310D01*
X169551350Y-101318060D01*
X170217272Y-101318060D01*
X170155582Y-101343613D01*
X169976953Y-101522241D01*
X169880280Y-101755630D01*
X169880280Y-103346250D01*
X170039030Y-103505000D01*
X172138340Y-103505000D01*
X172138340Y-101405690D01*
X172392340Y-101405690D01*
X172392340Y-103505000D01*
X174491650Y-103505000D01*
X174650400Y-103346250D01*
X174650400Y-101755630D01*
X174553727Y-101522241D01*
X174375098Y-101343613D01*
X174141709Y-101246940D01*
X172551090Y-101246940D01*
X172392340Y-101405690D01*
X172138340Y-101405690D01*
X171979590Y-101246940D01*
X171313668Y-101246940D01*
X171375358Y-101221387D01*
X171553987Y-101042759D01*
X171650660Y-100809370D01*
X171650660Y-99218750D01*
X171491910Y-99060000D01*
X169392600Y-99060000D01*
X169138600Y-99060000D01*
X167039290Y-99060000D01*
X166880540Y-99218750D01*
X166880540Y-100809370D01*
X166954431Y-100987759D01*
X164515800Y-100987759D01*
X164190803Y-101048911D01*
X163892314Y-101240984D01*
X163692068Y-101534054D01*
X163621619Y-101881940D01*
X163048000Y-101881940D01*
X163048000Y-97056630D01*
X166880540Y-97056630D01*
X166880540Y-98647250D01*
X167039290Y-98806000D01*
X169138600Y-98806000D01*
X169138600Y-96706690D01*
X169392600Y-96706690D01*
X169392600Y-98806000D01*
X171491910Y-98806000D01*
X171650660Y-98647250D01*
X171650660Y-97056630D01*
X171553987Y-96823241D01*
X171375358Y-96644613D01*
X171141969Y-96547940D01*
X169551350Y-96547940D01*
X169392600Y-96706690D01*
X169138600Y-96706690D01*
X168979850Y-96547940D01*
X167389231Y-96547940D01*
X167155842Y-96644613D01*
X166977213Y-96823241D01*
X166880540Y-97056630D01*
X163048000Y-97056630D01*
X163048000Y-92013968D01*
X163809895Y-92013968D01*
X164121597Y-92768345D01*
X164698260Y-93346015D01*
X165452091Y-93659033D01*
X166268328Y-93659745D01*
X167022705Y-93348043D01*
X167600375Y-92771380D01*
X167913393Y-92017549D01*
X167913396Y-92013968D01*
X168889895Y-92013968D01*
X169201597Y-92768345D01*
X169778260Y-93346015D01*
X170532091Y-93659033D01*
X171348328Y-93659745D01*
X172102705Y-93348043D01*
X172680375Y-92771380D01*
X172993393Y-92017549D01*
X172994105Y-91201312D01*
X172682403Y-90446935D01*
X172105740Y-89869265D01*
X171351909Y-89556247D01*
X170535672Y-89555535D01*
X169781295Y-89867237D01*
X169203625Y-90443900D01*
X168890607Y-91197731D01*
X168889895Y-92013968D01*
X167913396Y-92013968D01*
X167914105Y-91201312D01*
X167602403Y-90446935D01*
X167025740Y-89869265D01*
X166271909Y-89556247D01*
X165455672Y-89555535D01*
X164701295Y-89867237D01*
X164123625Y-90443900D01*
X163810607Y-91197731D01*
X163809895Y-92013968D01*
X163048000Y-92013968D01*
X163048000Y-81026000D01*
X162943182Y-80499045D01*
X162644686Y-80052314D01*
X161162878Y-78570506D01*
X161094200Y-78225240D01*
X160730672Y-77681182D01*
X160186614Y-77317654D01*
X159544854Y-77190000D01*
X159479146Y-77190000D01*
X158837386Y-77317654D01*
X158293328Y-77681182D01*
X157929800Y-78225240D01*
X157802146Y-78867000D01*
X157929800Y-79508760D01*
X158293328Y-80052818D01*
X158419315Y-80137000D01*
X158293328Y-80221182D01*
X157929800Y-80765240D01*
X157890179Y-80964427D01*
X153461376Y-76535624D01*
X153120083Y-76307579D01*
X152717500Y-76227500D01*
X151320500Y-76227500D01*
X150917917Y-76307579D01*
X150576623Y-76535624D01*
X149624124Y-77488124D01*
X149396079Y-77829417D01*
X149316000Y-78232000D01*
X149316000Y-86432248D01*
X148557324Y-87190924D01*
X148329279Y-87532217D01*
X148249200Y-87934800D01*
X148249200Y-93874447D01*
X145904145Y-96219502D01*
X145904283Y-96061799D01*
X145656349Y-95461754D01*
X145197661Y-95002264D01*
X144598049Y-94753284D01*
X143948799Y-94752717D01*
X143348754Y-95000651D01*
X143001797Y-95347002D01*
X142657661Y-95002264D01*
X142058049Y-94753284D01*
X141408799Y-94752717D01*
X140808754Y-95000651D01*
X140672017Y-95137149D01*
X140587956Y-95006514D01*
X140294886Y-94806268D01*
X139947000Y-94735819D01*
X138437000Y-94735819D01*
X138112003Y-94796971D01*
X137813514Y-94989044D01*
X137613268Y-95282114D01*
X137542819Y-95630000D01*
X137542819Y-97140000D01*
X137603971Y-97464997D01*
X137796044Y-97763486D01*
X138089114Y-97963732D01*
X138437000Y-98034181D01*
X139947000Y-98034181D01*
X140271997Y-97973029D01*
X140570486Y-97780956D01*
X140671685Y-97632846D01*
X140806339Y-97767736D01*
X141232539Y-97944709D01*
X138982219Y-100195029D01*
X138829124Y-100297324D01*
X138079594Y-101046854D01*
X137942956Y-100834514D01*
X137649886Y-100634268D01*
X137302000Y-100563819D01*
X136002000Y-100563819D01*
X135677003Y-100624971D01*
X135378514Y-100817044D01*
X135233209Y-101029706D01*
X135018106Y-100814227D01*
X134457072Y-100581265D01*
X133849593Y-100580735D01*
X133288154Y-100812717D01*
X132858227Y-101241894D01*
X132625265Y-101802928D01*
X132625201Y-101876522D01*
X132599496Y-101838052D01*
X132433295Y-101727000D01*
X132599496Y-101615948D01*
X132954787Y-101084218D01*
X133079548Y-100457000D01*
X132954787Y-99829782D01*
X132599496Y-99298052D01*
X132433295Y-99187000D01*
X132599496Y-99075948D01*
X132834903Y-98723636D01*
X132880494Y-98794486D01*
X133173564Y-98994732D01*
X133521450Y-99065181D01*
X135718550Y-99065181D01*
X136043547Y-99004029D01*
X136342036Y-98811956D01*
X136542282Y-98518886D01*
X136612731Y-98171000D01*
X136612731Y-96647000D01*
X136551579Y-96322003D01*
X136359506Y-96023514D01*
X136220587Y-95928595D01*
X136509492Y-95496218D01*
X136634253Y-94869000D01*
X136509492Y-94241782D01*
X136154201Y-93710052D01*
X135988000Y-93599000D01*
X136154201Y-93487948D01*
X136509492Y-92956218D01*
X136634253Y-92329000D01*
X136509492Y-91701782D01*
X136154201Y-91170052D01*
X135988000Y-91059000D01*
X136154201Y-90947948D01*
X136509492Y-90416218D01*
X136634253Y-89789000D01*
X136509492Y-89161782D01*
X136154201Y-88630052D01*
X135988000Y-88519000D01*
X136154201Y-88407948D01*
X136509492Y-87876218D01*
X136634253Y-87249000D01*
X136509492Y-86621782D01*
X136154201Y-86090052D01*
X135988000Y-85979000D01*
X136154201Y-85867948D01*
X136509492Y-85336218D01*
X136634253Y-84709000D01*
X136541834Y-84244377D01*
X136633876Y-84182876D01*
X139546571Y-81270181D01*
X139947000Y-81270181D01*
X140271997Y-81209029D01*
X140570486Y-81016956D01*
X140671685Y-80868846D01*
X140806339Y-81003736D01*
X141405951Y-81252716D01*
X142055201Y-81253283D01*
X142655246Y-81005349D01*
X142895000Y-80766013D01*
X142895000Y-84064018D01*
X142657661Y-83826264D01*
X142058049Y-83577284D01*
X141408799Y-83576717D01*
X140808754Y-83824651D01*
X140672017Y-83961149D01*
X140587956Y-83830514D01*
X140294886Y-83630268D01*
X139947000Y-83559819D01*
X138437000Y-83559819D01*
X138112003Y-83620971D01*
X137813514Y-83813044D01*
X137613268Y-84106114D01*
X137542819Y-84454000D01*
X137542819Y-85964000D01*
X137603971Y-86288997D01*
X137796044Y-86587486D01*
X138089114Y-86787732D01*
X138437000Y-86858181D01*
X139947000Y-86858181D01*
X140271997Y-86797029D01*
X140570486Y-86604956D01*
X140671685Y-86456846D01*
X140806339Y-86591736D01*
X141405951Y-86840716D01*
X142055201Y-86841283D01*
X142655246Y-86593349D01*
X142895000Y-86354013D01*
X142895000Y-89652018D01*
X142657661Y-89414264D01*
X142058049Y-89165284D01*
X141408799Y-89164717D01*
X140808754Y-89412651D01*
X140672017Y-89549149D01*
X140587956Y-89418514D01*
X140294886Y-89218268D01*
X139947000Y-89147819D01*
X138437000Y-89147819D01*
X138112003Y-89208971D01*
X137813514Y-89401044D01*
X137613268Y-89694114D01*
X137542819Y-90042000D01*
X137542819Y-91552000D01*
X137603971Y-91876997D01*
X137796044Y-92175486D01*
X138089114Y-92375732D01*
X138437000Y-92446181D01*
X139947000Y-92446181D01*
X140271997Y-92385029D01*
X140570486Y-92192956D01*
X140671685Y-92044846D01*
X140806339Y-92179736D01*
X141405951Y-92428716D01*
X142055201Y-92429283D01*
X142655246Y-92181349D01*
X143002203Y-91834998D01*
X143346339Y-92179736D01*
X143945951Y-92428716D01*
X144236657Y-92428970D01*
X144272000Y-92436000D01*
X144307034Y-92429031D01*
X144595201Y-92429283D01*
X145195246Y-92181349D01*
X145654736Y-91722661D01*
X145903716Y-91123049D01*
X145904283Y-90473799D01*
X145656349Y-89873754D01*
X145649000Y-89866392D01*
X145649000Y-86140387D01*
X145654736Y-86134661D01*
X145903716Y-85535049D01*
X145904283Y-84885799D01*
X145656349Y-84285754D01*
X145649000Y-84278392D01*
X145649000Y-80552387D01*
X145654736Y-80546661D01*
X145903716Y-79947049D01*
X145904283Y-79297799D01*
X145656349Y-78697754D01*
X145649000Y-78690392D01*
X145649000Y-73924016D01*
X152268590Y-73924016D01*
X152324271Y-74154611D01*
X152807078Y-74322622D01*
X153317428Y-74293083D01*
X153651729Y-74154611D01*
X153707410Y-73924016D01*
X152988000Y-73204605D01*
X152268590Y-73924016D01*
X145649000Y-73924016D01*
X145649000Y-72844078D01*
X151690378Y-72844078D01*
X151719917Y-73354428D01*
X151858389Y-73688729D01*
X152088984Y-73744410D01*
X152808395Y-73025000D01*
X153167605Y-73025000D01*
X153887016Y-73744410D01*
X154117611Y-73688729D01*
X154285622Y-73205922D01*
X154256083Y-72695572D01*
X154123298Y-72375000D01*
X156443819Y-72375000D01*
X156443819Y-73675000D01*
X156504971Y-73999997D01*
X156697044Y-74298486D01*
X156990114Y-74498732D01*
X157338000Y-74569181D01*
X158638000Y-74569181D01*
X158962997Y-74508029D01*
X159261486Y-74315956D01*
X159461732Y-74022886D01*
X159532181Y-73675000D01*
X159532181Y-72375000D01*
X159471029Y-72050003D01*
X159278956Y-71751514D01*
X158985886Y-71551268D01*
X158638000Y-71480819D01*
X157338000Y-71480819D01*
X157013003Y-71541971D01*
X156714514Y-71734044D01*
X156514268Y-72027114D01*
X156443819Y-72375000D01*
X154123298Y-72375000D01*
X154117611Y-72361271D01*
X153887016Y-72305590D01*
X153167605Y-73025000D01*
X152808395Y-73025000D01*
X152088984Y-72305590D01*
X151858389Y-72361271D01*
X151690378Y-72844078D01*
X145649000Y-72844078D01*
X145649000Y-72125984D01*
X152268590Y-72125984D01*
X152988000Y-72845395D01*
X153707410Y-72125984D01*
X153651729Y-71895389D01*
X153168922Y-71727378D01*
X152658572Y-71756917D01*
X152324271Y-71895389D01*
X152268590Y-72125984D01*
X145649000Y-72125984D01*
X145649000Y-71501000D01*
X145544182Y-70974045D01*
X145245686Y-70527314D01*
X143617000Y-68898628D01*
X143617000Y-67796781D01*
X143920793Y-67593793D01*
X144436062Y-66822639D01*
X144438175Y-66812016D01*
X145020590Y-66812016D01*
X145076271Y-67042611D01*
X145559078Y-67210622D01*
X146069428Y-67181083D01*
X146403729Y-67042611D01*
X146459410Y-66812016D01*
X145740000Y-66092605D01*
X145020590Y-66812016D01*
X144438175Y-66812016D01*
X144525663Y-66372183D01*
X144610389Y-66576729D01*
X144840984Y-66632410D01*
X145560395Y-65913000D01*
X145919605Y-65913000D01*
X146639016Y-66632410D01*
X146869611Y-66576729D01*
X147037622Y-66093922D01*
X147034502Y-66040000D01*
X149998430Y-66040000D01*
X149998430Y-66539110D01*
X150152501Y-67059677D01*
X150494056Y-67481658D01*
X150971097Y-67740810D01*
X151042725Y-67754993D01*
X151257000Y-67632339D01*
X151257000Y-66040000D01*
X149998430Y-66040000D01*
X147034502Y-66040000D01*
X147008083Y-65583572D01*
X146885194Y-65286890D01*
X149998430Y-65286890D01*
X149998430Y-65786000D01*
X151257000Y-65786000D01*
X151257000Y-64193661D01*
X151042725Y-64071007D01*
X150971097Y-64085190D01*
X150494056Y-64344342D01*
X150152501Y-64766323D01*
X149998430Y-65286890D01*
X146885194Y-65286890D01*
X146869611Y-65249271D01*
X146639016Y-65193590D01*
X145919605Y-65913000D01*
X145560395Y-65913000D01*
X144840984Y-65193590D01*
X144617000Y-65247675D01*
X144617000Y-65013984D01*
X145020590Y-65013984D01*
X145740000Y-65733395D01*
X146459410Y-65013984D01*
X146403729Y-64783389D01*
X145920922Y-64615378D01*
X145410572Y-64644917D01*
X145076271Y-64783389D01*
X145020590Y-65013984D01*
X144617000Y-65013984D01*
X144617000Y-63119000D01*
X152047000Y-63119000D01*
X152047000Y-64221055D01*
X151796903Y-64085190D01*
X151725275Y-64071007D01*
X151511000Y-64193661D01*
X151511000Y-65786000D01*
X151531000Y-65786000D01*
X151531000Y-66040000D01*
X151511000Y-66040000D01*
X151511000Y-67632339D01*
X151725275Y-67754993D01*
X151796903Y-67740810D01*
X152273944Y-67481658D01*
X152502382Y-67199430D01*
X152773134Y-67604640D01*
X153301156Y-67957453D01*
X153924000Y-68081344D01*
X154546844Y-67957453D01*
X155074866Y-67604640D01*
X155194000Y-67426343D01*
X155313134Y-67604640D01*
X155841156Y-67957453D01*
X156464000Y-68081344D01*
X157086844Y-67957453D01*
X157614866Y-67604640D01*
X157967679Y-67076618D01*
X158091570Y-66453774D01*
X158091570Y-65372226D01*
X157967679Y-64749382D01*
X157614866Y-64221360D01*
X157086844Y-63868547D01*
X156464000Y-63744656D01*
X155841156Y-63868547D01*
X155801000Y-63895378D01*
X155801000Y-63119000D01*
X159675000Y-63119000D01*
X159675000Y-66675000D01*
X159855938Y-67584639D01*
X160371207Y-68355793D01*
X163485000Y-71469586D01*
X163485000Y-76286360D01*
X163665938Y-77195999D01*
X164181207Y-77967153D01*
X164952361Y-78482422D01*
X165862000Y-78663360D01*
X170942000Y-78663360D01*
X171851639Y-78482422D01*
X172622793Y-77967153D01*
X173138062Y-77195999D01*
X173319000Y-76286360D01*
X173138062Y-75376721D01*
X172622793Y-74605567D01*
X171851639Y-74090298D01*
X170942000Y-73909360D01*
X168239000Y-73909360D01*
X168239000Y-70485000D01*
X168058062Y-69575361D01*
X167542793Y-68804207D01*
X165908468Y-67169882D01*
X166215729Y-67042611D01*
X166271410Y-66812016D01*
X165552000Y-66092605D01*
X165537858Y-66106748D01*
X165358252Y-65927142D01*
X165372395Y-65913000D01*
X165731605Y-65913000D01*
X166451016Y-66632410D01*
X166681611Y-66576729D01*
X166849622Y-66093922D01*
X166846502Y-66040000D01*
X169810430Y-66040000D01*
X169810430Y-66539110D01*
X169964501Y-67059677D01*
X170306056Y-67481658D01*
X170783097Y-67740810D01*
X170854725Y-67754993D01*
X171069000Y-67632339D01*
X171069000Y-66040000D01*
X169810430Y-66040000D01*
X166846502Y-66040000D01*
X166820083Y-65583572D01*
X166697194Y-65286890D01*
X169810430Y-65286890D01*
X169810430Y-65786000D01*
X171069000Y-65786000D01*
X171069000Y-64193661D01*
X170854725Y-64071007D01*
X170783097Y-64085190D01*
X170306056Y-64344342D01*
X169964501Y-64766323D01*
X169810430Y-65286890D01*
X166697194Y-65286890D01*
X166681611Y-65249271D01*
X166451016Y-65193590D01*
X165731605Y-65913000D01*
X165372395Y-65913000D01*
X164652984Y-65193590D01*
X164429000Y-65247675D01*
X164429000Y-65013984D01*
X164832590Y-65013984D01*
X165552000Y-65733395D01*
X166271410Y-65013984D01*
X166215729Y-64783389D01*
X165732922Y-64615378D01*
X165222572Y-64644917D01*
X164888271Y-64783389D01*
X164832590Y-65013984D01*
X164429000Y-65013984D01*
X164429000Y-63119000D01*
X171846581Y-63119000D01*
X171859000Y-63131419D01*
X171859000Y-64221055D01*
X171608903Y-64085190D01*
X171537275Y-64071007D01*
X171323000Y-64193661D01*
X171323000Y-65786000D01*
X171343000Y-65786000D01*
X171343000Y-66040000D01*
X171323000Y-66040000D01*
X171323000Y-67632339D01*
X171537275Y-67754993D01*
X171608903Y-67740810D01*
X172085944Y-67481658D01*
X172314382Y-67199430D01*
X172585134Y-67604640D01*
X173113156Y-67957453D01*
X173736000Y-68081344D01*
X174358844Y-67957453D01*
X174886866Y-67604640D01*
X175006000Y-67426343D01*
X175125134Y-67604640D01*
X175653156Y-67957453D01*
X176276000Y-68081344D01*
X176898844Y-67957453D01*
X177426866Y-67604640D01*
X177779679Y-67076618D01*
X177903570Y-66453774D01*
X177903570Y-65372226D01*
X177779679Y-64749382D01*
X177426866Y-64221360D01*
X176898844Y-63868547D01*
X176276000Y-63744656D01*
X175653156Y-63868547D01*
X175613000Y-63895378D01*
X175613000Y-62353940D01*
X175470122Y-61635643D01*
X175376664Y-61495773D01*
X175063239Y-61026700D01*
X172942815Y-58906277D01*
X172846996Y-46354031D01*
X172836614Y-46304698D01*
X172807856Y-46263292D01*
X172765255Y-46236337D01*
X172720000Y-46228000D01*
X171933722Y-46228000D01*
X171811269Y-46095751D01*
X171781600Y-46074233D01*
X171761239Y-46043760D01*
X169728605Y-44011127D01*
X170505133Y-44333569D01*
X171490544Y-44334429D01*
X172401275Y-43958123D01*
X173098674Y-43261940D01*
X173476569Y-42351867D01*
X173477429Y-41366456D01*
X173101123Y-40455725D01*
X172404940Y-39758326D01*
X171494867Y-39380431D01*
X170509456Y-39379571D01*
X169598725Y-39755877D01*
X168901326Y-40452060D01*
X168523431Y-41362133D01*
X168522571Y-42347544D01*
X168844746Y-43127267D01*
X167659000Y-41941522D01*
X167659000Y-37406043D01*
X167755486Y-37343956D01*
X167955732Y-37050886D01*
X168026181Y-36703000D01*
X168026181Y-34163000D01*
X167965029Y-33838003D01*
X167772956Y-33539514D01*
X167479886Y-33339268D01*
X167132000Y-33268819D01*
X164592000Y-33268819D01*
X164267003Y-33329971D01*
X163968514Y-33522044D01*
X163768268Y-33815114D01*
X163697819Y-34163000D01*
X163697819Y-36703000D01*
X163758971Y-37027997D01*
X163905000Y-37254932D01*
X163905000Y-42719000D01*
X164021351Y-43303937D01*
X164047878Y-43437297D01*
X164064384Y-43462000D01*
X162659000Y-43462000D01*
X162659000Y-36511271D01*
X162928626Y-35861938D01*
X162929372Y-35007809D01*
X162603199Y-34218411D01*
X161999766Y-33613923D01*
X161210938Y-33286374D01*
X160356809Y-33285628D01*
X159567411Y-33611801D01*
X158962923Y-34215234D01*
X158635374Y-35004062D01*
X158634628Y-35858191D01*
X158905000Y-36512540D01*
X158905000Y-45339000D01*
X158905507Y-45341548D01*
X158905185Y-45710619D01*
X159047367Y-46054726D01*
X159047878Y-46057297D01*
X159049322Y-46059458D01*
X159118962Y-46228000D01*
X153870838Y-46228000D01*
X149371000Y-41728162D01*
X149371000Y-37406043D01*
X149467486Y-37343956D01*
X149667732Y-37050886D01*
X149738181Y-36703000D01*
X149738181Y-34163000D01*
X149677029Y-33838003D01*
X149484956Y-33539514D01*
X149191886Y-33339268D01*
X148844000Y-33268819D01*
X146304000Y-33268819D01*
X145979003Y-33329971D01*
X145680514Y-33522044D01*
X145480268Y-33815114D01*
X145409819Y-34163000D01*
X145409819Y-36703000D01*
X145470971Y-37027997D01*
X145617000Y-37254932D01*
X145617000Y-42505640D01*
X145759878Y-43223937D01*
X146089028Y-43716543D01*
X146052571Y-43716511D01*
X146050000Y-43716000D01*
X144371000Y-43716000D01*
X144371000Y-36511271D01*
X144640626Y-35861938D01*
X144641372Y-35007809D01*
X144315199Y-34218411D01*
X143711766Y-33613923D01*
X142922938Y-33286374D01*
X142068809Y-33285628D01*
X141279411Y-33611801D01*
X140674923Y-34215234D01*
X140347374Y-35004062D01*
X140346628Y-35858191D01*
X140617000Y-36512540D01*
X140617000Y-45593000D01*
X140617507Y-45595548D01*
X140617185Y-45964619D01*
X140726012Y-46228000D01*
X135582839Y-46228000D01*
X131163000Y-41808162D01*
X131163000Y-37354564D01*
X131179486Y-37343956D01*
X131379732Y-37050886D01*
X131450181Y-36703000D01*
X131450181Y-34163000D01*
X131389029Y-33838003D01*
X131196956Y-33539514D01*
X130903886Y-33339268D01*
X130556000Y-33268819D01*
X128016000Y-33268819D01*
X127691003Y-33329971D01*
X127392514Y-33522044D01*
X127192268Y-33815114D01*
X127121819Y-34163000D01*
X127121819Y-36703000D01*
X127182971Y-37027997D01*
X127375044Y-37326486D01*
X127409000Y-37349687D01*
X127409000Y-42585640D01*
X127535965Y-43223937D01*
X127551878Y-43303937D01*
X127827589Y-43716566D01*
X127764571Y-43716511D01*
X127762000Y-43716000D01*
X126083000Y-43716000D01*
X126083000Y-36511271D01*
X126352626Y-35861938D01*
X126353372Y-35007809D01*
X126027199Y-34218411D01*
X125423766Y-33613923D01*
X124634938Y-33286374D01*
X123780809Y-33285628D01*
X122991411Y-33611801D01*
X122386923Y-34215234D01*
X122059374Y-35004062D01*
X122058628Y-35858191D01*
X122329000Y-36512540D01*
X122329000Y-45593000D01*
X122329507Y-45595548D01*
X122329185Y-45964619D01*
X122438012Y-46228000D01*
X117294838Y-46228000D01*
X112795000Y-41728162D01*
X112795000Y-37406043D01*
X112891486Y-37343956D01*
X113091732Y-37050886D01*
X113162181Y-36703000D01*
X113162181Y-34163000D01*
X113101029Y-33838003D01*
X112908956Y-33539514D01*
X112615886Y-33339268D01*
X112268000Y-33268819D01*
X109728000Y-33268819D01*
X109403003Y-33329971D01*
X109104514Y-33522044D01*
X108904268Y-33815114D01*
X108833819Y-34163000D01*
X108833819Y-36703000D01*
X108894971Y-37027997D01*
X109041000Y-37254932D01*
X109041000Y-42505640D01*
X109183878Y-43223937D01*
X109513028Y-43716543D01*
X109476571Y-43716511D01*
X109474000Y-43716000D01*
X107795000Y-43716000D01*
X107795000Y-36511271D01*
X108064626Y-35861938D01*
X108065372Y-35007809D01*
X107739199Y-34218411D01*
X107135766Y-33613923D01*
X106346938Y-33286374D01*
X105492809Y-33285628D01*
X104703411Y-33611801D01*
X104098923Y-34215234D01*
X103771374Y-35004062D01*
X103770628Y-35858191D01*
X104041000Y-36512540D01*
X104041000Y-45593000D01*
X104041507Y-45595548D01*
X104041185Y-45964619D01*
X104150012Y-46228000D01*
X99060000Y-46228000D01*
X99010590Y-46238006D01*
X98968965Y-46266447D01*
X98941685Y-46308841D01*
X98933004Y-46355969D01*
X92392000Y-46355969D01*
X92392000Y-42347544D01*
X97022571Y-42347544D01*
X97398877Y-43258275D01*
X98095060Y-43955674D01*
X99005133Y-44333569D01*
X99990544Y-44334429D01*
X100901275Y-43958123D01*
X101598674Y-43261940D01*
X101976569Y-42351867D01*
X101977429Y-41366456D01*
X101601123Y-40455725D01*
X100904940Y-39758326D01*
X99994867Y-39380431D01*
X99009456Y-39379571D01*
X98098725Y-39755877D01*
X97401326Y-40452060D01*
X97023431Y-41362133D01*
X97022571Y-42347544D01*
X92392000Y-42347544D01*
X92392000Y-31432000D01*
X179388000Y-31432000D01*
X179388000Y-127318000D01*
G36*
X157929800Y-94748760D02*
X158293328Y-95292818D01*
X158837386Y-95656346D01*
X159479146Y-95784000D01*
X159544854Y-95784000D01*
X160186614Y-95656346D01*
X160294000Y-95584593D01*
X160294000Y-101410628D01*
X157544628Y-104160000D01*
X157497259Y-104160000D01*
X157225660Y-103978524D01*
X156718000Y-103877544D01*
X156210340Y-103978524D01*
X155827924Y-104234046D01*
X155741935Y-104192019D01*
X155575000Y-104318932D01*
X155575000Y-104572844D01*
X155492400Y-104696464D01*
X155448000Y-104919678D01*
X155403600Y-104696464D01*
X155321000Y-104572844D01*
X155321000Y-104318932D01*
X155154065Y-104192019D01*
X155068076Y-104234046D01*
X154685660Y-103978524D01*
X154178000Y-103877544D01*
X153670340Y-103978524D01*
X153239966Y-104266090D01*
X152952400Y-104696464D01*
X152851420Y-105204124D01*
X152851420Y-105283522D01*
X152801000Y-105537000D01*
X152801000Y-107675819D01*
X152258000Y-107675819D01*
X151933003Y-107736971D01*
X151634514Y-107929044D01*
X151434268Y-108222114D01*
X151363819Y-108570000D01*
X151363819Y-108816809D01*
X149543628Y-110637000D01*
X143971593Y-110637000D01*
X144043346Y-110529614D01*
X144171000Y-109887854D01*
X144171000Y-109822146D01*
X144043346Y-109180386D01*
X143679818Y-108636328D01*
X143135760Y-108272800D01*
X142494000Y-108145146D01*
X141852240Y-108272800D01*
X141308182Y-108636328D01*
X141224000Y-108762315D01*
X141139818Y-108636328D01*
X140863712Y-108451840D01*
X142577476Y-106738077D01*
X142585850Y-106725545D01*
X142690894Y-106830773D01*
X143251928Y-107063735D01*
X143859407Y-107064265D01*
X144420846Y-106832283D01*
X144850773Y-106403106D01*
X145083735Y-105842072D01*
X145084265Y-105234593D01*
X144934000Y-104870924D01*
X144934000Y-103647372D01*
X145350372Y-103231000D01*
X152527000Y-103231000D01*
X153053955Y-103126182D01*
X153217087Y-103017181D01*
X153558000Y-103017181D01*
X153882997Y-102956029D01*
X154181486Y-102763956D01*
X154381732Y-102470886D01*
X154401753Y-102372016D01*
X157188590Y-102372016D01*
X157244271Y-102602611D01*
X157727078Y-102770622D01*
X158237428Y-102741083D01*
X158571729Y-102602611D01*
X158627410Y-102372016D01*
X157908000Y-101652605D01*
X157188590Y-102372016D01*
X154401753Y-102372016D01*
X154452181Y-102123000D01*
X154452181Y-101292078D01*
X156610378Y-101292078D01*
X156639917Y-101802428D01*
X156778389Y-102136729D01*
X157008984Y-102192410D01*
X157728395Y-101473000D01*
X158087605Y-101473000D01*
X158807016Y-102192410D01*
X159037611Y-102136729D01*
X159205622Y-101653922D01*
X159176083Y-101143572D01*
X159037611Y-100809271D01*
X158807016Y-100753590D01*
X158087605Y-101473000D01*
X157728395Y-101473000D01*
X157008984Y-100753590D01*
X156778389Y-100809271D01*
X156610378Y-101292078D01*
X154452181Y-101292078D01*
X154452181Y-100823000D01*
X154405326Y-100573984D01*
X157188590Y-100573984D01*
X157908000Y-101293395D01*
X158627410Y-100573984D01*
X158571729Y-100343389D01*
X158088922Y-100175378D01*
X157578572Y-100204917D01*
X157244271Y-100343389D01*
X157188590Y-100573984D01*
X154405326Y-100573984D01*
X154391029Y-100498003D01*
X154198956Y-100199514D01*
X153905886Y-99999268D01*
X153558000Y-99928819D01*
X152258000Y-99928819D01*
X151933003Y-99989971D01*
X151634514Y-100182044D01*
X151434268Y-100475114D01*
X151433886Y-100477000D01*
X148305152Y-100477000D01*
X149813153Y-98969000D01*
X152654000Y-98969000D01*
X153056583Y-98888921D01*
X153397876Y-98660876D01*
X157826967Y-94231785D01*
X157929800Y-94748760D01*
X157929800Y-94748760D01*
G37*
X157929800Y-94748760D02*
X158293328Y-95292818D01*
X158837386Y-95656346D01*
X159479146Y-95784000D01*
X159544854Y-95784000D01*
X160186614Y-95656346D01*
X160294000Y-95584593D01*
X160294000Y-101410628D01*
X157544628Y-104160000D01*
X157497259Y-104160000D01*
X157225660Y-103978524D01*
X156718000Y-103877544D01*
X156210340Y-103978524D01*
X155827924Y-104234046D01*
X155741935Y-104192019D01*
X155575000Y-104318932D01*
X155575000Y-104572844D01*
X155492400Y-104696464D01*
X155448000Y-104919678D01*
X155403600Y-104696464D01*
X155321000Y-104572844D01*
X155321000Y-104318932D01*
X155154065Y-104192019D01*
X155068076Y-104234046D01*
X154685660Y-103978524D01*
X154178000Y-103877544D01*
X153670340Y-103978524D01*
X153239966Y-104266090D01*
X152952400Y-104696464D01*
X152851420Y-105204124D01*
X152851420Y-105283522D01*
X152801000Y-105537000D01*
X152801000Y-107675819D01*
X152258000Y-107675819D01*
X151933003Y-107736971D01*
X151634514Y-107929044D01*
X151434268Y-108222114D01*
X151363819Y-108570000D01*
X151363819Y-108816809D01*
X149543628Y-110637000D01*
X143971593Y-110637000D01*
X144043346Y-110529614D01*
X144171000Y-109887854D01*
X144171000Y-109822146D01*
X144043346Y-109180386D01*
X143679818Y-108636328D01*
X143135760Y-108272800D01*
X142494000Y-108145146D01*
X141852240Y-108272800D01*
X141308182Y-108636328D01*
X141224000Y-108762315D01*
X141139818Y-108636328D01*
X140863712Y-108451840D01*
X142577476Y-106738077D01*
X142585850Y-106725545D01*
X142690894Y-106830773D01*
X143251928Y-107063735D01*
X143859407Y-107064265D01*
X144420846Y-106832283D01*
X144850773Y-106403106D01*
X145083735Y-105842072D01*
X145084265Y-105234593D01*
X144934000Y-104870924D01*
X144934000Y-103647372D01*
X145350372Y-103231000D01*
X152527000Y-103231000D01*
X153053955Y-103126182D01*
X153217087Y-103017181D01*
X153558000Y-103017181D01*
X153882997Y-102956029D01*
X154181486Y-102763956D01*
X154381732Y-102470886D01*
X154401753Y-102372016D01*
X157188590Y-102372016D01*
X157244271Y-102602611D01*
X157727078Y-102770622D01*
X158237428Y-102741083D01*
X158571729Y-102602611D01*
X158627410Y-102372016D01*
X157908000Y-101652605D01*
X157188590Y-102372016D01*
X154401753Y-102372016D01*
X154452181Y-102123000D01*
X154452181Y-101292078D01*
X156610378Y-101292078D01*
X156639917Y-101802428D01*
X156778389Y-102136729D01*
X157008984Y-102192410D01*
X157728395Y-101473000D01*
X158087605Y-101473000D01*
X158807016Y-102192410D01*
X159037611Y-102136729D01*
X159205622Y-101653922D01*
X159176083Y-101143572D01*
X159037611Y-100809271D01*
X158807016Y-100753590D01*
X158087605Y-101473000D01*
X157728395Y-101473000D01*
X157008984Y-100753590D01*
X156778389Y-100809271D01*
X156610378Y-101292078D01*
X154452181Y-101292078D01*
X154452181Y-100823000D01*
X154405326Y-100573984D01*
X157188590Y-100573984D01*
X157908000Y-101293395D01*
X158627410Y-100573984D01*
X158571729Y-100343389D01*
X158088922Y-100175378D01*
X157578572Y-100204917D01*
X157244271Y-100343389D01*
X157188590Y-100573984D01*
X154405326Y-100573984D01*
X154391029Y-100498003D01*
X154198956Y-100199514D01*
X153905886Y-99999268D01*
X153558000Y-99928819D01*
X152258000Y-99928819D01*
X151933003Y-99989971D01*
X151634514Y-100182044D01*
X151434268Y-100475114D01*
X151433886Y-100477000D01*
X148305152Y-100477000D01*
X149813153Y-98969000D01*
X152654000Y-98969000D01*
X153056583Y-98888921D01*
X153397876Y-98660876D01*
X157826967Y-94231785D01*
X157929800Y-94748760D01*
G36*
X152019000Y-93980000D02*
X152039000Y-93980000D01*
X152039000Y-94234000D01*
X152019000Y-94234000D01*
X152019000Y-94254000D01*
X151765000Y-94254000D01*
X151765000Y-94234000D01*
X151745000Y-94234000D01*
X151745000Y-93980000D01*
X151765000Y-93980000D01*
X151765000Y-93960000D01*
X152019000Y-93960000D01*
X152019000Y-93980000D01*
X152019000Y-93980000D01*
G37*
X152019000Y-93980000D02*
X152039000Y-93980000D01*
X152039000Y-94234000D01*
X152019000Y-94234000D01*
X152019000Y-94254000D01*
X151765000Y-94254000D01*
X151765000Y-94234000D01*
X151745000Y-94234000D01*
X151745000Y-93980000D01*
X151765000Y-93980000D01*
X151765000Y-93960000D01*
X152019000Y-93960000D01*
X152019000Y-93980000D01*
G36*
X114750761Y-48992879D02*
X115359703Y-49399762D01*
X116078000Y-49542639D01*
X116796297Y-49399762D01*
X117405239Y-48992879D01*
X117810075Y-48387000D01*
X132432881Y-48387000D01*
X133038761Y-48992880D01*
X133647703Y-49399762D01*
X134366000Y-49542639D01*
X135084297Y-49399762D01*
X135693240Y-48992880D01*
X136098075Y-48387000D01*
X150720882Y-48387000D01*
X151326761Y-48992879D01*
X151935703Y-49399762D01*
X152654000Y-49542639D01*
X153372297Y-49399762D01*
X153981239Y-48992879D01*
X154386075Y-48387000D01*
X168795521Y-48387000D01*
X169081243Y-48672722D01*
X169564731Y-49194889D01*
X170157586Y-49624875D01*
X170702798Y-49755291D01*
X170715977Y-51086319D01*
X170223703Y-51184238D01*
X169614761Y-51591121D01*
X169207878Y-52200063D01*
X169065000Y-52918360D01*
X169065000Y-59559940D01*
X169207878Y-60278237D01*
X169614761Y-60887179D01*
X169615280Y-60887699D01*
X169615283Y-60887701D01*
X169687582Y-60960000D01*
X161963884Y-60960000D01*
X161991848Y-60948417D01*
X162170477Y-60769789D01*
X162267150Y-60536400D01*
X162267150Y-59846210D01*
X162108400Y-59687460D01*
X160909520Y-59687460D01*
X160909520Y-59707460D01*
X160655520Y-59707460D01*
X160655520Y-59687460D01*
X159456640Y-59687460D01*
X159297890Y-59846210D01*
X159297890Y-60536400D01*
X159394563Y-60769789D01*
X159573192Y-60948417D01*
X159601156Y-60960000D01*
X155801000Y-60960000D01*
X155801000Y-60829940D01*
X155658122Y-60111643D01*
X155459898Y-59814980D01*
X155251240Y-59502701D01*
X154531000Y-58782462D01*
X154531000Y-58584520D01*
X159297890Y-58584520D01*
X159297890Y-59274710D01*
X159456640Y-59433460D01*
X160655520Y-59433460D01*
X160655520Y-58234580D01*
X160909520Y-58234580D01*
X160909520Y-59433460D01*
X162108400Y-59433460D01*
X162267150Y-59274710D01*
X162267150Y-58584520D01*
X162170477Y-58351131D01*
X161991848Y-58172503D01*
X161758459Y-58075830D01*
X161068270Y-58075830D01*
X160909520Y-58234580D01*
X160655520Y-58234580D01*
X160496770Y-58075830D01*
X159806581Y-58075830D01*
X159573192Y-58172503D01*
X159394563Y-58351131D01*
X159297890Y-58584520D01*
X154531000Y-58584520D01*
X154531000Y-56651163D01*
X159809443Y-56651163D01*
X159908042Y-56917965D01*
X160517582Y-57144401D01*
X161167377Y-57120341D01*
X161655958Y-56917965D01*
X161754557Y-56651163D01*
X163111443Y-56651163D01*
X163210042Y-56917965D01*
X163819582Y-57144401D01*
X164469377Y-57120341D01*
X164957958Y-56917965D01*
X165056557Y-56651163D01*
X164084000Y-55678605D01*
X163111443Y-56651163D01*
X161754557Y-56651163D01*
X160782000Y-55678605D01*
X159809443Y-56651163D01*
X154531000Y-56651163D01*
X154531000Y-55234582D01*
X159136599Y-55234582D01*
X159160659Y-55884377D01*
X159363035Y-56372958D01*
X159629837Y-56471557D01*
X160602395Y-55499000D01*
X160961605Y-55499000D01*
X161934163Y-56471557D01*
X162200965Y-56372958D01*
X162427401Y-55763418D01*
X162407820Y-55234582D01*
X162438599Y-55234582D01*
X162462659Y-55884377D01*
X162665035Y-56372958D01*
X162931837Y-56471557D01*
X163904395Y-55499000D01*
X164263605Y-55499000D01*
X165236163Y-56471557D01*
X165502965Y-56372958D01*
X165729401Y-55763418D01*
X165705341Y-55113623D01*
X165502965Y-54625042D01*
X165236163Y-54526443D01*
X164263605Y-55499000D01*
X163904395Y-55499000D01*
X162931837Y-54526443D01*
X162665035Y-54625042D01*
X162438599Y-55234582D01*
X162407820Y-55234582D01*
X162403341Y-55113623D01*
X162200965Y-54625042D01*
X161934163Y-54526443D01*
X160961605Y-55499000D01*
X160602395Y-55499000D01*
X159629837Y-54526443D01*
X159363035Y-54625042D01*
X159136599Y-55234582D01*
X154531000Y-55234582D01*
X154531000Y-54346837D01*
X159809443Y-54346837D01*
X160782000Y-55319395D01*
X161754557Y-54346837D01*
X163111443Y-54346837D01*
X164084000Y-55319395D01*
X165056557Y-54346837D01*
X164957958Y-54080035D01*
X164348418Y-53853599D01*
X163698623Y-53877659D01*
X163210042Y-54080035D01*
X163111443Y-54346837D01*
X161754557Y-54346837D01*
X161655958Y-54080035D01*
X161046418Y-53853599D01*
X160396623Y-53877659D01*
X159908042Y-54080035D01*
X159809443Y-54346837D01*
X154531000Y-54346837D01*
X154531000Y-52664360D01*
X154388122Y-51946063D01*
X153981239Y-51337121D01*
X153372297Y-50930238D01*
X152654000Y-50787360D01*
X151935703Y-50930238D01*
X151326761Y-51337121D01*
X150919878Y-51946063D01*
X150777000Y-52664360D01*
X150777000Y-59559940D01*
X150919878Y-60278237D01*
X151326761Y-60887179D01*
X151327073Y-60887387D01*
X151327281Y-60887699D01*
X151399582Y-60960000D01*
X143675884Y-60960000D01*
X143703848Y-60948417D01*
X143882477Y-60769789D01*
X143979150Y-60536400D01*
X143979150Y-59846210D01*
X143820400Y-59687460D01*
X142621520Y-59687460D01*
X142621520Y-59707460D01*
X142367520Y-59707460D01*
X142367520Y-59687460D01*
X141168640Y-59687460D01*
X141009890Y-59846210D01*
X141009890Y-60536400D01*
X141106563Y-60769789D01*
X141285192Y-60948417D01*
X141313156Y-60960000D01*
X135989000Y-60960000D01*
X135989000Y-60445583D01*
X136100122Y-60279277D01*
X136133466Y-60111643D01*
X136243000Y-59560980D01*
X136243000Y-58584520D01*
X141009890Y-58584520D01*
X141009890Y-59274710D01*
X141168640Y-59433460D01*
X142367520Y-59433460D01*
X142367520Y-58234580D01*
X142621520Y-58234580D01*
X142621520Y-59433460D01*
X143820400Y-59433460D01*
X143979150Y-59274710D01*
X143979150Y-58584520D01*
X143882477Y-58351131D01*
X143703848Y-58172503D01*
X143470459Y-58075830D01*
X142780270Y-58075830D01*
X142621520Y-58234580D01*
X142367520Y-58234580D01*
X142208770Y-58075830D01*
X141518581Y-58075830D01*
X141285192Y-58172503D01*
X141106563Y-58351131D01*
X141009890Y-58584520D01*
X136243000Y-58584520D01*
X136243000Y-56905163D01*
X141521443Y-56905163D01*
X141620042Y-57171965D01*
X142229582Y-57398401D01*
X142879377Y-57374341D01*
X143367958Y-57171965D01*
X143466557Y-56905163D01*
X145077443Y-56905163D01*
X145176042Y-57171965D01*
X145785582Y-57398401D01*
X146435377Y-57374341D01*
X146923958Y-57171965D01*
X147022557Y-56905163D01*
X146050000Y-55932605D01*
X145077443Y-56905163D01*
X143466557Y-56905163D01*
X142494000Y-55932605D01*
X141521443Y-56905163D01*
X136243000Y-56905163D01*
X136243000Y-55488582D01*
X140848599Y-55488582D01*
X140872659Y-56138377D01*
X141075035Y-56626958D01*
X141341837Y-56725557D01*
X142314395Y-55753000D01*
X142673605Y-55753000D01*
X143646163Y-56725557D01*
X143912965Y-56626958D01*
X144139401Y-56017418D01*
X144119820Y-55488582D01*
X144404599Y-55488582D01*
X144428659Y-56138377D01*
X144631035Y-56626958D01*
X144897837Y-56725557D01*
X145870395Y-55753000D01*
X146229605Y-55753000D01*
X147202163Y-56725557D01*
X147468965Y-56626958D01*
X147695401Y-56017418D01*
X147671341Y-55367623D01*
X147468965Y-54879042D01*
X147202163Y-54780443D01*
X146229605Y-55753000D01*
X145870395Y-55753000D01*
X144897837Y-54780443D01*
X144631035Y-54879042D01*
X144404599Y-55488582D01*
X144119820Y-55488582D01*
X144115341Y-55367623D01*
X143912965Y-54879042D01*
X143646163Y-54780443D01*
X142673605Y-55753000D01*
X142314395Y-55753000D01*
X141341837Y-54780443D01*
X141075035Y-54879042D01*
X140848599Y-55488582D01*
X136243000Y-55488582D01*
X136243000Y-54600837D01*
X141521443Y-54600837D01*
X142494000Y-55573395D01*
X143466557Y-54600837D01*
X145077443Y-54600837D01*
X146050000Y-55573395D01*
X147022557Y-54600837D01*
X146923958Y-54334035D01*
X146314418Y-54107599D01*
X145664623Y-54131659D01*
X145176042Y-54334035D01*
X145077443Y-54600837D01*
X143466557Y-54600837D01*
X143367958Y-54334035D01*
X142758418Y-54107599D01*
X142108623Y-54131659D01*
X141620042Y-54334035D01*
X141521443Y-54600837D01*
X136243000Y-54600837D01*
X136243000Y-52664360D01*
X136100122Y-51946063D01*
X135693239Y-51337121D01*
X135084297Y-50930238D01*
X134366000Y-50787360D01*
X133647703Y-50930238D01*
X133038761Y-51337121D01*
X132631878Y-51946063D01*
X132489000Y-52664360D01*
X132489000Y-58930378D01*
X132377878Y-59096683D01*
X132235000Y-59814980D01*
X132235000Y-60960000D01*
X125387884Y-60960000D01*
X125415848Y-60948417D01*
X125594477Y-60769789D01*
X125691150Y-60536400D01*
X125691150Y-59846210D01*
X125532400Y-59687460D01*
X124333520Y-59687460D01*
X124333520Y-59707460D01*
X124079520Y-59707460D01*
X124079520Y-59687460D01*
X122880640Y-59687460D01*
X122721890Y-59846210D01*
X122721890Y-60536400D01*
X122818563Y-60769789D01*
X122997192Y-60948417D01*
X123025156Y-60960000D01*
X117528517Y-60960000D01*
X117812642Y-60534777D01*
X117863567Y-60278757D01*
X117955520Y-59816480D01*
X117955520Y-59560460D01*
X117955000Y-59557846D01*
X117955000Y-58584520D01*
X122721890Y-58584520D01*
X122721890Y-59274710D01*
X122880640Y-59433460D01*
X124079520Y-59433460D01*
X124079520Y-58234580D01*
X124333520Y-58234580D01*
X124333520Y-59433460D01*
X125532400Y-59433460D01*
X125691150Y-59274710D01*
X125691150Y-58584520D01*
X125594477Y-58351131D01*
X125415848Y-58172503D01*
X125182459Y-58075830D01*
X124492270Y-58075830D01*
X124333520Y-58234580D01*
X124079520Y-58234580D01*
X123920770Y-58075830D01*
X123230581Y-58075830D01*
X122997192Y-58172503D01*
X122818563Y-58351131D01*
X122721890Y-58584520D01*
X117955000Y-58584520D01*
X117955000Y-56905163D01*
X123233443Y-56905163D01*
X123332042Y-57171965D01*
X123941582Y-57398401D01*
X124591377Y-57374341D01*
X125079958Y-57171965D01*
X125178557Y-56905163D01*
X126789443Y-56905163D01*
X126888042Y-57171965D01*
X127497582Y-57398401D01*
X128147377Y-57374341D01*
X128635958Y-57171965D01*
X128734557Y-56905163D01*
X127762000Y-55932605D01*
X126789443Y-56905163D01*
X125178557Y-56905163D01*
X124206000Y-55932605D01*
X123233443Y-56905163D01*
X117955000Y-56905163D01*
X117955000Y-55488582D01*
X122560599Y-55488582D01*
X122584659Y-56138377D01*
X122787035Y-56626958D01*
X123053837Y-56725557D01*
X124026395Y-55753000D01*
X124385605Y-55753000D01*
X125358163Y-56725557D01*
X125624965Y-56626958D01*
X125851401Y-56017418D01*
X125831820Y-55488582D01*
X126116599Y-55488582D01*
X126140659Y-56138377D01*
X126343035Y-56626958D01*
X126609837Y-56725557D01*
X127582395Y-55753000D01*
X127941605Y-55753000D01*
X128914163Y-56725557D01*
X129180965Y-56626958D01*
X129407401Y-56017418D01*
X129383341Y-55367623D01*
X129180965Y-54879042D01*
X128914163Y-54780443D01*
X127941605Y-55753000D01*
X127582395Y-55753000D01*
X126609837Y-54780443D01*
X126343035Y-54879042D01*
X126116599Y-55488582D01*
X125831820Y-55488582D01*
X125827341Y-55367623D01*
X125624965Y-54879042D01*
X125358163Y-54780443D01*
X124385605Y-55753000D01*
X124026395Y-55753000D01*
X123053837Y-54780443D01*
X122787035Y-54879042D01*
X122560599Y-55488582D01*
X117955000Y-55488582D01*
X117955000Y-54600837D01*
X123233443Y-54600837D01*
X124206000Y-55573395D01*
X125178557Y-54600837D01*
X126789443Y-54600837D01*
X127762000Y-55573395D01*
X128734557Y-54600837D01*
X128635958Y-54334035D01*
X128026418Y-54107599D01*
X127376623Y-54131659D01*
X126888042Y-54334035D01*
X126789443Y-54600837D01*
X125178557Y-54600837D01*
X125079958Y-54334035D01*
X124470418Y-54107599D01*
X123820623Y-54131659D01*
X123332042Y-54334035D01*
X123233443Y-54600837D01*
X117955000Y-54600837D01*
X117955000Y-52664360D01*
X117812122Y-51946063D01*
X117405239Y-51337121D01*
X116796297Y-50930238D01*
X116078000Y-50787360D01*
X115359703Y-50930238D01*
X114750761Y-51337121D01*
X114343878Y-51946063D01*
X114201000Y-52664360D01*
X114201000Y-59039521D01*
X112280522Y-60960000D01*
X107099884Y-60960000D01*
X107127848Y-60948417D01*
X107306477Y-60769789D01*
X107403150Y-60536400D01*
X107403150Y-59846210D01*
X107244400Y-59687460D01*
X106045520Y-59687460D01*
X106045520Y-59707460D01*
X105791520Y-59707460D01*
X105791520Y-59687460D01*
X104592640Y-59687460D01*
X104433890Y-59846210D01*
X104433890Y-60536400D01*
X104530563Y-60769789D01*
X104709192Y-60948417D01*
X104737156Y-60960000D01*
X101344749Y-60960000D01*
X101321230Y-58584520D01*
X104433890Y-58584520D01*
X104433890Y-59274710D01*
X104592640Y-59433460D01*
X105791520Y-59433460D01*
X105791520Y-58234580D01*
X106045520Y-58234580D01*
X106045520Y-59433460D01*
X107244400Y-59433460D01*
X107403150Y-59274710D01*
X107403150Y-58584520D01*
X107306477Y-58351131D01*
X107127848Y-58172503D01*
X106894459Y-58075830D01*
X106204270Y-58075830D01*
X106045520Y-58234580D01*
X105791520Y-58234580D01*
X105632770Y-58075830D01*
X104942581Y-58075830D01*
X104709192Y-58172503D01*
X104530563Y-58351131D01*
X104433890Y-58584520D01*
X101321230Y-58584520D01*
X101304603Y-56905163D01*
X104945443Y-56905163D01*
X105044042Y-57171965D01*
X105653582Y-57398401D01*
X106303377Y-57374341D01*
X106791958Y-57171965D01*
X106890557Y-56905163D01*
X108501443Y-56905163D01*
X108600042Y-57171965D01*
X109209582Y-57398401D01*
X109859377Y-57374341D01*
X110347958Y-57171965D01*
X110446557Y-56905163D01*
X109474000Y-55932605D01*
X108501443Y-56905163D01*
X106890557Y-56905163D01*
X105918000Y-55932605D01*
X104945443Y-56905163D01*
X101304603Y-56905163D01*
X101290577Y-55488582D01*
X104272599Y-55488582D01*
X104296659Y-56138377D01*
X104499035Y-56626958D01*
X104765837Y-56725557D01*
X105738395Y-55753000D01*
X106097605Y-55753000D01*
X107070163Y-56725557D01*
X107336965Y-56626958D01*
X107563401Y-56017418D01*
X107543820Y-55488582D01*
X107828599Y-55488582D01*
X107852659Y-56138377D01*
X108055035Y-56626958D01*
X108321837Y-56725557D01*
X109294395Y-55753000D01*
X109653605Y-55753000D01*
X110626163Y-56725557D01*
X110892965Y-56626958D01*
X111119401Y-56017418D01*
X111095341Y-55367623D01*
X110892965Y-54879042D01*
X110626163Y-54780443D01*
X109653605Y-55753000D01*
X109294395Y-55753000D01*
X108321837Y-54780443D01*
X108055035Y-54879042D01*
X107828599Y-55488582D01*
X107543820Y-55488582D01*
X107539341Y-55367623D01*
X107336965Y-54879042D01*
X107070163Y-54780443D01*
X106097605Y-55753000D01*
X105738395Y-55753000D01*
X104765837Y-54780443D01*
X104499035Y-54879042D01*
X104272599Y-55488582D01*
X101290577Y-55488582D01*
X101281788Y-54600837D01*
X104945443Y-54600837D01*
X105918000Y-55573395D01*
X106890557Y-54600837D01*
X108501443Y-54600837D01*
X109474000Y-55573395D01*
X110446557Y-54600837D01*
X110347958Y-54334035D01*
X109738418Y-54107599D01*
X109088623Y-54131659D01*
X108600042Y-54334035D01*
X108501443Y-54600837D01*
X106890557Y-54600837D01*
X106791958Y-54334035D01*
X106182418Y-54107599D01*
X105532623Y-54131659D01*
X105044042Y-54334035D01*
X104945443Y-54600837D01*
X101281788Y-54600837D01*
X101220264Y-48387000D01*
X114144882Y-48387000D01*
X114750761Y-48992879D01*
X114750761Y-48992879D01*
G37*
X114750761Y-48992879D02*
X115359703Y-49399762D01*
X116078000Y-49542639D01*
X116796297Y-49399762D01*
X117405239Y-48992879D01*
X117810075Y-48387000D01*
X132432881Y-48387000D01*
X133038761Y-48992880D01*
X133647703Y-49399762D01*
X134366000Y-49542639D01*
X135084297Y-49399762D01*
X135693240Y-48992880D01*
X136098075Y-48387000D01*
X150720882Y-48387000D01*
X151326761Y-48992879D01*
X151935703Y-49399762D01*
X152654000Y-49542639D01*
X153372297Y-49399762D01*
X153981239Y-48992879D01*
X154386075Y-48387000D01*
X168795521Y-48387000D01*
X169081243Y-48672722D01*
X169564731Y-49194889D01*
X170157586Y-49624875D01*
X170702798Y-49755291D01*
X170715977Y-51086319D01*
X170223703Y-51184238D01*
X169614761Y-51591121D01*
X169207878Y-52200063D01*
X169065000Y-52918360D01*
X169065000Y-59559940D01*
X169207878Y-60278237D01*
X169614761Y-60887179D01*
X169615280Y-60887699D01*
X169615283Y-60887701D01*
X169687582Y-60960000D01*
X161963884Y-60960000D01*
X161991848Y-60948417D01*
X162170477Y-60769789D01*
X162267150Y-60536400D01*
X162267150Y-59846210D01*
X162108400Y-59687460D01*
X160909520Y-59687460D01*
X160909520Y-59707460D01*
X160655520Y-59707460D01*
X160655520Y-59687460D01*
X159456640Y-59687460D01*
X159297890Y-59846210D01*
X159297890Y-60536400D01*
X159394563Y-60769789D01*
X159573192Y-60948417D01*
X159601156Y-60960000D01*
X155801000Y-60960000D01*
X155801000Y-60829940D01*
X155658122Y-60111643D01*
X155459898Y-59814980D01*
X155251240Y-59502701D01*
X154531000Y-58782462D01*
X154531000Y-58584520D01*
X159297890Y-58584520D01*
X159297890Y-59274710D01*
X159456640Y-59433460D01*
X160655520Y-59433460D01*
X160655520Y-58234580D01*
X160909520Y-58234580D01*
X160909520Y-59433460D01*
X162108400Y-59433460D01*
X162267150Y-59274710D01*
X162267150Y-58584520D01*
X162170477Y-58351131D01*
X161991848Y-58172503D01*
X161758459Y-58075830D01*
X161068270Y-58075830D01*
X160909520Y-58234580D01*
X160655520Y-58234580D01*
X160496770Y-58075830D01*
X159806581Y-58075830D01*
X159573192Y-58172503D01*
X159394563Y-58351131D01*
X159297890Y-58584520D01*
X154531000Y-58584520D01*
X154531000Y-56651163D01*
X159809443Y-56651163D01*
X159908042Y-56917965D01*
X160517582Y-57144401D01*
X161167377Y-57120341D01*
X161655958Y-56917965D01*
X161754557Y-56651163D01*
X163111443Y-56651163D01*
X163210042Y-56917965D01*
X163819582Y-57144401D01*
X164469377Y-57120341D01*
X164957958Y-56917965D01*
X165056557Y-56651163D01*
X164084000Y-55678605D01*
X163111443Y-56651163D01*
X161754557Y-56651163D01*
X160782000Y-55678605D01*
X159809443Y-56651163D01*
X154531000Y-56651163D01*
X154531000Y-55234582D01*
X159136599Y-55234582D01*
X159160659Y-55884377D01*
X159363035Y-56372958D01*
X159629837Y-56471557D01*
X160602395Y-55499000D01*
X160961605Y-55499000D01*
X161934163Y-56471557D01*
X162200965Y-56372958D01*
X162427401Y-55763418D01*
X162407820Y-55234582D01*
X162438599Y-55234582D01*
X162462659Y-55884377D01*
X162665035Y-56372958D01*
X162931837Y-56471557D01*
X163904395Y-55499000D01*
X164263605Y-55499000D01*
X165236163Y-56471557D01*
X165502965Y-56372958D01*
X165729401Y-55763418D01*
X165705341Y-55113623D01*
X165502965Y-54625042D01*
X165236163Y-54526443D01*
X164263605Y-55499000D01*
X163904395Y-55499000D01*
X162931837Y-54526443D01*
X162665035Y-54625042D01*
X162438599Y-55234582D01*
X162407820Y-55234582D01*
X162403341Y-55113623D01*
X162200965Y-54625042D01*
X161934163Y-54526443D01*
X160961605Y-55499000D01*
X160602395Y-55499000D01*
X159629837Y-54526443D01*
X159363035Y-54625042D01*
X159136599Y-55234582D01*
X154531000Y-55234582D01*
X154531000Y-54346837D01*
X159809443Y-54346837D01*
X160782000Y-55319395D01*
X161754557Y-54346837D01*
X163111443Y-54346837D01*
X164084000Y-55319395D01*
X165056557Y-54346837D01*
X164957958Y-54080035D01*
X164348418Y-53853599D01*
X163698623Y-53877659D01*
X163210042Y-54080035D01*
X163111443Y-54346837D01*
X161754557Y-54346837D01*
X161655958Y-54080035D01*
X161046418Y-53853599D01*
X160396623Y-53877659D01*
X159908042Y-54080035D01*
X159809443Y-54346837D01*
X154531000Y-54346837D01*
X154531000Y-52664360D01*
X154388122Y-51946063D01*
X153981239Y-51337121D01*
X153372297Y-50930238D01*
X152654000Y-50787360D01*
X151935703Y-50930238D01*
X151326761Y-51337121D01*
X150919878Y-51946063D01*
X150777000Y-52664360D01*
X150777000Y-59559940D01*
X150919878Y-60278237D01*
X151326761Y-60887179D01*
X151327073Y-60887387D01*
X151327281Y-60887699D01*
X151399582Y-60960000D01*
X143675884Y-60960000D01*
X143703848Y-60948417D01*
X143882477Y-60769789D01*
X143979150Y-60536400D01*
X143979150Y-59846210D01*
X143820400Y-59687460D01*
X142621520Y-59687460D01*
X142621520Y-59707460D01*
X142367520Y-59707460D01*
X142367520Y-59687460D01*
X141168640Y-59687460D01*
X141009890Y-59846210D01*
X141009890Y-60536400D01*
X141106563Y-60769789D01*
X141285192Y-60948417D01*
X141313156Y-60960000D01*
X135989000Y-60960000D01*
X135989000Y-60445583D01*
X136100122Y-60279277D01*
X136133466Y-60111643D01*
X136243000Y-59560980D01*
X136243000Y-58584520D01*
X141009890Y-58584520D01*
X141009890Y-59274710D01*
X141168640Y-59433460D01*
X142367520Y-59433460D01*
X142367520Y-58234580D01*
X142621520Y-58234580D01*
X142621520Y-59433460D01*
X143820400Y-59433460D01*
X143979150Y-59274710D01*
X143979150Y-58584520D01*
X143882477Y-58351131D01*
X143703848Y-58172503D01*
X143470459Y-58075830D01*
X142780270Y-58075830D01*
X142621520Y-58234580D01*
X142367520Y-58234580D01*
X142208770Y-58075830D01*
X141518581Y-58075830D01*
X141285192Y-58172503D01*
X141106563Y-58351131D01*
X141009890Y-58584520D01*
X136243000Y-58584520D01*
X136243000Y-56905163D01*
X141521443Y-56905163D01*
X141620042Y-57171965D01*
X142229582Y-57398401D01*
X142879377Y-57374341D01*
X143367958Y-57171965D01*
X143466557Y-56905163D01*
X145077443Y-56905163D01*
X145176042Y-57171965D01*
X145785582Y-57398401D01*
X146435377Y-57374341D01*
X146923958Y-57171965D01*
X147022557Y-56905163D01*
X146050000Y-55932605D01*
X145077443Y-56905163D01*
X143466557Y-56905163D01*
X142494000Y-55932605D01*
X141521443Y-56905163D01*
X136243000Y-56905163D01*
X136243000Y-55488582D01*
X140848599Y-55488582D01*
X140872659Y-56138377D01*
X141075035Y-56626958D01*
X141341837Y-56725557D01*
X142314395Y-55753000D01*
X142673605Y-55753000D01*
X143646163Y-56725557D01*
X143912965Y-56626958D01*
X144139401Y-56017418D01*
X144119820Y-55488582D01*
X144404599Y-55488582D01*
X144428659Y-56138377D01*
X144631035Y-56626958D01*
X144897837Y-56725557D01*
X145870395Y-55753000D01*
X146229605Y-55753000D01*
X147202163Y-56725557D01*
X147468965Y-56626958D01*
X147695401Y-56017418D01*
X147671341Y-55367623D01*
X147468965Y-54879042D01*
X147202163Y-54780443D01*
X146229605Y-55753000D01*
X145870395Y-55753000D01*
X144897837Y-54780443D01*
X144631035Y-54879042D01*
X144404599Y-55488582D01*
X144119820Y-55488582D01*
X144115341Y-55367623D01*
X143912965Y-54879042D01*
X143646163Y-54780443D01*
X142673605Y-55753000D01*
X142314395Y-55753000D01*
X141341837Y-54780443D01*
X141075035Y-54879042D01*
X140848599Y-55488582D01*
X136243000Y-55488582D01*
X136243000Y-54600837D01*
X141521443Y-54600837D01*
X142494000Y-55573395D01*
X143466557Y-54600837D01*
X145077443Y-54600837D01*
X146050000Y-55573395D01*
X147022557Y-54600837D01*
X146923958Y-54334035D01*
X146314418Y-54107599D01*
X145664623Y-54131659D01*
X145176042Y-54334035D01*
X145077443Y-54600837D01*
X143466557Y-54600837D01*
X143367958Y-54334035D01*
X142758418Y-54107599D01*
X142108623Y-54131659D01*
X141620042Y-54334035D01*
X141521443Y-54600837D01*
X136243000Y-54600837D01*
X136243000Y-52664360D01*
X136100122Y-51946063D01*
X135693239Y-51337121D01*
X135084297Y-50930238D01*
X134366000Y-50787360D01*
X133647703Y-50930238D01*
X133038761Y-51337121D01*
X132631878Y-51946063D01*
X132489000Y-52664360D01*
X132489000Y-58930378D01*
X132377878Y-59096683D01*
X132235000Y-59814980D01*
X132235000Y-60960000D01*
X125387884Y-60960000D01*
X125415848Y-60948417D01*
X125594477Y-60769789D01*
X125691150Y-60536400D01*
X125691150Y-59846210D01*
X125532400Y-59687460D01*
X124333520Y-59687460D01*
X124333520Y-59707460D01*
X124079520Y-59707460D01*
X124079520Y-59687460D01*
X122880640Y-59687460D01*
X122721890Y-59846210D01*
X122721890Y-60536400D01*
X122818563Y-60769789D01*
X122997192Y-60948417D01*
X123025156Y-60960000D01*
X117528517Y-60960000D01*
X117812642Y-60534777D01*
X117863567Y-60278757D01*
X117955520Y-59816480D01*
X117955520Y-59560460D01*
X117955000Y-59557846D01*
X117955000Y-58584520D01*
X122721890Y-58584520D01*
X122721890Y-59274710D01*
X122880640Y-59433460D01*
X124079520Y-59433460D01*
X124079520Y-58234580D01*
X124333520Y-58234580D01*
X124333520Y-59433460D01*
X125532400Y-59433460D01*
X125691150Y-59274710D01*
X125691150Y-58584520D01*
X125594477Y-58351131D01*
X125415848Y-58172503D01*
X125182459Y-58075830D01*
X124492270Y-58075830D01*
X124333520Y-58234580D01*
X124079520Y-58234580D01*
X123920770Y-58075830D01*
X123230581Y-58075830D01*
X122997192Y-58172503D01*
X122818563Y-58351131D01*
X122721890Y-58584520D01*
X117955000Y-58584520D01*
X117955000Y-56905163D01*
X123233443Y-56905163D01*
X123332042Y-57171965D01*
X123941582Y-57398401D01*
X124591377Y-57374341D01*
X125079958Y-57171965D01*
X125178557Y-56905163D01*
X126789443Y-56905163D01*
X126888042Y-57171965D01*
X127497582Y-57398401D01*
X128147377Y-57374341D01*
X128635958Y-57171965D01*
X128734557Y-56905163D01*
X127762000Y-55932605D01*
X126789443Y-56905163D01*
X125178557Y-56905163D01*
X124206000Y-55932605D01*
X123233443Y-56905163D01*
X117955000Y-56905163D01*
X117955000Y-55488582D01*
X122560599Y-55488582D01*
X122584659Y-56138377D01*
X122787035Y-56626958D01*
X123053837Y-56725557D01*
X124026395Y-55753000D01*
X124385605Y-55753000D01*
X125358163Y-56725557D01*
X125624965Y-56626958D01*
X125851401Y-56017418D01*
X125831820Y-55488582D01*
X126116599Y-55488582D01*
X126140659Y-56138377D01*
X126343035Y-56626958D01*
X126609837Y-56725557D01*
X127582395Y-55753000D01*
X127941605Y-55753000D01*
X128914163Y-56725557D01*
X129180965Y-56626958D01*
X129407401Y-56017418D01*
X129383341Y-55367623D01*
X129180965Y-54879042D01*
X128914163Y-54780443D01*
X127941605Y-55753000D01*
X127582395Y-55753000D01*
X126609837Y-54780443D01*
X126343035Y-54879042D01*
X126116599Y-55488582D01*
X125831820Y-55488582D01*
X125827341Y-55367623D01*
X125624965Y-54879042D01*
X125358163Y-54780443D01*
X124385605Y-55753000D01*
X124026395Y-55753000D01*
X123053837Y-54780443D01*
X122787035Y-54879042D01*
X122560599Y-55488582D01*
X117955000Y-55488582D01*
X117955000Y-54600837D01*
X123233443Y-54600837D01*
X124206000Y-55573395D01*
X125178557Y-54600837D01*
X126789443Y-54600837D01*
X127762000Y-55573395D01*
X128734557Y-54600837D01*
X128635958Y-54334035D01*
X128026418Y-54107599D01*
X127376623Y-54131659D01*
X126888042Y-54334035D01*
X126789443Y-54600837D01*
X125178557Y-54600837D01*
X125079958Y-54334035D01*
X124470418Y-54107599D01*
X123820623Y-54131659D01*
X123332042Y-54334035D01*
X123233443Y-54600837D01*
X117955000Y-54600837D01*
X117955000Y-52664360D01*
X117812122Y-51946063D01*
X117405239Y-51337121D01*
X116796297Y-50930238D01*
X116078000Y-50787360D01*
X115359703Y-50930238D01*
X114750761Y-51337121D01*
X114343878Y-51946063D01*
X114201000Y-52664360D01*
X114201000Y-59039521D01*
X112280522Y-60960000D01*
X107099884Y-60960000D01*
X107127848Y-60948417D01*
X107306477Y-60769789D01*
X107403150Y-60536400D01*
X107403150Y-59846210D01*
X107244400Y-59687460D01*
X106045520Y-59687460D01*
X106045520Y-59707460D01*
X105791520Y-59707460D01*
X105791520Y-59687460D01*
X104592640Y-59687460D01*
X104433890Y-59846210D01*
X104433890Y-60536400D01*
X104530563Y-60769789D01*
X104709192Y-60948417D01*
X104737156Y-60960000D01*
X101344749Y-60960000D01*
X101321230Y-58584520D01*
X104433890Y-58584520D01*
X104433890Y-59274710D01*
X104592640Y-59433460D01*
X105791520Y-59433460D01*
X105791520Y-58234580D01*
X106045520Y-58234580D01*
X106045520Y-59433460D01*
X107244400Y-59433460D01*
X107403150Y-59274710D01*
X107403150Y-58584520D01*
X107306477Y-58351131D01*
X107127848Y-58172503D01*
X106894459Y-58075830D01*
X106204270Y-58075830D01*
X106045520Y-58234580D01*
X105791520Y-58234580D01*
X105632770Y-58075830D01*
X104942581Y-58075830D01*
X104709192Y-58172503D01*
X104530563Y-58351131D01*
X104433890Y-58584520D01*
X101321230Y-58584520D01*
X101304603Y-56905163D01*
X104945443Y-56905163D01*
X105044042Y-57171965D01*
X105653582Y-57398401D01*
X106303377Y-57374341D01*
X106791958Y-57171965D01*
X106890557Y-56905163D01*
X108501443Y-56905163D01*
X108600042Y-57171965D01*
X109209582Y-57398401D01*
X109859377Y-57374341D01*
X110347958Y-57171965D01*
X110446557Y-56905163D01*
X109474000Y-55932605D01*
X108501443Y-56905163D01*
X106890557Y-56905163D01*
X105918000Y-55932605D01*
X104945443Y-56905163D01*
X101304603Y-56905163D01*
X101290577Y-55488582D01*
X104272599Y-55488582D01*
X104296659Y-56138377D01*
X104499035Y-56626958D01*
X104765837Y-56725557D01*
X105738395Y-55753000D01*
X106097605Y-55753000D01*
X107070163Y-56725557D01*
X107336965Y-56626958D01*
X107563401Y-56017418D01*
X107543820Y-55488582D01*
X107828599Y-55488582D01*
X107852659Y-56138377D01*
X108055035Y-56626958D01*
X108321837Y-56725557D01*
X109294395Y-55753000D01*
X109653605Y-55753000D01*
X110626163Y-56725557D01*
X110892965Y-56626958D01*
X111119401Y-56017418D01*
X111095341Y-55367623D01*
X110892965Y-54879042D01*
X110626163Y-54780443D01*
X109653605Y-55753000D01*
X109294395Y-55753000D01*
X108321837Y-54780443D01*
X108055035Y-54879042D01*
X107828599Y-55488582D01*
X107543820Y-55488582D01*
X107539341Y-55367623D01*
X107336965Y-54879042D01*
X107070163Y-54780443D01*
X106097605Y-55753000D01*
X105738395Y-55753000D01*
X104765837Y-54780443D01*
X104499035Y-54879042D01*
X104272599Y-55488582D01*
X101290577Y-55488582D01*
X101281788Y-54600837D01*
X104945443Y-54600837D01*
X105918000Y-55573395D01*
X106890557Y-54600837D01*
X108501443Y-54600837D01*
X109474000Y-55573395D01*
X110446557Y-54600837D01*
X110347958Y-54334035D01*
X109738418Y-54107599D01*
X109088623Y-54131659D01*
X108600042Y-54334035D01*
X108501443Y-54600837D01*
X106890557Y-54600837D01*
X106791958Y-54334035D01*
X106182418Y-54107599D01*
X105532623Y-54131659D01*
X105044042Y-54334035D01*
X104945443Y-54600837D01*
X101281788Y-54600837D01*
X101220264Y-48387000D01*
X114144882Y-48387000D01*
X114750761Y-48992879D01*
M02*
