G04 #@! TF.FileFunction,Copper,L1,Top,Mixed*
%FSLAX46Y46*%
G04 Gerber Fmt 4.6, Leading zero omitted, Abs format (unit mm)*
G04 Created by KiCad (PCBNEW 4.0.4-1.fc24-product) date Sun Dec 11 17:37:08 2016*
%MOMM*%
%LPD*%
G01*
G04 APERTURE LIST*
%ADD10C,0.100000*%
%ADD11C,3.200000*%
%ADD12R,1.300000X1.300000*%
%ADD13C,1.300000*%
%ADD14C,1.397000*%
%ADD15O,1.506220X3.014980*%
%ADD16O,1.600000X1.600000*%
%ADD17C,1.510000*%
%ADD18R,1.510000X1.510000*%
%ADD19O,1.501140X2.499360*%
%ADD20C,2.000000*%
%ADD21R,2.000000X2.000000*%
%ADD22C,1.501140*%
%ADD23C,1.998980*%
%ADD24R,3.500120X3.500120*%
%ADD25R,1.727200X1.727200*%
%ADD26O,1.727200X1.727200*%
%ADD27C,2.349500*%
%ADD28O,0.899160X1.501140*%
%ADD29R,2.540000X2.540000*%
%ADD30C,2.540000*%
%ADD31R,1.727200X2.032000*%
%ADD32O,1.727200X2.032000*%
%ADD33R,2.197100X1.524000*%
%ADD34O,2.197100X1.524000*%
%ADD35R,1.524000X2.197100*%
%ADD36O,1.524000X2.197100*%
%ADD37R,2.199640X1.524000*%
%ADD38O,2.199640X1.524000*%
%ADD39R,1.524000X2.199640*%
%ADD40O,1.524000X2.199640*%
%ADD41C,1.000000*%
%ADD42C,2.000000*%
%ADD43C,3.000000*%
%ADD44C,0.350000*%
%ADD45C,0.500000*%
%ADD46C,0.254000*%
G04 APERTURE END LIST*
D10*
D11*
X171000000Y-41857000D03*
X99500000Y-41857000D03*
X171000000Y-113357000D03*
X99500000Y-113357000D03*
D12*
X127254000Y-105537000D03*
D13*
X122254000Y-105537000D03*
D14*
X120777000Y-124206000D03*
X120777000Y-121666000D03*
D15*
X109601000Y-122682000D03*
X112141000Y-122682000D03*
X114681000Y-122682000D03*
D16*
X109474000Y-101981000D03*
X112014000Y-101981000D03*
X114554000Y-101981000D03*
X117094000Y-101981000D03*
X119634000Y-101981000D03*
X122174000Y-101981000D03*
X124714000Y-101981000D03*
X124714000Y-94361000D03*
X122174000Y-94361000D03*
X119634000Y-94361000D03*
X117094000Y-94361000D03*
X114554000Y-94361000D03*
X112014000Y-94361000D03*
X109474000Y-94361000D03*
X109474000Y-117475000D03*
X112014000Y-117475000D03*
X114554000Y-117475000D03*
X117094000Y-117475000D03*
X119634000Y-117475000D03*
X122174000Y-117475000D03*
X124714000Y-117475000D03*
X127254000Y-117475000D03*
X129794000Y-117475000D03*
X132334000Y-117475000D03*
X134874000Y-117475000D03*
X137414000Y-117475000D03*
X139954000Y-117475000D03*
X142494000Y-117475000D03*
X142494000Y-109855000D03*
X139954000Y-109855000D03*
X137414000Y-109855000D03*
X134874000Y-109855000D03*
X132334000Y-109855000D03*
X129794000Y-109855000D03*
X127254000Y-109855000D03*
X124714000Y-109855000D03*
X122174000Y-109855000D03*
X119634000Y-109855000D03*
X117094000Y-109855000D03*
X114554000Y-109855000D03*
X112014000Y-109855000D03*
X109474000Y-109855000D03*
D17*
X144272000Y-85209000D03*
D18*
X139192000Y-85209000D03*
D17*
X141732000Y-85209000D03*
D12*
X134874000Y-76327000D03*
D13*
X129874000Y-76327000D03*
D16*
X109474000Y-85471000D03*
X112014000Y-85471000D03*
X114554000Y-85471000D03*
X117094000Y-85471000D03*
X119634000Y-85471000D03*
X122174000Y-85471000D03*
X124714000Y-85471000D03*
X124714000Y-77851000D03*
X122174000Y-77851000D03*
X119634000Y-77851000D03*
X117094000Y-77851000D03*
X114554000Y-77851000D03*
X112014000Y-77851000D03*
X109474000Y-77851000D03*
D19*
X113030000Y-65913000D03*
X115570000Y-65913000D03*
X110490000Y-65913000D03*
D20*
X116078520Y-59560460D03*
D21*
X105918520Y-59560460D03*
D20*
X134366520Y-59560460D03*
D21*
X124206520Y-59560460D03*
D20*
X152654520Y-59560460D03*
D21*
X142494520Y-59560460D03*
D20*
X170942520Y-59560460D03*
D21*
X160782520Y-59560460D03*
D22*
X116078000Y-52664360D03*
X116078000Y-47665640D03*
X134366000Y-52664360D03*
X134366000Y-47665640D03*
X152654000Y-52664360D03*
X152654000Y-47665640D03*
X170942000Y-52918360D03*
X170942000Y-47919640D03*
D19*
X134112000Y-65913000D03*
X136652000Y-65913000D03*
X131572000Y-65913000D03*
X153924000Y-65913000D03*
X156464000Y-65913000D03*
X151384000Y-65913000D03*
X173736000Y-65913000D03*
X176276000Y-65913000D03*
X171196000Y-65913000D03*
D23*
X142494000Y-55753000D03*
X142494000Y-45593000D03*
D16*
X151892000Y-78867000D03*
X151892000Y-81407000D03*
X151892000Y-83947000D03*
X151892000Y-86487000D03*
X151892000Y-89027000D03*
X151892000Y-91567000D03*
X151892000Y-94107000D03*
X159512000Y-94107000D03*
X159512000Y-91567000D03*
X159512000Y-89027000D03*
X159512000Y-86487000D03*
X159512000Y-83947000D03*
X159512000Y-81407000D03*
X159512000Y-78867000D03*
D23*
X146050000Y-55753000D03*
X146050000Y-45593000D03*
X160782000Y-55499000D03*
X160782000Y-45339000D03*
X164084000Y-55499000D03*
X164084000Y-45339000D03*
X105918000Y-55753000D03*
X105918000Y-45593000D03*
X109474000Y-55753000D03*
X109474000Y-45593000D03*
X124206000Y-55753000D03*
X124206000Y-45593000D03*
X127762000Y-55753000D03*
X127762000Y-45593000D03*
D24*
X166265860Y-103632000D03*
X172265340Y-103632000D03*
X169265600Y-98933000D03*
D25*
X139954000Y-121539000D03*
D26*
X139954000Y-124079000D03*
X137414000Y-121539000D03*
X137414000Y-124079000D03*
X134874000Y-121539000D03*
X134874000Y-124079000D03*
D27*
X165862000Y-76286360D03*
X170942000Y-76286360D03*
X165862000Y-91607640D03*
X170942000Y-91607640D03*
D28*
X155448000Y-105537000D03*
X154178000Y-105537000D03*
X156718000Y-105537000D03*
D29*
X110998000Y-35433000D03*
D30*
X105918000Y-35433000D03*
D29*
X129286000Y-35433000D03*
D30*
X124206000Y-35433000D03*
D29*
X147574000Y-35433000D03*
D30*
X142494000Y-35433000D03*
D29*
X165862000Y-35433000D03*
D30*
X160782000Y-35433000D03*
D13*
X104846000Y-65913000D03*
D12*
X101346000Y-65913000D03*
D13*
X125928000Y-65913000D03*
D12*
X122428000Y-65913000D03*
D13*
X145740000Y-65913000D03*
D12*
X142240000Y-65913000D03*
D13*
X165552000Y-65913000D03*
D12*
X162052000Y-65913000D03*
D17*
X144272000Y-96385000D03*
D18*
X139192000Y-96385000D03*
D17*
X141732000Y-96385000D03*
X144272000Y-90797000D03*
D18*
X139192000Y-90797000D03*
D17*
X141732000Y-90797000D03*
X144272000Y-79621000D03*
D18*
X139192000Y-79621000D03*
D17*
X141732000Y-79621000D03*
D12*
X103886000Y-79375000D03*
D13*
X103886000Y-84375000D03*
D12*
X152908000Y-101473000D03*
D13*
X157908000Y-101473000D03*
D12*
X152908000Y-109220000D03*
D13*
X157908000Y-109220000D03*
D12*
X104013000Y-119507000D03*
D13*
X99013000Y-119507000D03*
D12*
X103886000Y-100711000D03*
D13*
X103886000Y-95711000D03*
D12*
X157988000Y-73025000D03*
D13*
X152988000Y-73025000D03*
D12*
X138557000Y-105537000D03*
D13*
X143557000Y-105537000D03*
D28*
X125450600Y-89916000D03*
X126720600Y-89916000D03*
X124180600Y-89916000D03*
D15*
X152908000Y-114935000D03*
X155448000Y-114935000D03*
X157988000Y-114935000D03*
X152908000Y-122682000D03*
X155448000Y-122682000D03*
X157988000Y-122682000D03*
D14*
X130810000Y-124206000D03*
X130810000Y-121666000D03*
X125857000Y-124206000D03*
X125857000Y-121666000D03*
D31*
X106934000Y-105537000D03*
D32*
X109474000Y-105537000D03*
X112014000Y-105537000D03*
X114554000Y-105537000D03*
D12*
X148209000Y-117475000D03*
D13*
X148209000Y-114975000D03*
D12*
X136652000Y-102108000D03*
D13*
X134152000Y-102108000D03*
D33*
X134620000Y-97409000D03*
D34*
X134620000Y-94869000D03*
X134620000Y-92329000D03*
X134620000Y-89789000D03*
X134620000Y-87249000D03*
X134620000Y-84709000D03*
X134620000Y-82169000D03*
X134620000Y-79629000D03*
D35*
X109474000Y-73025000D03*
D36*
X112014000Y-73025000D03*
X114554000Y-73025000D03*
X117094000Y-73025000D03*
X119634000Y-73025000D03*
X122174000Y-73025000D03*
X124714000Y-73025000D03*
X127254000Y-73025000D03*
D37*
X131064000Y-89789000D03*
D38*
X131064000Y-87249000D03*
X131064000Y-84709000D03*
X131064000Y-82169000D03*
X131064000Y-79629000D03*
D39*
X141224000Y-73025000D03*
D40*
X138684000Y-73025000D03*
X136144000Y-73025000D03*
X133604000Y-73025000D03*
X131064000Y-73025000D03*
D39*
X109474000Y-90297000D03*
D40*
X112014000Y-90297000D03*
X114554000Y-90297000D03*
X117094000Y-90297000D03*
X119634000Y-90297000D03*
D37*
X131064000Y-105537000D03*
D38*
X131064000Y-102997000D03*
X131064000Y-100457000D03*
X131064000Y-97917000D03*
X131064000Y-95377000D03*
D41*
X136652000Y-102108000D02*
X138303000Y-103759000D01*
X141779000Y-103759000D02*
X143557000Y-105537000D01*
X138303000Y-103759000D02*
X141779000Y-103759000D01*
D42*
X101346000Y-65913000D02*
X101346000Y-76835000D01*
X101346000Y-76835000D02*
X103886000Y-79375000D01*
D41*
X134874000Y-76327000D02*
X142621000Y-76327000D01*
X144272000Y-77978000D02*
X144272000Y-79621000D01*
X142621000Y-76327000D02*
X144272000Y-77978000D01*
D43*
X157988000Y-122682000D02*
X157988000Y-114554000D01*
X157988000Y-114554000D02*
X162687000Y-109855000D01*
X162687000Y-109855000D02*
X173990000Y-109855000D01*
X173990000Y-109855000D02*
X176530000Y-107315000D01*
X176530000Y-107315000D02*
X176530000Y-81874360D01*
X176530000Y-81874360D02*
X170942000Y-76286360D01*
D41*
X152908000Y-101473000D02*
X152908000Y-104267000D01*
X144272000Y-91059000D02*
X144272000Y-96393000D01*
X152908000Y-104267000D02*
X154178000Y-105537000D01*
X151892000Y-94107000D02*
X154178000Y-94107000D01*
X155575000Y-75612000D02*
X152988000Y-73025000D01*
X155575000Y-92710000D02*
X155575000Y-75612000D01*
X154178000Y-94107000D02*
X155575000Y-92710000D01*
X155448000Y-105537000D02*
X155448000Y-103933000D01*
X155448000Y-103933000D02*
X157908000Y-101473000D01*
X156718000Y-107569000D02*
X156718000Y-105537000D01*
X148209000Y-117475000D02*
X149606000Y-117475000D01*
X150622000Y-111506000D02*
X152908000Y-109220000D01*
X150622000Y-116459000D02*
X150622000Y-111506000D01*
X149606000Y-117475000D02*
X150622000Y-116459000D01*
X157988000Y-73025000D02*
X157988000Y-77343000D01*
X157988000Y-77343000D02*
X159512000Y-78867000D01*
X155448000Y-122682000D02*
X155448000Y-119507000D01*
X155448000Y-119507000D02*
X155448000Y-114554000D01*
X155448000Y-114554000D02*
X155448000Y-112268000D01*
X155448000Y-112268000D02*
X152908000Y-109728000D01*
X152908000Y-109728000D02*
X152908000Y-109220000D01*
X152908000Y-109220000D02*
X155067000Y-109220000D01*
X155067000Y-109220000D02*
X156718000Y-107569000D01*
X152908000Y-109220000D02*
X153162000Y-109220000D01*
D44*
X124714000Y-117475000D02*
X124714000Y-117602000D01*
X124714000Y-117602000D02*
X128778000Y-121666000D01*
X128778000Y-121666000D02*
X130810000Y-121666000D01*
X124714000Y-117475000D02*
X124714000Y-117729000D01*
D41*
X124714000Y-117475000D02*
X124714000Y-116459000D01*
X129794000Y-111379000D02*
X129794000Y-109855000D01*
X124714000Y-116459000D02*
X129794000Y-111379000D01*
X103886000Y-100711000D02*
X109474000Y-95123000D01*
X109474000Y-95123000D02*
X109474000Y-90297000D01*
D44*
X146558000Y-100838000D02*
X149352000Y-98044000D01*
X146558000Y-100838000D02*
X146558000Y-106553000D01*
X149352000Y-98044000D02*
X149352000Y-93853000D01*
X149352000Y-93853000D02*
X150368000Y-92837000D01*
X150368000Y-92837000D02*
X152781000Y-92837000D01*
X152781000Y-92837000D02*
X154178000Y-91440000D01*
X151892000Y-81407000D02*
X152908000Y-81407000D01*
X154178000Y-82677000D02*
X154178000Y-91440000D01*
X152908000Y-81407000D02*
X154178000Y-82677000D01*
X137414000Y-112395000D02*
X137414000Y-117475000D01*
X136144000Y-111125000D02*
X137414000Y-112395000D01*
X136144000Y-108839000D02*
X136144000Y-111125000D01*
X136779000Y-108204000D02*
X136144000Y-108839000D01*
X144907000Y-108204000D02*
X136779000Y-108204000D01*
X146558000Y-106553000D02*
X144907000Y-108204000D01*
X134747000Y-107188000D02*
X144272000Y-107188000D01*
X145542000Y-105918000D02*
X145542000Y-100076000D01*
X144272000Y-107188000D02*
X145542000Y-105918000D01*
X134874000Y-117475000D02*
X134874000Y-112141000D01*
X148463000Y-92456000D02*
X151892000Y-89027000D01*
X145542000Y-100076000D02*
X148463000Y-97155000D01*
X148463000Y-97155000D02*
X148463000Y-92456000D01*
X133604000Y-108331000D02*
X134747000Y-107188000D01*
X133604000Y-110871000D02*
X133604000Y-108331000D01*
X134874000Y-112141000D02*
X133604000Y-110871000D01*
X139954000Y-109855000D02*
X139954000Y-110366000D01*
X139954000Y-110366000D02*
X141087000Y-111499000D01*
X141087000Y-111499000D02*
X144914000Y-111499000D01*
X154432000Y-99441000D02*
X157861000Y-96012000D01*
X151130000Y-99441000D02*
X154432000Y-99441000D01*
X148590000Y-101981000D02*
X151130000Y-99441000D01*
X148590000Y-107823000D02*
X148590000Y-101981000D01*
X144914000Y-111499000D02*
X148590000Y-107823000D01*
X157861000Y-96012000D02*
X157861000Y-90678000D01*
X157861000Y-90678000D02*
X159512000Y-89027000D01*
X142494000Y-109855000D02*
X144780000Y-109855000D01*
X144780000Y-109855000D02*
X147574000Y-107061000D01*
X153670000Y-98171000D02*
X150749000Y-98171000D01*
X147574000Y-101346000D02*
X147574000Y-107061000D01*
X150749000Y-98171000D02*
X147574000Y-101346000D01*
X153670000Y-98171000D02*
X156845000Y-94996000D01*
X156845000Y-94996000D02*
X156845000Y-82423000D01*
X156845000Y-82423000D02*
X157861000Y-81407000D01*
X157861000Y-81407000D02*
X159512000Y-81407000D01*
X117094000Y-109601000D02*
X118364000Y-108331000D01*
X118364000Y-108331000D02*
X118364000Y-95631000D01*
X117094000Y-109855000D02*
X117094000Y-109601000D01*
X118364000Y-95631000D02*
X119634000Y-94361000D01*
X115824000Y-95631000D02*
X114554000Y-94361000D01*
X115824000Y-103251000D02*
X115824000Y-95631000D01*
X114554000Y-109474000D02*
X116840000Y-107188000D01*
X114554000Y-109855000D02*
X114554000Y-109474000D01*
X116840000Y-104267000D02*
X115824000Y-103251000D01*
X116840000Y-107188000D02*
X116840000Y-104267000D01*
X122174000Y-101981000D02*
X122174000Y-102489000D01*
X122174000Y-102489000D02*
X119634000Y-105029000D01*
X119634000Y-105029000D02*
X119634000Y-109855000D01*
X124714000Y-94361000D02*
X124714000Y-98933000D01*
X120777000Y-108458000D02*
X122174000Y-109855000D01*
X120777000Y-105029000D02*
X120777000Y-108458000D01*
X121920000Y-103886000D02*
X120777000Y-105029000D01*
X122555000Y-103886000D02*
X121920000Y-103886000D01*
X123444000Y-102997000D02*
X122555000Y-103886000D01*
X123444000Y-100203000D02*
X123444000Y-102997000D01*
X124714000Y-98933000D02*
X123444000Y-100203000D01*
X141605000Y-68453000D02*
X144018000Y-68453000D01*
X136906000Y-63754000D02*
X141605000Y-68453000D01*
X121285000Y-63754000D02*
X136906000Y-63754000D01*
X144018000Y-68453000D02*
X149860000Y-74295000D01*
X119126000Y-65913000D02*
X121285000Y-63754000D01*
X115570000Y-65913000D02*
X119126000Y-65913000D01*
X149860000Y-81915000D02*
X151892000Y-83947000D01*
X149860000Y-74295000D02*
X149860000Y-81915000D01*
X149098000Y-74803000D02*
X149098000Y-85725000D01*
X149098000Y-85725000D02*
X151130000Y-87757000D01*
X151892000Y-91567000D02*
X151892000Y-91313000D01*
X151892000Y-91313000D02*
X153416000Y-89789000D01*
X152654000Y-87757000D02*
X151130000Y-87757000D01*
X153416000Y-88519000D02*
X152654000Y-87757000D01*
X153416000Y-89789000D02*
X153416000Y-88519000D01*
X149098000Y-74803000D02*
X143510000Y-69215000D01*
X143510000Y-69215000D02*
X139954000Y-69215000D01*
X139954000Y-69215000D02*
X136652000Y-65913000D01*
X159512000Y-94107000D02*
X159766000Y-94107000D01*
X159766000Y-94107000D02*
X161036000Y-93091000D01*
X161798000Y-71247000D02*
X156464000Y-65913000D01*
X161798000Y-81661000D02*
X161798000Y-71247000D01*
X160782000Y-82677000D02*
X161798000Y-81661000D01*
X159019820Y-82677000D02*
X160782000Y-82677000D01*
X158064200Y-83632620D02*
X159019820Y-82677000D01*
X158064200Y-87071200D02*
X158064200Y-83632620D01*
X158750000Y-87757000D02*
X158064200Y-87071200D01*
X160528000Y-87757000D02*
X158750000Y-87757000D01*
X161036000Y-88519000D02*
X160528000Y-87757000D01*
X161036000Y-93091000D02*
X161036000Y-88519000D01*
X162814000Y-71247000D02*
X164084000Y-69723000D01*
X176276000Y-63881000D02*
X176276000Y-65913000D01*
X175006000Y-62611000D02*
X176276000Y-63881000D01*
X165608000Y-62611000D02*
X175006000Y-62611000D01*
X164084000Y-64389000D02*
X165608000Y-62611000D01*
X164084000Y-69723000D02*
X164084000Y-64389000D01*
X159512000Y-86487000D02*
X159512000Y-85979000D01*
X159512000Y-85979000D02*
X162814000Y-82677000D01*
X162814000Y-82677000D02*
X162814000Y-71247000D01*
X130810000Y-124206000D02*
X129921000Y-124206000D01*
X111252000Y-115697000D02*
X109474000Y-117475000D01*
X114808000Y-115697000D02*
X111252000Y-115697000D01*
X115824000Y-116713000D02*
X114808000Y-115697000D01*
X115824000Y-118110000D02*
X115824000Y-116713000D01*
X116840000Y-119126000D02*
X115824000Y-118110000D01*
X124841000Y-119126000D02*
X116840000Y-119126000D01*
X129921000Y-124206000D02*
X124841000Y-119126000D01*
X130810000Y-124206000D02*
X131191000Y-124206000D01*
X131191000Y-124206000D02*
X133858000Y-121539000D01*
X133858000Y-121539000D02*
X134874000Y-121539000D01*
X120777000Y-121666000D02*
X116586000Y-121666000D01*
X112014000Y-119634000D02*
X112014000Y-117475000D01*
X112776000Y-120396000D02*
X112014000Y-119634000D01*
X115316000Y-120396000D02*
X112776000Y-120396000D01*
X116586000Y-121666000D02*
X115316000Y-120396000D01*
X114554000Y-117475000D02*
X114554000Y-118491000D01*
X124587000Y-120396000D02*
X125857000Y-121666000D01*
X116459000Y-120396000D02*
X124587000Y-120396000D01*
X114554000Y-118491000D02*
X116459000Y-120396000D01*
X137414000Y-124079000D02*
X138684000Y-122809000D01*
X138684000Y-111125000D02*
X137414000Y-109855000D01*
X138684000Y-118237000D02*
X138684000Y-111125000D01*
X139700000Y-119253000D02*
X138684000Y-118237000D01*
X140716000Y-119253000D02*
X139700000Y-119253000D01*
X141224000Y-119761000D02*
X140716000Y-119253000D01*
X141224000Y-122809000D02*
X141224000Y-119761000D01*
X138684000Y-122809000D02*
X141224000Y-122809000D01*
X139954000Y-121539000D02*
X139446000Y-121539000D01*
X139446000Y-121539000D02*
X136144000Y-118237000D01*
X136144000Y-118237000D02*
X136144000Y-112395000D01*
X136144000Y-112395000D02*
X134874000Y-111125000D01*
X134874000Y-111125000D02*
X134874000Y-109855000D01*
X137414000Y-121539000D02*
X135128000Y-119253000D01*
X132334000Y-111887000D02*
X132334000Y-109855000D01*
X133604000Y-113157000D02*
X132334000Y-111887000D01*
X133604000Y-118491000D02*
X133604000Y-113157000D01*
X134366000Y-119253000D02*
X133604000Y-118491000D01*
X135128000Y-119253000D02*
X134366000Y-119253000D01*
X119634000Y-85471000D02*
X119634000Y-86639400D01*
X120243600Y-87249000D02*
X131064000Y-87249000D01*
X119634000Y-86639400D02*
X120243600Y-87249000D01*
X131064000Y-87249000D02*
X131191000Y-87249000D01*
X131191000Y-87249000D02*
X132842000Y-88900000D01*
X132842000Y-93091000D02*
X134620000Y-94869000D01*
X132842000Y-88900000D02*
X132842000Y-93091000D01*
X124714000Y-85471000D02*
X130302000Y-85471000D01*
X130302000Y-85471000D02*
X131064000Y-84709000D01*
X131064000Y-84709000D02*
X132842000Y-86487000D01*
X132842000Y-86487000D02*
X132842000Y-88011000D01*
X132842000Y-88011000D02*
X134620000Y-89789000D01*
X117094000Y-77851000D02*
X117094000Y-78968600D01*
X120294400Y-82169000D02*
X131064000Y-82169000D01*
X117094000Y-78968600D02*
X120294400Y-82169000D01*
X131064000Y-82169000D02*
X132080000Y-82169000D01*
X132080000Y-82169000D02*
X134620000Y-84709000D01*
X122174000Y-77851000D02*
X122174000Y-79171800D01*
X122631200Y-79629000D02*
X131064000Y-79629000D01*
X122174000Y-79171800D02*
X122631200Y-79629000D01*
X131064000Y-79629000D02*
X134620000Y-79629000D01*
X134620000Y-97409000D02*
X135636000Y-97409000D01*
X135636000Y-97409000D02*
X138176000Y-94869000D01*
X138176000Y-94869000D02*
X140208000Y-94869000D01*
X140208000Y-94869000D02*
X141732000Y-96393000D01*
X141732000Y-90797000D02*
X141732000Y-90297000D01*
X141732000Y-90297000D02*
X140716000Y-89281000D01*
X140716000Y-89281000D02*
X137668000Y-89281000D01*
X137668000Y-89281000D02*
X134620000Y-92329000D01*
X112014000Y-85471000D02*
X112014000Y-87757000D01*
X112014000Y-87757000D02*
X114554000Y-90297000D01*
X114554000Y-90297000D02*
X114554000Y-91821000D01*
X114554000Y-91821000D02*
X117094000Y-94361000D01*
X112014000Y-90297000D02*
X112014000Y-94361000D01*
X109474000Y-85471000D02*
X109474000Y-87757000D01*
X109474000Y-87757000D02*
X112014000Y-90297000D01*
X112014000Y-77851000D02*
X112014000Y-80137000D01*
X115824000Y-86487000D02*
X119634000Y-90297000D01*
X115824000Y-83947000D02*
X115824000Y-86487000D01*
X112014000Y-80137000D02*
X115824000Y-83947000D01*
X119634000Y-90297000D02*
X120396000Y-90297000D01*
X120396000Y-90297000D02*
X123444000Y-93345000D01*
X123444000Y-98171000D02*
X119634000Y-101981000D01*
X123444000Y-93345000D02*
X123444000Y-98171000D01*
X109474000Y-77851000D02*
X109474000Y-81026000D01*
X113284000Y-86487000D02*
X117094000Y-90297000D01*
X113284000Y-84836000D02*
X113284000Y-86487000D01*
X109474000Y-81026000D02*
X113284000Y-84836000D01*
X117094000Y-90297000D02*
X117221000Y-90297000D01*
X117221000Y-90297000D02*
X119380000Y-92456000D01*
X120269000Y-92456000D02*
X122174000Y-94361000D01*
X119380000Y-92456000D02*
X120269000Y-92456000D01*
X141732000Y-85217000D02*
X141732000Y-84709000D01*
X138176000Y-83693000D02*
X134620000Y-87249000D01*
X140716000Y-83693000D02*
X138176000Y-83693000D01*
X141732000Y-84709000D02*
X140716000Y-83693000D01*
X141732000Y-80137000D02*
X141732000Y-81407000D01*
X140970000Y-82169000D02*
X134620000Y-82169000D01*
X141732000Y-81407000D02*
X140970000Y-82169000D01*
D45*
X109474000Y-45593000D02*
X109474000Y-52197000D01*
X108331000Y-73025000D02*
X109474000Y-73025000D01*
X106299000Y-70993000D02*
X108331000Y-73025000D01*
X106299000Y-62611000D02*
X106299000Y-70993000D01*
X111125000Y-57785000D02*
X106299000Y-62611000D01*
X111125000Y-53848000D02*
X111125000Y-57785000D01*
X109474000Y-52197000D02*
X111125000Y-53848000D01*
X114554000Y-73025000D02*
X114554000Y-72517000D01*
X114554000Y-72517000D02*
X113157000Y-71120000D01*
X113665000Y-45593000D02*
X124206000Y-45593000D01*
X112014000Y-47244000D02*
X113665000Y-45593000D01*
X112014000Y-58293000D02*
X112014000Y-47244000D01*
X107188000Y-63119000D02*
X112014000Y-58293000D01*
X107188000Y-69977000D02*
X107188000Y-63119000D01*
X108331000Y-71120000D02*
X107188000Y-69977000D01*
X113157000Y-71120000D02*
X108331000Y-71120000D01*
X114554000Y-73025000D02*
X114554000Y-72771000D01*
X119634000Y-73025000D02*
X119634000Y-72009000D01*
X119634000Y-72009000D02*
X117856000Y-70231000D01*
X117856000Y-70231000D02*
X108966000Y-70231000D01*
X108966000Y-70231000D02*
X108077000Y-69342000D01*
X108077000Y-69342000D02*
X108077000Y-63500000D01*
X108077000Y-63500000D02*
X112903000Y-58674000D01*
X112903000Y-58674000D02*
X112903000Y-51562000D01*
X112903000Y-51562000D02*
X114681000Y-49784000D01*
X114681000Y-49784000D02*
X138303000Y-49784000D01*
X138303000Y-49784000D02*
X142494000Y-45593000D01*
X150622000Y-45339000D02*
X145288000Y-50673000D01*
X150622000Y-45339000D02*
X160782000Y-45339000D01*
X115189000Y-50673000D02*
X145288000Y-50673000D01*
X108966000Y-68707000D02*
X109601000Y-69342000D01*
X109601000Y-69342000D02*
X121031000Y-69342000D01*
X124714000Y-73025000D02*
X121031000Y-69342000D01*
X113792000Y-58928000D02*
X113792000Y-52070000D01*
X113792000Y-58928000D02*
X108966000Y-63754000D01*
X108966000Y-63754000D02*
X108966000Y-68707000D01*
X113792000Y-52070000D02*
X115189000Y-50673000D01*
D44*
X112014000Y-73025000D02*
X112014000Y-75107800D01*
X117094000Y-83642200D02*
X117094000Y-85471000D01*
X113309400Y-79857600D02*
X117094000Y-83642200D01*
X113309400Y-76403200D02*
X113309400Y-79857600D01*
X112014000Y-75107800D02*
X113309400Y-76403200D01*
X117094000Y-73025000D02*
X117094000Y-74498200D01*
X115900200Y-79197200D02*
X122174000Y-85471000D01*
X115900200Y-75692000D02*
X115900200Y-79197200D01*
X117094000Y-74498200D02*
X115900200Y-75692000D01*
X119634000Y-77851000D02*
X119634000Y-75565000D01*
X119634000Y-75565000D02*
X122174000Y-73025000D01*
X127254000Y-73025000D02*
X127254000Y-73533000D01*
X127254000Y-73533000D02*
X124714000Y-76073000D01*
X124714000Y-76073000D02*
X124714000Y-77851000D01*
X120777000Y-124206000D02*
X116713000Y-124206000D01*
X113284000Y-125095000D02*
X112141000Y-123952000D01*
X115824000Y-125095000D02*
X113284000Y-125095000D01*
X116713000Y-124206000D02*
X115824000Y-125095000D01*
X112141000Y-123952000D02*
X112141000Y-122682000D01*
X114681000Y-122682000D02*
X119126000Y-122682000D01*
X124714000Y-123063000D02*
X125857000Y-124206000D01*
X119507000Y-123063000D02*
X124714000Y-123063000D01*
X119126000Y-122682000D02*
X119507000Y-123063000D01*
X139192000Y-85209000D02*
X139192000Y-85598000D01*
X139192000Y-85598000D02*
X141605000Y-88011000D01*
X141605000Y-88011000D02*
X143891000Y-88011000D01*
X143891000Y-88011000D02*
X145669000Y-89789000D01*
X145669000Y-89789000D02*
X145669000Y-97282000D01*
X145669000Y-97282000D02*
X142113000Y-100838000D01*
X142113000Y-100838000D02*
X133731000Y-100838000D01*
X133731000Y-100838000D02*
X131572000Y-102997000D01*
X131572000Y-102997000D02*
X131064000Y-102997000D01*
X143002000Y-98298000D02*
X143002000Y-94607000D01*
X141351000Y-99949000D02*
X143002000Y-98298000D01*
X132969000Y-99949000D02*
X141351000Y-99949000D01*
X131064000Y-100457000D02*
X132461000Y-100457000D01*
X132461000Y-100457000D02*
X132969000Y-99949000D01*
X143002000Y-94607000D02*
X139192000Y-90797000D01*
X130810000Y-97917000D02*
X132080000Y-97917000D01*
X133347828Y-99184828D02*
X132080000Y-97917000D01*
X133347828Y-99184828D02*
X137707791Y-99147209D01*
X137707791Y-99147209D02*
X139192000Y-97663000D01*
X139192000Y-96385000D02*
X139192000Y-97663000D01*
D43*
X170942000Y-91607640D02*
X165862000Y-91607640D01*
X165862000Y-91607640D02*
X165100000Y-92369640D01*
X165100000Y-92369640D02*
X165100000Y-102466140D01*
X165100000Y-102466140D02*
X166265860Y-103632000D01*
D41*
X131064000Y-105537000D02*
X132080000Y-105537000D01*
X131064000Y-105537000D02*
X136906000Y-105537000D01*
X128778000Y-103251000D02*
X131064000Y-105537000D01*
X134152000Y-102783000D02*
X136906000Y-105537000D01*
X128778000Y-91186000D02*
X128778000Y-103251000D01*
X127508000Y-89916000D02*
X128778000Y-91186000D01*
X126746000Y-89916000D02*
X127508000Y-89916000D01*
D45*
X126746000Y-89916000D02*
X126746000Y-90297000D01*
D41*
X134152000Y-102108000D02*
X134152000Y-102783000D01*
X136906000Y-105537000D02*
X138557000Y-105537000D01*
D44*
X127254000Y-105537000D02*
X127254000Y-109855000D01*
X119634000Y-113411000D02*
X119634000Y-117475000D01*
X118745000Y-112522000D02*
X119634000Y-113411000D01*
X111506000Y-112522000D02*
X118745000Y-112522000D01*
X110744000Y-111760000D02*
X111506000Y-112522000D01*
X110744000Y-107823000D02*
X110744000Y-111760000D01*
X112014000Y-106553000D02*
X110744000Y-107823000D01*
X112014000Y-105537000D02*
X112014000Y-106553000D01*
X114554000Y-106172000D02*
X112014000Y-108712000D01*
X114554000Y-105537000D02*
X114554000Y-106172000D01*
X112014000Y-108712000D02*
X112014000Y-109855000D01*
X106934000Y-105537000D02*
X106934000Y-111887000D01*
X117094000Y-114554000D02*
X116205000Y-113665000D01*
X116205000Y-113665000D02*
X108712000Y-113665000D01*
X117094000Y-117475000D02*
X117094000Y-114554000D01*
X106934000Y-111887000D02*
X108712000Y-113665000D01*
X109474000Y-105537000D02*
X109474000Y-109855000D01*
D46*
G36*
X179388000Y-127318000D02*
X92392000Y-127318000D01*
X92392000Y-122809000D01*
X108212890Y-122809000D01*
X108212890Y-123563380D01*
X108367154Y-124084919D01*
X108709260Y-124507724D01*
X109187125Y-124767427D01*
X109259326Y-124781783D01*
X109474000Y-124659162D01*
X109474000Y-122809000D01*
X108212890Y-122809000D01*
X92392000Y-122809000D01*
X92392000Y-121800620D01*
X108212890Y-121800620D01*
X108212890Y-122555000D01*
X109474000Y-122555000D01*
X109474000Y-120704838D01*
X109259326Y-120582217D01*
X109187125Y-120596573D01*
X108709260Y-120856276D01*
X108367154Y-121279081D01*
X108212890Y-121800620D01*
X92392000Y-121800620D01*
X92392000Y-120406016D01*
X98293590Y-120406016D01*
X98349271Y-120636611D01*
X98832078Y-120804622D01*
X99342428Y-120775083D01*
X99676729Y-120636611D01*
X99732410Y-120406016D01*
X99013000Y-119686605D01*
X98293590Y-120406016D01*
X92392000Y-120406016D01*
X92392000Y-119326078D01*
X97715378Y-119326078D01*
X97744917Y-119836428D01*
X97883389Y-120170729D01*
X98113984Y-120226410D01*
X98833395Y-119507000D01*
X99192605Y-119507000D01*
X99912016Y-120226410D01*
X100142611Y-120170729D01*
X100310622Y-119687922D01*
X100281083Y-119177572D01*
X100148298Y-118857000D01*
X102468819Y-118857000D01*
X102468819Y-120157000D01*
X102529971Y-120481997D01*
X102722044Y-120780486D01*
X103015114Y-120980732D01*
X103363000Y-121051181D01*
X104663000Y-121051181D01*
X104987997Y-120990029D01*
X105286486Y-120797956D01*
X105486732Y-120504886D01*
X105557181Y-120157000D01*
X105557181Y-118857000D01*
X105496029Y-118532003D01*
X105303956Y-118233514D01*
X105010886Y-118033268D01*
X104663000Y-117962819D01*
X103363000Y-117962819D01*
X103038003Y-118023971D01*
X102739514Y-118216044D01*
X102539268Y-118509114D01*
X102468819Y-118857000D01*
X100148298Y-118857000D01*
X100142611Y-118843271D01*
X99912016Y-118787590D01*
X99192605Y-119507000D01*
X98833395Y-119507000D01*
X98113984Y-118787590D01*
X97883389Y-118843271D01*
X97715378Y-119326078D01*
X92392000Y-119326078D01*
X92392000Y-118607984D01*
X98293590Y-118607984D01*
X99013000Y-119327395D01*
X99732410Y-118607984D01*
X99676729Y-118377389D01*
X99193922Y-118209378D01*
X98683572Y-118238917D01*
X98349271Y-118377389D01*
X98293590Y-118607984D01*
X92392000Y-118607984D01*
X92392000Y-113847544D01*
X97022571Y-113847544D01*
X97398877Y-114758275D01*
X98095060Y-115455674D01*
X99005133Y-115833569D01*
X99990544Y-115834429D01*
X100901275Y-115458123D01*
X101598674Y-114761940D01*
X101976569Y-113851867D01*
X101977429Y-112866456D01*
X101601123Y-111955725D01*
X100904940Y-111258326D01*
X99994867Y-110880431D01*
X99009456Y-110879571D01*
X98098725Y-111255877D01*
X97401326Y-111952060D01*
X97023431Y-112862133D01*
X97022571Y-113847544D01*
X92392000Y-113847544D01*
X92392000Y-102330041D01*
X108082086Y-102330041D01*
X108321611Y-102836134D01*
X108736577Y-103212041D01*
X109124961Y-103372904D01*
X109347000Y-103250915D01*
X109347000Y-102108000D01*
X108203371Y-102108000D01*
X108082086Y-102330041D01*
X92392000Y-102330041D01*
X92392000Y-100061000D01*
X102341819Y-100061000D01*
X102341819Y-101361000D01*
X102402971Y-101685997D01*
X102595044Y-101984486D01*
X102888114Y-102184732D01*
X103236000Y-102255181D01*
X104536000Y-102255181D01*
X104860997Y-102194029D01*
X105159486Y-102001956D01*
X105359732Y-101708886D01*
X105375310Y-101631959D01*
X108082086Y-101631959D01*
X108203371Y-101854000D01*
X109347000Y-101854000D01*
X109347000Y-100711085D01*
X109124961Y-100589096D01*
X108736577Y-100749959D01*
X108321611Y-101125866D01*
X108082086Y-101631959D01*
X105375310Y-101631959D01*
X105430181Y-101361000D01*
X105430181Y-101114191D01*
X110447686Y-96096686D01*
X110746182Y-95649955D01*
X110775766Y-95501226D01*
X110828182Y-95579672D01*
X111372240Y-95943200D01*
X112014000Y-96070854D01*
X112655760Y-95943200D01*
X113199818Y-95579672D01*
X113284000Y-95453685D01*
X113368182Y-95579672D01*
X113912240Y-95943200D01*
X114554000Y-96070854D01*
X114739253Y-96034005D01*
X114772000Y-96066752D01*
X114772000Y-100661089D01*
X114681000Y-100711085D01*
X114681000Y-101854000D01*
X114701000Y-101854000D01*
X114701000Y-102108000D01*
X114681000Y-102108000D01*
X114681000Y-103250915D01*
X114783146Y-103307034D01*
X114852079Y-103653583D01*
X114861806Y-103668140D01*
X114554000Y-103606914D01*
X113887901Y-103739409D01*
X113323210Y-104116724D01*
X113284000Y-104175406D01*
X113244790Y-104116724D01*
X112680099Y-103739409D01*
X112224998Y-103648884D01*
X112655760Y-103563200D01*
X113199818Y-103199672D01*
X113427223Y-102859336D01*
X113816577Y-103212041D01*
X114204961Y-103372904D01*
X114427000Y-103250915D01*
X114427000Y-102108000D01*
X114407000Y-102108000D01*
X114407000Y-101854000D01*
X114427000Y-101854000D01*
X114427000Y-100711085D01*
X114204961Y-100589096D01*
X113816577Y-100749959D01*
X113427223Y-101102664D01*
X113199818Y-100762328D01*
X112655760Y-100398800D01*
X112014000Y-100271146D01*
X111372240Y-100398800D01*
X110828182Y-100762328D01*
X110600777Y-101102664D01*
X110211423Y-100749959D01*
X109823039Y-100589096D01*
X109601000Y-100711085D01*
X109601000Y-101854000D01*
X109621000Y-101854000D01*
X109621000Y-102108000D01*
X109601000Y-102108000D01*
X109601000Y-103250915D01*
X109823039Y-103372904D01*
X110211423Y-103212041D01*
X110600777Y-102859336D01*
X110828182Y-103199672D01*
X111372240Y-103563200D01*
X111803002Y-103648884D01*
X111347901Y-103739409D01*
X110783210Y-104116724D01*
X110744000Y-104175406D01*
X110704790Y-104116724D01*
X110140099Y-103739409D01*
X109474000Y-103606914D01*
X108807901Y-103739409D01*
X108478464Y-103959532D01*
X108438556Y-103897514D01*
X108145486Y-103697268D01*
X107797600Y-103626819D01*
X106070400Y-103626819D01*
X105745403Y-103687971D01*
X105446914Y-103880044D01*
X105246668Y-104173114D01*
X105176219Y-104521000D01*
X105176219Y-106553000D01*
X105237371Y-106877997D01*
X105429444Y-107176486D01*
X105722514Y-107376732D01*
X105882000Y-107409029D01*
X105882000Y-111887000D01*
X105962079Y-112289583D01*
X106190124Y-112630876D01*
X107968124Y-114408877D01*
X108309417Y-114636921D01*
X108712000Y-114717000D01*
X110890033Y-114717000D01*
X110849417Y-114725079D01*
X110508124Y-114953123D01*
X109659252Y-115801995D01*
X109474000Y-115765146D01*
X108832240Y-115892800D01*
X108288182Y-116256328D01*
X107924654Y-116800386D01*
X107797000Y-117442146D01*
X107797000Y-117507854D01*
X107924654Y-118149614D01*
X108288182Y-118693672D01*
X108832240Y-119057200D01*
X109474000Y-119184854D01*
X110115760Y-119057200D01*
X110659818Y-118693672D01*
X110744000Y-118567685D01*
X110828182Y-118693672D01*
X110962000Y-118783086D01*
X110962000Y-119634000D01*
X111042079Y-120036583D01*
X111270124Y-120377876D01*
X111367286Y-120475038D01*
X110988338Y-120728243D01*
X110717327Y-121133840D01*
X110492740Y-120856276D01*
X110014875Y-120596573D01*
X109942674Y-120582217D01*
X109728000Y-120704838D01*
X109728000Y-122555000D01*
X109748000Y-122555000D01*
X109748000Y-122809000D01*
X109728000Y-122809000D01*
X109728000Y-124659162D01*
X109942674Y-124781783D01*
X110014875Y-124767427D01*
X110492740Y-124507724D01*
X110717327Y-124230160D01*
X110988338Y-124635757D01*
X111517184Y-124989120D01*
X111733370Y-125032122D01*
X112540124Y-125838876D01*
X112881417Y-126066921D01*
X113284000Y-126147000D01*
X115824000Y-126147000D01*
X116226583Y-126066921D01*
X116567876Y-125838876D01*
X117148752Y-125258000D01*
X119601014Y-125258000D01*
X119883386Y-125540865D01*
X120462239Y-125781226D01*
X121089011Y-125781773D01*
X121668283Y-125542423D01*
X122111865Y-125099614D01*
X122352226Y-124520761D01*
X122352580Y-124115000D01*
X124278248Y-124115000D01*
X124281576Y-124118328D01*
X124281227Y-124518011D01*
X124520577Y-125097283D01*
X124963386Y-125540865D01*
X125542239Y-125781226D01*
X126169011Y-125781773D01*
X126748283Y-125542423D01*
X127191865Y-125099614D01*
X127432226Y-124520761D01*
X127432773Y-123893989D01*
X127193423Y-123314717D01*
X126815094Y-122935728D01*
X126989187Y-122761939D01*
X129177124Y-124949876D01*
X129518417Y-125177921D01*
X129562909Y-125186771D01*
X129916386Y-125540865D01*
X130495239Y-125781226D01*
X131122011Y-125781773D01*
X131701283Y-125542423D01*
X132144865Y-125099614D01*
X132385226Y-124520761D01*
X132385245Y-124499508D01*
X132446725Y-124438027D01*
X133419032Y-124438027D01*
X133667179Y-124967490D01*
X134099053Y-125361688D01*
X134514974Y-125533958D01*
X134747000Y-125412817D01*
X134747000Y-124206000D01*
X133539531Y-124206000D01*
X133419032Y-124438027D01*
X132446725Y-124438027D01*
X133643306Y-123241446D01*
X133419032Y-123719973D01*
X133539531Y-123952000D01*
X134747000Y-123952000D01*
X134747000Y-123932000D01*
X135001000Y-123932000D01*
X135001000Y-123952000D01*
X135021000Y-123952000D01*
X135021000Y-124206000D01*
X135001000Y-124206000D01*
X135001000Y-125412817D01*
X135233026Y-125533958D01*
X135648947Y-125361688D01*
X135988197Y-125052033D01*
X136183210Y-125343890D01*
X136747901Y-125721205D01*
X137414000Y-125853700D01*
X138080099Y-125721205D01*
X138644790Y-125343890D01*
X138684000Y-125285208D01*
X138723210Y-125343890D01*
X139287901Y-125721205D01*
X139954000Y-125853700D01*
X140620099Y-125721205D01*
X141184790Y-125343890D01*
X141562105Y-124779199D01*
X141694600Y-124113100D01*
X141694600Y-124044900D01*
X141640272Y-123771774D01*
X141967876Y-123552876D01*
X142195921Y-123211583D01*
X142276000Y-122809000D01*
X151519890Y-122809000D01*
X151519890Y-123563380D01*
X151674154Y-124084919D01*
X152016260Y-124507724D01*
X152494125Y-124767427D01*
X152566326Y-124781783D01*
X152781000Y-124659162D01*
X152781000Y-122809000D01*
X151519890Y-122809000D01*
X142276000Y-122809000D01*
X142276000Y-121800620D01*
X151519890Y-121800620D01*
X151519890Y-122555000D01*
X152781000Y-122555000D01*
X152781000Y-120704838D01*
X152566326Y-120582217D01*
X152494125Y-120596573D01*
X152016260Y-120856276D01*
X151674154Y-121279081D01*
X151519890Y-121800620D01*
X142276000Y-121800620D01*
X142276000Y-119761000D01*
X142195921Y-119358417D01*
X142125484Y-119253000D01*
X142016484Y-119089870D01*
X142494000Y-119184854D01*
X143135760Y-119057200D01*
X143679818Y-118693672D01*
X144043346Y-118149614D01*
X144171000Y-117507854D01*
X144171000Y-117442146D01*
X144043346Y-116800386D01*
X143679818Y-116256328D01*
X143135760Y-115892800D01*
X142494000Y-115765146D01*
X141852240Y-115892800D01*
X141308182Y-116256328D01*
X141224000Y-116382315D01*
X141139818Y-116256328D01*
X140595760Y-115892800D01*
X139954000Y-115765146D01*
X139736000Y-115808509D01*
X139736000Y-114794078D01*
X146911378Y-114794078D01*
X146940917Y-115304428D01*
X147079389Y-115638729D01*
X147309984Y-115694410D01*
X148029395Y-114975000D01*
X147309984Y-114255590D01*
X147079389Y-114311271D01*
X146911378Y-114794078D01*
X139736000Y-114794078D01*
X139736000Y-114075984D01*
X147489590Y-114075984D01*
X148209000Y-114795395D01*
X148928410Y-114075984D01*
X148872729Y-113845389D01*
X148389922Y-113677378D01*
X147879572Y-113706917D01*
X147545271Y-113845389D01*
X147489590Y-114075984D01*
X139736000Y-114075984D01*
X139736000Y-111635752D01*
X140343124Y-112242876D01*
X140684417Y-112470921D01*
X141087000Y-112551000D01*
X144914000Y-112551000D01*
X145316583Y-112470921D01*
X145657876Y-112242876D01*
X149333876Y-108566876D01*
X149561921Y-108225583D01*
X149584315Y-108113000D01*
X149642000Y-107823000D01*
X149642000Y-102416752D01*
X151396339Y-100662414D01*
X151363819Y-100823000D01*
X151363819Y-102123000D01*
X151424971Y-102447997D01*
X151531000Y-102612770D01*
X151531000Y-104267000D01*
X151635818Y-104793955D01*
X151934314Y-105240686D01*
X152922911Y-106229283D01*
X152952400Y-106377536D01*
X153239966Y-106807910D01*
X153670340Y-107095476D01*
X154178000Y-107196456D01*
X154685660Y-107095476D01*
X155068076Y-106839954D01*
X155154065Y-106881981D01*
X155320998Y-106755070D01*
X155320998Y-106922570D01*
X155341000Y-106922570D01*
X155341000Y-106998628D01*
X154496628Y-107843000D01*
X154047458Y-107843000D01*
X153905886Y-107746268D01*
X153558000Y-107675819D01*
X152258000Y-107675819D01*
X151933003Y-107736971D01*
X151634514Y-107929044D01*
X151434268Y-108222114D01*
X151363819Y-108570000D01*
X151363819Y-108816809D01*
X149648314Y-110532314D01*
X149349818Y-110979045D01*
X149245000Y-111506000D01*
X149245000Y-114288667D01*
X149108016Y-114255590D01*
X148388605Y-114975000D01*
X149108016Y-115694410D01*
X149245000Y-115661333D01*
X149245000Y-115888628D01*
X149144910Y-115988718D01*
X148912098Y-115941572D01*
X148928410Y-115874016D01*
X148209000Y-115154605D01*
X147489590Y-115874016D01*
X147505726Y-115940843D01*
X147234003Y-115991971D01*
X146935514Y-116184044D01*
X146735268Y-116477114D01*
X146664819Y-116825000D01*
X146664819Y-118125000D01*
X146725971Y-118449997D01*
X146918044Y-118748486D01*
X147211114Y-118948732D01*
X147559000Y-119019181D01*
X148859000Y-119019181D01*
X149183997Y-118958029D01*
X149348770Y-118852000D01*
X149606000Y-118852000D01*
X150132955Y-118747182D01*
X150579686Y-118448686D01*
X151595686Y-117432686D01*
X151894182Y-116985955D01*
X151954232Y-116684064D01*
X152016260Y-116760724D01*
X152494125Y-117020427D01*
X152566326Y-117034783D01*
X152781000Y-116912162D01*
X152781000Y-115062000D01*
X152761000Y-115062000D01*
X152761000Y-114808000D01*
X152781000Y-114808000D01*
X152781000Y-112957838D01*
X152566326Y-112835217D01*
X152494125Y-112849573D01*
X152016260Y-113109276D01*
X151999000Y-113130607D01*
X151999000Y-112076372D01*
X152654000Y-111421372D01*
X154071000Y-112838372D01*
X154071000Y-113316989D01*
X154024327Y-113386840D01*
X153799740Y-113109276D01*
X153321875Y-112849573D01*
X153249674Y-112835217D01*
X153035000Y-112957838D01*
X153035000Y-114808000D01*
X153055000Y-114808000D01*
X153055000Y-115062000D01*
X153035000Y-115062000D01*
X153035000Y-116912162D01*
X153249674Y-117034783D01*
X153321875Y-117020427D01*
X153799740Y-116760724D01*
X154024327Y-116483160D01*
X154071000Y-116553011D01*
X154071000Y-121063989D01*
X154024327Y-121133840D01*
X153799740Y-120856276D01*
X153321875Y-120596573D01*
X153249674Y-120582217D01*
X153035000Y-120704838D01*
X153035000Y-122555000D01*
X153055000Y-122555000D01*
X153055000Y-122809000D01*
X153035000Y-122809000D01*
X153035000Y-124659162D01*
X153249674Y-124781783D01*
X153321875Y-124767427D01*
X153799740Y-124507724D01*
X154024327Y-124230160D01*
X154295338Y-124635757D01*
X154824184Y-124989120D01*
X155448000Y-125113205D01*
X156071816Y-124989120D01*
X156600662Y-124635757D01*
X156636177Y-124582604D01*
X157078361Y-124878062D01*
X157248675Y-124911939D01*
X157364184Y-124989120D01*
X157988000Y-125113205D01*
X158611816Y-124989120D01*
X158727325Y-124911939D01*
X158897639Y-124878062D01*
X159668793Y-124362793D01*
X160184062Y-123591639D01*
X160365000Y-122682000D01*
X160365000Y-115538586D01*
X163671585Y-112232000D01*
X168785085Y-112232000D01*
X168523431Y-112862133D01*
X168522571Y-113847544D01*
X168898877Y-114758275D01*
X169595060Y-115455674D01*
X170505133Y-115833569D01*
X171490544Y-115834429D01*
X172401275Y-115458123D01*
X173098674Y-114761940D01*
X173476569Y-113851867D01*
X173477429Y-112866456D01*
X173215277Y-112232000D01*
X173990000Y-112232000D01*
X174899639Y-112051062D01*
X175670793Y-111535793D01*
X178210793Y-108995793D01*
X178726062Y-108224639D01*
X178907000Y-107315000D01*
X178907000Y-81874360D01*
X178726062Y-80964721D01*
X178210793Y-80193567D01*
X172622793Y-74605567D01*
X171851638Y-74090298D01*
X170942000Y-73909360D01*
X170032362Y-74090298D01*
X169261207Y-74605567D01*
X168745938Y-75376722D01*
X168565000Y-76286360D01*
X168745938Y-77195998D01*
X169261207Y-77967153D01*
X174153000Y-82858946D01*
X174153000Y-101251617D01*
X174141709Y-101246940D01*
X172551090Y-101246940D01*
X172392340Y-101405690D01*
X172392340Y-103505000D01*
X172412340Y-103505000D01*
X172412340Y-103759000D01*
X172392340Y-103759000D01*
X172392340Y-105858310D01*
X172551090Y-106017060D01*
X174141709Y-106017060D01*
X174153000Y-106012383D01*
X174153000Y-106330414D01*
X173005414Y-107478000D01*
X162687005Y-107478000D01*
X162687000Y-107477999D01*
X161777362Y-107658937D01*
X161531825Y-107823000D01*
X161006207Y-108174207D01*
X161006205Y-108174210D01*
X156825000Y-112355414D01*
X156825000Y-112268000D01*
X156720182Y-111741045D01*
X156421686Y-111294314D01*
X155609300Y-110481928D01*
X156040686Y-110193686D01*
X156115356Y-110119016D01*
X157188590Y-110119016D01*
X157244271Y-110349611D01*
X157727078Y-110517622D01*
X158237428Y-110488083D01*
X158571729Y-110349611D01*
X158627410Y-110119016D01*
X157908000Y-109399605D01*
X157188590Y-110119016D01*
X156115356Y-110119016D01*
X156653105Y-109581267D01*
X156778389Y-109883729D01*
X157008984Y-109939410D01*
X157728395Y-109220000D01*
X158087605Y-109220000D01*
X158807016Y-109939410D01*
X159037611Y-109883729D01*
X159205622Y-109400922D01*
X159176083Y-108890572D01*
X159037611Y-108556271D01*
X158807016Y-108500590D01*
X158087605Y-109220000D01*
X157728395Y-109220000D01*
X157714252Y-109205858D01*
X157893858Y-109026252D01*
X157908000Y-109040395D01*
X158627410Y-108320984D01*
X158571729Y-108090389D01*
X158088922Y-107922378D01*
X158023961Y-107926138D01*
X158095000Y-107569000D01*
X158095000Y-105537000D01*
X158044580Y-105283522D01*
X158044580Y-105204124D01*
X157943600Y-104696464D01*
X157656034Y-104266090D01*
X157225660Y-103978524D01*
X156718000Y-103877544D01*
X156210340Y-103978524D01*
X155827924Y-104234046D01*
X155741935Y-104192019D01*
X155575000Y-104318932D01*
X155575000Y-104572844D01*
X155492400Y-104696464D01*
X155448000Y-104919678D01*
X155403600Y-104696464D01*
X155321000Y-104572844D01*
X155321000Y-104318932D01*
X155154065Y-104192019D01*
X155068076Y-104234046D01*
X154685660Y-103978524D01*
X154537407Y-103949035D01*
X154285000Y-103696628D01*
X154285000Y-102612458D01*
X154381732Y-102470886D01*
X154401753Y-102372016D01*
X157188590Y-102372016D01*
X157244271Y-102602611D01*
X157727078Y-102770622D01*
X158237428Y-102741083D01*
X158571729Y-102602611D01*
X158627410Y-102372016D01*
X157908000Y-101652605D01*
X157188590Y-102372016D01*
X154401753Y-102372016D01*
X154452181Y-102123000D01*
X154452181Y-101292078D01*
X156610378Y-101292078D01*
X156639917Y-101802428D01*
X156778389Y-102136729D01*
X157008984Y-102192410D01*
X157728395Y-101473000D01*
X158087605Y-101473000D01*
X158807016Y-102192410D01*
X159037611Y-102136729D01*
X159205622Y-101653922D01*
X159176083Y-101143572D01*
X159037611Y-100809271D01*
X158807016Y-100753590D01*
X158087605Y-101473000D01*
X157728395Y-101473000D01*
X157008984Y-100753590D01*
X156778389Y-100809271D01*
X156610378Y-101292078D01*
X154452181Y-101292078D01*
X154452181Y-100823000D01*
X154405326Y-100573984D01*
X157188590Y-100573984D01*
X157908000Y-101293395D01*
X158627410Y-100573984D01*
X158571729Y-100343389D01*
X158088922Y-100175378D01*
X157578572Y-100204917D01*
X157244271Y-100343389D01*
X157188590Y-100573984D01*
X154405326Y-100573984D01*
X154391029Y-100498003D01*
X154387810Y-100493000D01*
X154432000Y-100493000D01*
X154834583Y-100412921D01*
X155175876Y-100184876D01*
X158604876Y-96755877D01*
X158832921Y-96414583D01*
X158860089Y-96278000D01*
X158913000Y-96012000D01*
X158913000Y-95671387D01*
X159479146Y-95784000D01*
X159544854Y-95784000D01*
X160186614Y-95656346D01*
X160730672Y-95292818D01*
X161094200Y-94748760D01*
X161178674Y-94324078D01*
X161693180Y-93912474D01*
X161731022Y-93867519D01*
X161779876Y-93834876D01*
X161862148Y-93711748D01*
X161957519Y-93598451D01*
X161975277Y-93542439D01*
X162007921Y-93493583D01*
X162036811Y-93348342D01*
X162081566Y-93207174D01*
X162076537Y-93148629D01*
X162088000Y-93091000D01*
X162088000Y-92369640D01*
X162723000Y-92369640D01*
X162723000Y-102466140D01*
X162903938Y-103375779D01*
X163363304Y-104063268D01*
X163419207Y-104146933D01*
X163621619Y-104349345D01*
X163621619Y-105382060D01*
X163682771Y-105707057D01*
X163874844Y-106005546D01*
X164167914Y-106205792D01*
X164515800Y-106276241D01*
X168015920Y-106276241D01*
X168340917Y-106215089D01*
X168639406Y-106023016D01*
X168839652Y-105729946D01*
X168910101Y-105382060D01*
X168910101Y-103917750D01*
X169880280Y-103917750D01*
X169880280Y-105508370D01*
X169976953Y-105741759D01*
X170155582Y-105920387D01*
X170388971Y-106017060D01*
X171979590Y-106017060D01*
X172138340Y-105858310D01*
X172138340Y-103759000D01*
X170039030Y-103759000D01*
X169880280Y-103917750D01*
X168910101Y-103917750D01*
X168910101Y-101881940D01*
X168848949Y-101556943D01*
X168695232Y-101318060D01*
X168979850Y-101318060D01*
X169138600Y-101159310D01*
X169138600Y-99060000D01*
X169392600Y-99060000D01*
X169392600Y-101159310D01*
X169551350Y-101318060D01*
X170217272Y-101318060D01*
X170155582Y-101343613D01*
X169976953Y-101522241D01*
X169880280Y-101755630D01*
X169880280Y-103346250D01*
X170039030Y-103505000D01*
X172138340Y-103505000D01*
X172138340Y-101405690D01*
X171979590Y-101246940D01*
X171313668Y-101246940D01*
X171375358Y-101221387D01*
X171553987Y-101042759D01*
X171650660Y-100809370D01*
X171650660Y-99218750D01*
X171491910Y-99060000D01*
X169392600Y-99060000D01*
X169138600Y-99060000D01*
X169118600Y-99060000D01*
X169118600Y-98806000D01*
X169138600Y-98806000D01*
X169138600Y-96706690D01*
X169392600Y-96706690D01*
X169392600Y-98806000D01*
X171491910Y-98806000D01*
X171650660Y-98647250D01*
X171650660Y-97056630D01*
X171553987Y-96823241D01*
X171375358Y-96644613D01*
X171141969Y-96547940D01*
X169551350Y-96547940D01*
X169392600Y-96706690D01*
X169138600Y-96706690D01*
X168979850Y-96547940D01*
X167477000Y-96547940D01*
X167477000Y-93984640D01*
X170942000Y-93984640D01*
X171851639Y-93803702D01*
X172622793Y-93288433D01*
X173138062Y-92517279D01*
X173319000Y-91607640D01*
X173138062Y-90698001D01*
X172622793Y-89926847D01*
X171851639Y-89411578D01*
X170942000Y-89230640D01*
X165862000Y-89230640D01*
X164952361Y-89411578D01*
X164264281Y-89871339D01*
X164181207Y-89926847D01*
X163419207Y-90688847D01*
X162903938Y-91460001D01*
X162723000Y-92369640D01*
X162088000Y-92369640D01*
X162088000Y-88519000D01*
X162067892Y-88417911D01*
X162068000Y-88314845D01*
X162028241Y-88218574D01*
X162007921Y-88116417D01*
X161950660Y-88030721D01*
X161911317Y-87935455D01*
X161403317Y-87173455D01*
X161329741Y-87099726D01*
X161271876Y-87013124D01*
X161186179Y-86955863D01*
X161138162Y-86907746D01*
X161221854Y-86487000D01*
X161100722Y-85878030D01*
X163557876Y-83420876D01*
X163785921Y-83079583D01*
X163819081Y-82912876D01*
X163866000Y-82677000D01*
X163866000Y-76828473D01*
X164121597Y-77447065D01*
X164698260Y-78024735D01*
X165452091Y-78337753D01*
X166268328Y-78338465D01*
X167022705Y-78026763D01*
X167600375Y-77450100D01*
X167913393Y-76696269D01*
X167914105Y-75880032D01*
X167602403Y-75125655D01*
X167025740Y-74547985D01*
X166271909Y-74234967D01*
X165455672Y-74234255D01*
X164701295Y-74545957D01*
X164123625Y-75122620D01*
X163866000Y-75743050D01*
X163866000Y-71627877D01*
X164892169Y-70396474D01*
X164967901Y-70257313D01*
X165055921Y-70125583D01*
X165065329Y-70078288D01*
X165088377Y-70035936D01*
X165105090Y-69878396D01*
X165136000Y-69723000D01*
X165136000Y-67128818D01*
X165371078Y-67210622D01*
X165881428Y-67181083D01*
X166215729Y-67042611D01*
X166271410Y-66812016D01*
X165552000Y-66092605D01*
X165537858Y-66106748D01*
X165358253Y-65927143D01*
X165372395Y-65913000D01*
X165731605Y-65913000D01*
X166451016Y-66632410D01*
X166681611Y-66576729D01*
X166849622Y-66093922D01*
X166846502Y-66040000D01*
X169810430Y-66040000D01*
X169810430Y-66539110D01*
X169964501Y-67059677D01*
X170306056Y-67481658D01*
X170783097Y-67740810D01*
X170854725Y-67754993D01*
X171069000Y-67632339D01*
X171069000Y-66040000D01*
X169810430Y-66040000D01*
X166846502Y-66040000D01*
X166820083Y-65583572D01*
X166697194Y-65286890D01*
X169810430Y-65286890D01*
X169810430Y-65786000D01*
X171069000Y-65786000D01*
X171069000Y-64193661D01*
X170854725Y-64071007D01*
X170783097Y-64085190D01*
X170306056Y-64344342D01*
X169964501Y-64766323D01*
X169810430Y-65286890D01*
X166697194Y-65286890D01*
X166681611Y-65249271D01*
X166451016Y-65193590D01*
X165731605Y-65913000D01*
X165372395Y-65913000D01*
X165358253Y-65898858D01*
X165537858Y-65719252D01*
X165552000Y-65733395D01*
X166271410Y-65013984D01*
X166215729Y-64783389D01*
X165732922Y-64615378D01*
X165251652Y-64643234D01*
X166091852Y-63663000D01*
X174570248Y-63663000D01*
X175127217Y-64219969D01*
X175125134Y-64221360D01*
X175006000Y-64399657D01*
X174886866Y-64221360D01*
X174358844Y-63868547D01*
X173736000Y-63744656D01*
X173113156Y-63868547D01*
X172585134Y-64221360D01*
X172314382Y-64626570D01*
X172085944Y-64344342D01*
X171608903Y-64085190D01*
X171537275Y-64071007D01*
X171323000Y-64193661D01*
X171323000Y-65786000D01*
X171343000Y-65786000D01*
X171343000Y-66040000D01*
X171323000Y-66040000D01*
X171323000Y-67632339D01*
X171537275Y-67754993D01*
X171608903Y-67740810D01*
X172085944Y-67481658D01*
X172314382Y-67199430D01*
X172585134Y-67604640D01*
X173113156Y-67957453D01*
X173736000Y-68081344D01*
X174358844Y-67957453D01*
X174886866Y-67604640D01*
X175006000Y-67426343D01*
X175125134Y-67604640D01*
X175653156Y-67957453D01*
X176276000Y-68081344D01*
X176898844Y-67957453D01*
X177426866Y-67604640D01*
X177779679Y-67076618D01*
X177903570Y-66453774D01*
X177903570Y-65372226D01*
X177779679Y-64749382D01*
X177426866Y-64221360D01*
X177328000Y-64155300D01*
X177328000Y-63881000D01*
X177247921Y-63478417D01*
X177019876Y-63137124D01*
X175749876Y-61867124D01*
X175408583Y-61639079D01*
X175006000Y-61559000D01*
X165608000Y-61559000D01*
X165567903Y-61566976D01*
X165527315Y-61562099D01*
X165367848Y-61606769D01*
X165205417Y-61639079D01*
X165171424Y-61661792D01*
X165132060Y-61672819D01*
X165001825Y-61775115D01*
X164864124Y-61867124D01*
X164841412Y-61901115D01*
X164809262Y-61926368D01*
X163285262Y-63704367D01*
X163204084Y-63848722D01*
X163112079Y-63986417D01*
X163104103Y-64026513D01*
X163084065Y-64062146D01*
X163064309Y-64226571D01*
X163032000Y-64389000D01*
X163032000Y-64435646D01*
X162702000Y-64368819D01*
X161402000Y-64368819D01*
X161077003Y-64429971D01*
X160778514Y-64622044D01*
X160578268Y-64915114D01*
X160507819Y-65263000D01*
X160507819Y-66563000D01*
X160568971Y-66887997D01*
X160761044Y-67186486D01*
X161054114Y-67386732D01*
X161402000Y-67457181D01*
X162702000Y-67457181D01*
X163026997Y-67396029D01*
X163032000Y-67392810D01*
X163032000Y-69342123D01*
X162281489Y-70242737D01*
X158091570Y-66052818D01*
X158091570Y-65372226D01*
X157967679Y-64749382D01*
X157614866Y-64221360D01*
X157086844Y-63868547D01*
X156464000Y-63744656D01*
X155841156Y-63868547D01*
X155313134Y-64221360D01*
X155194000Y-64399657D01*
X155074866Y-64221360D01*
X154546844Y-63868547D01*
X153924000Y-63744656D01*
X153301156Y-63868547D01*
X152773134Y-64221360D01*
X152502382Y-64626570D01*
X152273944Y-64344342D01*
X151796903Y-64085190D01*
X151725275Y-64071007D01*
X151511000Y-64193661D01*
X151511000Y-65786000D01*
X151531000Y-65786000D01*
X151531000Y-66040000D01*
X151511000Y-66040000D01*
X151511000Y-67632339D01*
X151725275Y-67754993D01*
X151796903Y-67740810D01*
X152273944Y-67481658D01*
X152502382Y-67199430D01*
X152773134Y-67604640D01*
X153301156Y-67957453D01*
X153924000Y-68081344D01*
X154546844Y-67957453D01*
X155074866Y-67604640D01*
X155194000Y-67426343D01*
X155313134Y-67604640D01*
X155841156Y-67957453D01*
X156464000Y-68081344D01*
X157031675Y-67968427D01*
X160746000Y-71682752D01*
X160746000Y-77704122D01*
X160730672Y-77681182D01*
X160186614Y-77317654D01*
X159841348Y-77248976D01*
X159365000Y-76772628D01*
X159365000Y-74164458D01*
X159461732Y-74022886D01*
X159532181Y-73675000D01*
X159532181Y-72375000D01*
X159471029Y-72050003D01*
X159278956Y-71751514D01*
X158985886Y-71551268D01*
X158638000Y-71480819D01*
X157338000Y-71480819D01*
X157013003Y-71541971D01*
X156714514Y-71734044D01*
X156514268Y-72027114D01*
X156443819Y-72375000D01*
X156443819Y-73675000D01*
X156504971Y-73999997D01*
X156611000Y-74164770D01*
X156611000Y-77343000D01*
X156715818Y-77869955D01*
X157014314Y-78316686D01*
X157861122Y-79163494D01*
X157929800Y-79508760D01*
X158293328Y-80052818D01*
X158419315Y-80137000D01*
X158293328Y-80221182D01*
X158203914Y-80355000D01*
X157861000Y-80355000D01*
X157458417Y-80435079D01*
X157117124Y-80663124D01*
X156101124Y-81679124D01*
X155873079Y-82020417D01*
X155793000Y-82423000D01*
X155793000Y-94560248D01*
X153234248Y-97119000D01*
X150749000Y-97119000D01*
X150404000Y-97187625D01*
X150404000Y-94288752D01*
X150458750Y-94234002D01*
X150622084Y-94234002D01*
X150500096Y-94456039D01*
X150660959Y-94844423D01*
X151036866Y-95259389D01*
X151542959Y-95498914D01*
X151765000Y-95377629D01*
X151765000Y-94234000D01*
X152019000Y-94234000D01*
X152019000Y-95377629D01*
X152241041Y-95498914D01*
X152747134Y-95259389D01*
X153123041Y-94844423D01*
X153283904Y-94456039D01*
X153161915Y-94234000D01*
X152019000Y-94234000D01*
X151765000Y-94234000D01*
X151745000Y-94234000D01*
X151745000Y-93980000D01*
X151765000Y-93980000D01*
X151765000Y-93960000D01*
X152019000Y-93960000D01*
X152019000Y-93980000D01*
X153161915Y-93980000D01*
X153283904Y-93757961D01*
X153278690Y-93745372D01*
X153524876Y-93580876D01*
X154921876Y-92183877D01*
X155149921Y-91842583D01*
X155175183Y-91715583D01*
X155230000Y-91440000D01*
X155230000Y-82677000D01*
X155149921Y-82274417D01*
X154921876Y-81933124D01*
X153651876Y-80663124D01*
X153310583Y-80435079D01*
X153244858Y-80422005D01*
X153110672Y-80221182D01*
X152984685Y-80137000D01*
X153110672Y-80052818D01*
X153474200Y-79508760D01*
X153601854Y-78867000D01*
X153474200Y-78225240D01*
X153110672Y-77681182D01*
X152566614Y-77317654D01*
X151924854Y-77190000D01*
X151859146Y-77190000D01*
X151217386Y-77317654D01*
X150912000Y-77521706D01*
X150912000Y-74295000D01*
X150838207Y-73924016D01*
X152268590Y-73924016D01*
X152324271Y-74154611D01*
X152807078Y-74322622D01*
X153317428Y-74293083D01*
X153651729Y-74154611D01*
X153707410Y-73924016D01*
X152988000Y-73204605D01*
X152268590Y-73924016D01*
X150838207Y-73924016D01*
X150831921Y-73892417D01*
X150695821Y-73688729D01*
X150603877Y-73551124D01*
X149896831Y-72844078D01*
X151690378Y-72844078D01*
X151719917Y-73354428D01*
X151858389Y-73688729D01*
X152088984Y-73744410D01*
X152808395Y-73025000D01*
X153167605Y-73025000D01*
X153887016Y-73744410D01*
X154117611Y-73688729D01*
X154285622Y-73205922D01*
X154256083Y-72695572D01*
X154117611Y-72361271D01*
X153887016Y-72305590D01*
X153167605Y-73025000D01*
X152808395Y-73025000D01*
X152088984Y-72305590D01*
X151858389Y-72361271D01*
X151690378Y-72844078D01*
X149896831Y-72844078D01*
X149178737Y-72125984D01*
X152268590Y-72125984D01*
X152988000Y-72845395D01*
X153707410Y-72125984D01*
X153651729Y-71895389D01*
X153168922Y-71727378D01*
X152658572Y-71756917D01*
X152324271Y-71895389D01*
X152268590Y-72125984D01*
X149178737Y-72125984D01*
X144761876Y-67709124D01*
X144420583Y-67481079D01*
X144018000Y-67401000D01*
X143188578Y-67401000D01*
X143214997Y-67396029D01*
X143513486Y-67203956D01*
X143713732Y-66910886D01*
X143733753Y-66812016D01*
X145020590Y-66812016D01*
X145076271Y-67042611D01*
X145559078Y-67210622D01*
X146069428Y-67181083D01*
X146403729Y-67042611D01*
X146459410Y-66812016D01*
X145740000Y-66092605D01*
X145020590Y-66812016D01*
X143733753Y-66812016D01*
X143784181Y-66563000D01*
X143784181Y-65732078D01*
X144442378Y-65732078D01*
X144471917Y-66242428D01*
X144610389Y-66576729D01*
X144840984Y-66632410D01*
X145560395Y-65913000D01*
X145919605Y-65913000D01*
X146639016Y-66632410D01*
X146869611Y-66576729D01*
X147037622Y-66093922D01*
X147034502Y-66040000D01*
X149998430Y-66040000D01*
X149998430Y-66539110D01*
X150152501Y-67059677D01*
X150494056Y-67481658D01*
X150971097Y-67740810D01*
X151042725Y-67754993D01*
X151257000Y-67632339D01*
X151257000Y-66040000D01*
X149998430Y-66040000D01*
X147034502Y-66040000D01*
X147008083Y-65583572D01*
X146885194Y-65286890D01*
X149998430Y-65286890D01*
X149998430Y-65786000D01*
X151257000Y-65786000D01*
X151257000Y-64193661D01*
X151042725Y-64071007D01*
X150971097Y-64085190D01*
X150494056Y-64344342D01*
X150152501Y-64766323D01*
X149998430Y-65286890D01*
X146885194Y-65286890D01*
X146869611Y-65249271D01*
X146639016Y-65193590D01*
X145919605Y-65913000D01*
X145560395Y-65913000D01*
X144840984Y-65193590D01*
X144610389Y-65249271D01*
X144442378Y-65732078D01*
X143784181Y-65732078D01*
X143784181Y-65263000D01*
X143737326Y-65013984D01*
X145020590Y-65013984D01*
X145740000Y-65733395D01*
X146459410Y-65013984D01*
X146403729Y-64783389D01*
X145920922Y-64615378D01*
X145410572Y-64644917D01*
X145076271Y-64783389D01*
X145020590Y-65013984D01*
X143737326Y-65013984D01*
X143723029Y-64938003D01*
X143530956Y-64639514D01*
X143237886Y-64439268D01*
X142890000Y-64368819D01*
X141590000Y-64368819D01*
X141265003Y-64429971D01*
X140966514Y-64622044D01*
X140766268Y-64915114D01*
X140695819Y-65263000D01*
X140695819Y-66056066D01*
X137649876Y-63010124D01*
X137308583Y-62782079D01*
X136906000Y-62702000D01*
X121285000Y-62702000D01*
X120882417Y-62782079D01*
X120541124Y-63010124D01*
X118690248Y-64861000D01*
X117095881Y-64861000D01*
X117073679Y-64749382D01*
X116720866Y-64221360D01*
X116192844Y-63868547D01*
X115570000Y-63744656D01*
X114947156Y-63868547D01*
X114419134Y-64221360D01*
X114300000Y-64399657D01*
X114180866Y-64221360D01*
X113652844Y-63868547D01*
X113030000Y-63744656D01*
X112407156Y-63868547D01*
X111879134Y-64221360D01*
X111608382Y-64626570D01*
X111379944Y-64344342D01*
X110902903Y-64085190D01*
X110831275Y-64071007D01*
X110617000Y-64193661D01*
X110617000Y-65786000D01*
X110637000Y-65786000D01*
X110637000Y-66040000D01*
X110617000Y-66040000D01*
X110617000Y-67632339D01*
X110831275Y-67754993D01*
X110902903Y-67740810D01*
X111379944Y-67481658D01*
X111608382Y-67199430D01*
X111879134Y-67604640D01*
X112407156Y-67957453D01*
X113030000Y-68081344D01*
X113652844Y-67957453D01*
X114180866Y-67604640D01*
X114300000Y-67426343D01*
X114419134Y-67604640D01*
X114947156Y-67957453D01*
X115570000Y-68081344D01*
X116192844Y-67957453D01*
X116720866Y-67604640D01*
X117073679Y-67076618D01*
X117095881Y-66965000D01*
X119126000Y-66965000D01*
X119528583Y-66884921D01*
X119869876Y-66656876D01*
X120883819Y-65642933D01*
X120883819Y-66563000D01*
X120944971Y-66887997D01*
X121137044Y-67186486D01*
X121430114Y-67386732D01*
X121778000Y-67457181D01*
X123078000Y-67457181D01*
X123402997Y-67396029D01*
X123701486Y-67203956D01*
X123901732Y-66910886D01*
X123921753Y-66812016D01*
X125208590Y-66812016D01*
X125264271Y-67042611D01*
X125747078Y-67210622D01*
X126257428Y-67181083D01*
X126591729Y-67042611D01*
X126647410Y-66812016D01*
X125928000Y-66092605D01*
X125208590Y-66812016D01*
X123921753Y-66812016D01*
X123972181Y-66563000D01*
X123972181Y-65732078D01*
X124630378Y-65732078D01*
X124659917Y-66242428D01*
X124798389Y-66576729D01*
X125028984Y-66632410D01*
X125748395Y-65913000D01*
X126107605Y-65913000D01*
X126827016Y-66632410D01*
X127057611Y-66576729D01*
X127225622Y-66093922D01*
X127222502Y-66040000D01*
X130186430Y-66040000D01*
X130186430Y-66539110D01*
X130340501Y-67059677D01*
X130682056Y-67481658D01*
X131159097Y-67740810D01*
X131230725Y-67754993D01*
X131445000Y-67632339D01*
X131445000Y-66040000D01*
X130186430Y-66040000D01*
X127222502Y-66040000D01*
X127196083Y-65583572D01*
X127057611Y-65249271D01*
X126827016Y-65193590D01*
X126107605Y-65913000D01*
X125748395Y-65913000D01*
X125028984Y-65193590D01*
X124798389Y-65249271D01*
X124630378Y-65732078D01*
X123972181Y-65732078D01*
X123972181Y-65263000D01*
X123911029Y-64938003D01*
X123826087Y-64806000D01*
X125258811Y-64806000D01*
X125208590Y-65013984D01*
X125928000Y-65733395D01*
X126647410Y-65013984D01*
X126597189Y-64806000D01*
X130328758Y-64806000D01*
X130186430Y-65286890D01*
X130186430Y-65786000D01*
X131445000Y-65786000D01*
X131445000Y-65766000D01*
X131699000Y-65766000D01*
X131699000Y-65786000D01*
X131719000Y-65786000D01*
X131719000Y-66040000D01*
X131699000Y-66040000D01*
X131699000Y-67632339D01*
X131913275Y-67754993D01*
X131984903Y-67740810D01*
X132461944Y-67481658D01*
X132690382Y-67199430D01*
X132961134Y-67604640D01*
X133489156Y-67957453D01*
X134112000Y-68081344D01*
X134734844Y-67957453D01*
X135262866Y-67604640D01*
X135382000Y-67426343D01*
X135501134Y-67604640D01*
X136029156Y-67957453D01*
X136652000Y-68081344D01*
X137219675Y-67968427D01*
X139210124Y-69958876D01*
X139551417Y-70186921D01*
X139954000Y-70267000D01*
X143074248Y-70267000D01*
X148046000Y-75238753D01*
X148046000Y-85725000D01*
X148126079Y-86127583D01*
X148354124Y-86468876D01*
X150303278Y-88418030D01*
X150182146Y-89027000D01*
X150218995Y-89212252D01*
X147719124Y-91712124D01*
X147491079Y-92053417D01*
X147411000Y-92456000D01*
X147411000Y-96719248D01*
X146689404Y-97440844D01*
X146721000Y-97282000D01*
X146721000Y-89789000D01*
X146640921Y-89386417D01*
X146536834Y-89230640D01*
X146412877Y-89045124D01*
X144634876Y-87267124D01*
X144293583Y-87039079D01*
X143891000Y-86959000D01*
X142040753Y-86959000D01*
X141922920Y-86841167D01*
X142055201Y-86841283D01*
X142655246Y-86593349D01*
X143002203Y-86246998D01*
X143346339Y-86591736D01*
X143945951Y-86840716D01*
X144595201Y-86841283D01*
X145195246Y-86593349D01*
X145654736Y-86134661D01*
X145903716Y-85535049D01*
X145904283Y-84885799D01*
X145656349Y-84285754D01*
X145197661Y-83826264D01*
X144598049Y-83577284D01*
X143948799Y-83576717D01*
X143348754Y-83824651D01*
X143001797Y-84171002D01*
X142657661Y-83826264D01*
X142109329Y-83598577D01*
X141539885Y-83029133D01*
X141713876Y-82912876D01*
X142475877Y-82150876D01*
X142703921Y-81809583D01*
X142784000Y-81407000D01*
X142784000Y-80876820D01*
X143002203Y-80658998D01*
X143346339Y-81003736D01*
X143945951Y-81252716D01*
X144595201Y-81253283D01*
X145195246Y-81005349D01*
X145654736Y-80546661D01*
X145903716Y-79947049D01*
X145904283Y-79297799D01*
X145656349Y-78697754D01*
X145649000Y-78690392D01*
X145649000Y-77978000D01*
X145544182Y-77451045D01*
X145245686Y-77004314D01*
X143594686Y-75353314D01*
X143147955Y-75054818D01*
X142621000Y-74950000D01*
X139139217Y-74950000D01*
X139311218Y-74915787D01*
X139842948Y-74560496D01*
X139912208Y-74456841D01*
X139923673Y-74484519D01*
X140102302Y-74663147D01*
X140335691Y-74759820D01*
X140938250Y-74759820D01*
X141097000Y-74601070D01*
X141097000Y-73152000D01*
X141351000Y-73152000D01*
X141351000Y-74601070D01*
X141509750Y-74759820D01*
X142112309Y-74759820D01*
X142345698Y-74663147D01*
X142524327Y-74484519D01*
X142621000Y-74251130D01*
X142621000Y-73310750D01*
X142462250Y-73152000D01*
X141351000Y-73152000D01*
X141097000Y-73152000D01*
X141077000Y-73152000D01*
X141077000Y-72898000D01*
X141097000Y-72898000D01*
X141097000Y-71448930D01*
X141351000Y-71448930D01*
X141351000Y-72898000D01*
X142462250Y-72898000D01*
X142621000Y-72739250D01*
X142621000Y-71798870D01*
X142524327Y-71565481D01*
X142345698Y-71386853D01*
X142112309Y-71290180D01*
X141509750Y-71290180D01*
X141351000Y-71448930D01*
X141097000Y-71448930D01*
X140938250Y-71290180D01*
X140335691Y-71290180D01*
X140102302Y-71386853D01*
X139923673Y-71565481D01*
X139912208Y-71593159D01*
X139842948Y-71489504D01*
X139311218Y-71134213D01*
X138684000Y-71009452D01*
X138056782Y-71134213D01*
X137525052Y-71489504D01*
X137414000Y-71655705D01*
X137302948Y-71489504D01*
X136771218Y-71134213D01*
X136144000Y-71009452D01*
X135516782Y-71134213D01*
X134985052Y-71489504D01*
X134874000Y-71655705D01*
X134762948Y-71489504D01*
X134231218Y-71134213D01*
X133604000Y-71009452D01*
X132976782Y-71134213D01*
X132445052Y-71489504D01*
X132334000Y-71655705D01*
X132222948Y-71489504D01*
X131691218Y-71134213D01*
X131064000Y-71009452D01*
X130436782Y-71134213D01*
X129905052Y-71489504D01*
X129549761Y-72021234D01*
X129425000Y-72648452D01*
X129425000Y-73401548D01*
X129549761Y-74028766D01*
X129905052Y-74560496D01*
X130436782Y-74915787D01*
X131064000Y-75040548D01*
X131691218Y-74915787D01*
X132222948Y-74560496D01*
X132334000Y-74394295D01*
X132445052Y-74560496D01*
X132976782Y-74915787D01*
X133598222Y-75039399D01*
X133400268Y-75329114D01*
X133329819Y-75677000D01*
X133329819Y-76977000D01*
X133390971Y-77301997D01*
X133583044Y-77600486D01*
X133876114Y-77800732D01*
X134224000Y-77871181D01*
X135524000Y-77871181D01*
X135848997Y-77810029D01*
X136013770Y-77704000D01*
X142050628Y-77704000D01*
X142533220Y-78186592D01*
X142058049Y-77989284D01*
X141408799Y-77988717D01*
X140808754Y-78236651D01*
X140672017Y-78373149D01*
X140587956Y-78242514D01*
X140294886Y-78042268D01*
X139947000Y-77971819D01*
X138437000Y-77971819D01*
X138112003Y-78032971D01*
X137813514Y-78225044D01*
X137613268Y-78518114D01*
X137542819Y-78866000D01*
X137542819Y-80376000D01*
X137603971Y-80700997D01*
X137796044Y-80999486D01*
X137968032Y-81117000D01*
X136225661Y-81117000D01*
X136154201Y-81010052D01*
X135988000Y-80899000D01*
X136154201Y-80787948D01*
X136509492Y-80256218D01*
X136634253Y-79629000D01*
X136509492Y-79001782D01*
X136154201Y-78470052D01*
X135622471Y-78114761D01*
X134995253Y-77990000D01*
X134244747Y-77990000D01*
X133617529Y-78114761D01*
X133085799Y-78470052D01*
X133014339Y-78577000D01*
X132670956Y-78577000D01*
X132599496Y-78470052D01*
X132067766Y-78114761D01*
X131440548Y-77990000D01*
X130687452Y-77990000D01*
X130060234Y-78114761D01*
X129528504Y-78470052D01*
X129457044Y-78577000D01*
X126229011Y-78577000D01*
X126263346Y-78525614D01*
X126391000Y-77883854D01*
X126391000Y-77818146D01*
X126273219Y-77226016D01*
X129154590Y-77226016D01*
X129210271Y-77456611D01*
X129693078Y-77624622D01*
X130203428Y-77595083D01*
X130537729Y-77456611D01*
X130593410Y-77226016D01*
X129874000Y-76506605D01*
X129154590Y-77226016D01*
X126273219Y-77226016D01*
X126263346Y-77176386D01*
X125899818Y-76632328D01*
X125766000Y-76542914D01*
X125766000Y-76508752D01*
X126128674Y-76146078D01*
X128576378Y-76146078D01*
X128605917Y-76656428D01*
X128744389Y-76990729D01*
X128974984Y-77046410D01*
X129694395Y-76327000D01*
X130053605Y-76327000D01*
X130773016Y-77046410D01*
X131003611Y-76990729D01*
X131171622Y-76507922D01*
X131142083Y-75997572D01*
X131003611Y-75663271D01*
X130773016Y-75607590D01*
X130053605Y-76327000D01*
X129694395Y-76327000D01*
X128974984Y-75607590D01*
X128744389Y-75663271D01*
X128576378Y-76146078D01*
X126128674Y-76146078D01*
X126846768Y-75427984D01*
X129154590Y-75427984D01*
X129874000Y-76147395D01*
X130593410Y-75427984D01*
X130537729Y-75197389D01*
X130054922Y-75029378D01*
X129544572Y-75058917D01*
X129210271Y-75197389D01*
X129154590Y-75427984D01*
X126846768Y-75427984D01*
X127238569Y-75036184D01*
X127254000Y-75039253D01*
X127881218Y-74914492D01*
X128412948Y-74559201D01*
X128768239Y-74027471D01*
X128893000Y-73400253D01*
X128893000Y-72649747D01*
X128768239Y-72022529D01*
X128412948Y-71490799D01*
X127881218Y-71135508D01*
X127254000Y-71010747D01*
X126626782Y-71135508D01*
X126095052Y-71490799D01*
X125984000Y-71657000D01*
X125872948Y-71490799D01*
X125341218Y-71135508D01*
X124714000Y-71010747D01*
X124363320Y-71080501D01*
X121827909Y-68545091D01*
X121462284Y-68300788D01*
X121031000Y-68215000D01*
X110093000Y-68215000D01*
X110093000Y-67743959D01*
X110148725Y-67754993D01*
X110363000Y-67632339D01*
X110363000Y-66040000D01*
X110343000Y-66040000D01*
X110343000Y-65786000D01*
X110363000Y-65786000D01*
X110363000Y-64193661D01*
X110208560Y-64105258D01*
X114369083Y-59944736D01*
X114613901Y-60537240D01*
X115099185Y-61023372D01*
X115733565Y-61286790D01*
X116420461Y-61287389D01*
X117055300Y-61025079D01*
X117541432Y-60539795D01*
X117804850Y-59905415D01*
X117805449Y-59218519D01*
X117595677Y-58710830D01*
X122462709Y-58710830D01*
X122462709Y-60410090D01*
X122523861Y-60735087D01*
X122715934Y-61033576D01*
X123009004Y-61233822D01*
X123356890Y-61304271D01*
X125056150Y-61304271D01*
X125381147Y-61243119D01*
X125679636Y-61051046D01*
X125879882Y-60757976D01*
X125950331Y-60410090D01*
X125950331Y-59902401D01*
X132639591Y-59902401D01*
X132901901Y-60537240D01*
X133387185Y-61023372D01*
X134021565Y-61286790D01*
X134708461Y-61287389D01*
X135343300Y-61025079D01*
X135829432Y-60539795D01*
X136092850Y-59905415D01*
X136093449Y-59218519D01*
X135883677Y-58710830D01*
X140750709Y-58710830D01*
X140750709Y-60410090D01*
X140811861Y-60735087D01*
X141003934Y-61033576D01*
X141297004Y-61233822D01*
X141644890Y-61304271D01*
X143344150Y-61304271D01*
X143669147Y-61243119D01*
X143967636Y-61051046D01*
X144167882Y-60757976D01*
X144238331Y-60410090D01*
X144238331Y-59902401D01*
X150927591Y-59902401D01*
X151189901Y-60537240D01*
X151675185Y-61023372D01*
X152309565Y-61286790D01*
X152996461Y-61287389D01*
X153631300Y-61025079D01*
X154117432Y-60539795D01*
X154380850Y-59905415D01*
X154381449Y-59218519D01*
X154171677Y-58710830D01*
X159038709Y-58710830D01*
X159038709Y-60410090D01*
X159099861Y-60735087D01*
X159291934Y-61033576D01*
X159585004Y-61233822D01*
X159932890Y-61304271D01*
X161632150Y-61304271D01*
X161957147Y-61243119D01*
X162255636Y-61051046D01*
X162455882Y-60757976D01*
X162526331Y-60410090D01*
X162526331Y-59902401D01*
X169215591Y-59902401D01*
X169477901Y-60537240D01*
X169963185Y-61023372D01*
X170597565Y-61286790D01*
X171284461Y-61287389D01*
X171919300Y-61025079D01*
X172405432Y-60539795D01*
X172668850Y-59905415D01*
X172669449Y-59218519D01*
X172407139Y-58583680D01*
X171921855Y-58097548D01*
X171287475Y-57834130D01*
X170600579Y-57833531D01*
X169965740Y-58095841D01*
X169479608Y-58581125D01*
X169216190Y-59215505D01*
X169215591Y-59902401D01*
X162526331Y-59902401D01*
X162526331Y-58710830D01*
X162465179Y-58385833D01*
X162273106Y-58087344D01*
X161980036Y-57887098D01*
X161632150Y-57816649D01*
X159932890Y-57816649D01*
X159607893Y-57877801D01*
X159309404Y-58069874D01*
X159109158Y-58362944D01*
X159038709Y-58710830D01*
X154171677Y-58710830D01*
X154119139Y-58583680D01*
X153633855Y-58097548D01*
X152999475Y-57834130D01*
X152312579Y-57833531D01*
X151677740Y-58095841D01*
X151191608Y-58581125D01*
X150928190Y-59215505D01*
X150927591Y-59902401D01*
X144238331Y-59902401D01*
X144238331Y-58710830D01*
X144177179Y-58385833D01*
X143985106Y-58087344D01*
X143692036Y-57887098D01*
X143344150Y-57816649D01*
X141644890Y-57816649D01*
X141319893Y-57877801D01*
X141021404Y-58069874D01*
X140821158Y-58362944D01*
X140750709Y-58710830D01*
X135883677Y-58710830D01*
X135831139Y-58583680D01*
X135345855Y-58097548D01*
X134711475Y-57834130D01*
X134024579Y-57833531D01*
X133389740Y-58095841D01*
X132903608Y-58581125D01*
X132640190Y-59215505D01*
X132639591Y-59902401D01*
X125950331Y-59902401D01*
X125950331Y-58710830D01*
X125889179Y-58385833D01*
X125697106Y-58087344D01*
X125404036Y-57887098D01*
X125056150Y-57816649D01*
X123356890Y-57816649D01*
X123031893Y-57877801D01*
X122733404Y-58069874D01*
X122533158Y-58362944D01*
X122462709Y-58710830D01*
X117595677Y-58710830D01*
X117543139Y-58583680D01*
X117057855Y-58097548D01*
X116423475Y-57834130D01*
X115736579Y-57833531D01*
X115101740Y-58095841D01*
X114919000Y-58278262D01*
X114919000Y-56124619D01*
X122329185Y-56124619D01*
X122614261Y-56814558D01*
X123141666Y-57342884D01*
X123831105Y-57629164D01*
X124577619Y-57629815D01*
X125267558Y-57344739D01*
X125795884Y-56817334D01*
X125984110Y-56364036D01*
X126170261Y-56814558D01*
X126697666Y-57342884D01*
X127387105Y-57629164D01*
X128133619Y-57629815D01*
X128823558Y-57344739D01*
X129351884Y-56817334D01*
X129638164Y-56127895D01*
X129638166Y-56124619D01*
X140617185Y-56124619D01*
X140902261Y-56814558D01*
X141429666Y-57342884D01*
X142119105Y-57629164D01*
X142865619Y-57629815D01*
X143555558Y-57344739D01*
X144083884Y-56817334D01*
X144272110Y-56364036D01*
X144458261Y-56814558D01*
X144985666Y-57342884D01*
X145675105Y-57629164D01*
X146421619Y-57629815D01*
X147111558Y-57344739D01*
X147639884Y-56817334D01*
X147926164Y-56127895D01*
X147926388Y-55870619D01*
X158905185Y-55870619D01*
X159190261Y-56560558D01*
X159717666Y-57088884D01*
X160407105Y-57375164D01*
X161153619Y-57375815D01*
X161843558Y-57090739D01*
X162371884Y-56563334D01*
X162432796Y-56416641D01*
X162492261Y-56560558D01*
X163019666Y-57088884D01*
X163709105Y-57375164D01*
X164455619Y-57375815D01*
X165145558Y-57090739D01*
X165673884Y-56563334D01*
X165960164Y-55873895D01*
X165960815Y-55127381D01*
X165675739Y-54437442D01*
X165148334Y-53909116D01*
X164458895Y-53622836D01*
X163712381Y-53622185D01*
X163022442Y-53907261D01*
X162494116Y-54434666D01*
X162433204Y-54581359D01*
X162373739Y-54437442D01*
X161846334Y-53909116D01*
X161156895Y-53622836D01*
X160410381Y-53622185D01*
X159720442Y-53907261D01*
X159192116Y-54434666D01*
X158905836Y-55124105D01*
X158905185Y-55870619D01*
X147926388Y-55870619D01*
X147926815Y-55381381D01*
X147641739Y-54691442D01*
X147114334Y-54163116D01*
X146424895Y-53876836D01*
X145678381Y-53876185D01*
X144988442Y-54161261D01*
X144460116Y-54688666D01*
X144271890Y-55141964D01*
X144085739Y-54691442D01*
X143558334Y-54163116D01*
X142868895Y-53876836D01*
X142122381Y-53876185D01*
X141432442Y-54161261D01*
X140904116Y-54688666D01*
X140617836Y-55378105D01*
X140617185Y-56124619D01*
X129638166Y-56124619D01*
X129638815Y-55381381D01*
X129353739Y-54691442D01*
X128826334Y-54163116D01*
X128136895Y-53876836D01*
X127390381Y-53876185D01*
X126700442Y-54161261D01*
X126172116Y-54688666D01*
X125983890Y-55141964D01*
X125797739Y-54691442D01*
X125270334Y-54163116D01*
X124580895Y-53876836D01*
X123834381Y-53876185D01*
X123144442Y-54161261D01*
X122616116Y-54688666D01*
X122329836Y-55378105D01*
X122329185Y-56124619D01*
X114919000Y-56124619D01*
X114919000Y-53807078D01*
X115154852Y-54043342D01*
X115752836Y-54291647D01*
X116400323Y-54292212D01*
X116998740Y-54044951D01*
X117456982Y-53587508D01*
X117705287Y-52989524D01*
X117705852Y-52342037D01*
X117481887Y-51800000D01*
X132962607Y-51800000D01*
X132738713Y-52339196D01*
X132738148Y-52986683D01*
X132985409Y-53585100D01*
X133442852Y-54043342D01*
X134040836Y-54291647D01*
X134688323Y-54292212D01*
X135286740Y-54044951D01*
X135744982Y-53587508D01*
X135993287Y-52989524D01*
X135993289Y-52986683D01*
X151026148Y-52986683D01*
X151273409Y-53585100D01*
X151730852Y-54043342D01*
X152328836Y-54291647D01*
X152976323Y-54292212D01*
X153574740Y-54044951D01*
X154032982Y-53587508D01*
X154176996Y-53240683D01*
X169314148Y-53240683D01*
X169561409Y-53839100D01*
X170018852Y-54297342D01*
X170616836Y-54545647D01*
X171264323Y-54546212D01*
X171862740Y-54298951D01*
X172320982Y-53841508D01*
X172569287Y-53243524D01*
X172569852Y-52596037D01*
X172322591Y-51997620D01*
X171865148Y-51539378D01*
X171267164Y-51291073D01*
X170619677Y-51290508D01*
X170021260Y-51537769D01*
X169563018Y-51995212D01*
X169314713Y-52593196D01*
X169314148Y-53240683D01*
X154176996Y-53240683D01*
X154281287Y-52989524D01*
X154281852Y-52342037D01*
X154034591Y-51743620D01*
X153577148Y-51285378D01*
X152979164Y-51037073D01*
X152331677Y-51036508D01*
X151733260Y-51283769D01*
X151275018Y-51741212D01*
X151026713Y-52339196D01*
X151026148Y-52986683D01*
X135993289Y-52986683D01*
X135993852Y-52342037D01*
X135769887Y-51800000D01*
X145288000Y-51800000D01*
X145719284Y-51714212D01*
X146084909Y-51469909D01*
X151088818Y-46466000D01*
X151551993Y-46466000D01*
X151275018Y-46742492D01*
X151026713Y-47340476D01*
X151026148Y-47987963D01*
X151273409Y-48586380D01*
X151730852Y-49044622D01*
X152328836Y-49292927D01*
X152976323Y-49293492D01*
X153574740Y-49046231D01*
X154032982Y-48588788D01*
X154176996Y-48241963D01*
X169314148Y-48241963D01*
X169561409Y-48840380D01*
X170018852Y-49298622D01*
X170616836Y-49546927D01*
X171264323Y-49547492D01*
X171862740Y-49300231D01*
X172320982Y-48842788D01*
X172569287Y-48244804D01*
X172569852Y-47597317D01*
X172322591Y-46998900D01*
X171865148Y-46540658D01*
X171267164Y-46292353D01*
X170619677Y-46291788D01*
X170021260Y-46539049D01*
X169563018Y-46996492D01*
X169314713Y-47594476D01*
X169314148Y-48241963D01*
X154176996Y-48241963D01*
X154281287Y-47990804D01*
X154281852Y-47343317D01*
X154034591Y-46744900D01*
X153756177Y-46466000D01*
X159255589Y-46466000D01*
X159717666Y-46928884D01*
X160407105Y-47215164D01*
X161153619Y-47215815D01*
X161843558Y-46930739D01*
X162371884Y-46403334D01*
X162432796Y-46256641D01*
X162492261Y-46400558D01*
X163019666Y-46928884D01*
X163709105Y-47215164D01*
X164455619Y-47215815D01*
X165145558Y-46930739D01*
X165673884Y-46403334D01*
X165960164Y-45713895D01*
X165960815Y-44967381D01*
X165675739Y-44277442D01*
X165148334Y-43749116D01*
X164458895Y-43462836D01*
X163712381Y-43462185D01*
X163022442Y-43747261D01*
X162494116Y-44274666D01*
X162433204Y-44421359D01*
X162373739Y-44277442D01*
X161846334Y-43749116D01*
X161156895Y-43462836D01*
X160410381Y-43462185D01*
X159720442Y-43747261D01*
X159254891Y-44212000D01*
X150622000Y-44212000D01*
X150190716Y-44297788D01*
X149825091Y-44542091D01*
X144821182Y-49546000D01*
X140134818Y-49546000D01*
X142211573Y-47469245D01*
X142865619Y-47469815D01*
X143555558Y-47184739D01*
X144083884Y-46657334D01*
X144272110Y-46204036D01*
X144458261Y-46654558D01*
X144985666Y-47182884D01*
X145675105Y-47469164D01*
X146421619Y-47469815D01*
X147111558Y-47184739D01*
X147639884Y-46657334D01*
X147926164Y-45967895D01*
X147926815Y-45221381D01*
X147641739Y-44531442D01*
X147114334Y-44003116D01*
X146424895Y-43716836D01*
X145678381Y-43716185D01*
X144988442Y-44001261D01*
X144460116Y-44528666D01*
X144271890Y-44981964D01*
X144085739Y-44531442D01*
X143558334Y-44003116D01*
X142868895Y-43716836D01*
X142122381Y-43716185D01*
X141432442Y-44001261D01*
X140904116Y-44528666D01*
X140617836Y-45218105D01*
X140617262Y-45875920D01*
X137836182Y-48657000D01*
X135676651Y-48657000D01*
X135744982Y-48588788D01*
X135993287Y-47990804D01*
X135993852Y-47343317D01*
X135746591Y-46744900D01*
X135289148Y-46286658D01*
X134691164Y-46038353D01*
X134043677Y-46037788D01*
X133445260Y-46285049D01*
X132987018Y-46742492D01*
X132738713Y-47340476D01*
X132738148Y-47987963D01*
X132985409Y-48586380D01*
X133055906Y-48657000D01*
X117388651Y-48657000D01*
X117456982Y-48588788D01*
X117705287Y-47990804D01*
X117705852Y-47343317D01*
X117458591Y-46744900D01*
X117433734Y-46720000D01*
X122679589Y-46720000D01*
X123141666Y-47182884D01*
X123831105Y-47469164D01*
X124577619Y-47469815D01*
X125267558Y-47184739D01*
X125795884Y-46657334D01*
X125984110Y-46204036D01*
X126170261Y-46654558D01*
X126697666Y-47182884D01*
X127387105Y-47469164D01*
X128133619Y-47469815D01*
X128823558Y-47184739D01*
X129351884Y-46657334D01*
X129638164Y-45967895D01*
X129638815Y-45221381D01*
X129353739Y-44531442D01*
X128826334Y-44003116D01*
X128136895Y-43716836D01*
X127390381Y-43716185D01*
X126700442Y-44001261D01*
X126172116Y-44528666D01*
X125983890Y-44981964D01*
X125797739Y-44531442D01*
X125270334Y-44003116D01*
X124580895Y-43716836D01*
X123834381Y-43716185D01*
X123144442Y-44001261D01*
X122678891Y-44466000D01*
X113665000Y-44466000D01*
X113233716Y-44551788D01*
X112868091Y-44796090D01*
X111217091Y-46447091D01*
X110972788Y-46812716D01*
X110887000Y-47244000D01*
X110887000Y-52016182D01*
X110601000Y-51730182D01*
X110601000Y-47119411D01*
X111063884Y-46657334D01*
X111350164Y-45967895D01*
X111350815Y-45221381D01*
X111065739Y-44531442D01*
X110538334Y-44003116D01*
X109848895Y-43716836D01*
X109102381Y-43716185D01*
X108412442Y-44001261D01*
X107884116Y-44528666D01*
X107695890Y-44981964D01*
X107509739Y-44531442D01*
X106982334Y-44003116D01*
X106292895Y-43716836D01*
X105546381Y-43716185D01*
X104856442Y-44001261D01*
X104328116Y-44528666D01*
X104041836Y-45218105D01*
X104041185Y-45964619D01*
X104326261Y-46654558D01*
X104853666Y-47182884D01*
X105543105Y-47469164D01*
X106289619Y-47469815D01*
X106979558Y-47184739D01*
X107507884Y-46657334D01*
X107696110Y-46204036D01*
X107882261Y-46654558D01*
X108347000Y-47120109D01*
X108347000Y-52197000D01*
X108432788Y-52628284D01*
X108677091Y-52993909D01*
X109559765Y-53876584D01*
X109102381Y-53876185D01*
X108412442Y-54161261D01*
X107884116Y-54688666D01*
X107695890Y-55141964D01*
X107509739Y-54691442D01*
X106982334Y-54163116D01*
X106292895Y-53876836D01*
X105546381Y-53876185D01*
X104856442Y-54161261D01*
X104328116Y-54688666D01*
X104041836Y-55378105D01*
X104041185Y-56124619D01*
X104326261Y-56814558D01*
X104853666Y-57342884D01*
X105543105Y-57629164D01*
X106289619Y-57629815D01*
X106979558Y-57344739D01*
X107507884Y-56817334D01*
X107696110Y-56364036D01*
X107882261Y-56814558D01*
X108409666Y-57342884D01*
X109099105Y-57629164D01*
X109686505Y-57629676D01*
X107662331Y-59653851D01*
X107662331Y-58710830D01*
X107601179Y-58385833D01*
X107409106Y-58087344D01*
X107116036Y-57887098D01*
X106768150Y-57816649D01*
X105068890Y-57816649D01*
X104743893Y-57877801D01*
X104445404Y-58069874D01*
X104245158Y-58362944D01*
X104174709Y-58710830D01*
X104174709Y-60410090D01*
X104235861Y-60735087D01*
X104427934Y-61033576D01*
X104721004Y-61233822D01*
X105068890Y-61304271D01*
X106011911Y-61304271D01*
X105502091Y-61814091D01*
X105257788Y-62179716D01*
X105172000Y-62611000D01*
X105172000Y-64665863D01*
X105026922Y-64615378D01*
X104516572Y-64644917D01*
X104182271Y-64783389D01*
X104126590Y-65013984D01*
X104846000Y-65733395D01*
X104860143Y-65719253D01*
X105039748Y-65898858D01*
X105025605Y-65913000D01*
X105039748Y-65927143D01*
X104860143Y-66106748D01*
X104846000Y-66092605D01*
X104126590Y-66812016D01*
X104182271Y-67042611D01*
X104665078Y-67210622D01*
X105172000Y-67181281D01*
X105172000Y-70993000D01*
X105257788Y-71424284D01*
X105502091Y-71789909D01*
X107534091Y-73821909D01*
X107817819Y-74011490D01*
X107817819Y-74123550D01*
X107878971Y-74448547D01*
X108071044Y-74747036D01*
X108364114Y-74947282D01*
X108712000Y-75017731D01*
X110236000Y-75017731D01*
X110560997Y-74956579D01*
X110859486Y-74764506D01*
X110954405Y-74625587D01*
X110962000Y-74630661D01*
X110962000Y-75107800D01*
X111042079Y-75510383D01*
X111270124Y-75851676D01*
X111634985Y-76216537D01*
X111372240Y-76268800D01*
X110828182Y-76632328D01*
X110744000Y-76758315D01*
X110659818Y-76632328D01*
X110115760Y-76268800D01*
X109474000Y-76141146D01*
X108832240Y-76268800D01*
X108288182Y-76632328D01*
X107924654Y-77176386D01*
X107797000Y-77818146D01*
X107797000Y-77883854D01*
X107924654Y-78525614D01*
X108288182Y-79069672D01*
X108422000Y-79159086D01*
X108422000Y-81026000D01*
X108502079Y-81428583D01*
X108730124Y-81769876D01*
X111058609Y-84098362D01*
X110828182Y-84252328D01*
X110744000Y-84378315D01*
X110659818Y-84252328D01*
X110115760Y-83888800D01*
X109474000Y-83761146D01*
X108832240Y-83888800D01*
X108288182Y-84252328D01*
X107924654Y-84796386D01*
X107797000Y-85438146D01*
X107797000Y-85503854D01*
X107924654Y-86145614D01*
X108288182Y-86689672D01*
X108422000Y-86779086D01*
X108422000Y-87757000D01*
X108502079Y-88159583D01*
X108610649Y-88322069D01*
X108387003Y-88364151D01*
X108088514Y-88556224D01*
X107888268Y-88849294D01*
X107817819Y-89197180D01*
X107817819Y-91396820D01*
X107878971Y-91721817D01*
X108071044Y-92020306D01*
X108097000Y-92038041D01*
X108097000Y-93428452D01*
X107924654Y-93686386D01*
X107797000Y-94328146D01*
X107797000Y-94393854D01*
X107873116Y-94776512D01*
X103482809Y-99166819D01*
X103236000Y-99166819D01*
X102911003Y-99227971D01*
X102612514Y-99420044D01*
X102412268Y-99713114D01*
X102341819Y-100061000D01*
X92392000Y-100061000D01*
X92392000Y-96610016D01*
X103166590Y-96610016D01*
X103222271Y-96840611D01*
X103705078Y-97008622D01*
X104215428Y-96979083D01*
X104549729Y-96840611D01*
X104605410Y-96610016D01*
X103886000Y-95890605D01*
X103166590Y-96610016D01*
X92392000Y-96610016D01*
X92392000Y-95530078D01*
X102588378Y-95530078D01*
X102617917Y-96040428D01*
X102756389Y-96374729D01*
X102986984Y-96430410D01*
X103706395Y-95711000D01*
X104065605Y-95711000D01*
X104785016Y-96430410D01*
X105015611Y-96374729D01*
X105183622Y-95891922D01*
X105154083Y-95381572D01*
X105015611Y-95047271D01*
X104785016Y-94991590D01*
X104065605Y-95711000D01*
X103706395Y-95711000D01*
X102986984Y-94991590D01*
X102756389Y-95047271D01*
X102588378Y-95530078D01*
X92392000Y-95530078D01*
X92392000Y-94811984D01*
X103166590Y-94811984D01*
X103886000Y-95531395D01*
X104605410Y-94811984D01*
X104549729Y-94581389D01*
X104066922Y-94413378D01*
X103556572Y-94442917D01*
X103222271Y-94581389D01*
X103166590Y-94811984D01*
X92392000Y-94811984D01*
X92392000Y-85274016D01*
X103166590Y-85274016D01*
X103222271Y-85504611D01*
X103705078Y-85672622D01*
X104215428Y-85643083D01*
X104549729Y-85504611D01*
X104605410Y-85274016D01*
X103886000Y-84554605D01*
X103166590Y-85274016D01*
X92392000Y-85274016D01*
X92392000Y-84194078D01*
X102588378Y-84194078D01*
X102617917Y-84704428D01*
X102756389Y-85038729D01*
X102986984Y-85094410D01*
X103706395Y-84375000D01*
X104065605Y-84375000D01*
X104785016Y-85094410D01*
X105015611Y-85038729D01*
X105183622Y-84555922D01*
X105154083Y-84045572D01*
X105015611Y-83711271D01*
X104785016Y-83655590D01*
X104065605Y-84375000D01*
X103706395Y-84375000D01*
X102986984Y-83655590D01*
X102756389Y-83711271D01*
X102588378Y-84194078D01*
X92392000Y-84194078D01*
X92392000Y-83475984D01*
X103166590Y-83475984D01*
X103886000Y-84195395D01*
X104605410Y-83475984D01*
X104549729Y-83245389D01*
X104066922Y-83077378D01*
X103556572Y-83106917D01*
X103222271Y-83245389D01*
X103166590Y-83475984D01*
X92392000Y-83475984D01*
X92392000Y-65913000D01*
X99469000Y-65913000D01*
X99469000Y-76835000D01*
X99576437Y-77375121D01*
X99611878Y-77553297D01*
X100018761Y-78162239D01*
X102558760Y-80702239D01*
X103167703Y-81109122D01*
X103886000Y-81251999D01*
X104604296Y-81109122D01*
X105213239Y-80702239D01*
X105620122Y-80093296D01*
X105762999Y-79375000D01*
X105620122Y-78656703D01*
X105213239Y-78047760D01*
X103223000Y-76057522D01*
X103223000Y-65913000D01*
X103187013Y-65732078D01*
X103548378Y-65732078D01*
X103577917Y-66242428D01*
X103716389Y-66576729D01*
X103946984Y-66632410D01*
X104666395Y-65913000D01*
X103946984Y-65193590D01*
X103716389Y-65249271D01*
X103548378Y-65732078D01*
X103187013Y-65732078D01*
X103080122Y-65194703D01*
X102673239Y-64585761D01*
X102064297Y-64178878D01*
X101346000Y-64036000D01*
X100627703Y-64178878D01*
X100018761Y-64585761D01*
X99611878Y-65194703D01*
X99469000Y-65913000D01*
X92392000Y-65913000D01*
X92392000Y-42347544D01*
X97022571Y-42347544D01*
X97398877Y-43258275D01*
X98095060Y-43955674D01*
X99005133Y-44333569D01*
X99990544Y-44334429D01*
X100901275Y-43958123D01*
X101598674Y-43261940D01*
X101976569Y-42351867D01*
X101976572Y-42347544D01*
X168522571Y-42347544D01*
X168898877Y-43258275D01*
X169595060Y-43955674D01*
X170505133Y-44333569D01*
X171490544Y-44334429D01*
X172401275Y-43958123D01*
X173098674Y-43261940D01*
X173476569Y-42351867D01*
X173477429Y-41366456D01*
X173101123Y-40455725D01*
X172404940Y-39758326D01*
X171494867Y-39380431D01*
X170509456Y-39379571D01*
X169598725Y-39755877D01*
X168901326Y-40452060D01*
X168523431Y-41362133D01*
X168522571Y-42347544D01*
X101976572Y-42347544D01*
X101977429Y-41366456D01*
X101601123Y-40455725D01*
X100904940Y-39758326D01*
X99994867Y-39380431D01*
X99009456Y-39379571D01*
X98098725Y-39755877D01*
X97401326Y-40452060D01*
X97023431Y-41362133D01*
X97022571Y-42347544D01*
X92392000Y-42347544D01*
X92392000Y-35858191D01*
X103770628Y-35858191D01*
X104096801Y-36647589D01*
X104700234Y-37252077D01*
X105489062Y-37579626D01*
X106343191Y-37580372D01*
X107132589Y-37254199D01*
X107737077Y-36650766D01*
X108064626Y-35861938D01*
X108065372Y-35007809D01*
X107739199Y-34218411D01*
X107683885Y-34163000D01*
X108833819Y-34163000D01*
X108833819Y-36703000D01*
X108894971Y-37027997D01*
X109087044Y-37326486D01*
X109380114Y-37526732D01*
X109728000Y-37597181D01*
X112268000Y-37597181D01*
X112592997Y-37536029D01*
X112891486Y-37343956D01*
X113091732Y-37050886D01*
X113162181Y-36703000D01*
X113162181Y-35858191D01*
X122058628Y-35858191D01*
X122384801Y-36647589D01*
X122988234Y-37252077D01*
X123777062Y-37579626D01*
X124631191Y-37580372D01*
X125420589Y-37254199D01*
X126025077Y-36650766D01*
X126352626Y-35861938D01*
X126353372Y-35007809D01*
X126027199Y-34218411D01*
X125971885Y-34163000D01*
X127121819Y-34163000D01*
X127121819Y-36703000D01*
X127182971Y-37027997D01*
X127375044Y-37326486D01*
X127668114Y-37526732D01*
X128016000Y-37597181D01*
X130556000Y-37597181D01*
X130880997Y-37536029D01*
X131179486Y-37343956D01*
X131379732Y-37050886D01*
X131450181Y-36703000D01*
X131450181Y-35858191D01*
X140346628Y-35858191D01*
X140672801Y-36647589D01*
X141276234Y-37252077D01*
X142065062Y-37579626D01*
X142919191Y-37580372D01*
X143708589Y-37254199D01*
X144313077Y-36650766D01*
X144640626Y-35861938D01*
X144641372Y-35007809D01*
X144315199Y-34218411D01*
X144259885Y-34163000D01*
X145409819Y-34163000D01*
X145409819Y-36703000D01*
X145470971Y-37027997D01*
X145663044Y-37326486D01*
X145956114Y-37526732D01*
X146304000Y-37597181D01*
X148844000Y-37597181D01*
X149168997Y-37536029D01*
X149467486Y-37343956D01*
X149667732Y-37050886D01*
X149738181Y-36703000D01*
X149738181Y-35858191D01*
X158634628Y-35858191D01*
X158960801Y-36647589D01*
X159564234Y-37252077D01*
X160353062Y-37579626D01*
X161207191Y-37580372D01*
X161996589Y-37254199D01*
X162601077Y-36650766D01*
X162928626Y-35861938D01*
X162929372Y-35007809D01*
X162603199Y-34218411D01*
X162547885Y-34163000D01*
X163697819Y-34163000D01*
X163697819Y-36703000D01*
X163758971Y-37027997D01*
X163951044Y-37326486D01*
X164244114Y-37526732D01*
X164592000Y-37597181D01*
X167132000Y-37597181D01*
X167456997Y-37536029D01*
X167755486Y-37343956D01*
X167955732Y-37050886D01*
X168026181Y-36703000D01*
X168026181Y-34163000D01*
X167965029Y-33838003D01*
X167772956Y-33539514D01*
X167479886Y-33339268D01*
X167132000Y-33268819D01*
X164592000Y-33268819D01*
X164267003Y-33329971D01*
X163968514Y-33522044D01*
X163768268Y-33815114D01*
X163697819Y-34163000D01*
X162547885Y-34163000D01*
X161999766Y-33613923D01*
X161210938Y-33286374D01*
X160356809Y-33285628D01*
X159567411Y-33611801D01*
X158962923Y-34215234D01*
X158635374Y-35004062D01*
X158634628Y-35858191D01*
X149738181Y-35858191D01*
X149738181Y-34163000D01*
X149677029Y-33838003D01*
X149484956Y-33539514D01*
X149191886Y-33339268D01*
X148844000Y-33268819D01*
X146304000Y-33268819D01*
X145979003Y-33329971D01*
X145680514Y-33522044D01*
X145480268Y-33815114D01*
X145409819Y-34163000D01*
X144259885Y-34163000D01*
X143711766Y-33613923D01*
X142922938Y-33286374D01*
X142068809Y-33285628D01*
X141279411Y-33611801D01*
X140674923Y-34215234D01*
X140347374Y-35004062D01*
X140346628Y-35858191D01*
X131450181Y-35858191D01*
X131450181Y-34163000D01*
X131389029Y-33838003D01*
X131196956Y-33539514D01*
X130903886Y-33339268D01*
X130556000Y-33268819D01*
X128016000Y-33268819D01*
X127691003Y-33329971D01*
X127392514Y-33522044D01*
X127192268Y-33815114D01*
X127121819Y-34163000D01*
X125971885Y-34163000D01*
X125423766Y-33613923D01*
X124634938Y-33286374D01*
X123780809Y-33285628D01*
X122991411Y-33611801D01*
X122386923Y-34215234D01*
X122059374Y-35004062D01*
X122058628Y-35858191D01*
X113162181Y-35858191D01*
X113162181Y-34163000D01*
X113101029Y-33838003D01*
X112908956Y-33539514D01*
X112615886Y-33339268D01*
X112268000Y-33268819D01*
X109728000Y-33268819D01*
X109403003Y-33329971D01*
X109104514Y-33522044D01*
X108904268Y-33815114D01*
X108833819Y-34163000D01*
X107683885Y-34163000D01*
X107135766Y-33613923D01*
X106346938Y-33286374D01*
X105492809Y-33285628D01*
X104703411Y-33611801D01*
X104098923Y-34215234D01*
X103771374Y-35004062D01*
X103770628Y-35858191D01*
X92392000Y-35858191D01*
X92392000Y-31432000D01*
X179388000Y-31432000D01*
X179388000Y-127318000D01*
X179388000Y-127318000D01*
G37*
X179388000Y-127318000D02*
X92392000Y-127318000D01*
X92392000Y-122809000D01*
X108212890Y-122809000D01*
X108212890Y-123563380D01*
X108367154Y-124084919D01*
X108709260Y-124507724D01*
X109187125Y-124767427D01*
X109259326Y-124781783D01*
X109474000Y-124659162D01*
X109474000Y-122809000D01*
X108212890Y-122809000D01*
X92392000Y-122809000D01*
X92392000Y-121800620D01*
X108212890Y-121800620D01*
X108212890Y-122555000D01*
X109474000Y-122555000D01*
X109474000Y-120704838D01*
X109259326Y-120582217D01*
X109187125Y-120596573D01*
X108709260Y-120856276D01*
X108367154Y-121279081D01*
X108212890Y-121800620D01*
X92392000Y-121800620D01*
X92392000Y-120406016D01*
X98293590Y-120406016D01*
X98349271Y-120636611D01*
X98832078Y-120804622D01*
X99342428Y-120775083D01*
X99676729Y-120636611D01*
X99732410Y-120406016D01*
X99013000Y-119686605D01*
X98293590Y-120406016D01*
X92392000Y-120406016D01*
X92392000Y-119326078D01*
X97715378Y-119326078D01*
X97744917Y-119836428D01*
X97883389Y-120170729D01*
X98113984Y-120226410D01*
X98833395Y-119507000D01*
X99192605Y-119507000D01*
X99912016Y-120226410D01*
X100142611Y-120170729D01*
X100310622Y-119687922D01*
X100281083Y-119177572D01*
X100148298Y-118857000D01*
X102468819Y-118857000D01*
X102468819Y-120157000D01*
X102529971Y-120481997D01*
X102722044Y-120780486D01*
X103015114Y-120980732D01*
X103363000Y-121051181D01*
X104663000Y-121051181D01*
X104987997Y-120990029D01*
X105286486Y-120797956D01*
X105486732Y-120504886D01*
X105557181Y-120157000D01*
X105557181Y-118857000D01*
X105496029Y-118532003D01*
X105303956Y-118233514D01*
X105010886Y-118033268D01*
X104663000Y-117962819D01*
X103363000Y-117962819D01*
X103038003Y-118023971D01*
X102739514Y-118216044D01*
X102539268Y-118509114D01*
X102468819Y-118857000D01*
X100148298Y-118857000D01*
X100142611Y-118843271D01*
X99912016Y-118787590D01*
X99192605Y-119507000D01*
X98833395Y-119507000D01*
X98113984Y-118787590D01*
X97883389Y-118843271D01*
X97715378Y-119326078D01*
X92392000Y-119326078D01*
X92392000Y-118607984D01*
X98293590Y-118607984D01*
X99013000Y-119327395D01*
X99732410Y-118607984D01*
X99676729Y-118377389D01*
X99193922Y-118209378D01*
X98683572Y-118238917D01*
X98349271Y-118377389D01*
X98293590Y-118607984D01*
X92392000Y-118607984D01*
X92392000Y-113847544D01*
X97022571Y-113847544D01*
X97398877Y-114758275D01*
X98095060Y-115455674D01*
X99005133Y-115833569D01*
X99990544Y-115834429D01*
X100901275Y-115458123D01*
X101598674Y-114761940D01*
X101976569Y-113851867D01*
X101977429Y-112866456D01*
X101601123Y-111955725D01*
X100904940Y-111258326D01*
X99994867Y-110880431D01*
X99009456Y-110879571D01*
X98098725Y-111255877D01*
X97401326Y-111952060D01*
X97023431Y-112862133D01*
X97022571Y-113847544D01*
X92392000Y-113847544D01*
X92392000Y-102330041D01*
X108082086Y-102330041D01*
X108321611Y-102836134D01*
X108736577Y-103212041D01*
X109124961Y-103372904D01*
X109347000Y-103250915D01*
X109347000Y-102108000D01*
X108203371Y-102108000D01*
X108082086Y-102330041D01*
X92392000Y-102330041D01*
X92392000Y-100061000D01*
X102341819Y-100061000D01*
X102341819Y-101361000D01*
X102402971Y-101685997D01*
X102595044Y-101984486D01*
X102888114Y-102184732D01*
X103236000Y-102255181D01*
X104536000Y-102255181D01*
X104860997Y-102194029D01*
X105159486Y-102001956D01*
X105359732Y-101708886D01*
X105375310Y-101631959D01*
X108082086Y-101631959D01*
X108203371Y-101854000D01*
X109347000Y-101854000D01*
X109347000Y-100711085D01*
X109124961Y-100589096D01*
X108736577Y-100749959D01*
X108321611Y-101125866D01*
X108082086Y-101631959D01*
X105375310Y-101631959D01*
X105430181Y-101361000D01*
X105430181Y-101114191D01*
X110447686Y-96096686D01*
X110746182Y-95649955D01*
X110775766Y-95501226D01*
X110828182Y-95579672D01*
X111372240Y-95943200D01*
X112014000Y-96070854D01*
X112655760Y-95943200D01*
X113199818Y-95579672D01*
X113284000Y-95453685D01*
X113368182Y-95579672D01*
X113912240Y-95943200D01*
X114554000Y-96070854D01*
X114739253Y-96034005D01*
X114772000Y-96066752D01*
X114772000Y-100661089D01*
X114681000Y-100711085D01*
X114681000Y-101854000D01*
X114701000Y-101854000D01*
X114701000Y-102108000D01*
X114681000Y-102108000D01*
X114681000Y-103250915D01*
X114783146Y-103307034D01*
X114852079Y-103653583D01*
X114861806Y-103668140D01*
X114554000Y-103606914D01*
X113887901Y-103739409D01*
X113323210Y-104116724D01*
X113284000Y-104175406D01*
X113244790Y-104116724D01*
X112680099Y-103739409D01*
X112224998Y-103648884D01*
X112655760Y-103563200D01*
X113199818Y-103199672D01*
X113427223Y-102859336D01*
X113816577Y-103212041D01*
X114204961Y-103372904D01*
X114427000Y-103250915D01*
X114427000Y-102108000D01*
X114407000Y-102108000D01*
X114407000Y-101854000D01*
X114427000Y-101854000D01*
X114427000Y-100711085D01*
X114204961Y-100589096D01*
X113816577Y-100749959D01*
X113427223Y-101102664D01*
X113199818Y-100762328D01*
X112655760Y-100398800D01*
X112014000Y-100271146D01*
X111372240Y-100398800D01*
X110828182Y-100762328D01*
X110600777Y-101102664D01*
X110211423Y-100749959D01*
X109823039Y-100589096D01*
X109601000Y-100711085D01*
X109601000Y-101854000D01*
X109621000Y-101854000D01*
X109621000Y-102108000D01*
X109601000Y-102108000D01*
X109601000Y-103250915D01*
X109823039Y-103372904D01*
X110211423Y-103212041D01*
X110600777Y-102859336D01*
X110828182Y-103199672D01*
X111372240Y-103563200D01*
X111803002Y-103648884D01*
X111347901Y-103739409D01*
X110783210Y-104116724D01*
X110744000Y-104175406D01*
X110704790Y-104116724D01*
X110140099Y-103739409D01*
X109474000Y-103606914D01*
X108807901Y-103739409D01*
X108478464Y-103959532D01*
X108438556Y-103897514D01*
X108145486Y-103697268D01*
X107797600Y-103626819D01*
X106070400Y-103626819D01*
X105745403Y-103687971D01*
X105446914Y-103880044D01*
X105246668Y-104173114D01*
X105176219Y-104521000D01*
X105176219Y-106553000D01*
X105237371Y-106877997D01*
X105429444Y-107176486D01*
X105722514Y-107376732D01*
X105882000Y-107409029D01*
X105882000Y-111887000D01*
X105962079Y-112289583D01*
X106190124Y-112630876D01*
X107968124Y-114408877D01*
X108309417Y-114636921D01*
X108712000Y-114717000D01*
X110890033Y-114717000D01*
X110849417Y-114725079D01*
X110508124Y-114953123D01*
X109659252Y-115801995D01*
X109474000Y-115765146D01*
X108832240Y-115892800D01*
X108288182Y-116256328D01*
X107924654Y-116800386D01*
X107797000Y-117442146D01*
X107797000Y-117507854D01*
X107924654Y-118149614D01*
X108288182Y-118693672D01*
X108832240Y-119057200D01*
X109474000Y-119184854D01*
X110115760Y-119057200D01*
X110659818Y-118693672D01*
X110744000Y-118567685D01*
X110828182Y-118693672D01*
X110962000Y-118783086D01*
X110962000Y-119634000D01*
X111042079Y-120036583D01*
X111270124Y-120377876D01*
X111367286Y-120475038D01*
X110988338Y-120728243D01*
X110717327Y-121133840D01*
X110492740Y-120856276D01*
X110014875Y-120596573D01*
X109942674Y-120582217D01*
X109728000Y-120704838D01*
X109728000Y-122555000D01*
X109748000Y-122555000D01*
X109748000Y-122809000D01*
X109728000Y-122809000D01*
X109728000Y-124659162D01*
X109942674Y-124781783D01*
X110014875Y-124767427D01*
X110492740Y-124507724D01*
X110717327Y-124230160D01*
X110988338Y-124635757D01*
X111517184Y-124989120D01*
X111733370Y-125032122D01*
X112540124Y-125838876D01*
X112881417Y-126066921D01*
X113284000Y-126147000D01*
X115824000Y-126147000D01*
X116226583Y-126066921D01*
X116567876Y-125838876D01*
X117148752Y-125258000D01*
X119601014Y-125258000D01*
X119883386Y-125540865D01*
X120462239Y-125781226D01*
X121089011Y-125781773D01*
X121668283Y-125542423D01*
X122111865Y-125099614D01*
X122352226Y-124520761D01*
X122352580Y-124115000D01*
X124278248Y-124115000D01*
X124281576Y-124118328D01*
X124281227Y-124518011D01*
X124520577Y-125097283D01*
X124963386Y-125540865D01*
X125542239Y-125781226D01*
X126169011Y-125781773D01*
X126748283Y-125542423D01*
X127191865Y-125099614D01*
X127432226Y-124520761D01*
X127432773Y-123893989D01*
X127193423Y-123314717D01*
X126815094Y-122935728D01*
X126989187Y-122761939D01*
X129177124Y-124949876D01*
X129518417Y-125177921D01*
X129562909Y-125186771D01*
X129916386Y-125540865D01*
X130495239Y-125781226D01*
X131122011Y-125781773D01*
X131701283Y-125542423D01*
X132144865Y-125099614D01*
X132385226Y-124520761D01*
X132385245Y-124499508D01*
X132446725Y-124438027D01*
X133419032Y-124438027D01*
X133667179Y-124967490D01*
X134099053Y-125361688D01*
X134514974Y-125533958D01*
X134747000Y-125412817D01*
X134747000Y-124206000D01*
X133539531Y-124206000D01*
X133419032Y-124438027D01*
X132446725Y-124438027D01*
X133643306Y-123241446D01*
X133419032Y-123719973D01*
X133539531Y-123952000D01*
X134747000Y-123952000D01*
X134747000Y-123932000D01*
X135001000Y-123932000D01*
X135001000Y-123952000D01*
X135021000Y-123952000D01*
X135021000Y-124206000D01*
X135001000Y-124206000D01*
X135001000Y-125412817D01*
X135233026Y-125533958D01*
X135648947Y-125361688D01*
X135988197Y-125052033D01*
X136183210Y-125343890D01*
X136747901Y-125721205D01*
X137414000Y-125853700D01*
X138080099Y-125721205D01*
X138644790Y-125343890D01*
X138684000Y-125285208D01*
X138723210Y-125343890D01*
X139287901Y-125721205D01*
X139954000Y-125853700D01*
X140620099Y-125721205D01*
X141184790Y-125343890D01*
X141562105Y-124779199D01*
X141694600Y-124113100D01*
X141694600Y-124044900D01*
X141640272Y-123771774D01*
X141967876Y-123552876D01*
X142195921Y-123211583D01*
X142276000Y-122809000D01*
X151519890Y-122809000D01*
X151519890Y-123563380D01*
X151674154Y-124084919D01*
X152016260Y-124507724D01*
X152494125Y-124767427D01*
X152566326Y-124781783D01*
X152781000Y-124659162D01*
X152781000Y-122809000D01*
X151519890Y-122809000D01*
X142276000Y-122809000D01*
X142276000Y-121800620D01*
X151519890Y-121800620D01*
X151519890Y-122555000D01*
X152781000Y-122555000D01*
X152781000Y-120704838D01*
X152566326Y-120582217D01*
X152494125Y-120596573D01*
X152016260Y-120856276D01*
X151674154Y-121279081D01*
X151519890Y-121800620D01*
X142276000Y-121800620D01*
X142276000Y-119761000D01*
X142195921Y-119358417D01*
X142125484Y-119253000D01*
X142016484Y-119089870D01*
X142494000Y-119184854D01*
X143135760Y-119057200D01*
X143679818Y-118693672D01*
X144043346Y-118149614D01*
X144171000Y-117507854D01*
X144171000Y-117442146D01*
X144043346Y-116800386D01*
X143679818Y-116256328D01*
X143135760Y-115892800D01*
X142494000Y-115765146D01*
X141852240Y-115892800D01*
X141308182Y-116256328D01*
X141224000Y-116382315D01*
X141139818Y-116256328D01*
X140595760Y-115892800D01*
X139954000Y-115765146D01*
X139736000Y-115808509D01*
X139736000Y-114794078D01*
X146911378Y-114794078D01*
X146940917Y-115304428D01*
X147079389Y-115638729D01*
X147309984Y-115694410D01*
X148029395Y-114975000D01*
X147309984Y-114255590D01*
X147079389Y-114311271D01*
X146911378Y-114794078D01*
X139736000Y-114794078D01*
X139736000Y-114075984D01*
X147489590Y-114075984D01*
X148209000Y-114795395D01*
X148928410Y-114075984D01*
X148872729Y-113845389D01*
X148389922Y-113677378D01*
X147879572Y-113706917D01*
X147545271Y-113845389D01*
X147489590Y-114075984D01*
X139736000Y-114075984D01*
X139736000Y-111635752D01*
X140343124Y-112242876D01*
X140684417Y-112470921D01*
X141087000Y-112551000D01*
X144914000Y-112551000D01*
X145316583Y-112470921D01*
X145657876Y-112242876D01*
X149333876Y-108566876D01*
X149561921Y-108225583D01*
X149584315Y-108113000D01*
X149642000Y-107823000D01*
X149642000Y-102416752D01*
X151396339Y-100662414D01*
X151363819Y-100823000D01*
X151363819Y-102123000D01*
X151424971Y-102447997D01*
X151531000Y-102612770D01*
X151531000Y-104267000D01*
X151635818Y-104793955D01*
X151934314Y-105240686D01*
X152922911Y-106229283D01*
X152952400Y-106377536D01*
X153239966Y-106807910D01*
X153670340Y-107095476D01*
X154178000Y-107196456D01*
X154685660Y-107095476D01*
X155068076Y-106839954D01*
X155154065Y-106881981D01*
X155320998Y-106755070D01*
X155320998Y-106922570D01*
X155341000Y-106922570D01*
X155341000Y-106998628D01*
X154496628Y-107843000D01*
X154047458Y-107843000D01*
X153905886Y-107746268D01*
X153558000Y-107675819D01*
X152258000Y-107675819D01*
X151933003Y-107736971D01*
X151634514Y-107929044D01*
X151434268Y-108222114D01*
X151363819Y-108570000D01*
X151363819Y-108816809D01*
X149648314Y-110532314D01*
X149349818Y-110979045D01*
X149245000Y-111506000D01*
X149245000Y-114288667D01*
X149108016Y-114255590D01*
X148388605Y-114975000D01*
X149108016Y-115694410D01*
X149245000Y-115661333D01*
X149245000Y-115888628D01*
X149144910Y-115988718D01*
X148912098Y-115941572D01*
X148928410Y-115874016D01*
X148209000Y-115154605D01*
X147489590Y-115874016D01*
X147505726Y-115940843D01*
X147234003Y-115991971D01*
X146935514Y-116184044D01*
X146735268Y-116477114D01*
X146664819Y-116825000D01*
X146664819Y-118125000D01*
X146725971Y-118449997D01*
X146918044Y-118748486D01*
X147211114Y-118948732D01*
X147559000Y-119019181D01*
X148859000Y-119019181D01*
X149183997Y-118958029D01*
X149348770Y-118852000D01*
X149606000Y-118852000D01*
X150132955Y-118747182D01*
X150579686Y-118448686D01*
X151595686Y-117432686D01*
X151894182Y-116985955D01*
X151954232Y-116684064D01*
X152016260Y-116760724D01*
X152494125Y-117020427D01*
X152566326Y-117034783D01*
X152781000Y-116912162D01*
X152781000Y-115062000D01*
X152761000Y-115062000D01*
X152761000Y-114808000D01*
X152781000Y-114808000D01*
X152781000Y-112957838D01*
X152566326Y-112835217D01*
X152494125Y-112849573D01*
X152016260Y-113109276D01*
X151999000Y-113130607D01*
X151999000Y-112076372D01*
X152654000Y-111421372D01*
X154071000Y-112838372D01*
X154071000Y-113316989D01*
X154024327Y-113386840D01*
X153799740Y-113109276D01*
X153321875Y-112849573D01*
X153249674Y-112835217D01*
X153035000Y-112957838D01*
X153035000Y-114808000D01*
X153055000Y-114808000D01*
X153055000Y-115062000D01*
X153035000Y-115062000D01*
X153035000Y-116912162D01*
X153249674Y-117034783D01*
X153321875Y-117020427D01*
X153799740Y-116760724D01*
X154024327Y-116483160D01*
X154071000Y-116553011D01*
X154071000Y-121063989D01*
X154024327Y-121133840D01*
X153799740Y-120856276D01*
X153321875Y-120596573D01*
X153249674Y-120582217D01*
X153035000Y-120704838D01*
X153035000Y-122555000D01*
X153055000Y-122555000D01*
X153055000Y-122809000D01*
X153035000Y-122809000D01*
X153035000Y-124659162D01*
X153249674Y-124781783D01*
X153321875Y-124767427D01*
X153799740Y-124507724D01*
X154024327Y-124230160D01*
X154295338Y-124635757D01*
X154824184Y-124989120D01*
X155448000Y-125113205D01*
X156071816Y-124989120D01*
X156600662Y-124635757D01*
X156636177Y-124582604D01*
X157078361Y-124878062D01*
X157248675Y-124911939D01*
X157364184Y-124989120D01*
X157988000Y-125113205D01*
X158611816Y-124989120D01*
X158727325Y-124911939D01*
X158897639Y-124878062D01*
X159668793Y-124362793D01*
X160184062Y-123591639D01*
X160365000Y-122682000D01*
X160365000Y-115538586D01*
X163671585Y-112232000D01*
X168785085Y-112232000D01*
X168523431Y-112862133D01*
X168522571Y-113847544D01*
X168898877Y-114758275D01*
X169595060Y-115455674D01*
X170505133Y-115833569D01*
X171490544Y-115834429D01*
X172401275Y-115458123D01*
X173098674Y-114761940D01*
X173476569Y-113851867D01*
X173477429Y-112866456D01*
X173215277Y-112232000D01*
X173990000Y-112232000D01*
X174899639Y-112051062D01*
X175670793Y-111535793D01*
X178210793Y-108995793D01*
X178726062Y-108224639D01*
X178907000Y-107315000D01*
X178907000Y-81874360D01*
X178726062Y-80964721D01*
X178210793Y-80193567D01*
X172622793Y-74605567D01*
X171851638Y-74090298D01*
X170942000Y-73909360D01*
X170032362Y-74090298D01*
X169261207Y-74605567D01*
X168745938Y-75376722D01*
X168565000Y-76286360D01*
X168745938Y-77195998D01*
X169261207Y-77967153D01*
X174153000Y-82858946D01*
X174153000Y-101251617D01*
X174141709Y-101246940D01*
X172551090Y-101246940D01*
X172392340Y-101405690D01*
X172392340Y-103505000D01*
X172412340Y-103505000D01*
X172412340Y-103759000D01*
X172392340Y-103759000D01*
X172392340Y-105858310D01*
X172551090Y-106017060D01*
X174141709Y-106017060D01*
X174153000Y-106012383D01*
X174153000Y-106330414D01*
X173005414Y-107478000D01*
X162687005Y-107478000D01*
X162687000Y-107477999D01*
X161777362Y-107658937D01*
X161531825Y-107823000D01*
X161006207Y-108174207D01*
X161006205Y-108174210D01*
X156825000Y-112355414D01*
X156825000Y-112268000D01*
X156720182Y-111741045D01*
X156421686Y-111294314D01*
X155609300Y-110481928D01*
X156040686Y-110193686D01*
X156115356Y-110119016D01*
X157188590Y-110119016D01*
X157244271Y-110349611D01*
X157727078Y-110517622D01*
X158237428Y-110488083D01*
X158571729Y-110349611D01*
X158627410Y-110119016D01*
X157908000Y-109399605D01*
X157188590Y-110119016D01*
X156115356Y-110119016D01*
X156653105Y-109581267D01*
X156778389Y-109883729D01*
X157008984Y-109939410D01*
X157728395Y-109220000D01*
X158087605Y-109220000D01*
X158807016Y-109939410D01*
X159037611Y-109883729D01*
X159205622Y-109400922D01*
X159176083Y-108890572D01*
X159037611Y-108556271D01*
X158807016Y-108500590D01*
X158087605Y-109220000D01*
X157728395Y-109220000D01*
X157714252Y-109205858D01*
X157893858Y-109026252D01*
X157908000Y-109040395D01*
X158627410Y-108320984D01*
X158571729Y-108090389D01*
X158088922Y-107922378D01*
X158023961Y-107926138D01*
X158095000Y-107569000D01*
X158095000Y-105537000D01*
X158044580Y-105283522D01*
X158044580Y-105204124D01*
X157943600Y-104696464D01*
X157656034Y-104266090D01*
X157225660Y-103978524D01*
X156718000Y-103877544D01*
X156210340Y-103978524D01*
X155827924Y-104234046D01*
X155741935Y-104192019D01*
X155575000Y-104318932D01*
X155575000Y-104572844D01*
X155492400Y-104696464D01*
X155448000Y-104919678D01*
X155403600Y-104696464D01*
X155321000Y-104572844D01*
X155321000Y-104318932D01*
X155154065Y-104192019D01*
X155068076Y-104234046D01*
X154685660Y-103978524D01*
X154537407Y-103949035D01*
X154285000Y-103696628D01*
X154285000Y-102612458D01*
X154381732Y-102470886D01*
X154401753Y-102372016D01*
X157188590Y-102372016D01*
X157244271Y-102602611D01*
X157727078Y-102770622D01*
X158237428Y-102741083D01*
X158571729Y-102602611D01*
X158627410Y-102372016D01*
X157908000Y-101652605D01*
X157188590Y-102372016D01*
X154401753Y-102372016D01*
X154452181Y-102123000D01*
X154452181Y-101292078D01*
X156610378Y-101292078D01*
X156639917Y-101802428D01*
X156778389Y-102136729D01*
X157008984Y-102192410D01*
X157728395Y-101473000D01*
X158087605Y-101473000D01*
X158807016Y-102192410D01*
X159037611Y-102136729D01*
X159205622Y-101653922D01*
X159176083Y-101143572D01*
X159037611Y-100809271D01*
X158807016Y-100753590D01*
X158087605Y-101473000D01*
X157728395Y-101473000D01*
X157008984Y-100753590D01*
X156778389Y-100809271D01*
X156610378Y-101292078D01*
X154452181Y-101292078D01*
X154452181Y-100823000D01*
X154405326Y-100573984D01*
X157188590Y-100573984D01*
X157908000Y-101293395D01*
X158627410Y-100573984D01*
X158571729Y-100343389D01*
X158088922Y-100175378D01*
X157578572Y-100204917D01*
X157244271Y-100343389D01*
X157188590Y-100573984D01*
X154405326Y-100573984D01*
X154391029Y-100498003D01*
X154387810Y-100493000D01*
X154432000Y-100493000D01*
X154834583Y-100412921D01*
X155175876Y-100184876D01*
X158604876Y-96755877D01*
X158832921Y-96414583D01*
X158860089Y-96278000D01*
X158913000Y-96012000D01*
X158913000Y-95671387D01*
X159479146Y-95784000D01*
X159544854Y-95784000D01*
X160186614Y-95656346D01*
X160730672Y-95292818D01*
X161094200Y-94748760D01*
X161178674Y-94324078D01*
X161693180Y-93912474D01*
X161731022Y-93867519D01*
X161779876Y-93834876D01*
X161862148Y-93711748D01*
X161957519Y-93598451D01*
X161975277Y-93542439D01*
X162007921Y-93493583D01*
X162036811Y-93348342D01*
X162081566Y-93207174D01*
X162076537Y-93148629D01*
X162088000Y-93091000D01*
X162088000Y-92369640D01*
X162723000Y-92369640D01*
X162723000Y-102466140D01*
X162903938Y-103375779D01*
X163363304Y-104063268D01*
X163419207Y-104146933D01*
X163621619Y-104349345D01*
X163621619Y-105382060D01*
X163682771Y-105707057D01*
X163874844Y-106005546D01*
X164167914Y-106205792D01*
X164515800Y-106276241D01*
X168015920Y-106276241D01*
X168340917Y-106215089D01*
X168639406Y-106023016D01*
X168839652Y-105729946D01*
X168910101Y-105382060D01*
X168910101Y-103917750D01*
X169880280Y-103917750D01*
X169880280Y-105508370D01*
X169976953Y-105741759D01*
X170155582Y-105920387D01*
X170388971Y-106017060D01*
X171979590Y-106017060D01*
X172138340Y-105858310D01*
X172138340Y-103759000D01*
X170039030Y-103759000D01*
X169880280Y-103917750D01*
X168910101Y-103917750D01*
X168910101Y-101881940D01*
X168848949Y-101556943D01*
X168695232Y-101318060D01*
X168979850Y-101318060D01*
X169138600Y-101159310D01*
X169138600Y-99060000D01*
X169392600Y-99060000D01*
X169392600Y-101159310D01*
X169551350Y-101318060D01*
X170217272Y-101318060D01*
X170155582Y-101343613D01*
X169976953Y-101522241D01*
X169880280Y-101755630D01*
X169880280Y-103346250D01*
X170039030Y-103505000D01*
X172138340Y-103505000D01*
X172138340Y-101405690D01*
X171979590Y-101246940D01*
X171313668Y-101246940D01*
X171375358Y-101221387D01*
X171553987Y-101042759D01*
X171650660Y-100809370D01*
X171650660Y-99218750D01*
X171491910Y-99060000D01*
X169392600Y-99060000D01*
X169138600Y-99060000D01*
X169118600Y-99060000D01*
X169118600Y-98806000D01*
X169138600Y-98806000D01*
X169138600Y-96706690D01*
X169392600Y-96706690D01*
X169392600Y-98806000D01*
X171491910Y-98806000D01*
X171650660Y-98647250D01*
X171650660Y-97056630D01*
X171553987Y-96823241D01*
X171375358Y-96644613D01*
X171141969Y-96547940D01*
X169551350Y-96547940D01*
X169392600Y-96706690D01*
X169138600Y-96706690D01*
X168979850Y-96547940D01*
X167477000Y-96547940D01*
X167477000Y-93984640D01*
X170942000Y-93984640D01*
X171851639Y-93803702D01*
X172622793Y-93288433D01*
X173138062Y-92517279D01*
X173319000Y-91607640D01*
X173138062Y-90698001D01*
X172622793Y-89926847D01*
X171851639Y-89411578D01*
X170942000Y-89230640D01*
X165862000Y-89230640D01*
X164952361Y-89411578D01*
X164264281Y-89871339D01*
X164181207Y-89926847D01*
X163419207Y-90688847D01*
X162903938Y-91460001D01*
X162723000Y-92369640D01*
X162088000Y-92369640D01*
X162088000Y-88519000D01*
X162067892Y-88417911D01*
X162068000Y-88314845D01*
X162028241Y-88218574D01*
X162007921Y-88116417D01*
X161950660Y-88030721D01*
X161911317Y-87935455D01*
X161403317Y-87173455D01*
X161329741Y-87099726D01*
X161271876Y-87013124D01*
X161186179Y-86955863D01*
X161138162Y-86907746D01*
X161221854Y-86487000D01*
X161100722Y-85878030D01*
X163557876Y-83420876D01*
X163785921Y-83079583D01*
X163819081Y-82912876D01*
X163866000Y-82677000D01*
X163866000Y-76828473D01*
X164121597Y-77447065D01*
X164698260Y-78024735D01*
X165452091Y-78337753D01*
X166268328Y-78338465D01*
X167022705Y-78026763D01*
X167600375Y-77450100D01*
X167913393Y-76696269D01*
X167914105Y-75880032D01*
X167602403Y-75125655D01*
X167025740Y-74547985D01*
X166271909Y-74234967D01*
X165455672Y-74234255D01*
X164701295Y-74545957D01*
X164123625Y-75122620D01*
X163866000Y-75743050D01*
X163866000Y-71627877D01*
X164892169Y-70396474D01*
X164967901Y-70257313D01*
X165055921Y-70125583D01*
X165065329Y-70078288D01*
X165088377Y-70035936D01*
X165105090Y-69878396D01*
X165136000Y-69723000D01*
X165136000Y-67128818D01*
X165371078Y-67210622D01*
X165881428Y-67181083D01*
X166215729Y-67042611D01*
X166271410Y-66812016D01*
X165552000Y-66092605D01*
X165537858Y-66106748D01*
X165358253Y-65927143D01*
X165372395Y-65913000D01*
X165731605Y-65913000D01*
X166451016Y-66632410D01*
X166681611Y-66576729D01*
X166849622Y-66093922D01*
X166846502Y-66040000D01*
X169810430Y-66040000D01*
X169810430Y-66539110D01*
X169964501Y-67059677D01*
X170306056Y-67481658D01*
X170783097Y-67740810D01*
X170854725Y-67754993D01*
X171069000Y-67632339D01*
X171069000Y-66040000D01*
X169810430Y-66040000D01*
X166846502Y-66040000D01*
X166820083Y-65583572D01*
X166697194Y-65286890D01*
X169810430Y-65286890D01*
X169810430Y-65786000D01*
X171069000Y-65786000D01*
X171069000Y-64193661D01*
X170854725Y-64071007D01*
X170783097Y-64085190D01*
X170306056Y-64344342D01*
X169964501Y-64766323D01*
X169810430Y-65286890D01*
X166697194Y-65286890D01*
X166681611Y-65249271D01*
X166451016Y-65193590D01*
X165731605Y-65913000D01*
X165372395Y-65913000D01*
X165358253Y-65898858D01*
X165537858Y-65719252D01*
X165552000Y-65733395D01*
X166271410Y-65013984D01*
X166215729Y-64783389D01*
X165732922Y-64615378D01*
X165251652Y-64643234D01*
X166091852Y-63663000D01*
X174570248Y-63663000D01*
X175127217Y-64219969D01*
X175125134Y-64221360D01*
X175006000Y-64399657D01*
X174886866Y-64221360D01*
X174358844Y-63868547D01*
X173736000Y-63744656D01*
X173113156Y-63868547D01*
X172585134Y-64221360D01*
X172314382Y-64626570D01*
X172085944Y-64344342D01*
X171608903Y-64085190D01*
X171537275Y-64071007D01*
X171323000Y-64193661D01*
X171323000Y-65786000D01*
X171343000Y-65786000D01*
X171343000Y-66040000D01*
X171323000Y-66040000D01*
X171323000Y-67632339D01*
X171537275Y-67754993D01*
X171608903Y-67740810D01*
X172085944Y-67481658D01*
X172314382Y-67199430D01*
X172585134Y-67604640D01*
X173113156Y-67957453D01*
X173736000Y-68081344D01*
X174358844Y-67957453D01*
X174886866Y-67604640D01*
X175006000Y-67426343D01*
X175125134Y-67604640D01*
X175653156Y-67957453D01*
X176276000Y-68081344D01*
X176898844Y-67957453D01*
X177426866Y-67604640D01*
X177779679Y-67076618D01*
X177903570Y-66453774D01*
X177903570Y-65372226D01*
X177779679Y-64749382D01*
X177426866Y-64221360D01*
X177328000Y-64155300D01*
X177328000Y-63881000D01*
X177247921Y-63478417D01*
X177019876Y-63137124D01*
X175749876Y-61867124D01*
X175408583Y-61639079D01*
X175006000Y-61559000D01*
X165608000Y-61559000D01*
X165567903Y-61566976D01*
X165527315Y-61562099D01*
X165367848Y-61606769D01*
X165205417Y-61639079D01*
X165171424Y-61661792D01*
X165132060Y-61672819D01*
X165001825Y-61775115D01*
X164864124Y-61867124D01*
X164841412Y-61901115D01*
X164809262Y-61926368D01*
X163285262Y-63704367D01*
X163204084Y-63848722D01*
X163112079Y-63986417D01*
X163104103Y-64026513D01*
X163084065Y-64062146D01*
X163064309Y-64226571D01*
X163032000Y-64389000D01*
X163032000Y-64435646D01*
X162702000Y-64368819D01*
X161402000Y-64368819D01*
X161077003Y-64429971D01*
X160778514Y-64622044D01*
X160578268Y-64915114D01*
X160507819Y-65263000D01*
X160507819Y-66563000D01*
X160568971Y-66887997D01*
X160761044Y-67186486D01*
X161054114Y-67386732D01*
X161402000Y-67457181D01*
X162702000Y-67457181D01*
X163026997Y-67396029D01*
X163032000Y-67392810D01*
X163032000Y-69342123D01*
X162281489Y-70242737D01*
X158091570Y-66052818D01*
X158091570Y-65372226D01*
X157967679Y-64749382D01*
X157614866Y-64221360D01*
X157086844Y-63868547D01*
X156464000Y-63744656D01*
X155841156Y-63868547D01*
X155313134Y-64221360D01*
X155194000Y-64399657D01*
X155074866Y-64221360D01*
X154546844Y-63868547D01*
X153924000Y-63744656D01*
X153301156Y-63868547D01*
X152773134Y-64221360D01*
X152502382Y-64626570D01*
X152273944Y-64344342D01*
X151796903Y-64085190D01*
X151725275Y-64071007D01*
X151511000Y-64193661D01*
X151511000Y-65786000D01*
X151531000Y-65786000D01*
X151531000Y-66040000D01*
X151511000Y-66040000D01*
X151511000Y-67632339D01*
X151725275Y-67754993D01*
X151796903Y-67740810D01*
X152273944Y-67481658D01*
X152502382Y-67199430D01*
X152773134Y-67604640D01*
X153301156Y-67957453D01*
X153924000Y-68081344D01*
X154546844Y-67957453D01*
X155074866Y-67604640D01*
X155194000Y-67426343D01*
X155313134Y-67604640D01*
X155841156Y-67957453D01*
X156464000Y-68081344D01*
X157031675Y-67968427D01*
X160746000Y-71682752D01*
X160746000Y-77704122D01*
X160730672Y-77681182D01*
X160186614Y-77317654D01*
X159841348Y-77248976D01*
X159365000Y-76772628D01*
X159365000Y-74164458D01*
X159461732Y-74022886D01*
X159532181Y-73675000D01*
X159532181Y-72375000D01*
X159471029Y-72050003D01*
X159278956Y-71751514D01*
X158985886Y-71551268D01*
X158638000Y-71480819D01*
X157338000Y-71480819D01*
X157013003Y-71541971D01*
X156714514Y-71734044D01*
X156514268Y-72027114D01*
X156443819Y-72375000D01*
X156443819Y-73675000D01*
X156504971Y-73999997D01*
X156611000Y-74164770D01*
X156611000Y-77343000D01*
X156715818Y-77869955D01*
X157014314Y-78316686D01*
X157861122Y-79163494D01*
X157929800Y-79508760D01*
X158293328Y-80052818D01*
X158419315Y-80137000D01*
X158293328Y-80221182D01*
X158203914Y-80355000D01*
X157861000Y-80355000D01*
X157458417Y-80435079D01*
X157117124Y-80663124D01*
X156101124Y-81679124D01*
X155873079Y-82020417D01*
X155793000Y-82423000D01*
X155793000Y-94560248D01*
X153234248Y-97119000D01*
X150749000Y-97119000D01*
X150404000Y-97187625D01*
X150404000Y-94288752D01*
X150458750Y-94234002D01*
X150622084Y-94234002D01*
X150500096Y-94456039D01*
X150660959Y-94844423D01*
X151036866Y-95259389D01*
X151542959Y-95498914D01*
X151765000Y-95377629D01*
X151765000Y-94234000D01*
X152019000Y-94234000D01*
X152019000Y-95377629D01*
X152241041Y-95498914D01*
X152747134Y-95259389D01*
X153123041Y-94844423D01*
X153283904Y-94456039D01*
X153161915Y-94234000D01*
X152019000Y-94234000D01*
X151765000Y-94234000D01*
X151745000Y-94234000D01*
X151745000Y-93980000D01*
X151765000Y-93980000D01*
X151765000Y-93960000D01*
X152019000Y-93960000D01*
X152019000Y-93980000D01*
X153161915Y-93980000D01*
X153283904Y-93757961D01*
X153278690Y-93745372D01*
X153524876Y-93580876D01*
X154921876Y-92183877D01*
X155149921Y-91842583D01*
X155175183Y-91715583D01*
X155230000Y-91440000D01*
X155230000Y-82677000D01*
X155149921Y-82274417D01*
X154921876Y-81933124D01*
X153651876Y-80663124D01*
X153310583Y-80435079D01*
X153244858Y-80422005D01*
X153110672Y-80221182D01*
X152984685Y-80137000D01*
X153110672Y-80052818D01*
X153474200Y-79508760D01*
X153601854Y-78867000D01*
X153474200Y-78225240D01*
X153110672Y-77681182D01*
X152566614Y-77317654D01*
X151924854Y-77190000D01*
X151859146Y-77190000D01*
X151217386Y-77317654D01*
X150912000Y-77521706D01*
X150912000Y-74295000D01*
X150838207Y-73924016D01*
X152268590Y-73924016D01*
X152324271Y-74154611D01*
X152807078Y-74322622D01*
X153317428Y-74293083D01*
X153651729Y-74154611D01*
X153707410Y-73924016D01*
X152988000Y-73204605D01*
X152268590Y-73924016D01*
X150838207Y-73924016D01*
X150831921Y-73892417D01*
X150695821Y-73688729D01*
X150603877Y-73551124D01*
X149896831Y-72844078D01*
X151690378Y-72844078D01*
X151719917Y-73354428D01*
X151858389Y-73688729D01*
X152088984Y-73744410D01*
X152808395Y-73025000D01*
X153167605Y-73025000D01*
X153887016Y-73744410D01*
X154117611Y-73688729D01*
X154285622Y-73205922D01*
X154256083Y-72695572D01*
X154117611Y-72361271D01*
X153887016Y-72305590D01*
X153167605Y-73025000D01*
X152808395Y-73025000D01*
X152088984Y-72305590D01*
X151858389Y-72361271D01*
X151690378Y-72844078D01*
X149896831Y-72844078D01*
X149178737Y-72125984D01*
X152268590Y-72125984D01*
X152988000Y-72845395D01*
X153707410Y-72125984D01*
X153651729Y-71895389D01*
X153168922Y-71727378D01*
X152658572Y-71756917D01*
X152324271Y-71895389D01*
X152268590Y-72125984D01*
X149178737Y-72125984D01*
X144761876Y-67709124D01*
X144420583Y-67481079D01*
X144018000Y-67401000D01*
X143188578Y-67401000D01*
X143214997Y-67396029D01*
X143513486Y-67203956D01*
X143713732Y-66910886D01*
X143733753Y-66812016D01*
X145020590Y-66812016D01*
X145076271Y-67042611D01*
X145559078Y-67210622D01*
X146069428Y-67181083D01*
X146403729Y-67042611D01*
X146459410Y-66812016D01*
X145740000Y-66092605D01*
X145020590Y-66812016D01*
X143733753Y-66812016D01*
X143784181Y-66563000D01*
X143784181Y-65732078D01*
X144442378Y-65732078D01*
X144471917Y-66242428D01*
X144610389Y-66576729D01*
X144840984Y-66632410D01*
X145560395Y-65913000D01*
X145919605Y-65913000D01*
X146639016Y-66632410D01*
X146869611Y-66576729D01*
X147037622Y-66093922D01*
X147034502Y-66040000D01*
X149998430Y-66040000D01*
X149998430Y-66539110D01*
X150152501Y-67059677D01*
X150494056Y-67481658D01*
X150971097Y-67740810D01*
X151042725Y-67754993D01*
X151257000Y-67632339D01*
X151257000Y-66040000D01*
X149998430Y-66040000D01*
X147034502Y-66040000D01*
X147008083Y-65583572D01*
X146885194Y-65286890D01*
X149998430Y-65286890D01*
X149998430Y-65786000D01*
X151257000Y-65786000D01*
X151257000Y-64193661D01*
X151042725Y-64071007D01*
X150971097Y-64085190D01*
X150494056Y-64344342D01*
X150152501Y-64766323D01*
X149998430Y-65286890D01*
X146885194Y-65286890D01*
X146869611Y-65249271D01*
X146639016Y-65193590D01*
X145919605Y-65913000D01*
X145560395Y-65913000D01*
X144840984Y-65193590D01*
X144610389Y-65249271D01*
X144442378Y-65732078D01*
X143784181Y-65732078D01*
X143784181Y-65263000D01*
X143737326Y-65013984D01*
X145020590Y-65013984D01*
X145740000Y-65733395D01*
X146459410Y-65013984D01*
X146403729Y-64783389D01*
X145920922Y-64615378D01*
X145410572Y-64644917D01*
X145076271Y-64783389D01*
X145020590Y-65013984D01*
X143737326Y-65013984D01*
X143723029Y-64938003D01*
X143530956Y-64639514D01*
X143237886Y-64439268D01*
X142890000Y-64368819D01*
X141590000Y-64368819D01*
X141265003Y-64429971D01*
X140966514Y-64622044D01*
X140766268Y-64915114D01*
X140695819Y-65263000D01*
X140695819Y-66056066D01*
X137649876Y-63010124D01*
X137308583Y-62782079D01*
X136906000Y-62702000D01*
X121285000Y-62702000D01*
X120882417Y-62782079D01*
X120541124Y-63010124D01*
X118690248Y-64861000D01*
X117095881Y-64861000D01*
X117073679Y-64749382D01*
X116720866Y-64221360D01*
X116192844Y-63868547D01*
X115570000Y-63744656D01*
X114947156Y-63868547D01*
X114419134Y-64221360D01*
X114300000Y-64399657D01*
X114180866Y-64221360D01*
X113652844Y-63868547D01*
X113030000Y-63744656D01*
X112407156Y-63868547D01*
X111879134Y-64221360D01*
X111608382Y-64626570D01*
X111379944Y-64344342D01*
X110902903Y-64085190D01*
X110831275Y-64071007D01*
X110617000Y-64193661D01*
X110617000Y-65786000D01*
X110637000Y-65786000D01*
X110637000Y-66040000D01*
X110617000Y-66040000D01*
X110617000Y-67632339D01*
X110831275Y-67754993D01*
X110902903Y-67740810D01*
X111379944Y-67481658D01*
X111608382Y-67199430D01*
X111879134Y-67604640D01*
X112407156Y-67957453D01*
X113030000Y-68081344D01*
X113652844Y-67957453D01*
X114180866Y-67604640D01*
X114300000Y-67426343D01*
X114419134Y-67604640D01*
X114947156Y-67957453D01*
X115570000Y-68081344D01*
X116192844Y-67957453D01*
X116720866Y-67604640D01*
X117073679Y-67076618D01*
X117095881Y-66965000D01*
X119126000Y-66965000D01*
X119528583Y-66884921D01*
X119869876Y-66656876D01*
X120883819Y-65642933D01*
X120883819Y-66563000D01*
X120944971Y-66887997D01*
X121137044Y-67186486D01*
X121430114Y-67386732D01*
X121778000Y-67457181D01*
X123078000Y-67457181D01*
X123402997Y-67396029D01*
X123701486Y-67203956D01*
X123901732Y-66910886D01*
X123921753Y-66812016D01*
X125208590Y-66812016D01*
X125264271Y-67042611D01*
X125747078Y-67210622D01*
X126257428Y-67181083D01*
X126591729Y-67042611D01*
X126647410Y-66812016D01*
X125928000Y-66092605D01*
X125208590Y-66812016D01*
X123921753Y-66812016D01*
X123972181Y-66563000D01*
X123972181Y-65732078D01*
X124630378Y-65732078D01*
X124659917Y-66242428D01*
X124798389Y-66576729D01*
X125028984Y-66632410D01*
X125748395Y-65913000D01*
X126107605Y-65913000D01*
X126827016Y-66632410D01*
X127057611Y-66576729D01*
X127225622Y-66093922D01*
X127222502Y-66040000D01*
X130186430Y-66040000D01*
X130186430Y-66539110D01*
X130340501Y-67059677D01*
X130682056Y-67481658D01*
X131159097Y-67740810D01*
X131230725Y-67754993D01*
X131445000Y-67632339D01*
X131445000Y-66040000D01*
X130186430Y-66040000D01*
X127222502Y-66040000D01*
X127196083Y-65583572D01*
X127057611Y-65249271D01*
X126827016Y-65193590D01*
X126107605Y-65913000D01*
X125748395Y-65913000D01*
X125028984Y-65193590D01*
X124798389Y-65249271D01*
X124630378Y-65732078D01*
X123972181Y-65732078D01*
X123972181Y-65263000D01*
X123911029Y-64938003D01*
X123826087Y-64806000D01*
X125258811Y-64806000D01*
X125208590Y-65013984D01*
X125928000Y-65733395D01*
X126647410Y-65013984D01*
X126597189Y-64806000D01*
X130328758Y-64806000D01*
X130186430Y-65286890D01*
X130186430Y-65786000D01*
X131445000Y-65786000D01*
X131445000Y-65766000D01*
X131699000Y-65766000D01*
X131699000Y-65786000D01*
X131719000Y-65786000D01*
X131719000Y-66040000D01*
X131699000Y-66040000D01*
X131699000Y-67632339D01*
X131913275Y-67754993D01*
X131984903Y-67740810D01*
X132461944Y-67481658D01*
X132690382Y-67199430D01*
X132961134Y-67604640D01*
X133489156Y-67957453D01*
X134112000Y-68081344D01*
X134734844Y-67957453D01*
X135262866Y-67604640D01*
X135382000Y-67426343D01*
X135501134Y-67604640D01*
X136029156Y-67957453D01*
X136652000Y-68081344D01*
X137219675Y-67968427D01*
X139210124Y-69958876D01*
X139551417Y-70186921D01*
X139954000Y-70267000D01*
X143074248Y-70267000D01*
X148046000Y-75238753D01*
X148046000Y-85725000D01*
X148126079Y-86127583D01*
X148354124Y-86468876D01*
X150303278Y-88418030D01*
X150182146Y-89027000D01*
X150218995Y-89212252D01*
X147719124Y-91712124D01*
X147491079Y-92053417D01*
X147411000Y-92456000D01*
X147411000Y-96719248D01*
X146689404Y-97440844D01*
X146721000Y-97282000D01*
X146721000Y-89789000D01*
X146640921Y-89386417D01*
X146536834Y-89230640D01*
X146412877Y-89045124D01*
X144634876Y-87267124D01*
X144293583Y-87039079D01*
X143891000Y-86959000D01*
X142040753Y-86959000D01*
X141922920Y-86841167D01*
X142055201Y-86841283D01*
X142655246Y-86593349D01*
X143002203Y-86246998D01*
X143346339Y-86591736D01*
X143945951Y-86840716D01*
X144595201Y-86841283D01*
X145195246Y-86593349D01*
X145654736Y-86134661D01*
X145903716Y-85535049D01*
X145904283Y-84885799D01*
X145656349Y-84285754D01*
X145197661Y-83826264D01*
X144598049Y-83577284D01*
X143948799Y-83576717D01*
X143348754Y-83824651D01*
X143001797Y-84171002D01*
X142657661Y-83826264D01*
X142109329Y-83598577D01*
X141539885Y-83029133D01*
X141713876Y-82912876D01*
X142475877Y-82150876D01*
X142703921Y-81809583D01*
X142784000Y-81407000D01*
X142784000Y-80876820D01*
X143002203Y-80658998D01*
X143346339Y-81003736D01*
X143945951Y-81252716D01*
X144595201Y-81253283D01*
X145195246Y-81005349D01*
X145654736Y-80546661D01*
X145903716Y-79947049D01*
X145904283Y-79297799D01*
X145656349Y-78697754D01*
X145649000Y-78690392D01*
X145649000Y-77978000D01*
X145544182Y-77451045D01*
X145245686Y-77004314D01*
X143594686Y-75353314D01*
X143147955Y-75054818D01*
X142621000Y-74950000D01*
X139139217Y-74950000D01*
X139311218Y-74915787D01*
X139842948Y-74560496D01*
X139912208Y-74456841D01*
X139923673Y-74484519D01*
X140102302Y-74663147D01*
X140335691Y-74759820D01*
X140938250Y-74759820D01*
X141097000Y-74601070D01*
X141097000Y-73152000D01*
X141351000Y-73152000D01*
X141351000Y-74601070D01*
X141509750Y-74759820D01*
X142112309Y-74759820D01*
X142345698Y-74663147D01*
X142524327Y-74484519D01*
X142621000Y-74251130D01*
X142621000Y-73310750D01*
X142462250Y-73152000D01*
X141351000Y-73152000D01*
X141097000Y-73152000D01*
X141077000Y-73152000D01*
X141077000Y-72898000D01*
X141097000Y-72898000D01*
X141097000Y-71448930D01*
X141351000Y-71448930D01*
X141351000Y-72898000D01*
X142462250Y-72898000D01*
X142621000Y-72739250D01*
X142621000Y-71798870D01*
X142524327Y-71565481D01*
X142345698Y-71386853D01*
X142112309Y-71290180D01*
X141509750Y-71290180D01*
X141351000Y-71448930D01*
X141097000Y-71448930D01*
X140938250Y-71290180D01*
X140335691Y-71290180D01*
X140102302Y-71386853D01*
X139923673Y-71565481D01*
X139912208Y-71593159D01*
X139842948Y-71489504D01*
X139311218Y-71134213D01*
X138684000Y-71009452D01*
X138056782Y-71134213D01*
X137525052Y-71489504D01*
X137414000Y-71655705D01*
X137302948Y-71489504D01*
X136771218Y-71134213D01*
X136144000Y-71009452D01*
X135516782Y-71134213D01*
X134985052Y-71489504D01*
X134874000Y-71655705D01*
X134762948Y-71489504D01*
X134231218Y-71134213D01*
X133604000Y-71009452D01*
X132976782Y-71134213D01*
X132445052Y-71489504D01*
X132334000Y-71655705D01*
X132222948Y-71489504D01*
X131691218Y-71134213D01*
X131064000Y-71009452D01*
X130436782Y-71134213D01*
X129905052Y-71489504D01*
X129549761Y-72021234D01*
X129425000Y-72648452D01*
X129425000Y-73401548D01*
X129549761Y-74028766D01*
X129905052Y-74560496D01*
X130436782Y-74915787D01*
X131064000Y-75040548D01*
X131691218Y-74915787D01*
X132222948Y-74560496D01*
X132334000Y-74394295D01*
X132445052Y-74560496D01*
X132976782Y-74915787D01*
X133598222Y-75039399D01*
X133400268Y-75329114D01*
X133329819Y-75677000D01*
X133329819Y-76977000D01*
X133390971Y-77301997D01*
X133583044Y-77600486D01*
X133876114Y-77800732D01*
X134224000Y-77871181D01*
X135524000Y-77871181D01*
X135848997Y-77810029D01*
X136013770Y-77704000D01*
X142050628Y-77704000D01*
X142533220Y-78186592D01*
X142058049Y-77989284D01*
X141408799Y-77988717D01*
X140808754Y-78236651D01*
X140672017Y-78373149D01*
X140587956Y-78242514D01*
X140294886Y-78042268D01*
X139947000Y-77971819D01*
X138437000Y-77971819D01*
X138112003Y-78032971D01*
X137813514Y-78225044D01*
X137613268Y-78518114D01*
X137542819Y-78866000D01*
X137542819Y-80376000D01*
X137603971Y-80700997D01*
X137796044Y-80999486D01*
X137968032Y-81117000D01*
X136225661Y-81117000D01*
X136154201Y-81010052D01*
X135988000Y-80899000D01*
X136154201Y-80787948D01*
X136509492Y-80256218D01*
X136634253Y-79629000D01*
X136509492Y-79001782D01*
X136154201Y-78470052D01*
X135622471Y-78114761D01*
X134995253Y-77990000D01*
X134244747Y-77990000D01*
X133617529Y-78114761D01*
X133085799Y-78470052D01*
X133014339Y-78577000D01*
X132670956Y-78577000D01*
X132599496Y-78470052D01*
X132067766Y-78114761D01*
X131440548Y-77990000D01*
X130687452Y-77990000D01*
X130060234Y-78114761D01*
X129528504Y-78470052D01*
X129457044Y-78577000D01*
X126229011Y-78577000D01*
X126263346Y-78525614D01*
X126391000Y-77883854D01*
X126391000Y-77818146D01*
X126273219Y-77226016D01*
X129154590Y-77226016D01*
X129210271Y-77456611D01*
X129693078Y-77624622D01*
X130203428Y-77595083D01*
X130537729Y-77456611D01*
X130593410Y-77226016D01*
X129874000Y-76506605D01*
X129154590Y-77226016D01*
X126273219Y-77226016D01*
X126263346Y-77176386D01*
X125899818Y-76632328D01*
X125766000Y-76542914D01*
X125766000Y-76508752D01*
X126128674Y-76146078D01*
X128576378Y-76146078D01*
X128605917Y-76656428D01*
X128744389Y-76990729D01*
X128974984Y-77046410D01*
X129694395Y-76327000D01*
X130053605Y-76327000D01*
X130773016Y-77046410D01*
X131003611Y-76990729D01*
X131171622Y-76507922D01*
X131142083Y-75997572D01*
X131003611Y-75663271D01*
X130773016Y-75607590D01*
X130053605Y-76327000D01*
X129694395Y-76327000D01*
X128974984Y-75607590D01*
X128744389Y-75663271D01*
X128576378Y-76146078D01*
X126128674Y-76146078D01*
X126846768Y-75427984D01*
X129154590Y-75427984D01*
X129874000Y-76147395D01*
X130593410Y-75427984D01*
X130537729Y-75197389D01*
X130054922Y-75029378D01*
X129544572Y-75058917D01*
X129210271Y-75197389D01*
X129154590Y-75427984D01*
X126846768Y-75427984D01*
X127238569Y-75036184D01*
X127254000Y-75039253D01*
X127881218Y-74914492D01*
X128412948Y-74559201D01*
X128768239Y-74027471D01*
X128893000Y-73400253D01*
X128893000Y-72649747D01*
X128768239Y-72022529D01*
X128412948Y-71490799D01*
X127881218Y-71135508D01*
X127254000Y-71010747D01*
X126626782Y-71135508D01*
X126095052Y-71490799D01*
X125984000Y-71657000D01*
X125872948Y-71490799D01*
X125341218Y-71135508D01*
X124714000Y-71010747D01*
X124363320Y-71080501D01*
X121827909Y-68545091D01*
X121462284Y-68300788D01*
X121031000Y-68215000D01*
X110093000Y-68215000D01*
X110093000Y-67743959D01*
X110148725Y-67754993D01*
X110363000Y-67632339D01*
X110363000Y-66040000D01*
X110343000Y-66040000D01*
X110343000Y-65786000D01*
X110363000Y-65786000D01*
X110363000Y-64193661D01*
X110208560Y-64105258D01*
X114369083Y-59944736D01*
X114613901Y-60537240D01*
X115099185Y-61023372D01*
X115733565Y-61286790D01*
X116420461Y-61287389D01*
X117055300Y-61025079D01*
X117541432Y-60539795D01*
X117804850Y-59905415D01*
X117805449Y-59218519D01*
X117595677Y-58710830D01*
X122462709Y-58710830D01*
X122462709Y-60410090D01*
X122523861Y-60735087D01*
X122715934Y-61033576D01*
X123009004Y-61233822D01*
X123356890Y-61304271D01*
X125056150Y-61304271D01*
X125381147Y-61243119D01*
X125679636Y-61051046D01*
X125879882Y-60757976D01*
X125950331Y-60410090D01*
X125950331Y-59902401D01*
X132639591Y-59902401D01*
X132901901Y-60537240D01*
X133387185Y-61023372D01*
X134021565Y-61286790D01*
X134708461Y-61287389D01*
X135343300Y-61025079D01*
X135829432Y-60539795D01*
X136092850Y-59905415D01*
X136093449Y-59218519D01*
X135883677Y-58710830D01*
X140750709Y-58710830D01*
X140750709Y-60410090D01*
X140811861Y-60735087D01*
X141003934Y-61033576D01*
X141297004Y-61233822D01*
X141644890Y-61304271D01*
X143344150Y-61304271D01*
X143669147Y-61243119D01*
X143967636Y-61051046D01*
X144167882Y-60757976D01*
X144238331Y-60410090D01*
X144238331Y-59902401D01*
X150927591Y-59902401D01*
X151189901Y-60537240D01*
X151675185Y-61023372D01*
X152309565Y-61286790D01*
X152996461Y-61287389D01*
X153631300Y-61025079D01*
X154117432Y-60539795D01*
X154380850Y-59905415D01*
X154381449Y-59218519D01*
X154171677Y-58710830D01*
X159038709Y-58710830D01*
X159038709Y-60410090D01*
X159099861Y-60735087D01*
X159291934Y-61033576D01*
X159585004Y-61233822D01*
X159932890Y-61304271D01*
X161632150Y-61304271D01*
X161957147Y-61243119D01*
X162255636Y-61051046D01*
X162455882Y-60757976D01*
X162526331Y-60410090D01*
X162526331Y-59902401D01*
X169215591Y-59902401D01*
X169477901Y-60537240D01*
X169963185Y-61023372D01*
X170597565Y-61286790D01*
X171284461Y-61287389D01*
X171919300Y-61025079D01*
X172405432Y-60539795D01*
X172668850Y-59905415D01*
X172669449Y-59218519D01*
X172407139Y-58583680D01*
X171921855Y-58097548D01*
X171287475Y-57834130D01*
X170600579Y-57833531D01*
X169965740Y-58095841D01*
X169479608Y-58581125D01*
X169216190Y-59215505D01*
X169215591Y-59902401D01*
X162526331Y-59902401D01*
X162526331Y-58710830D01*
X162465179Y-58385833D01*
X162273106Y-58087344D01*
X161980036Y-57887098D01*
X161632150Y-57816649D01*
X159932890Y-57816649D01*
X159607893Y-57877801D01*
X159309404Y-58069874D01*
X159109158Y-58362944D01*
X159038709Y-58710830D01*
X154171677Y-58710830D01*
X154119139Y-58583680D01*
X153633855Y-58097548D01*
X152999475Y-57834130D01*
X152312579Y-57833531D01*
X151677740Y-58095841D01*
X151191608Y-58581125D01*
X150928190Y-59215505D01*
X150927591Y-59902401D01*
X144238331Y-59902401D01*
X144238331Y-58710830D01*
X144177179Y-58385833D01*
X143985106Y-58087344D01*
X143692036Y-57887098D01*
X143344150Y-57816649D01*
X141644890Y-57816649D01*
X141319893Y-57877801D01*
X141021404Y-58069874D01*
X140821158Y-58362944D01*
X140750709Y-58710830D01*
X135883677Y-58710830D01*
X135831139Y-58583680D01*
X135345855Y-58097548D01*
X134711475Y-57834130D01*
X134024579Y-57833531D01*
X133389740Y-58095841D01*
X132903608Y-58581125D01*
X132640190Y-59215505D01*
X132639591Y-59902401D01*
X125950331Y-59902401D01*
X125950331Y-58710830D01*
X125889179Y-58385833D01*
X125697106Y-58087344D01*
X125404036Y-57887098D01*
X125056150Y-57816649D01*
X123356890Y-57816649D01*
X123031893Y-57877801D01*
X122733404Y-58069874D01*
X122533158Y-58362944D01*
X122462709Y-58710830D01*
X117595677Y-58710830D01*
X117543139Y-58583680D01*
X117057855Y-58097548D01*
X116423475Y-57834130D01*
X115736579Y-57833531D01*
X115101740Y-58095841D01*
X114919000Y-58278262D01*
X114919000Y-56124619D01*
X122329185Y-56124619D01*
X122614261Y-56814558D01*
X123141666Y-57342884D01*
X123831105Y-57629164D01*
X124577619Y-57629815D01*
X125267558Y-57344739D01*
X125795884Y-56817334D01*
X125984110Y-56364036D01*
X126170261Y-56814558D01*
X126697666Y-57342884D01*
X127387105Y-57629164D01*
X128133619Y-57629815D01*
X128823558Y-57344739D01*
X129351884Y-56817334D01*
X129638164Y-56127895D01*
X129638166Y-56124619D01*
X140617185Y-56124619D01*
X140902261Y-56814558D01*
X141429666Y-57342884D01*
X142119105Y-57629164D01*
X142865619Y-57629815D01*
X143555558Y-57344739D01*
X144083884Y-56817334D01*
X144272110Y-56364036D01*
X144458261Y-56814558D01*
X144985666Y-57342884D01*
X145675105Y-57629164D01*
X146421619Y-57629815D01*
X147111558Y-57344739D01*
X147639884Y-56817334D01*
X147926164Y-56127895D01*
X147926388Y-55870619D01*
X158905185Y-55870619D01*
X159190261Y-56560558D01*
X159717666Y-57088884D01*
X160407105Y-57375164D01*
X161153619Y-57375815D01*
X161843558Y-57090739D01*
X162371884Y-56563334D01*
X162432796Y-56416641D01*
X162492261Y-56560558D01*
X163019666Y-57088884D01*
X163709105Y-57375164D01*
X164455619Y-57375815D01*
X165145558Y-57090739D01*
X165673884Y-56563334D01*
X165960164Y-55873895D01*
X165960815Y-55127381D01*
X165675739Y-54437442D01*
X165148334Y-53909116D01*
X164458895Y-53622836D01*
X163712381Y-53622185D01*
X163022442Y-53907261D01*
X162494116Y-54434666D01*
X162433204Y-54581359D01*
X162373739Y-54437442D01*
X161846334Y-53909116D01*
X161156895Y-53622836D01*
X160410381Y-53622185D01*
X159720442Y-53907261D01*
X159192116Y-54434666D01*
X158905836Y-55124105D01*
X158905185Y-55870619D01*
X147926388Y-55870619D01*
X147926815Y-55381381D01*
X147641739Y-54691442D01*
X147114334Y-54163116D01*
X146424895Y-53876836D01*
X145678381Y-53876185D01*
X144988442Y-54161261D01*
X144460116Y-54688666D01*
X144271890Y-55141964D01*
X144085739Y-54691442D01*
X143558334Y-54163116D01*
X142868895Y-53876836D01*
X142122381Y-53876185D01*
X141432442Y-54161261D01*
X140904116Y-54688666D01*
X140617836Y-55378105D01*
X140617185Y-56124619D01*
X129638166Y-56124619D01*
X129638815Y-55381381D01*
X129353739Y-54691442D01*
X128826334Y-54163116D01*
X128136895Y-53876836D01*
X127390381Y-53876185D01*
X126700442Y-54161261D01*
X126172116Y-54688666D01*
X125983890Y-55141964D01*
X125797739Y-54691442D01*
X125270334Y-54163116D01*
X124580895Y-53876836D01*
X123834381Y-53876185D01*
X123144442Y-54161261D01*
X122616116Y-54688666D01*
X122329836Y-55378105D01*
X122329185Y-56124619D01*
X114919000Y-56124619D01*
X114919000Y-53807078D01*
X115154852Y-54043342D01*
X115752836Y-54291647D01*
X116400323Y-54292212D01*
X116998740Y-54044951D01*
X117456982Y-53587508D01*
X117705287Y-52989524D01*
X117705852Y-52342037D01*
X117481887Y-51800000D01*
X132962607Y-51800000D01*
X132738713Y-52339196D01*
X132738148Y-52986683D01*
X132985409Y-53585100D01*
X133442852Y-54043342D01*
X134040836Y-54291647D01*
X134688323Y-54292212D01*
X135286740Y-54044951D01*
X135744982Y-53587508D01*
X135993287Y-52989524D01*
X135993289Y-52986683D01*
X151026148Y-52986683D01*
X151273409Y-53585100D01*
X151730852Y-54043342D01*
X152328836Y-54291647D01*
X152976323Y-54292212D01*
X153574740Y-54044951D01*
X154032982Y-53587508D01*
X154176996Y-53240683D01*
X169314148Y-53240683D01*
X169561409Y-53839100D01*
X170018852Y-54297342D01*
X170616836Y-54545647D01*
X171264323Y-54546212D01*
X171862740Y-54298951D01*
X172320982Y-53841508D01*
X172569287Y-53243524D01*
X172569852Y-52596037D01*
X172322591Y-51997620D01*
X171865148Y-51539378D01*
X171267164Y-51291073D01*
X170619677Y-51290508D01*
X170021260Y-51537769D01*
X169563018Y-51995212D01*
X169314713Y-52593196D01*
X169314148Y-53240683D01*
X154176996Y-53240683D01*
X154281287Y-52989524D01*
X154281852Y-52342037D01*
X154034591Y-51743620D01*
X153577148Y-51285378D01*
X152979164Y-51037073D01*
X152331677Y-51036508D01*
X151733260Y-51283769D01*
X151275018Y-51741212D01*
X151026713Y-52339196D01*
X151026148Y-52986683D01*
X135993289Y-52986683D01*
X135993852Y-52342037D01*
X135769887Y-51800000D01*
X145288000Y-51800000D01*
X145719284Y-51714212D01*
X146084909Y-51469909D01*
X151088818Y-46466000D01*
X151551993Y-46466000D01*
X151275018Y-46742492D01*
X151026713Y-47340476D01*
X151026148Y-47987963D01*
X151273409Y-48586380D01*
X151730852Y-49044622D01*
X152328836Y-49292927D01*
X152976323Y-49293492D01*
X153574740Y-49046231D01*
X154032982Y-48588788D01*
X154176996Y-48241963D01*
X169314148Y-48241963D01*
X169561409Y-48840380D01*
X170018852Y-49298622D01*
X170616836Y-49546927D01*
X171264323Y-49547492D01*
X171862740Y-49300231D01*
X172320982Y-48842788D01*
X172569287Y-48244804D01*
X172569852Y-47597317D01*
X172322591Y-46998900D01*
X171865148Y-46540658D01*
X171267164Y-46292353D01*
X170619677Y-46291788D01*
X170021260Y-46539049D01*
X169563018Y-46996492D01*
X169314713Y-47594476D01*
X169314148Y-48241963D01*
X154176996Y-48241963D01*
X154281287Y-47990804D01*
X154281852Y-47343317D01*
X154034591Y-46744900D01*
X153756177Y-46466000D01*
X159255589Y-46466000D01*
X159717666Y-46928884D01*
X160407105Y-47215164D01*
X161153619Y-47215815D01*
X161843558Y-46930739D01*
X162371884Y-46403334D01*
X162432796Y-46256641D01*
X162492261Y-46400558D01*
X163019666Y-46928884D01*
X163709105Y-47215164D01*
X164455619Y-47215815D01*
X165145558Y-46930739D01*
X165673884Y-46403334D01*
X165960164Y-45713895D01*
X165960815Y-44967381D01*
X165675739Y-44277442D01*
X165148334Y-43749116D01*
X164458895Y-43462836D01*
X163712381Y-43462185D01*
X163022442Y-43747261D01*
X162494116Y-44274666D01*
X162433204Y-44421359D01*
X162373739Y-44277442D01*
X161846334Y-43749116D01*
X161156895Y-43462836D01*
X160410381Y-43462185D01*
X159720442Y-43747261D01*
X159254891Y-44212000D01*
X150622000Y-44212000D01*
X150190716Y-44297788D01*
X149825091Y-44542091D01*
X144821182Y-49546000D01*
X140134818Y-49546000D01*
X142211573Y-47469245D01*
X142865619Y-47469815D01*
X143555558Y-47184739D01*
X144083884Y-46657334D01*
X144272110Y-46204036D01*
X144458261Y-46654558D01*
X144985666Y-47182884D01*
X145675105Y-47469164D01*
X146421619Y-47469815D01*
X147111558Y-47184739D01*
X147639884Y-46657334D01*
X147926164Y-45967895D01*
X147926815Y-45221381D01*
X147641739Y-44531442D01*
X147114334Y-44003116D01*
X146424895Y-43716836D01*
X145678381Y-43716185D01*
X144988442Y-44001261D01*
X144460116Y-44528666D01*
X144271890Y-44981964D01*
X144085739Y-44531442D01*
X143558334Y-44003116D01*
X142868895Y-43716836D01*
X142122381Y-43716185D01*
X141432442Y-44001261D01*
X140904116Y-44528666D01*
X140617836Y-45218105D01*
X140617262Y-45875920D01*
X137836182Y-48657000D01*
X135676651Y-48657000D01*
X135744982Y-48588788D01*
X135993287Y-47990804D01*
X135993852Y-47343317D01*
X135746591Y-46744900D01*
X135289148Y-46286658D01*
X134691164Y-46038353D01*
X134043677Y-46037788D01*
X133445260Y-46285049D01*
X132987018Y-46742492D01*
X132738713Y-47340476D01*
X132738148Y-47987963D01*
X132985409Y-48586380D01*
X133055906Y-48657000D01*
X117388651Y-48657000D01*
X117456982Y-48588788D01*
X117705287Y-47990804D01*
X117705852Y-47343317D01*
X117458591Y-46744900D01*
X117433734Y-46720000D01*
X122679589Y-46720000D01*
X123141666Y-47182884D01*
X123831105Y-47469164D01*
X124577619Y-47469815D01*
X125267558Y-47184739D01*
X125795884Y-46657334D01*
X125984110Y-46204036D01*
X126170261Y-46654558D01*
X126697666Y-47182884D01*
X127387105Y-47469164D01*
X128133619Y-47469815D01*
X128823558Y-47184739D01*
X129351884Y-46657334D01*
X129638164Y-45967895D01*
X129638815Y-45221381D01*
X129353739Y-44531442D01*
X128826334Y-44003116D01*
X128136895Y-43716836D01*
X127390381Y-43716185D01*
X126700442Y-44001261D01*
X126172116Y-44528666D01*
X125983890Y-44981964D01*
X125797739Y-44531442D01*
X125270334Y-44003116D01*
X124580895Y-43716836D01*
X123834381Y-43716185D01*
X123144442Y-44001261D01*
X122678891Y-44466000D01*
X113665000Y-44466000D01*
X113233716Y-44551788D01*
X112868091Y-44796090D01*
X111217091Y-46447091D01*
X110972788Y-46812716D01*
X110887000Y-47244000D01*
X110887000Y-52016182D01*
X110601000Y-51730182D01*
X110601000Y-47119411D01*
X111063884Y-46657334D01*
X111350164Y-45967895D01*
X111350815Y-45221381D01*
X111065739Y-44531442D01*
X110538334Y-44003116D01*
X109848895Y-43716836D01*
X109102381Y-43716185D01*
X108412442Y-44001261D01*
X107884116Y-44528666D01*
X107695890Y-44981964D01*
X107509739Y-44531442D01*
X106982334Y-44003116D01*
X106292895Y-43716836D01*
X105546381Y-43716185D01*
X104856442Y-44001261D01*
X104328116Y-44528666D01*
X104041836Y-45218105D01*
X104041185Y-45964619D01*
X104326261Y-46654558D01*
X104853666Y-47182884D01*
X105543105Y-47469164D01*
X106289619Y-47469815D01*
X106979558Y-47184739D01*
X107507884Y-46657334D01*
X107696110Y-46204036D01*
X107882261Y-46654558D01*
X108347000Y-47120109D01*
X108347000Y-52197000D01*
X108432788Y-52628284D01*
X108677091Y-52993909D01*
X109559765Y-53876584D01*
X109102381Y-53876185D01*
X108412442Y-54161261D01*
X107884116Y-54688666D01*
X107695890Y-55141964D01*
X107509739Y-54691442D01*
X106982334Y-54163116D01*
X106292895Y-53876836D01*
X105546381Y-53876185D01*
X104856442Y-54161261D01*
X104328116Y-54688666D01*
X104041836Y-55378105D01*
X104041185Y-56124619D01*
X104326261Y-56814558D01*
X104853666Y-57342884D01*
X105543105Y-57629164D01*
X106289619Y-57629815D01*
X106979558Y-57344739D01*
X107507884Y-56817334D01*
X107696110Y-56364036D01*
X107882261Y-56814558D01*
X108409666Y-57342884D01*
X109099105Y-57629164D01*
X109686505Y-57629676D01*
X107662331Y-59653851D01*
X107662331Y-58710830D01*
X107601179Y-58385833D01*
X107409106Y-58087344D01*
X107116036Y-57887098D01*
X106768150Y-57816649D01*
X105068890Y-57816649D01*
X104743893Y-57877801D01*
X104445404Y-58069874D01*
X104245158Y-58362944D01*
X104174709Y-58710830D01*
X104174709Y-60410090D01*
X104235861Y-60735087D01*
X104427934Y-61033576D01*
X104721004Y-61233822D01*
X105068890Y-61304271D01*
X106011911Y-61304271D01*
X105502091Y-61814091D01*
X105257788Y-62179716D01*
X105172000Y-62611000D01*
X105172000Y-64665863D01*
X105026922Y-64615378D01*
X104516572Y-64644917D01*
X104182271Y-64783389D01*
X104126590Y-65013984D01*
X104846000Y-65733395D01*
X104860143Y-65719253D01*
X105039748Y-65898858D01*
X105025605Y-65913000D01*
X105039748Y-65927143D01*
X104860143Y-66106748D01*
X104846000Y-66092605D01*
X104126590Y-66812016D01*
X104182271Y-67042611D01*
X104665078Y-67210622D01*
X105172000Y-67181281D01*
X105172000Y-70993000D01*
X105257788Y-71424284D01*
X105502091Y-71789909D01*
X107534091Y-73821909D01*
X107817819Y-74011490D01*
X107817819Y-74123550D01*
X107878971Y-74448547D01*
X108071044Y-74747036D01*
X108364114Y-74947282D01*
X108712000Y-75017731D01*
X110236000Y-75017731D01*
X110560997Y-74956579D01*
X110859486Y-74764506D01*
X110954405Y-74625587D01*
X110962000Y-74630661D01*
X110962000Y-75107800D01*
X111042079Y-75510383D01*
X111270124Y-75851676D01*
X111634985Y-76216537D01*
X111372240Y-76268800D01*
X110828182Y-76632328D01*
X110744000Y-76758315D01*
X110659818Y-76632328D01*
X110115760Y-76268800D01*
X109474000Y-76141146D01*
X108832240Y-76268800D01*
X108288182Y-76632328D01*
X107924654Y-77176386D01*
X107797000Y-77818146D01*
X107797000Y-77883854D01*
X107924654Y-78525614D01*
X108288182Y-79069672D01*
X108422000Y-79159086D01*
X108422000Y-81026000D01*
X108502079Y-81428583D01*
X108730124Y-81769876D01*
X111058609Y-84098362D01*
X110828182Y-84252328D01*
X110744000Y-84378315D01*
X110659818Y-84252328D01*
X110115760Y-83888800D01*
X109474000Y-83761146D01*
X108832240Y-83888800D01*
X108288182Y-84252328D01*
X107924654Y-84796386D01*
X107797000Y-85438146D01*
X107797000Y-85503854D01*
X107924654Y-86145614D01*
X108288182Y-86689672D01*
X108422000Y-86779086D01*
X108422000Y-87757000D01*
X108502079Y-88159583D01*
X108610649Y-88322069D01*
X108387003Y-88364151D01*
X108088514Y-88556224D01*
X107888268Y-88849294D01*
X107817819Y-89197180D01*
X107817819Y-91396820D01*
X107878971Y-91721817D01*
X108071044Y-92020306D01*
X108097000Y-92038041D01*
X108097000Y-93428452D01*
X107924654Y-93686386D01*
X107797000Y-94328146D01*
X107797000Y-94393854D01*
X107873116Y-94776512D01*
X103482809Y-99166819D01*
X103236000Y-99166819D01*
X102911003Y-99227971D01*
X102612514Y-99420044D01*
X102412268Y-99713114D01*
X102341819Y-100061000D01*
X92392000Y-100061000D01*
X92392000Y-96610016D01*
X103166590Y-96610016D01*
X103222271Y-96840611D01*
X103705078Y-97008622D01*
X104215428Y-96979083D01*
X104549729Y-96840611D01*
X104605410Y-96610016D01*
X103886000Y-95890605D01*
X103166590Y-96610016D01*
X92392000Y-96610016D01*
X92392000Y-95530078D01*
X102588378Y-95530078D01*
X102617917Y-96040428D01*
X102756389Y-96374729D01*
X102986984Y-96430410D01*
X103706395Y-95711000D01*
X104065605Y-95711000D01*
X104785016Y-96430410D01*
X105015611Y-96374729D01*
X105183622Y-95891922D01*
X105154083Y-95381572D01*
X105015611Y-95047271D01*
X104785016Y-94991590D01*
X104065605Y-95711000D01*
X103706395Y-95711000D01*
X102986984Y-94991590D01*
X102756389Y-95047271D01*
X102588378Y-95530078D01*
X92392000Y-95530078D01*
X92392000Y-94811984D01*
X103166590Y-94811984D01*
X103886000Y-95531395D01*
X104605410Y-94811984D01*
X104549729Y-94581389D01*
X104066922Y-94413378D01*
X103556572Y-94442917D01*
X103222271Y-94581389D01*
X103166590Y-94811984D01*
X92392000Y-94811984D01*
X92392000Y-85274016D01*
X103166590Y-85274016D01*
X103222271Y-85504611D01*
X103705078Y-85672622D01*
X104215428Y-85643083D01*
X104549729Y-85504611D01*
X104605410Y-85274016D01*
X103886000Y-84554605D01*
X103166590Y-85274016D01*
X92392000Y-85274016D01*
X92392000Y-84194078D01*
X102588378Y-84194078D01*
X102617917Y-84704428D01*
X102756389Y-85038729D01*
X102986984Y-85094410D01*
X103706395Y-84375000D01*
X104065605Y-84375000D01*
X104785016Y-85094410D01*
X105015611Y-85038729D01*
X105183622Y-84555922D01*
X105154083Y-84045572D01*
X105015611Y-83711271D01*
X104785016Y-83655590D01*
X104065605Y-84375000D01*
X103706395Y-84375000D01*
X102986984Y-83655590D01*
X102756389Y-83711271D01*
X102588378Y-84194078D01*
X92392000Y-84194078D01*
X92392000Y-83475984D01*
X103166590Y-83475984D01*
X103886000Y-84195395D01*
X104605410Y-83475984D01*
X104549729Y-83245389D01*
X104066922Y-83077378D01*
X103556572Y-83106917D01*
X103222271Y-83245389D01*
X103166590Y-83475984D01*
X92392000Y-83475984D01*
X92392000Y-65913000D01*
X99469000Y-65913000D01*
X99469000Y-76835000D01*
X99576437Y-77375121D01*
X99611878Y-77553297D01*
X100018761Y-78162239D01*
X102558760Y-80702239D01*
X103167703Y-81109122D01*
X103886000Y-81251999D01*
X104604296Y-81109122D01*
X105213239Y-80702239D01*
X105620122Y-80093296D01*
X105762999Y-79375000D01*
X105620122Y-78656703D01*
X105213239Y-78047760D01*
X103223000Y-76057522D01*
X103223000Y-65913000D01*
X103187013Y-65732078D01*
X103548378Y-65732078D01*
X103577917Y-66242428D01*
X103716389Y-66576729D01*
X103946984Y-66632410D01*
X104666395Y-65913000D01*
X103946984Y-65193590D01*
X103716389Y-65249271D01*
X103548378Y-65732078D01*
X103187013Y-65732078D01*
X103080122Y-65194703D01*
X102673239Y-64585761D01*
X102064297Y-64178878D01*
X101346000Y-64036000D01*
X100627703Y-64178878D01*
X100018761Y-64585761D01*
X99611878Y-65194703D01*
X99469000Y-65913000D01*
X92392000Y-65913000D01*
X92392000Y-42347544D01*
X97022571Y-42347544D01*
X97398877Y-43258275D01*
X98095060Y-43955674D01*
X99005133Y-44333569D01*
X99990544Y-44334429D01*
X100901275Y-43958123D01*
X101598674Y-43261940D01*
X101976569Y-42351867D01*
X101976572Y-42347544D01*
X168522571Y-42347544D01*
X168898877Y-43258275D01*
X169595060Y-43955674D01*
X170505133Y-44333569D01*
X171490544Y-44334429D01*
X172401275Y-43958123D01*
X173098674Y-43261940D01*
X173476569Y-42351867D01*
X173477429Y-41366456D01*
X173101123Y-40455725D01*
X172404940Y-39758326D01*
X171494867Y-39380431D01*
X170509456Y-39379571D01*
X169598725Y-39755877D01*
X168901326Y-40452060D01*
X168523431Y-41362133D01*
X168522571Y-42347544D01*
X101976572Y-42347544D01*
X101977429Y-41366456D01*
X101601123Y-40455725D01*
X100904940Y-39758326D01*
X99994867Y-39380431D01*
X99009456Y-39379571D01*
X98098725Y-39755877D01*
X97401326Y-40452060D01*
X97023431Y-41362133D01*
X97022571Y-42347544D01*
X92392000Y-42347544D01*
X92392000Y-35858191D01*
X103770628Y-35858191D01*
X104096801Y-36647589D01*
X104700234Y-37252077D01*
X105489062Y-37579626D01*
X106343191Y-37580372D01*
X107132589Y-37254199D01*
X107737077Y-36650766D01*
X108064626Y-35861938D01*
X108065372Y-35007809D01*
X107739199Y-34218411D01*
X107683885Y-34163000D01*
X108833819Y-34163000D01*
X108833819Y-36703000D01*
X108894971Y-37027997D01*
X109087044Y-37326486D01*
X109380114Y-37526732D01*
X109728000Y-37597181D01*
X112268000Y-37597181D01*
X112592997Y-37536029D01*
X112891486Y-37343956D01*
X113091732Y-37050886D01*
X113162181Y-36703000D01*
X113162181Y-35858191D01*
X122058628Y-35858191D01*
X122384801Y-36647589D01*
X122988234Y-37252077D01*
X123777062Y-37579626D01*
X124631191Y-37580372D01*
X125420589Y-37254199D01*
X126025077Y-36650766D01*
X126352626Y-35861938D01*
X126353372Y-35007809D01*
X126027199Y-34218411D01*
X125971885Y-34163000D01*
X127121819Y-34163000D01*
X127121819Y-36703000D01*
X127182971Y-37027997D01*
X127375044Y-37326486D01*
X127668114Y-37526732D01*
X128016000Y-37597181D01*
X130556000Y-37597181D01*
X130880997Y-37536029D01*
X131179486Y-37343956D01*
X131379732Y-37050886D01*
X131450181Y-36703000D01*
X131450181Y-35858191D01*
X140346628Y-35858191D01*
X140672801Y-36647589D01*
X141276234Y-37252077D01*
X142065062Y-37579626D01*
X142919191Y-37580372D01*
X143708589Y-37254199D01*
X144313077Y-36650766D01*
X144640626Y-35861938D01*
X144641372Y-35007809D01*
X144315199Y-34218411D01*
X144259885Y-34163000D01*
X145409819Y-34163000D01*
X145409819Y-36703000D01*
X145470971Y-37027997D01*
X145663044Y-37326486D01*
X145956114Y-37526732D01*
X146304000Y-37597181D01*
X148844000Y-37597181D01*
X149168997Y-37536029D01*
X149467486Y-37343956D01*
X149667732Y-37050886D01*
X149738181Y-36703000D01*
X149738181Y-35858191D01*
X158634628Y-35858191D01*
X158960801Y-36647589D01*
X159564234Y-37252077D01*
X160353062Y-37579626D01*
X161207191Y-37580372D01*
X161996589Y-37254199D01*
X162601077Y-36650766D01*
X162928626Y-35861938D01*
X162929372Y-35007809D01*
X162603199Y-34218411D01*
X162547885Y-34163000D01*
X163697819Y-34163000D01*
X163697819Y-36703000D01*
X163758971Y-37027997D01*
X163951044Y-37326486D01*
X164244114Y-37526732D01*
X164592000Y-37597181D01*
X167132000Y-37597181D01*
X167456997Y-37536029D01*
X167755486Y-37343956D01*
X167955732Y-37050886D01*
X168026181Y-36703000D01*
X168026181Y-34163000D01*
X167965029Y-33838003D01*
X167772956Y-33539514D01*
X167479886Y-33339268D01*
X167132000Y-33268819D01*
X164592000Y-33268819D01*
X164267003Y-33329971D01*
X163968514Y-33522044D01*
X163768268Y-33815114D01*
X163697819Y-34163000D01*
X162547885Y-34163000D01*
X161999766Y-33613923D01*
X161210938Y-33286374D01*
X160356809Y-33285628D01*
X159567411Y-33611801D01*
X158962923Y-34215234D01*
X158635374Y-35004062D01*
X158634628Y-35858191D01*
X149738181Y-35858191D01*
X149738181Y-34163000D01*
X149677029Y-33838003D01*
X149484956Y-33539514D01*
X149191886Y-33339268D01*
X148844000Y-33268819D01*
X146304000Y-33268819D01*
X145979003Y-33329971D01*
X145680514Y-33522044D01*
X145480268Y-33815114D01*
X145409819Y-34163000D01*
X144259885Y-34163000D01*
X143711766Y-33613923D01*
X142922938Y-33286374D01*
X142068809Y-33285628D01*
X141279411Y-33611801D01*
X140674923Y-34215234D01*
X140347374Y-35004062D01*
X140346628Y-35858191D01*
X131450181Y-35858191D01*
X131450181Y-34163000D01*
X131389029Y-33838003D01*
X131196956Y-33539514D01*
X130903886Y-33339268D01*
X130556000Y-33268819D01*
X128016000Y-33268819D01*
X127691003Y-33329971D01*
X127392514Y-33522044D01*
X127192268Y-33815114D01*
X127121819Y-34163000D01*
X125971885Y-34163000D01*
X125423766Y-33613923D01*
X124634938Y-33286374D01*
X123780809Y-33285628D01*
X122991411Y-33611801D01*
X122386923Y-34215234D01*
X122059374Y-35004062D01*
X122058628Y-35858191D01*
X113162181Y-35858191D01*
X113162181Y-34163000D01*
X113101029Y-33838003D01*
X112908956Y-33539514D01*
X112615886Y-33339268D01*
X112268000Y-33268819D01*
X109728000Y-33268819D01*
X109403003Y-33329971D01*
X109104514Y-33522044D01*
X108904268Y-33815114D01*
X108833819Y-34163000D01*
X107683885Y-34163000D01*
X107135766Y-33613923D01*
X106346938Y-33286374D01*
X105492809Y-33285628D01*
X104703411Y-33611801D01*
X104098923Y-34215234D01*
X103771374Y-35004062D01*
X103770628Y-35858191D01*
X92392000Y-35858191D01*
X92392000Y-31432000D01*
X179388000Y-31432000D01*
X179388000Y-127318000D01*
G36*
X131282000Y-111163086D02*
X131282000Y-111887000D01*
X131362079Y-112289583D01*
X131590124Y-112630876D01*
X132552000Y-113592752D01*
X132552000Y-115808509D01*
X132334000Y-115765146D01*
X131692240Y-115892800D01*
X131148182Y-116256328D01*
X131064000Y-116382315D01*
X130979818Y-116256328D01*
X130435760Y-115892800D01*
X129794000Y-115765146D01*
X129152240Y-115892800D01*
X128608182Y-116256328D01*
X128380777Y-116596664D01*
X127991423Y-116243959D01*
X127603039Y-116083096D01*
X127381000Y-116205085D01*
X127381000Y-117348000D01*
X127401000Y-117348000D01*
X127401000Y-117602000D01*
X127381000Y-117602000D01*
X127381000Y-117622000D01*
X127127000Y-117622000D01*
X127127000Y-117602000D01*
X127107000Y-117602000D01*
X127107000Y-117348000D01*
X127127000Y-117348000D01*
X127127000Y-116205085D01*
X126990358Y-116130014D01*
X130767686Y-112352686D01*
X131066182Y-111905955D01*
X131171000Y-111379000D01*
X131171000Y-111088919D01*
X131282000Y-111163086D01*
X131282000Y-111163086D01*
G37*
X131282000Y-111163086D02*
X131282000Y-111887000D01*
X131362079Y-112289583D01*
X131590124Y-112630876D01*
X132552000Y-113592752D01*
X132552000Y-115808509D01*
X132334000Y-115765146D01*
X131692240Y-115892800D01*
X131148182Y-116256328D01*
X131064000Y-116382315D01*
X130979818Y-116256328D01*
X130435760Y-115892800D01*
X129794000Y-115765146D01*
X129152240Y-115892800D01*
X128608182Y-116256328D01*
X128380777Y-116596664D01*
X127991423Y-116243959D01*
X127603039Y-116083096D01*
X127381000Y-116205085D01*
X127381000Y-117348000D01*
X127401000Y-117348000D01*
X127401000Y-117602000D01*
X127381000Y-117602000D01*
X127381000Y-117622000D01*
X127127000Y-117622000D01*
X127127000Y-117602000D01*
X127107000Y-117602000D01*
X127107000Y-117348000D01*
X127127000Y-117348000D01*
X127127000Y-116205085D01*
X126990358Y-116130014D01*
X130767686Y-112352686D01*
X131066182Y-111905955D01*
X131171000Y-111379000D01*
X131171000Y-111088919D01*
X131282000Y-111163086D01*
G36*
X118614044Y-86800498D02*
X118662079Y-87041983D01*
X118890124Y-87383276D01*
X119499724Y-87992877D01*
X119684616Y-88116417D01*
X119841017Y-88220921D01*
X120243600Y-88301000D01*
X123957105Y-88301000D01*
X123672940Y-88357524D01*
X123242566Y-88645090D01*
X122955000Y-89075464D01*
X122854020Y-89583124D01*
X122854020Y-90248876D01*
X122955000Y-90756536D01*
X123242566Y-91186910D01*
X123672940Y-91474476D01*
X124180600Y-91575456D01*
X124688260Y-91474476D01*
X125070676Y-91218954D01*
X125156665Y-91260981D01*
X125323600Y-91134068D01*
X125323600Y-90880156D01*
X125406200Y-90756536D01*
X125450600Y-90533322D01*
X125495000Y-90756536D01*
X125577600Y-90880156D01*
X125577600Y-91134068D01*
X125744535Y-91260981D01*
X125830524Y-91218954D01*
X126212940Y-91474476D01*
X126720600Y-91575456D01*
X127137214Y-91492586D01*
X127401000Y-91756372D01*
X127401000Y-103251000D01*
X127505818Y-103777955D01*
X127649385Y-103992819D01*
X126604000Y-103992819D01*
X126279003Y-104053971D01*
X125980514Y-104246044D01*
X125780268Y-104539114D01*
X125709819Y-104887000D01*
X125709819Y-106187000D01*
X125770971Y-106511997D01*
X125963044Y-106810486D01*
X126202000Y-106973758D01*
X126202000Y-108546914D01*
X126068182Y-108636328D01*
X125840777Y-108976664D01*
X125451423Y-108623959D01*
X125063039Y-108463096D01*
X124841000Y-108585085D01*
X124841000Y-109728000D01*
X124861000Y-109728000D01*
X124861000Y-109982000D01*
X124841000Y-109982000D01*
X124841000Y-111124915D01*
X125063039Y-111246904D01*
X125451423Y-111086041D01*
X125840777Y-110733336D01*
X126068182Y-111073672D01*
X126612240Y-111437200D01*
X127254000Y-111564854D01*
X127761777Y-111463851D01*
X123740314Y-115485314D01*
X123441818Y-115932045D01*
X123373300Y-116276506D01*
X123359818Y-116256328D01*
X122815760Y-115892800D01*
X122174000Y-115765146D01*
X121532240Y-115892800D01*
X120988182Y-116256328D01*
X120904000Y-116382315D01*
X120819818Y-116256328D01*
X120686000Y-116166914D01*
X120686000Y-113411000D01*
X120605921Y-113008417D01*
X120377876Y-112667124D01*
X119488876Y-111778124D01*
X119147583Y-111550079D01*
X118745000Y-111470000D01*
X117570863Y-111470000D01*
X117735760Y-111437200D01*
X118279818Y-111073672D01*
X118364000Y-110947685D01*
X118448182Y-111073672D01*
X118992240Y-111437200D01*
X119634000Y-111564854D01*
X120275760Y-111437200D01*
X120819818Y-111073672D01*
X120904000Y-110947685D01*
X120988182Y-111073672D01*
X121532240Y-111437200D01*
X122174000Y-111564854D01*
X122815760Y-111437200D01*
X123359818Y-111073672D01*
X123587223Y-110733336D01*
X123976577Y-111086041D01*
X124364961Y-111246904D01*
X124587000Y-111124915D01*
X124587000Y-109982000D01*
X124567000Y-109982000D01*
X124567000Y-109728000D01*
X124587000Y-109728000D01*
X124587000Y-108585085D01*
X124364961Y-108463096D01*
X123976577Y-108623959D01*
X123587223Y-108976664D01*
X123359818Y-108636328D01*
X122815760Y-108272800D01*
X122174000Y-108145146D01*
X121988747Y-108181995D01*
X121829000Y-108022248D01*
X121829000Y-106749686D01*
X122073078Y-106834622D01*
X122583428Y-106805083D01*
X122917729Y-106666611D01*
X122973410Y-106436016D01*
X122254000Y-105716605D01*
X122239858Y-105730748D01*
X122060253Y-105551143D01*
X122074395Y-105537000D01*
X122060252Y-105522858D01*
X122239858Y-105343252D01*
X122254000Y-105357395D01*
X122268142Y-105343252D01*
X122447748Y-105522858D01*
X122433605Y-105537000D01*
X123153016Y-106256410D01*
X123383611Y-106200729D01*
X123551622Y-105717922D01*
X123522083Y-105207572D01*
X123383611Y-104873271D01*
X123153018Y-104817590D01*
X123268478Y-104702130D01*
X123237341Y-104670993D01*
X123298876Y-104629876D01*
X124187876Y-103740876D01*
X124415921Y-103399583D01*
X124428131Y-103338198D01*
X124587000Y-103250915D01*
X124587000Y-102108000D01*
X124841000Y-102108000D01*
X124841000Y-103250915D01*
X125063039Y-103372904D01*
X125451423Y-103212041D01*
X125866389Y-102836134D01*
X126105914Y-102330041D01*
X125984629Y-102108000D01*
X124841000Y-102108000D01*
X124587000Y-102108000D01*
X124567000Y-102108000D01*
X124567000Y-101854000D01*
X124587000Y-101854000D01*
X124587000Y-100711085D01*
X124841000Y-100711085D01*
X124841000Y-101854000D01*
X125984629Y-101854000D01*
X126105914Y-101631959D01*
X125866389Y-101125866D01*
X125451423Y-100749959D01*
X125063039Y-100589096D01*
X124841000Y-100711085D01*
X124587000Y-100711085D01*
X124496000Y-100661089D01*
X124496000Y-100638752D01*
X125457876Y-99676876D01*
X125685921Y-99335583D01*
X125708315Y-99223000D01*
X125766000Y-98933000D01*
X125766000Y-95669086D01*
X125899818Y-95579672D01*
X126263346Y-95035614D01*
X126391000Y-94393854D01*
X126391000Y-94328146D01*
X126263346Y-93686386D01*
X125899818Y-93142328D01*
X125355760Y-92778800D01*
X124714000Y-92651146D01*
X124279102Y-92737653D01*
X124187876Y-92601124D01*
X121214847Y-89628095D01*
X121148239Y-89293234D01*
X120792948Y-88761504D01*
X120261218Y-88406213D01*
X119634000Y-88281452D01*
X119193771Y-88369019D01*
X117820998Y-86996246D01*
X118164986Y-86766400D01*
X118563014Y-86766400D01*
X118614044Y-86800498D01*
X118614044Y-86800498D01*
G37*
X118614044Y-86800498D02*
X118662079Y-87041983D01*
X118890124Y-87383276D01*
X119499724Y-87992877D01*
X119684616Y-88116417D01*
X119841017Y-88220921D01*
X120243600Y-88301000D01*
X123957105Y-88301000D01*
X123672940Y-88357524D01*
X123242566Y-88645090D01*
X122955000Y-89075464D01*
X122854020Y-89583124D01*
X122854020Y-90248876D01*
X122955000Y-90756536D01*
X123242566Y-91186910D01*
X123672940Y-91474476D01*
X124180600Y-91575456D01*
X124688260Y-91474476D01*
X125070676Y-91218954D01*
X125156665Y-91260981D01*
X125323600Y-91134068D01*
X125323600Y-90880156D01*
X125406200Y-90756536D01*
X125450600Y-90533322D01*
X125495000Y-90756536D01*
X125577600Y-90880156D01*
X125577600Y-91134068D01*
X125744535Y-91260981D01*
X125830524Y-91218954D01*
X126212940Y-91474476D01*
X126720600Y-91575456D01*
X127137214Y-91492586D01*
X127401000Y-91756372D01*
X127401000Y-103251000D01*
X127505818Y-103777955D01*
X127649385Y-103992819D01*
X126604000Y-103992819D01*
X126279003Y-104053971D01*
X125980514Y-104246044D01*
X125780268Y-104539114D01*
X125709819Y-104887000D01*
X125709819Y-106187000D01*
X125770971Y-106511997D01*
X125963044Y-106810486D01*
X126202000Y-106973758D01*
X126202000Y-108546914D01*
X126068182Y-108636328D01*
X125840777Y-108976664D01*
X125451423Y-108623959D01*
X125063039Y-108463096D01*
X124841000Y-108585085D01*
X124841000Y-109728000D01*
X124861000Y-109728000D01*
X124861000Y-109982000D01*
X124841000Y-109982000D01*
X124841000Y-111124915D01*
X125063039Y-111246904D01*
X125451423Y-111086041D01*
X125840777Y-110733336D01*
X126068182Y-111073672D01*
X126612240Y-111437200D01*
X127254000Y-111564854D01*
X127761777Y-111463851D01*
X123740314Y-115485314D01*
X123441818Y-115932045D01*
X123373300Y-116276506D01*
X123359818Y-116256328D01*
X122815760Y-115892800D01*
X122174000Y-115765146D01*
X121532240Y-115892800D01*
X120988182Y-116256328D01*
X120904000Y-116382315D01*
X120819818Y-116256328D01*
X120686000Y-116166914D01*
X120686000Y-113411000D01*
X120605921Y-113008417D01*
X120377876Y-112667124D01*
X119488876Y-111778124D01*
X119147583Y-111550079D01*
X118745000Y-111470000D01*
X117570863Y-111470000D01*
X117735760Y-111437200D01*
X118279818Y-111073672D01*
X118364000Y-110947685D01*
X118448182Y-111073672D01*
X118992240Y-111437200D01*
X119634000Y-111564854D01*
X120275760Y-111437200D01*
X120819818Y-111073672D01*
X120904000Y-110947685D01*
X120988182Y-111073672D01*
X121532240Y-111437200D01*
X122174000Y-111564854D01*
X122815760Y-111437200D01*
X123359818Y-111073672D01*
X123587223Y-110733336D01*
X123976577Y-111086041D01*
X124364961Y-111246904D01*
X124587000Y-111124915D01*
X124587000Y-109982000D01*
X124567000Y-109982000D01*
X124567000Y-109728000D01*
X124587000Y-109728000D01*
X124587000Y-108585085D01*
X124364961Y-108463096D01*
X123976577Y-108623959D01*
X123587223Y-108976664D01*
X123359818Y-108636328D01*
X122815760Y-108272800D01*
X122174000Y-108145146D01*
X121988747Y-108181995D01*
X121829000Y-108022248D01*
X121829000Y-106749686D01*
X122073078Y-106834622D01*
X122583428Y-106805083D01*
X122917729Y-106666611D01*
X122973410Y-106436016D01*
X122254000Y-105716605D01*
X122239858Y-105730748D01*
X122060253Y-105551143D01*
X122074395Y-105537000D01*
X122060252Y-105522858D01*
X122239858Y-105343252D01*
X122254000Y-105357395D01*
X122268142Y-105343252D01*
X122447748Y-105522858D01*
X122433605Y-105537000D01*
X123153016Y-106256410D01*
X123383611Y-106200729D01*
X123551622Y-105717922D01*
X123522083Y-105207572D01*
X123383611Y-104873271D01*
X123153018Y-104817590D01*
X123268478Y-104702130D01*
X123237341Y-104670993D01*
X123298876Y-104629876D01*
X124187876Y-103740876D01*
X124415921Y-103399583D01*
X124428131Y-103338198D01*
X124587000Y-103250915D01*
X124587000Y-102108000D01*
X124841000Y-102108000D01*
X124841000Y-103250915D01*
X125063039Y-103372904D01*
X125451423Y-103212041D01*
X125866389Y-102836134D01*
X126105914Y-102330041D01*
X125984629Y-102108000D01*
X124841000Y-102108000D01*
X124587000Y-102108000D01*
X124567000Y-102108000D01*
X124567000Y-101854000D01*
X124587000Y-101854000D01*
X124587000Y-100711085D01*
X124841000Y-100711085D01*
X124841000Y-101854000D01*
X125984629Y-101854000D01*
X126105914Y-101631959D01*
X125866389Y-101125866D01*
X125451423Y-100749959D01*
X125063039Y-100589096D01*
X124841000Y-100711085D01*
X124587000Y-100711085D01*
X124496000Y-100661089D01*
X124496000Y-100638752D01*
X125457876Y-99676876D01*
X125685921Y-99335583D01*
X125708315Y-99223000D01*
X125766000Y-98933000D01*
X125766000Y-95669086D01*
X125899818Y-95579672D01*
X126263346Y-95035614D01*
X126391000Y-94393854D01*
X126391000Y-94328146D01*
X126263346Y-93686386D01*
X125899818Y-93142328D01*
X125355760Y-92778800D01*
X124714000Y-92651146D01*
X124279102Y-92737653D01*
X124187876Y-92601124D01*
X121214847Y-89628095D01*
X121148239Y-89293234D01*
X120792948Y-88761504D01*
X120261218Y-88406213D01*
X119634000Y-88281452D01*
X119193771Y-88369019D01*
X117820998Y-86996246D01*
X118164986Y-86766400D01*
X118563014Y-86766400D01*
X118614044Y-86800498D01*
G36*
X129528504Y-88407948D02*
X129632159Y-88477208D01*
X129604481Y-88488673D01*
X129425853Y-88667302D01*
X129329180Y-88900691D01*
X129329180Y-89503250D01*
X129487930Y-89662000D01*
X130937000Y-89662000D01*
X130937000Y-89642000D01*
X131191000Y-89642000D01*
X131191000Y-89662000D01*
X131211000Y-89662000D01*
X131211000Y-89916000D01*
X131191000Y-89916000D01*
X131191000Y-91027250D01*
X131349750Y-91186000D01*
X131790000Y-91186000D01*
X131790000Y-93091000D01*
X131870079Y-93493583D01*
X132098124Y-93834876D01*
X132243291Y-93980043D01*
X132067766Y-93862761D01*
X131440548Y-93738000D01*
X130687452Y-93738000D01*
X130155000Y-93843911D01*
X130155000Y-91186000D01*
X130778250Y-91186000D01*
X130937000Y-91027250D01*
X130937000Y-89916000D01*
X129487930Y-89916000D01*
X129471651Y-89932279D01*
X128481686Y-88942314D01*
X128034955Y-88643818D01*
X127508000Y-88539000D01*
X127499859Y-88539000D01*
X127228260Y-88357524D01*
X126944095Y-88301000D01*
X129457044Y-88301000D01*
X129528504Y-88407948D01*
X129528504Y-88407948D01*
G37*
X129528504Y-88407948D02*
X129632159Y-88477208D01*
X129604481Y-88488673D01*
X129425853Y-88667302D01*
X129329180Y-88900691D01*
X129329180Y-89503250D01*
X129487930Y-89662000D01*
X130937000Y-89662000D01*
X130937000Y-89642000D01*
X131191000Y-89642000D01*
X131191000Y-89662000D01*
X131211000Y-89662000D01*
X131211000Y-89916000D01*
X131191000Y-89916000D01*
X131191000Y-91027250D01*
X131349750Y-91186000D01*
X131790000Y-91186000D01*
X131790000Y-93091000D01*
X131870079Y-93493583D01*
X132098124Y-93834876D01*
X132243291Y-93980043D01*
X132067766Y-93862761D01*
X131440548Y-93738000D01*
X130687452Y-93738000D01*
X130155000Y-93843911D01*
X130155000Y-91186000D01*
X130778250Y-91186000D01*
X130937000Y-91027250D01*
X130937000Y-89916000D01*
X129487930Y-89916000D01*
X129471651Y-89932279D01*
X128481686Y-88942314D01*
X128034955Y-88643818D01*
X127508000Y-88539000D01*
X127499859Y-88539000D01*
X127228260Y-88357524D01*
X126944095Y-88301000D01*
X129457044Y-88301000D01*
X129528504Y-88407948D01*
G36*
X113395052Y-74559201D02*
X113926782Y-74914492D01*
X114554000Y-75039253D01*
X115181218Y-74914492D01*
X115207552Y-74896896D01*
X115156324Y-74948124D01*
X114928279Y-75289417D01*
X114848200Y-75692000D01*
X114848200Y-76489225D01*
X114681000Y-76581085D01*
X114681000Y-77724000D01*
X114701000Y-77724000D01*
X114701000Y-77978000D01*
X114681000Y-77978000D01*
X114681000Y-77998000D01*
X114427000Y-77998000D01*
X114427000Y-77978000D01*
X114407000Y-77978000D01*
X114407000Y-77724000D01*
X114427000Y-77724000D01*
X114427000Y-76581085D01*
X114361400Y-76545044D01*
X114361400Y-76403200D01*
X114281321Y-76000617D01*
X114130516Y-75774921D01*
X114053276Y-75659323D01*
X113066000Y-74672048D01*
X113066000Y-74630661D01*
X113172948Y-74559201D01*
X113284000Y-74393000D01*
X113395052Y-74559201D01*
X113395052Y-74559201D01*
G37*
X113395052Y-74559201D02*
X113926782Y-74914492D01*
X114554000Y-75039253D01*
X115181218Y-74914492D01*
X115207552Y-74896896D01*
X115156324Y-74948124D01*
X114928279Y-75289417D01*
X114848200Y-75692000D01*
X114848200Y-76489225D01*
X114681000Y-76581085D01*
X114681000Y-77724000D01*
X114701000Y-77724000D01*
X114701000Y-77978000D01*
X114681000Y-77978000D01*
X114681000Y-77998000D01*
X114427000Y-77998000D01*
X114427000Y-77978000D01*
X114407000Y-77978000D01*
X114407000Y-77724000D01*
X114427000Y-77724000D01*
X114427000Y-76581085D01*
X114361400Y-76545044D01*
X114361400Y-76403200D01*
X114281321Y-76000617D01*
X114130516Y-75774921D01*
X114053276Y-75659323D01*
X113066000Y-74672048D01*
X113066000Y-74630661D01*
X113172948Y-74559201D01*
X113284000Y-74393000D01*
X113395052Y-74559201D01*
M02*
